<?xml version="1.0" encoding="UTF-8" standalone="no"?>
<svg width="23px" height="23px" viewBox="0 0 23 23" version="1.1" xmlns="http://www.w3.org/2000/svg" xmlns:xlink="http://www.w3.org/1999/xlink" xmlns:sketch="http://www.bohemiancoding.com/sketch/ns">
    <!-- Generator: Sketch 3.0.1 (7597) - http://www.bohemiancoding.com/sketch -->
    <title>editor_setting_gear_glyph</title>
    <description>Created with Sketch.</description>
    <defs></defs>
    <g id="miu" stroke="none" stroke-width="1" fill="none" fill-rule="evenodd" sketch:type="MSPage">
        <path d="M8.5057373,3.92473901 L8.5057373,0.999050675 C8.5057373,0.443353176 8.95336635,0 9.5055448,0 L12.5059298,0 C13.0620207,0 13.5057373,0.447290223 13.5057373,0.999050675 L13.5057373,3.92879471 C13.7573688,4.0179652 14.0028261,4.12018657 14.2412957,4.23464505 L16.3137663,2.16217438 C16.7067038,1.76923691 17.3367234,1.77226042 17.7271725,2.16270953 L19.8487651,4.28430212 C20.2419807,4.67751773 20.2394538,5.30755475 19.8493002,5.6977083 L17.7727828,7.77422573 C17.8859711,8.01144885 17.9870632,8.25555205 18.075261,8.5057373 L21.012424,8.5057373 C21.5681215,8.5057373 22.0114746,8.95336635 22.0114746,9.5055448 L22.0114746,12.5059298 C22.0114746,13.0620206 21.5641844,13.5057373 21.012424,13.5057373 L18.0712053,13.5057373 C17.9830013,13.7546413 17.8820279,13.9975043 17.7690726,14.2335387 L19.8493002,16.3137663 C20.2422377,16.7067038 20.2392142,17.3367234 19.8487651,17.7271725 L17.7271725,19.8487651 C17.3339569,20.2419807 16.7039199,20.2394538 16.3137663,19.8493002 L14.2335387,17.7690726 C13.9975043,17.8820279 13.7546413,17.9830013 13.5057373,18.0712053 L13.5057373,21.0124239 C13.5057373,21.5681214 13.0581083,22.0114746 12.5059298,22.0114746 L9.5055448,22.0114746 C8.94945395,22.0114746 8.5057373,21.5641844 8.5057373,21.0124239 L8.5057373,18.075261 C8.25555206,17.9870632 8.01144885,17.8859711 7.77422573,17.7727828 L5.6977083,19.8493002 C5.3047708,20.2422377 4.67475125,20.2392142 4.28430212,19.8487651 L2.16270953,17.7271725 C1.76949392,17.3339569 1.77202082,16.7039199 2.16217438,16.3137663 L4.23464505,14.2412956 C4.12018657,14.0028261 4.0179652,13.7573688 3.92879471,13.5057373 L0.999050674,13.5057373 C0.443353174,13.5057373 0,13.0581082 0,12.5059298 L0,9.5055448 C0,8.94945395 0.447290224,8.5057373 0.999050674,8.5057373 L3.92473902,8.5057373 C4.01389935,8.25282164 4.11623697,8.00612149 4.23092742,7.76646133 L2.16217438,5.6977083 C1.76923691,5.3047708 1.77226041,4.67475124 2.16270953,4.28430212 L4.28430212,2.16270953 C4.6775177,1.76949392 5.3075547,1.77202082 5.6977083,2.16217438 L7.76646133,4.23092742 C8.0061215,4.11623697 8.25282164,4.01389935 8.5057373,3.92473901 L8.5057373,3.92473901 Z M16,11 C16,8.23857612 13.7614239,6 11,6 C8.23857612,6 6,8.23857612 6,11 C6,13.7614239 8.23857612,16 11,16 C13.7614239,16 16,13.7614239 16,11 Z" id="editor_setting_gear_glyph" fill="#000000" sketch:type="MSShapeGroup"></path>
    </g>
</svg>