<?xml version="1.0" encoding="UTF-8" standalone="no"?>
<!-- Created with Inkscape (http://www.inkscape.org/) -->

<svg
   xmlns:dc="http://purl.org/dc/elements/1.1/"
   xmlns:cc="http://creativecommons.org/ns#"
   xmlns:rdf="http://www.w3.org/1999/02/22-rdf-syntax-ns#"
   xmlns:svg="http://www.w3.org/2000/svg"
   xmlns="http://www.w3.org/2000/svg"
   xmlns:sodipodi="http://sodipodi.sourceforge.net/DTD/sodipodi-0.dtd"
   xmlns:inkscape="http://www.inkscape.org/namespaces/inkscape"
   version="1.1"
   id="svg10"
   width="300"
   height="300"
   viewBox="0 0 300 300"
   sodipodi:docname="analytic.svg"
   inkscape:version="0.92.2 (5c3e80d, 2017-08-06)">
  <metadata
     id="metadata16">
    <rdf:RDF>
      <cc:Work
         rdf:about="">
        <dc:format>image/svg+xml</dc:format>
        <dc:type
           rdf:resource="http://purl.org/dc/dcmitype/StillImage" />
        <dc:title></dc:title>
      </cc:Work>
    </rdf:RDF>
  </metadata>
  <defs
     id="defs14" />
  <sodipodi:namedview
     pagecolor="#ffffff"
     bordercolor="#666666"
     borderopacity="1"
     objecttolerance="10"
     gridtolerance="10"
     guidetolerance="10"
     inkscape:pageopacity="0"
     inkscape:pageshadow="2"
     inkscape:window-width="3840"
     inkscape:window-height="2035"
     id="namedview12"
     showgrid="false"
     inkscape:zoom="5.86"
     inkscape:cx="150.68259"
     inkscape:cy="150"
     inkscape:window-x="-13"
     inkscape:window-y="-13"
     inkscape:window-maximized="1"
     inkscape:current-layer="svg10" />
  <g
     id="g68"
     transform="translate(-0.68259362,-0.51194539)">
    <path
       style="fill:#f2181c"
       d="M 134,289.97598 C 86.915131,285.0818 44.332397,255.40825 22.709521,212.42381 18.000327,203.06234 12.721205,187.63511 10.41657,176.5 7.8149658,163.93006 7.7958767,135.23307 10.380664,122.52245 21.96371,65.563127 65.246719,22.267411 122.5,10.370197 135.62745,7.6423174 164.73968,7.8538962 178,10.773554 218.39652,19.668061 251.90587,44.085155 272.31829,79.5 c 22.8842,39.70331 24.4131,90.41073 3.97921,131.97479 -19.60279,39.87354 -55.33443,67.38938 -99.2975,76.46593 -11.27363,2.32754 -31.14123,3.26791 -43,2.03526 z m 30.48545,-28.55974 c 30.88594,-4.44101 57.19576,-20.02948 75.76166,-44.8885 11.75679,-15.74187 18.63553,-33.22361 21.39054,-54.36225 1.65111,-12.66863 1.65094,-13.96698 -0.003,-26 C 256.57147,99.341217 237.63742,70.405874 206.33041,51.64921 198.94477,47.224324 188.73237,42.917511 178.21612,39.792745 171.18941,37.704849 168.57905,37.503874 149,37.543358 128.46291,37.584774 127.09692,37.709799 118.5,40.334945 80.024695,52.083721 51.80392,80.483219 40.329995,119 37.614764,128.11475 37.5,129.3516 37.5,149.5 c 0,20.02409 0.128031,21.4278 2.755014,30.2056 13.173871,44.01916 48.343853,74.83163 93.244986,81.69206 12.24459,1.87085 18.07916,1.87435 30.98545,0.0186 z M 86.5,223.59952 c -3.953901,-1.7426 -8.449003,-6.31635 -10.14,-10.3174 -5.758589,-13.62534 7.076559,-28.44297 21.776549,-25.1401 4.024511,0.90424 4.654251,0.65082 23.250001,-9.3563 L 140.5,168.5 141.13534,160 c 0.34944,-4.675 0.95623,-9.69475 1.34842,-11.15501 0.67386,-2.50898 -0.28789,-3.40806 -17.4867,-16.3472 -13.92879,-10.47901 -18.704,-13.5646 -20.34841,-13.14848 -1.18176,0.29905 -4.27747,1.09162 -6.879368,1.76127 -14.732547,3.79173 -27.731941,-12.46264 -20.813132,-26.024627 6.874084,-13.474318 25.13771,-14.313781 32.64676,-1.500565 2.21576,3.780916 2.66989,5.7211 2.57959,11.020752 l -0.10961,6.43198 18.06233,13.48094 C 140.0695,131.93358 148.52319,138 148.92119,138 c 0.39801,0 3.39106,-1.45424 6.65123,-3.23165 5.39596,-2.94181 6.71695,-3.23329 14.72907,-3.25 l 8.80149,-0.0183 6.43606,-11 c 3.53983,-6.05 6.44166,-11.80333 6.44851,-12.78518 0.007,-0.98185 -0.70765,-2.8842 -1.58777,-4.22743 -8.10934,-12.376411 2.31819,-29.504789 17.21028,-28.269821 12.67227,1.050884 20.47608,13.412977 15.94947,25.265731 -2.78213,7.28491 -9.24596,11.66565 -17.22996,11.67729 -5.06513,0.007 -5.3038,0.2621 -13.27301,14.16562 l -6.20536,10.82621 3.60594,4.62839 c 8.02907,10.30565 8.36582,22.9402 0.91648,34.38565 -1.70909,2.62592 -1.68331,2.7355 1.69545,7.20813 4.10257,5.43074 4.64897,5.70392 9.3074,4.65327 8.1994,-1.84927 17.36968,2.88337 20.85524,10.76306 6.86276,15.51441 -8.92638,31.30355 -24.44079,24.44079 -8.03198,-3.55292 -12.71667,-12.81323 -10.61554,-20.9839 0.53007,-2.0613 1.181,-4.64781 1.4465,-5.74781 0.3302,-1.36804 -0.8881,-3.54771 -3.85564,-6.89816 l -4.33836,-4.89816 -3.96059,1.30712 c -9.33793,3.08179 -20.13883,0.72853 -27.88921,-6.07639 l -3.8203,-3.35427 -12.09866,6.39345 c -19.30443,10.20129 -23.17234,12.57626 -22.96217,14.09925 0.10833,0.78494 0.62322,3.11367 1.1442,5.17497 3.55705,14.07366 -12.038965,27.2144 -25.34115,21.35171 z"
       id="path74"
       inkscape:connector-curvature="0" />
    <path
       style="fill:#5e5e5e"
       d="M 134,289.97598 C 86.915131,285.0818 44.332397,255.40825 22.709521,212.42381 18.000327,203.06234 12.721205,187.63511 10.41657,176.5 7.8149658,163.93006 7.7958767,135.23307 10.380664,122.52245 21.96371,65.563127 65.246719,22.267411 122.5,10.370197 135.62745,7.6423174 164.73968,7.8538962 178,10.773554 218.39652,19.668061 251.90587,44.085155 272.31829,79.5 c 22.8842,39.70331 24.4131,90.41073 3.97921,131.97479 -19.60279,39.87354 -55.33443,67.38938 -99.2975,76.46593 -11.27363,2.32754 -31.14123,3.26791 -43,2.03526 z m 30.48545,-28.55974 c 30.88594,-4.44101 57.19576,-20.02948 75.76166,-44.8885 11.75679,-15.74187 18.63553,-33.22361 21.39054,-54.36225 1.65111,-12.66863 1.65094,-13.96698 -0.003,-26 C 256.57147,99.341217 237.63742,70.405874 206.33041,51.64921 198.94477,47.224324 188.73237,42.917511 178.21612,39.792745 171.18941,37.704849 168.57905,37.503874 149,37.543358 128.46291,37.584774 127.09692,37.709799 118.5,40.334945 80.024695,52.083721 51.80392,80.483219 40.329995,119 37.614764,128.11475 37.5,129.3516 37.5,149.5 c 0,20.02409 0.128031,21.4278 2.755014,30.2056 13.173871,44.01916 48.343853,74.83163 93.244986,81.69206 12.24459,1.87085 18.07916,1.87435 30.98545,0.0186 z"
       id="path72"
       inkscape:connector-curvature="0" />
    <path
       style="fill:#040404"
       d="M 132,287.9138 C 88.184323,281.12317 54.5423,259.81847 31.703662,224.3985 22.692329,210.42301 16.022736,193.86971 12.404576,176.5 9.8003704,163.99798 9.7372833,135.12655 12.287673,123 16.37201,103.57986 25.032011,83.256073 35.510219,68.5 42.471706,58.696394 55.961716,44.923674 66,37.371242 76.361283,29.575799 97.403706,18.988431 109.23694,15.61684 137.9035,7.449002 169.02739,8.3138775 196.5,18.041719 c 64.80744,22.947817 103.42076,91.330861 89.58179,158.646691 -10.1936,49.58394 -44.91199,88.92931 -92.53208,104.86399 -19.24902,6.44112 -44.3176,9.03206 -61.54971,6.3614 z m 42,-26.29882 c 3.575,-0.85419 9.65,-2.62716 13.5,-3.93993 32.44253,-11.06221 60.33046,-39.50085 70.7774,-72.17505 4.73756,-14.81733 5.21943,-18.22448 5.16219,-36.5 -0.0489,-15.61373 -0.34435,-18.63004 -2.74107,-27.98399 C 249.68774,78.042869 214.2057,44.80289 170.5,36.517011 158.95211,34.327722 136.7908,34.534308 126,36.931838 82.877967,46.512809 49.734945,77.843103 38.329256,119.80751 c -2.162096,7.95489 -2.715419,12.51526 -3.086495,25.43817 -0.795182,27.69267 4.53927,46.61533 19.474551,69.0812 16.816217,25.29521 46.888658,44.1125 77.782688,48.67114 8.71358,1.28575 33.83429,0.44857 41.5,-1.38304 z"
       id="path70"
       inkscape:connector-curvature="0" />
  </g>
</svg>
