<?xml version="1.0" encoding="UTF-8" standalone="no"?>
<svg width="22px" height="22px" preserveAspectRatio="none" viewBox="0 0 20 22" version="1.1" xmlns="http://www.w3.org/2000/svg" xmlns:xlink="http://www.w3.org/1999/xlink" xmlns:sketch="http://www.bohemiancoding.com/sketch/ns">
    <!-- Generator: Sketch 3.0.1 (7597) - http://www.bohemiancoding.com/sketch -->
    <title>editor_attachment_paper_clip_2</title>
    <description>Created with Sketch.</description>
    <defs>
        <path id="path-1" d="M12.3100038,1.22701684 L1.81144683,12.1956475 C1.81144683,12.1956475 -2.14702681,16.3313621 1.63933933,20.2872603 C5.42570548,24.2431586 9.38417646,20.1074467 9.38417646,20.1074467 L19.8827335,9.13881604 C20.3130022,8.68928198 19.4524647,7.79021389 19.022196,8.23974795 L8.523639,19.2083786 C8.523639,19.2083786 5.42570285,22.4450251 2.49987679,19.3881923 C-0.425949257,16.3313594 2.67198429,13.0947156 2.67198429,13.0947156 L13.1705413,2.12608493 C13.1705413,2.12608493 15.0637244,0.148134393 17.1290136,2.30589855 C19.1943028,4.46366274 17.3011211,6.44161177 17.3011211,6.44161177 L6.80256409,17.4102425 C6.80256409,17.4102425 5.42570416,18.8487514 4.22095171,17.5900561 C3.01619884,16.3313612 4.39305921,14.8928518 4.39305921,14.8928518 L14.3752937,4.46366197 C14.8055625,4.01412792 13.945025,3.11505983 13.5147563,3.56459389 L3.53252175,13.9937837 C3.53252175,13.9937837 1.29512252,16.3313627 3.36041425,18.4891242 C5.42570548,20.6468862 7.66310154,18.3093105 7.66310154,18.3093105 L18.1616586,7.34067986 C18.1616586,7.34067986 20.9153774,4.46366302 17.9895511,1.40683046 C15.0637247,-1.6500021 12.3100038,1.22701684 12.3100038,1.22701684 Z"></path>
    </defs>
    <g id="miu" stroke="none" stroke-width="1" fill="none" fill-rule="evenodd" sketch:type="MSPage">
        <g id="editor_attachment_paper_clip_2">
            <use fill="#000000" fill-rule="evenodd" sketch:type="MSShapeGroup" xlink:href="#path-1"></use>
            <use fill="none" xlink:href="#path-1"></use>
        </g>
    </g>
</svg>