<?xml version="1.0" encoding="UTF-8" standalone="no"?>
<svg
   xmlns:dc="http://purl.org/dc/elements/1.1/"
   xmlns:cc="http://creativecommons.org/ns#"
   xmlns:rdf="http://www.w3.org/1999/02/22-rdf-syntax-ns#"
   xmlns:svg="http://www.w3.org/2000/svg"
   xmlns="http://www.w3.org/2000/svg"
   xmlns:sodipodi="http://sodipodi.sourceforge.net/DTD/sodipodi-0.dtd"
   xmlns:inkscape="http://www.inkscape.org/namespaces/inkscape"
   version="1.0"
   width="300.000000pt"
   height="300.000000pt"
   viewBox="0 0 300.000000 300.000000"
   preserveAspectRatio="xMidYMid meet"
   id="svg28"
   sodipodi:docname="avatar1.svg"
   inkscape:version="0.92.2 (5c3e80d, 2017-08-06)">
  <defs
     id="defs32" />
  <sodipodi:namedview
     pagecolor="#ffffff"
     bordercolor="#666666"
     borderopacity="1"
     objecttolerance="10"
     gridtolerance="10"
     guidetolerance="10"
     inkscape:pageopacity="0"
     inkscape:pageshadow="2"
     inkscape:window-width="3840"
     inkscape:window-height="2035"
     id="namedview30"
     showgrid="false"
     inkscape:zoom="0.5"
     inkscape:cx="83.04892"
     inkscape:cy="200"
     inkscape:window-x="-13"
     inkscape:window-y="-13"
     inkscape:window-maximized="1"
     inkscape:current-layer="svg28" />
  <metadata
     id="metadata22">
Created by potrace 1.15, written by Peter Selinger 2001-2017
<rdf:RDF>
  <cc:Work
     rdf:about="">
    <dc:format>image/svg+xml</dc:format>
    <dc:type
       rdf:resource="http://purl.org/dc/dcmitype/StillImage" />
    <dc:title />
  </cc:Work>
</rdf:RDF>
</metadata>
  <g
     transform="translate(0.000000,300.000000) scale(0.100000,-0.100000)"
     fill="#000000"
     stroke="none"
     id="g26">
    <path
       d="M1338 2905 c-190 -23 -334 -67 -495 -150 -131 -68 -237 -146 -344 -254 -191 -193 -302 -391 -379 -681 -11 -42 -27 -156 -35 -260 -7 -87 16 -298 46 -407 85 -317 267 -587 529 -781 83 -62 285 -169 370 -197 327 -105 647 -101 955 12 265 97 520 297 672 526 162 243 243 508 243 792 0 417 -172 793 -488 1068 -212 185 -464 294 -764 331 -145 18 -165 18 -310 1z m356 -281 c421 -82 756 -376 879 -770 45 -142 52 -192 51 -359 0 -141 -4 -172 -27 -258 -61 -225 -148 -378 -302 -532 -158 -159 -332 -255 -565 -311 -94 -23 -354 -26 -445 -6 -256 58 -449 164 -614 338 -333 350 -408 882 -184 1304 162 306 435 512 783 591 101 23 316 24 424 3z"
       id="path24" />
  </g>
  <g
     id="g40">
    <path
       style="fill:#fbe5c8;stroke-width:0.57053465"
       d="m 75.290897,218.63033 c -2.935851,-1.54458 -8.260184,-6.74336 -8.260184,-8.0654 0,-0.56272 1.167402,-5.19513 2.594226,-10.29425 4.031999,-14.40935 8.152531,-21.74916 14.513283,-25.85219 1.442198,-0.9303 7.12373,-2.3719 20.480558,-5.19662 l 18.48469,-3.90916 1.58225,-3.42491 c 0.87023,-1.88371 1.75212,-4.37505 1.95976,-5.53633 0.3626,-2.02804 0.2697,-2.18582 -2.35266,-3.99574 -5.81833,-4.01571 -5.83241,-4.03845 -7.35072,-11.87365 -1.79434,-9.25963 -2.79154,-19.35821 -2.34641,-23.76212 0.30657,-3.03311 0.16287,-3.86766 -1.08125,-6.27901 -3.77594,-7.31855 -1.74192,-23.94491 3.98575,-32.580003 4.55648,-6.869406 12.15079,-11.8436 20.81181,-13.631527 5.79835,-1.196973 16.3906,-1.171915 21.12099,0.04996 9.2128,2.3797 16.92999,8.792603 21.05307,17.494857 4.36968,9.222748 5.15622,19.822433 2.03617,27.440203 -1.25757,3.07042 -1.55412,5.01147 -2.07319,13.57013 -0.33314,5.49297 -1.07246,13.1864 -1.64294,17.09652 l -1.03723,7.10929 -2.95317,2.77569 c -1.62424,1.52664 -2.83908,3.08047 -2.69964,3.45298 0.13943,0.3725 0.71397,3.31536 1.27675,6.53969 0.88019,5.0429 1.19014,5.90109 2.21716,6.13908 0.65666,0.15216 8.57671,1.67043 17.60011,3.37395 11.63282,2.19613 16.97632,3.44999 18.36575,4.30957 3.37349,2.08701 6.95204,6.6715 9.93317,12.72542 3.06366,6.22152 9.7538,23.33544 9.7538,24.95102 0,1.11019 -4.53947,5.11464 -8.12286,7.1655 l -2.42677,1.3889 -71.57486,0.007 c -71.55494,0.007 -71.575489,0.007 -73.847413,-1.1887 z"
       id="path78"
       inkscape:connector-curvature="0" />
    <path
       style="fill:#fde1bb;stroke-width:0.57053465"
       d="m 75.512686,218.68178 c -2.679508,-1.41734 -8.481973,-6.72777 -8.481973,-7.76272 0,-1.34581 4.44637,-17.01723 6.001973,-21.15421 2.704667,-7.1928 6.769347,-12.66812 11.35786,-15.29957 1.601403,-0.91839 7.994674,-2.53166 20.764724,-5.23976 l 18.45092,-3.91281 1.02776,-2.01505 c 1.4451,-2.83325 2.93757,-8.21841 2.54199,-9.17201 -0.18256,-0.44007 -2.09076,-2.0083 -4.24044,-3.48495 -3.89733,-2.67713 -3.91105,-2.69598 -4.79576,-6.58963 -1.85501,-8.16397 -2.77279,-15.54355 -2.89308,-23.26225 -0.11162,-7.1626 -0.26457,-8.25789 -1.47468,-10.56015 -1.11071,-2.11315 -1.39131,-3.64834 -1.58225,-8.65666 -0.7258,-19.037336 8.62078,-32.772419 24.98177,-36.711466 12.4883,-3.006662 25.2457,-1.027762 33.43721,5.186711 8.91184,6.760944 13.67465,17.647998 13.20828,30.192075 -0.17803,4.78835 -0.47039,6.2601 -1.81429,9.13311 -1.43491,3.06759 -1.65359,4.348 -2.096,12.27261 -0.59405,10.64066 -0.93589,14.18052 -1.98445,20.54949 -0.76726,4.66038 -0.90099,4.94211 -3.38678,7.13524 -2.96137,2.6127 -2.96012,2.60462 -1.63401,10.59751 0.81363,4.90399 1.11031,5.73264 2.13844,5.97274 0.65656,0.15332 8.60312,1.68355 17.65901,3.4005 12.97009,2.45906 16.99915,3.43492 18.98032,4.59712 3.1983,1.87621 6.99441,6.69894 9.86694,12.53537 2.52023,5.12063 9.71663,23.58516 9.71663,24.93094 0,1.01466 -5.17174,5.31687 -8.62833,7.17763 l -2.38581,1.28434 -71.33416,-0.0252 c -69.166171,-0.0245 -71.396997,-0.0585 -73.401814,-1.11892 z m 81.617574,-47.12375 c 0,-0.48945 -0.25661,-0.73116 -0.57025,-0.53713 -0.31364,0.19403 -0.57025,0.5945 -0.57025,0.88992 0,0.29542 0.25661,0.53713 0.57025,0.53713 0.31364,0 0.57025,-0.40046 0.57025,-0.88992 z m 6.71639,-46.06774 c 2.17966,-2.32246 3.16166,-5.53573 3.18127,-10.40966 0.0425,-10.57492 -6.19828,-16.106319 -9.92405,-8.79592 -2.73483,5.36606 -1.82108,15.3113 1.73371,18.86964 1.96243,1.96439 3.39084,2.06018 5.00907,0.33594 z"
       id="path76"
       inkscape:connector-curvature="0" />
    <path
       style="fill:#fcd9aa;stroke-width:0.57053465"
       d="m 75.512686,218.68178 c -2.679508,-1.41734 -8.481973,-6.72777 -8.481973,-7.76272 0,-1.34581 4.44637,-17.01723 6.001973,-21.15421 2.705249,-7.19435 6.771876,-12.67156 11.35786,-15.29755 1.600899,-0.91669 7.936183,-2.51145 20.561814,-5.17598 10.0364,-2.11809 18.57734,-4.15439 18.97987,-4.52511 0.90647,-0.83485 3.51661,-8.12408 3.53299,-9.8664 0.009,-0.95706 -0.99722,-1.95156 -3.99013,-3.9437 -3.66043,-2.43645 -4.07233,-2.91205 -4.82402,-5.57004 -1.72157,-6.08756 -2.69184,-13.51046 -2.95402,-22.59938 -0.25561,-8.86127 -0.36221,-9.58738 -1.80156,-12.27261 -1.46504,-2.73314 -1.52824,-3.20488 -1.49113,-11.130976 0.0346,-7.377351 0.20431,-8.778031 1.56209,-12.888188 2.44835,-7.411425 7.31729,-13.850127 13.2437,-17.513491 8.19988,-5.068689 23.25552,-6.908004 32.95423,-4.025948 7.50881,2.231308 14.47765,7.496769 18.33549,13.853781 1.05967,1.746152 2.63916,5.227305 3.50997,7.735895 1.40857,4.057717 1.58626,5.383171 1.61018,12.010337 0.0261,7.22691 -0.0269,7.55916 -1.7734,11.13097 -1.74353,3.56566 -1.81991,4.04156 -2.42321,15.09809 -0.55897,10.24428 -1.10137,15.48276 -2.11954,20.47056 -0.19005,0.931 -1.53876,2.7722 -3.13603,4.28115 l -2.80258,2.64761 1.20269,6.56442 c 0.66148,3.61043 1.30102,6.66467 1.4212,6.78719 0.12018,0.12252 8.08196,1.72114 17.69285,3.55248 13.84138,2.63746 17.99805,3.63693 19.99332,4.8074 3.20195,1.87834 6.99721,6.69896 9.87085,12.53766 2.52023,5.12063 9.71663,23.58516 9.71663,24.93094 0,1.01466 -5.17174,5.31687 -8.62833,7.17763 l -2.38581,1.28434 -71.33416,-0.0252 c -69.166171,-0.0245 -71.396997,-0.0585 -73.401814,-1.11892 z m 80.736654,-44.87596 c 1.33326,-0.51213 2.83688,-3.62402 2.10504,-4.35659 -0.39808,-0.39848 -1.13884,-0.0285 -2.32953,1.16332 -2.46099,2.46344 -2.34042,4.1785 0.22449,3.19327 z m 8.91223,-38.61952 c 3.75203,-2.53102 6.76419,-11.15032 6.7853,-19.41621 0.0123,-4.82047 -1.36257,-11.75532 -3.08701,-15.57071 l -1.30801,-2.894052 -5.84517,-0.774409 -5.84516,-0.774409 -1.0604,1.385183 c -3.66245,4.784227 -5.08771,18.012617 -2.8816,26.745267 1.37765,5.45334 3.63378,9.48185 6.33686,11.31504 2.4068,1.63227 4.46916,1.62757 6.90519,-0.0157 z"
       id="path74"
       inkscape:connector-curvature="0" />
    <path
       style="fill:#fdd299;stroke-width:0.57053465"
       d="m 75.512686,218.68178 c -2.679508,-1.41734 -8.481973,-6.72777 -8.481973,-7.76272 0,-1.34581 4.44637,-17.01723 6.001973,-21.15421 2.705249,-7.19435 6.771876,-12.67156 11.35786,-15.29755 1.607833,-0.92066 7.881489,-2.49239 20.561814,-5.15134 10.0364,-2.10455 18.53063,-3.90773 18.87606,-4.00708 0.85,-0.24447 3.64882,-7.924 3.64882,-10.0118 0,-1.41407 -0.61684,-2.12254 -3.97973,-4.57095 -4.49631,-3.2736 -4.46314,-3.2012 -6.39339,-13.95437 -0.69586,-3.87654 -1.21048,-9.75599 -1.345,-15.36629 -0.11984,-4.99801 -0.44752,-9.23634 -0.72819,-9.41852 -0.28067,-0.18218 -0.99518,-1.23028 -1.58781,-2.3291 -0.92146,-1.70853 -1.0719,-3.19656 -1.03876,-10.274746 0.0346,-7.396301 0.20234,-8.772269 1.57632,-12.933268 4.9055,-14.855963 16.69932,-22.442913 34.9037,-22.453517 11.36458,-0.0066 18.3563,2.555493 24.78314,9.081772 6.79451,6.89964 9.9462,15.041124 9.96675,25.746197 0.0122,6.364082 -0.051,6.705052 -1.95948,10.560152 -1.92653,3.89164 -1.98207,4.20147 -2.4027,13.40225 -0.43535,9.523 -1.25321,17.79352 -2.17305,21.97491 -0.36625,1.66487 -1.2335,2.93399 -3.19596,4.6769 l -2.69331,2.39201 1.05183,6.31163 c 0.5785,3.47141 1.23037,6.60083 1.4486,6.95428 0.21823,0.35345 8.28288,2.14533 17.92146,3.98195 13.88565,2.64589 18.04776,3.64615 20.04366,4.81699 3.20195,1.87834 6.99721,6.69896 9.87085,12.53766 2.52023,5.12063 9.71663,23.58516 9.71663,24.93094 0,1.01466 -5.17174,5.31687 -8.62833,7.17763 l -2.38581,1.28434 -71.33416,-0.0252 c -69.166171,-0.0245 -71.396997,-0.0585 -73.401814,-1.11892 z m 81.841524,-44.85959 c 1.84001,-1.89648 3.15705,-5.02997 2.423,-5.76475 -0.8064,-0.80721 -3.39382,0.64873 -4.9332,2.77589 -3.33275,4.60532 -1.34937,6.9669 2.5102,2.98886 z m 8.25842,-27.30956 c 3.95397,-2.04672 7.68746,-7.91352 9.90067,-15.55791 1.13899,-3.93408 1.28782,-5.69817 1.26695,-15.01786 -0.0222,-9.93821 -0.11449,-10.8291 -1.56614,-15.12671 -2.22904,-6.599062 -2.01389,-6.408082 -5.77683,-5.127744 -2.83434,0.964382 -3.60852,1.005942 -7.21304,0.387221 -2.22085,-0.381214 -5.93698,-1.431261 -8.25805,-2.333437 -4.76689,-1.852834 -4.76942,-1.851797 -6.12879,2.507409 -4.09984,13.147321 -3.18032,29.234641 2.34678,41.057561 3.78997,8.10705 10.18545,11.92543 15.42845,9.21147 z m -42.73424,-14.87825 c 0.014,-1.64121 -0.92729,-9.29251 -2.2998,-18.69432 -1.35254,-9.26505 -2.72041,-2.68768 -1.76769,8.49988 0.35133,4.12552 1.0801,9.25964 1.61951,11.40915 l 0.98073,3.9082 0.72633,-1.70522 c 0.39948,-0.93788 0.73289,-2.47584 0.74092,-3.41769 z"
       id="path72"
       inkscape:connector-curvature="0" />
    <path
       style="fill:#cbcbcb;stroke-width:0.57053465"
       d="m 75.512686,218.68178 c -2.679508,-1.41734 -8.481973,-6.72777 -8.481973,-7.76272 0,-1.34581 4.44637,-17.01723 6.001973,-21.15421 2.705597,-7.19528 6.773389,-12.67362 11.35786,-15.29633 1.5824,-0.90527 7.914203,-2.51646 20.030764,-5.09705 9.74433,-2.07534 18.16251,-3.77335 18.70708,-3.77335 1.30286,0 3.79182,-5.60862 4.1862,-9.43316 l 0.29581,-2.86873 -4.01145,-2.6701 c -2.2063,-1.46855 -4.13845,-3.13161 -4.29366,-3.69568 -1.96938,-7.15691 -3.22601,-17.37272 -3.22969,-26.25597 -0.003,-6.24115 -0.18236,-8.21082 -0.78148,-8.56229 -0.42796,-0.25106 -1.26196,-1.35552 -1.85331,-2.45434 -0.91849,-1.70669 -1.06955,-3.20418 -1.03645,-10.274746 0.0346,-7.396301 0.20234,-8.772269 1.57632,-12.933268 4.9055,-14.855963 16.69932,-22.442913 34.9037,-22.453517 11.36458,-0.0066 18.3563,2.555493 24.78314,9.081772 4.15986,4.224226 6.68138,8.573465 8.63187,14.888631 1.89759,6.143923 1.8929,16.087518 -0.01,20.366078 -0.72295,1.62586 -1.80396,3.39953 -2.40223,3.9415 -1.05521,0.95593 -1.08775,0.90677 -1.08775,-1.64343 0,-2.63032 -3.20247,-12.525634 -4.88621,-15.097911 -0.98782,-1.509101 -1.80326,-1.597022 -4.03005,-0.434515 -4.71202,2.459942 -16.69487,-0.570237 -22.29993,-5.639124 -1.25493,-1.134879 -2.54323,-2.063417 -2.86291,-2.063417 -0.58767,0 -2.41056,6.100572 -3.67939,12.313668 -0.39255,1.922189 -0.68789,7.822069 -0.68373,13.658599 0.008,11.49908 1.01261,17.75663 4.31785,26.90023 2.91868,8.07421 8.54428,15.36833 13.02511,16.88827 1.30022,0.44105 5.65777,-1.97139 10.33733,-5.72298 5.46718,-4.38302 6.5448,-5.62666 7.26389,-8.38292 0.5332,-2.04378 2.49571,-15.20564 3.14915,-21.12031 0.13874,-1.2558 0.13522,1.69819 -0.008,6.56442 -0.14304,4.86623 -0.58645,10.99537 -0.98535,13.6203 -0.71127,4.68031 -0.77917,4.81939 -3.51117,7.19183 l -2.78587,2.41923 1.09054,6.71852 c 0.91562,5.64083 1.27675,6.79532 2.25136,7.19724 0.63844,0.26328 8.69713,1.89576 17.90819,3.62772 18.98912,3.57053 20.14017,4.01278 24.33569,9.35003 1.4037,1.7857 3.56356,5.30166 4.7997,7.81327 2.52023,5.12063 9.71663,23.58516 9.71663,24.93094 0,1.01466 -5.17174,5.31687 -8.62832,7.17763 l -2.38582,1.28434 -71.33415,-0.0252 c -69.166171,-0.0245 -71.396997,-0.0585 -73.401814,-1.11892 z m 79.905664,-41.95209 c 2.92581,-1.5145 6.69164,-7.66525 5.92211,-9.67261 -0.99594,-2.59797 -6.49624,0.97007 -8.78224,5.69703 -1.98121,4.09672 -0.73101,5.83449 2.86013,3.97558 z m -21.31211,-23.95468 c 0.19156,-0.49969 -1.11783,-2.62343 -3.25541,-5.28008 -1.96672,-2.44429 -3.80861,-4.75347 -4.09309,-5.13151 -0.28448,-0.37804 -1.74652,-8.37768 -3.24898,-17.77698 -1.50246,-9.3993 -2.90732,-17.374 -3.12191,-17.72157 -2.21456,-3.58681 -3.4463,9.27018 -2.01898,21.07416 0.71653,5.92565 2.77395,16.47612 3.46865,17.7873 0.54105,1.02116 10.46327,7.88459 11.3985,7.88459 0.30292,0 0.69497,-0.37616 0.87122,-0.83591 z"
       id="path70"
       inkscape:connector-curvature="0" />
    <path
       style="fill:#fdcb89;stroke-width:0.57053465"
       d="m 75.498368,218.10361 c -1.145086,-0.60558 -3.4546,-2.36519 -5.132253,-3.91024 l -3.050277,-2.80918 1.370341,-5.34035 c 4.870427,-18.9805 8.975144,-27.07465 15.737168,-31.03236 1.590466,-0.93087 7.632653,-2.47728 19.958763,-5.10814 9.72277,-2.07521 18.15215,-3.91818 18.73197,-4.09551 1.38935,-0.4249 3.82703,-6.02092 4.20051,-9.64287 l 0.29581,-2.86873 -4.01145,-2.6701 c -2.2063,-1.46855 -4.13845,-3.13161 -4.29366,-3.69568 -1.969,-7.15554 -3.22601,-17.37235 -3.22969,-26.25064 -0.002,-4.85694 -0.23496,-8.24377 -0.58176,-8.45832 -0.31812,-0.1968 -1.14175,-1.43209 -1.83029,-2.74508 -1.09708,-2.09204 -1.25067,-3.26959 -1.24207,-9.522487 0.016,-11.671034 3.02535,-20.06163 9.49005,-26.460274 6.72558,-6.656861 14.77246,-9.490223 26.97285,-9.49733 11.36458,-0.0066 18.3563,2.555493 24.78314,9.081772 4.15986,4.224226 6.68138,8.573465 8.63187,14.888631 1.89759,6.143923 1.8929,16.087518 -0.01,20.366078 -0.72295,1.62586 -1.80396,3.39953 -2.40223,3.9415 -1.05521,0.95593 -1.08775,0.90677 -1.08775,-1.64343 0,-2.63032 -3.20247,-12.525634 -4.88621,-15.097911 -0.98782,-1.509101 -1.80326,-1.597022 -4.03005,-0.434515 -4.71202,2.459942 -16.69487,-0.570237 -22.29993,-5.639124 -1.25493,-1.134879 -2.54323,-2.063417 -2.86291,-2.063417 -0.58767,0 -2.41056,6.100572 -3.67939,12.313668 -0.39255,1.922189 -0.68789,7.822069 -0.68373,13.658599 0.008,11.49908 1.01261,17.75663 4.31785,26.90023 2.91868,8.07421 8.54428,15.36833 13.02511,16.88827 1.30022,0.44105 5.65777,-1.97139 10.33733,-5.72298 5.46718,-4.38302 6.5448,-5.62666 7.26389,-8.38292 0.5332,-2.04378 2.49571,-15.20564 3.14915,-21.12031 0.13874,-1.2558 0.13522,1.69819 -0.008,6.56442 -0.14304,4.86623 -0.58645,10.99537 -0.98535,13.6203 -0.71127,4.68031 -0.77917,4.81939 -3.51117,7.19183 l -2.78587,2.41923 1.08033,6.6556 c 0.59418,3.66058 1.24287,6.91885 1.44151,7.24059 0.19865,0.32174 8.17247,2.07686 17.71961,3.90027 9.54713,1.82341 17.99485,3.65287 18.77272,4.06548 4.42369,2.34647 8.57447,7.5605 11.85608,14.89304 2.41656,5.39967 8.66162,21.87934 8.66162,22.85656 0,0.97094 -6.91088,6.39924 -9.30369,7.3078 -1.1083,0.42082 -23.61881,0.60173 -72.70692,0.58431 -69.102243,-0.0246 -71.160141,-0.0562 -73.183572,-1.12628 z m 79.919982,-41.37392 c 2.92581,-1.5145 6.69164,-7.66525 5.92211,-9.67261 -0.99594,-2.59797 -6.49624,0.97007 -8.78224,5.69703 -1.98121,4.09672 -0.73101,5.83449 2.86013,3.97558 z m -21.31211,-23.95468 c 0.19156,-0.49969 -1.11783,-2.62343 -3.25541,-5.28008 -1.96672,-2.44429 -3.80861,-4.75347 -4.09309,-5.13151 -0.28448,-0.37804 -1.74652,-8.37768 -3.24898,-17.77698 -1.50246,-9.3993 -2.90732,-17.374 -3.12191,-17.72157 -2.21456,-3.58681 -3.4463,9.27018 -2.01898,21.07416 0.71653,5.92565 2.77395,16.47612 3.46865,17.7873 0.54105,1.02116 10.46327,7.88459 11.3985,7.88459 0.30292,0 0.69497,-0.37616 0.87122,-0.83591 z"
       id="path68"
       inkscape:connector-curvature="0" />
    <path
       style="fill:#f3c07e;stroke-width:0.57053465"
       d="m 75.498368,218.10361 c -1.145086,-0.60558 -3.4546,-2.36519 -5.132253,-3.91024 l -3.050277,-2.80918 1.370341,-5.34035 c 4.870427,-18.9805 8.975144,-27.07465 15.737168,-31.03236 1.590466,-0.93087 7.632653,-2.47728 19.958763,-5.10814 9.72277,-2.07521 18.15215,-3.91818 18.73197,-4.09551 1.38935,-0.4249 3.82703,-6.02092 4.20051,-9.64287 l 0.29581,-2.86873 -4.04666,-2.69353 c -2.93051,-1.9506 -4.14429,-3.12739 -4.40064,-4.26651 -0.19469,-0.86513 -0.57099,-2.47201 -0.83622,-3.57083 -1.35931,-5.63153 -2.30901,-15.17438 -2.20165,-22.12304 0.0942,-6.09568 -0.0526,-7.76066 -0.75465,-8.56229 -2.48651,-2.83907 -2.96298,-4.79695 -2.95098,-12.126107 0.0191,-11.673364 3.02871,-20.063092 9.49193,-26.460274 6.72558,-6.656861 14.77246,-9.490223 26.97285,-9.49733 11.36458,-0.0066 18.3563,2.555493 24.78314,9.081772 6.79147,6.896559 9.94619,15.042048 9.96675,25.734194 0.0119,6.164935 -0.0915,6.772845 -1.69812,9.989335 -0.94091,1.8837 -1.96737,3.42491 -2.281,3.42491 -0.31364,0 -0.71659,-1.41277 -0.89544,-3.1395 -0.34798,-3.35965 -3.93823,-13.36 -5.2778,-14.700906 -0.69771,-0.698411 -1.12767,-0.646183 -3.13993,0.381424 -4.21347,2.151695 -10.72902,1.324268 -17.8332,-2.264686 -2.33467,-1.179449 -4.40915,-2.995641 -7.69838,-6.739882 -2.47638,-2.818954 -4.84551,-5.145966 -5.2647,-5.171138 -1.32861,-0.07978 -9.20478,5.750781 -11.97244,8.862932 -5.35118,6.017242 -8.4773,12.724566 -9.99038,21.435126 -0.99971,5.75517 -0.46067,15.7882 1.36324,25.37347 2.08276,10.94564 1.52676,9.97964 8.4112,14.61381 7.60959,5.12231 17.02953,9.96913 20.34152,10.46629 3.26386,0.48993 8.63951,-1.26201 13.53177,-4.41004 6.45013,-4.15048 13.49455,-10.18872 14.12456,-12.10712 0.32071,-0.97655 1.06253,-4.92886 1.6485,-8.7829 0.58596,-3.85405 1.25865,-7.19334 1.49487,-7.42065 0.43002,-0.41382 0.22527,2.28581 -0.94278,12.43014 l -0.62439,5.42278 -2.87845,2.66778 -2.87844,2.66777 1.07343,6.61311 c 0.59039,3.63721 1.23597,6.87635 1.43462,7.19809 0.19864,0.32174 8.17247,2.07686 17.7196,3.90027 9.54713,1.82341 17.99486,3.65287 18.77273,4.06548 4.42369,2.34647 8.57447,7.5605 11.85607,14.89304 2.41656,5.39967 8.66162,21.87934 8.66162,22.85656 0,0.97094 -6.91088,6.39924 -9.30369,7.3078 -1.1083,0.42082 -23.61881,0.60173 -72.70692,0.58431 -69.102243,-0.0246 -71.160141,-0.0562 -73.183572,-1.12628 z m 79.636012,-37.95584 c 7.62677,-1.60997 14.95641,-6.60553 16.0415,-10.93316 0.34148,-1.36193 -1.1882,-12.85689 -1.86303,-13.99995 -0.12797,-0.21678 -2.21572,1.03946 -4.63944,2.79162 -6.88823,4.97966 -9.81831,6.16479 -15.24153,6.16479 -4.10737,0 -5.01663,-0.21691 -9.124,-2.17669 -2.5091,-1.19718 -5.80417,-2.97275 -7.32237,-3.94573 -2.259,-1.44772 -2.85296,-1.6226 -3.2702,-0.96281 -0.28042,0.44342 -0.51378,1.13295 -0.51858,1.53228 -0.005,0.39933 -0.77857,2.42559 -1.71949,4.5028 -0.94091,2.07721 -1.71075,4.20368 -1.71075,4.72549 0,1.40025 5.2554,7.05462 8.39397,9.0312 6.02572,3.79481 13.19402,4.91246 20.97392,3.27016 z"
       id="path66"
       inkscape:connector-curvature="0" />
    <path
       style="fill:#dcba8a;stroke-width:0.57053465"
       d="m 75.498368,218.10361 c -1.145086,-0.60558 -3.4546,-2.36519 -5.132253,-3.91024 l -3.050277,-2.80918 1.370341,-5.34035 c 4.870427,-18.9805 8.975144,-27.07465 15.737168,-31.03236 1.590466,-0.93087 7.632653,-2.47728 19.958763,-5.10814 9.72277,-2.07521 18.15215,-3.91818 18.73197,-4.09551 1.38935,-0.4249 3.82703,-6.02092 4.20051,-9.64287 l 0.29581,-2.86873 -4.01145,-2.6701 c -2.2063,-1.46855 -4.14722,-3.13161 -4.31317,-3.69568 -0.64056,-2.1774 -2.07017,-9.87545 -2.01461,-10.84815 0.0321,-0.56265 0.37171,0.38978 0.75461,2.1165 1.89608,8.55073 1.89578,8.55032 10.19824,13.98797 4.13702,2.70952 9.70306,5.99549 12.36898,7.30216 4.1569,2.03744 5.37495,2.3774 8.55376,2.38731 3.09828,0.01 4.40856,-0.32585 7.9835,-2.04424 4.69856,-2.25849 17.82423,-11.78286 18.53547,-13.44986 0.24594,-0.57645 0.76996,-2.58931 1.16449,-4.47301 0.45347,-2.16517 0.72873,-2.79504 0.74835,-1.71246 0.079,4.35793 -0.86664,6.70892 -3.68174,9.15352 l -2.73615,2.37605 1.08033,6.6556 c 0.59419,3.66058 1.24287,6.91885 1.44152,7.24059 0.19864,0.32174 8.17247,2.07686 17.7196,3.90027 9.54713,1.82341 17.99486,3.65287 18.77273,4.06548 4.42369,2.34647 8.57447,7.5605 11.85607,14.89304 2.41656,5.39967 8.66162,21.87934 8.66162,22.85656 0,0.97094 -6.91088,6.39924 -9.30369,7.3078 -1.1083,0.42082 -23.61881,0.60173 -72.70692,0.58431 -69.102243,-0.0246 -71.160141,-0.0562 -73.183572,-1.12628 z m 79.586082,-37.37828 c 7.17598,-1.52174 14.02723,-5.56749 16.04607,-9.4754 0.45444,-0.87967 0.82625,-2.68167 0.82625,-4.00447 0,-3.49796 -1.84495,-12.58028 -2.61565,-12.87632 -0.36234,-0.13919 -2.42402,1.08732 -4.58152,2.72556 -5.19732,3.94645 -10.49999,6.39397 -14.4623,6.67527 -3.91198,0.27774 -8.50308,-1.35471 -15.4068,-5.47815 -4.3487,-2.59738 -4.92043,-2.79959 -5.55994,-1.96643 -0.39205,0.51075 -0.71281,1.25443 -0.71281,1.65261 0,0.39818 -0.87701,2.71457 -1.9489,5.14755 -1.85816,4.2176 -1.908,4.50277 -1.07035,6.12421 1.33527,2.5847 6.36526,7.28596 9.72035,9.08507 5.62885,3.01838 12.74579,3.87912 19.7656,2.3905 z m 22.71863,-44.52439 c 0.006,-1.25581 0.12311,-1.70233 0.25951,-0.99228 0.13639,0.71005 0.13122,1.73752 -0.0115,2.28327 -0.14273,0.54576 -0.25433,-0.0352 -0.248,-1.29099 z m -61.04942,-2.8541 c 0.0116,-0.94185 0.13942,-1.25805 0.28401,-0.70266 0.14458,0.55539 0.13507,1.326 -0.0211,1.71246 -0.15621,0.38646 -0.2745,-0.0679 -0.26288,-1.0098 z m 61.60816,-3.1395 c 0,-1.09883 0.11736,-1.54835 0.26079,-0.99894 0.14343,0.54942 0.14343,1.44846 0,1.99787 -0.14343,0.54941 -0.26079,0.0999 -0.26079,-0.99893 z m -62.15728,-1.71246 c 0,-1.09883 0.11735,-1.54835 0.26079,-0.99894 0.14343,0.54942 0.14343,1.44846 0,1.99787 -0.14344,0.54942 -0.26079,0.0999 -0.26079,-0.99893 z m -1.11594,-16.67745 c -2.24788,-2.81687 -2.68066,-4.74055 -2.669,-11.863507 0.0191,-11.673364 3.02871,-20.063092 9.49193,-26.460274 6.72558,-6.656861 14.77246,-9.490223 26.97285,-9.49733 11.36458,-0.0066 18.3563,2.555493 24.78314,9.081772 4.15986,4.224226 6.68138,8.573465 8.63187,14.888631 1.90265,6.160302 1.89322,16.086468 -0.0194,20.388808 -0.72833,1.63836 -1.68103,3.27524 -2.11711,3.63752 -0.65636,0.54527 -0.79358,0.22896 -0.79695,-1.8372 -0.002,-1.4607 -0.84336,-4.72308 -2.02767,-7.86583 -3.53382,-9.377631 -3.68467,-9.527679 -7.51357,-7.473468 -4.02111,2.157338 -11.29585,1.053063 -17.54157,-2.662739 -1.58755,-0.944489 -4.84053,-3.955981 -7.3396,-6.79473 -2.46859,-2.80413 -4.8433,-5.181671 -5.27712,-5.283423 -1.21683,-0.285404 -8.11206,4.583496 -11.7286,8.281874 -5.3752,5.496824 -8.93871,12.405406 -10.37803,20.119926 -0.6927,3.71278 -1.40521,4.67578 -2.47118,3.33997 z"
       id="path64"
       inkscape:connector-curvature="0" />
    <path
       style="fill:#dfae6c;stroke-width:0.57053465"
       d="m 75.498368,218.10361 c -1.145086,-0.60558 -3.4546,-2.36519 -5.132253,-3.91024 l -3.050277,-2.80918 1.370341,-5.34035 c 3.863388,-15.05598 7.287581,-23.23235 11.639698,-27.79358 3.583852,-3.75605 5.398669,-4.37444 24.626483,-8.39136 10.0364,-2.09674 18.63293,-4.00147 19.10338,-4.23275 1.16697,-0.57369 3.53291,-6.57504 3.85532,-9.77927 l 0.26322,-2.616 -3.91258,-2.77233 c -4.38812,-3.10928 -4.75754,-3.50922 -4.73351,-5.12451 0.0134,-0.89963 0.16264,-0.80224 0.70408,0.4594 0.81903,1.90849 12.93624,10.05982 20.36073,13.69681 4.15588,2.03581 5.37573,2.37608 8.55376,2.38599 3.09501,0.01 4.41234,-0.3269 7.9835,-2.03963 2.35228,-1.12814 6.36854,-3.63261 8.92502,-5.56548 2.55648,-1.93287 4.77782,-3.51431 4.93631,-3.51431 0.15848,0 0.16921,0.45531 0.0238,1.0118 -0.24329,0.93128 1.71038,13.64793 2.16696,14.10497 0.11034,0.11044 7.77056,1.63764 17.02271,3.39376 9.25214,1.75611 17.3405,3.30868 17.97414,3.45014 2.34017,0.52245 6.63967,3.94407 8.88538,7.07115 1.27163,1.7707 3.28562,5.27441 4.47554,7.78602 2.53066,5.34157 9.1524,22.53414 9.1524,23.76312 0,0.97094 -6.91087,6.39924 -9.30369,7.3078 -1.10829,0.42082 -23.61881,0.60173 -72.70691,0.58431 -69.102248,-0.0246 -71.160146,-0.0562 -73.183576,-1.12628 z m 79.586082,-37.37828 c 7.17598,-1.52174 14.02723,-5.56749 16.04607,-9.4754 0.45444,-0.87967 0.82625,-2.68167 0.82625,-4.00447 0,-3.49796 -1.84495,-12.58028 -2.61565,-12.87632 -0.36234,-0.13919 -2.42402,1.08732 -4.58152,2.72556 -5.19732,3.94645 -10.49999,6.39397 -14.4623,6.67527 -3.91198,0.27774 -8.50308,-1.35471 -15.4068,-5.47815 -4.3487,-2.59738 -4.92043,-2.79959 -5.55994,-1.96643 -0.39205,0.51075 -0.71281,1.25443 -0.71281,1.65261 0,0.39818 -0.87701,2.71457 -1.9489,5.14755 -1.85816,4.2176 -1.908,4.50277 -1.07035,6.12421 1.33527,2.5847 6.36526,7.28596 9.72035,9.08507 5.62885,3.01838 12.74579,3.87912 19.7656,2.3905 z m -40.10512,-69.70951 c -1.95675,-2.4901 -2.48396,-5.65527 -2.1753,-13.059763 0.47138,-11.308114 3.86339,-19.450878 10.64114,-25.544806 5.57603,-5.013456 12.82283,-7.58837 23.14583,-8.224122 16.94318,-1.043463 29.52087,6.940337 34.91303,22.161365 1.30446,3.682251 1.48863,5.115752 1.52793,11.892972 0.0394,6.785874 -0.10469,8.029824 -1.20631,10.417444 -1.45367,3.15066 -2.4539,3.49885 -2.4597,0.85623 -0.004,-1.77421 -3.09481,-10.74367 -4.91946,-14.275666 -0.95245,-1.843679 -1.2963,-1.851267 -5.91122,-0.130443 -2.98744,1.11396 -7.21964,0.650285 -12.54551,-1.374469 -4.88956,-1.858881 -6.44403,-3.047378 -11.22465,-8.581996 -2.45148,-2.838121 -4.80764,-5.164066 -5.23592,-5.168766 -1.5415,-0.01691 -8.55735,5.197857 -12.21559,9.079648 -5.20339,5.52137 -10.10086,15.963672 -10.10086,21.536872 0,1.9266 -0.91255,2.09636 -2.23341,0.4155 z"
       id="path62"
       inkscape:connector-curvature="0" />
    <path
       style="fill:#929292;stroke-width:0.57053465"
       d="m 75.498368,218.10361 c -1.145086,-0.60558 -3.4546,-2.36519 -5.132253,-3.91024 l -3.050277,-2.80918 1.370341,-5.34035 c 4.870427,-18.9805 8.975144,-27.07465 15.737168,-31.03236 1.58543,-0.92793 7.6273,-2.47971 19.813233,-5.08879 9.64272,-2.06456 18.01471,-3.75375 18.60441,-3.75375 0.72855,0 1.17891,0.53411 1.40515,1.66649 0.49159,2.46037 6.59049,8.68263 10.61524,10.82994 3.64792,1.94626 9.56912,3.46028 13.5966,3.47659 10.39277,0.0421 22.30999,-6.23556 24.15175,-12.72244 0.37389,-1.31689 0.8358,-2.58096 1.02646,-2.80904 0.45215,-0.54089 34.69097,5.99762 36.53867,6.9777 4.42369,2.34647 8.57447,7.5605 11.85607,14.89304 2.41656,5.39967 8.66162,21.87934 8.66162,22.85656 0,0.97094 -6.91088,6.39924 -9.30369,7.3078 -1.1083,0.42082 -23.61881,0.60173 -72.70692,0.58431 -69.102243,-0.0246 -71.160141,-0.0562 -73.183572,-1.12628 z M 114.05675,109.51514 c -0.97242,-1.60944 -1.11683,-2.87584 -1.09026,-9.561217 0.022,-5.522581 0.31724,-8.757361 1.04213,-11.416382 3.27405,-12.009729 11.02914,-19.735757 22.98385,-22.897728 5.95043,-1.573863 17.06289,-1.705151 22.41879,-0.264867 12.00936,3.229499 20.58048,12.847744 23.15385,25.982518 1.11668,5.699687 0.84563,12.798156 -0.62796,16.445226 -1.06804,2.64334 -1.99688,3.17369 -1.99688,1.14017 0,-1.53546 -4.08892,-12.46233 -5.43041,-14.511743 -1.03637,-1.583271 -1.53593,-1.568721 -6.07526,0.176948 -2.33383,0.89751 -3.14856,0.942949 -6.52544,0.363937 -2.12226,-0.36389 -5.71617,-1.580571 -7.98648,-2.703734 -3.51885,-1.740848 -4.81384,-2.840366 -8.77792,-7.452975 -2.55756,-2.975971 -5.07979,-5.410857 -5.60496,-5.410857 -1.43943,0 -8.53648,4.961061 -11.87363,8.300033 -5.30601,5.308932 -9.68157,13.842661 -10.74817,20.962371 -0.47485,3.16968 -1.30921,3.41705 -2.86125,0.8483 z"
       id="path60"
       inkscape:connector-curvature="0" />
    <path
       style="fill:#b38f57;stroke-width:0.57053465"
       d="m 75.869592,217.72936 c -2.975376,-1.58134 -7.698379,-5.92826 -7.698379,-7.08536 0,-2.1798 5.23291,-19.65131 7.068624,-23.60055 2.382587,-5.12575 5.905123,-9.56299 9.061605,-11.41466 1.817274,-1.06606 7.030791,-2.42387 19.826888,-5.16372 9.54871,-2.04454 17.90719,-3.84456 18.57441,-4.00004 0.97769,-0.22784 1.27747,0.0394 1.54474,1.37709 0.4902,2.45345 6.59583,8.6795 10.6139,10.82325 3.64792,1.94626 9.56912,3.46028 13.5966,3.47659 10.52466,0.0426 22.44636,-6.3096 24.20674,-12.89802 0.368,-1.37731 0.86363,-2.50418 1.1014,-2.50418 0.23776,0 8.38736,1.51746 18.11021,3.37213 13.1922,2.51646 18.10432,3.67606 19.35835,4.5699 3.24998,2.31649 6.83485,6.96063 9.40442,12.18327 2.6055,5.29565 9.4832,22.80142 9.4832,24.13753 0,0.87987 -3.37329,3.88933 -6.79248,6.05988 l -2.55481,1.62183 -71.59734,-0.0228 C 84.805191,218.6409 77.407713,218.54688 75.869592,217.7294 Z M 114.05675,109.51514 c -0.97242,-1.60944 -1.11683,-2.87584 -1.09026,-9.561217 0.022,-5.522581 0.31724,-8.757361 1.04213,-11.416382 3.27405,-12.009729 11.02914,-19.735757 22.98385,-22.897728 5.95043,-1.573863 17.06289,-1.705151 22.41879,-0.264867 12.00936,3.229499 20.58048,12.847744 23.15385,25.982518 1.11668,5.699687 0.84563,12.798156 -0.62796,16.445226 -1.06804,2.64334 -1.99688,3.17369 -1.99688,1.14017 0,-1.53546 -4.08892,-12.46233 -5.43041,-14.511743 -1.03637,-1.583271 -1.53593,-1.568721 -6.07526,0.176948 -2.33383,0.89751 -3.14856,0.942949 -6.52544,0.363937 -2.12226,-0.36389 -5.71617,-1.580571 -7.98648,-2.703734 -3.51885,-1.740848 -4.81384,-2.840366 -8.77792,-7.452975 -2.55756,-2.975971 -5.07979,-5.410857 -5.60496,-5.410857 -1.43943,0 -8.53648,4.961061 -11.87363,8.300033 -5.30601,5.308932 -9.68157,13.842661 -10.74817,20.962371 -0.47485,3.16968 -1.30921,3.41705 -2.86125,0.8483 z"
       id="path58"
       inkscape:connector-curvature="0" />
    <path
       style="fill:#b48533;stroke-width:0.57053465"
       d="m 75.869592,217.72936 c -2.975376,-1.58134 -7.698379,-5.92826 -7.698379,-7.08536 0,-2.1798 5.23291,-19.65131 7.068624,-23.60055 2.382587,-5.12575 5.905123,-9.56299 9.061605,-11.41466 1.810925,-1.06233 7.073303,-2.43874 19.818618,-5.18368 9.54415,-2.05551 17.72048,-3.66589 18.16962,-3.57861 0.44915,0.0873 0.85788,0.72055 0.90829,1.4073 0.2063,2.81017 7.60532,9.83593 12.57357,11.93926 5.91823,2.50551 13.85115,3.23683 20.33271,1.87445 8.97715,-1.88694 17.56327,-8.38294 17.56327,-13.28785 0,-0.78194 0.20544,-1.54881 0.45654,-1.70415 0.25111,-0.15534 8.32553,1.21846 17.94317,3.0529 13.03746,2.48672 17.91424,3.64012 19.16726,4.53324 3.25016,2.31663 6.83499,6.96067 9.40461,12.18341 2.6055,5.29565 9.4832,22.80142 9.4832,24.13753 0,0.87987 -3.37329,3.88933 -6.79248,6.05988 l -2.55481,1.62183 -71.59734,-0.0228 c -64.372479,-0.0206 -71.769957,-0.11462 -73.308078,-0.9321 z m 38.268688,-109.2247 c -1.18328,-2.96027 -1.21706,-13.015444 -0.0623,-18.540071 1.29973,-6.218096 4.77339,-12.694122 8.82104,-16.445269 6.1536,-5.702826 13.23502,-8.295083 23.96872,-8.774091 11.72922,-0.523434 19.52296,2.121057 26.24674,8.905762 6.52719,6.586332 9.68186,14.77304 9.67585,25.109899 -0.003,5.3341 -0.68111,9.40571 -1.66792,10.0162 -0.26861,0.16618 -1.58712,-2.6964 -2.93003,-6.36129 -1.34292,-3.664885 -3.11592,-7.418801 -3.94,-8.342035 l -1.49835,-1.678608 -2.51567,1.28468 c -6.08266,3.106237 -16.45077,0.167502 -22.51524,-6.381714 -1.56819,-1.693537 -3.93574,-4.300625 -5.26122,-5.793529 l -2.40997,-2.71437 -1.86691,0.949614 c -6.18787,3.147499 -12.93521,9.454692 -16.633,15.547986 -1.80329,2.9715 -4.29429,9.682526 -5.17496,13.941906 -0.4527,2.18952 -1.16392,1.95897 -2.23679,-0.72507 z"
       id="path56"
       inkscape:connector-curvature="0" />
    <path
       style="fill:#a47011;stroke-width:0.57053465"
       d="m 75.869592,217.72936 c -2.975376,-1.58134 -7.698379,-5.92826 -7.698379,-7.08536 0,-2.1798 5.23291,-19.65131 7.068624,-23.60055 2.382587,-5.12575 5.905123,-9.56299 9.061605,-11.41466 1.809934,-1.06175 7.060562,-2.436 19.744478,-5.16771 9.50337,-2.04673 17.60464,-3.72132 18.00281,-3.72132 0.39817,0 0.87853,0.77365 1.06745,1.71922 0.21749,1.08852 1.76838,3.14553 4.22754,5.60714 6.00889,6.01487 12.39431,8.63724 21.06216,8.6498 5.9257,0.009 9.67185,-0.78278 14.76715,-3.11952 6.26239,-2.87198 10.49449,-7.22596 10.49449,-10.79674 0,-0.78194 0.20544,-1.54881 0.45654,-1.70415 0.25111,-0.15534 8.32553,1.21846 17.94317,3.0529 13.03746,2.48672 17.91424,3.64012 19.16726,4.53324 3.25016,2.31663 6.83499,6.96067 9.40461,12.18341 2.6055,5.29565 9.4832,22.80142 9.4832,24.13753 0,0.87987 -3.37329,3.88933 -6.79248,6.05988 l -2.55481,1.62183 -71.59734,-0.0228 C 84.805191,218.6409 77.407713,218.54688 75.869592,217.7294 Z M 114.28511,108.36625 c -1.13868,-2.70114 -0.98048,-14.526252 0.25764,-19.257889 1.67003,-6.382272 4.53252,-11.464455 8.60519,-15.278046 6.55675,-6.13963 14.21736,-8.751984 25.71369,-8.768648 10.33448,-0.01498 16.91036,2.20718 23.01789,7.778349 6.96043,6.349162 10.44799,14.644156 10.55982,25.116041 0.0667,6.243193 -0.36949,9.418513 -1.29373,9.418513 -0.26603,0 -1.3172,-2.2476 -2.33593,-4.99467 -2.17562,-5.86664 -4.18288,-9.575047 -5.44516,-10.059913 -0.49691,-0.190874 -1.85093,0.132987 -3.00893,0.71969 -4.60003,2.330619 -8.93838,1.975054 -15.83936,-1.298171 -3.5187,-1.668963 -4.68463,-2.661636 -9.04084,-7.697386 -2.75064,-3.179727 -5.29521,-5.781288 -5.65459,-5.781245 -1.31017,1.54e-4 -9.3953,5.635828 -12.39931,8.642842 -5.50269,5.508173 -10.0829,13.912403 -11.11989,20.403903 -0.48883,3.06 -1.04837,3.3532 -2.01649,1.05663 z"
       id="path54"
       inkscape:connector-curvature="0" />
    <path
       style="fill:#9d6907;stroke-width:0.57053465"
       d="m 75.869592,217.72936 c -2.975376,-1.58134 -7.698379,-5.92826 -7.698379,-7.08536 0,-2.1798 5.23291,-19.65131 7.068624,-23.60055 2.382587,-5.12575 5.905123,-9.56299 9.061605,-11.41466 1.809934,-1.06175 7.060562,-2.436 19.744478,-5.16771 9.50337,-2.04673 17.60464,-3.72132 18.00281,-3.72132 0.39817,0 0.87853,0.77365 1.06745,1.71922 0.21749,1.08852 1.76838,3.14553 4.22754,5.60714 6.00889,6.01487 12.39431,8.63724 21.06216,8.6498 5.9257,0.009 9.67185,-0.78278 14.76715,-3.11952 6.26239,-2.87198 10.49449,-7.22596 10.49449,-10.79674 0,-0.78194 0.20544,-1.54881 0.45654,-1.70415 0.25111,-0.15534 8.32553,1.21846 17.94317,3.0529 13.03746,2.48672 17.91424,3.64012 19.16726,4.53324 3.25016,2.31663 6.83499,6.96067 9.40461,12.18341 2.6055,5.29565 9.4832,22.80142 9.4832,24.13753 0,0.87987 -3.37329,3.88933 -6.79248,6.05988 l -2.55481,1.62183 -71.59734,-0.0228 C 84.805191,218.6409 77.407713,218.54688 75.869592,217.7294 Z M 114.34762,107.65998 c -1.10103,-2.82256 -0.38201,-15.720289 1.14558,-20.549486 3.40275,-10.757137 11.20808,-17.879997 22.59096,-20.615676 4.92068,-1.182601 15.87384,-1.336598 20.1866,-0.283814 13.49985,3.295439 22.75367,14.894962 23.77234,29.798247 0.35127,5.139239 -0.17039,10.713609 -0.92313,9.864429 -0.2423,-0.27334 -1.39732,-2.93723 -2.56671,-5.919757 -2.97326,-7.583287 -5.30704,-9.818452 -8.05569,-7.715318 -3.28364,2.512483 -8.6808,2.222718 -15.36319,-0.824826 -3.74107,-1.706141 -4.85906,-2.703825 -10.41919,-9.297952 -2.05159,-2.433117 -4.14497,-4.423848 -4.65196,-4.423848 -1.58788,0 -8.00745,4.138226 -11.77421,7.589967 -5.17521,4.742406 -8.65998,10.297561 -11.17321,17.811484 -2.04829,6.12384 -2.1167,6.23669 -2.76819,4.56655 z"
       id="path52"
       inkscape:connector-curvature="0" />
    <path
       style="fill:#494949;stroke-width:0.57053465"
       d="m 75.869592,217.72936 c -2.975376,-1.58134 -7.698379,-5.92826 -7.698379,-7.08536 0,-2.1798 5.23291,-19.65131 7.068624,-23.60055 2.382587,-5.12575 5.905123,-9.56299 9.061605,-11.41466 1.809934,-1.06175 7.060562,-2.436 19.744478,-5.16771 9.50337,-2.04673 17.60464,-3.72132 18.00281,-3.72132 0.39817,0 0.87853,0.77365 1.06745,1.71922 0.21749,1.08852 1.76838,3.14553 4.22754,5.60714 6.00889,6.01487 12.39431,8.63724 21.06216,8.6498 5.9257,0.009 9.67185,-0.78278 14.76715,-3.11952 6.26239,-2.87198 10.49449,-7.22596 10.49449,-10.79674 0,-0.78194 0.20544,-1.54881 0.45654,-1.70415 0.25111,-0.15534 8.32553,1.21846 17.94317,3.0529 13.03746,2.48672 17.91424,3.64012 19.16726,4.53324 3.25016,2.31663 6.83499,6.96067 9.40461,12.18341 2.6055,5.29565 9.4832,22.80142 9.4832,24.13753 0,0.87987 -3.37329,3.88933 -6.79248,6.05988 l -2.55481,1.62183 -71.59734,-0.0228 c -64.372479,-0.0206 -71.769957,-0.11462 -73.308078,-0.9321 z"
       id="path50"
       inkscape:connector-curvature="0" />
    <path
       style="fill:#373737;stroke-width:0.57053465"
       d="m 76.347763,217.58066 c -3.332269,-1.51453 -8.436342,-6.52844 -7.946523,-7.80616 0.207809,-0.54209 1.418471,-4.73134 2.690359,-9.30945 3.892979,-14.01262 8.71644,-22.43989 14.336109,-25.04722 1.329428,-0.6168 10.049974,-2.73747 19.378992,-4.71259 14.87051,-3.14835 18.59254,-3.68887 17.43703,-2.53221 -0.16024,0.1604 -7.83724,1.9646 -17.05999,4.00932 -9.222752,2.04472 -17.475507,4.00009 -18.339454,4.34525 -1.606309,0.64177 -4.987065,4.08098 -4.987065,5.07332 0,0.346 10.023019,0.55841 26.944329,0.57101 21.19439,0.0157 27.73532,0.19421 30.65095,0.83617 4.82451,1.06226 13.49806,1.05762 18.53292,-0.01 3.1945,-0.6773 9.20109,-0.8463 30.08071,-0.8463 19.35464,0 26.08916,-0.17027 26.08916,-0.65964 0,-1.38871 -3.11378,-4.65689 -5.35552,-5.62107 -1.28857,-0.55422 -9.32119,-2.36196 -17.85027,-4.01718 -14.95103,-2.90152 -17.35719,-3.51675 -16.62408,-4.2506 0.40097,-0.40136 33.13072,5.73274 35.38946,6.63258 2.83409,1.12905 7.12099,6.09645 9.88594,11.45524 3.00682,5.82757 10.51536,24.94319 10.15017,25.84082 -0.45389,1.11567 -7.47481,6.05089 -9.39044,6.60083 -1.18977,0.34157 -28.50959,0.54667 -71.78028,0.53891 -67.265662,-0.0121 -69.947535,-0.0526 -72.232507,-1.0911 z"
       id="path48"
       inkscape:connector-curvature="0" />
    <path
       style="fill:#272727;stroke-width:0.57053465"
       d="m 75.869592,217.17034 c -2.217101,-1.16305 -7.128128,-5.92566 -7.128128,-6.91271 0,-0.41993 1.033784,-4.45774 2.297299,-8.97291 2.480009,-8.8623 4.902026,-15.24273 6.891887,-18.15559 1.857717,-2.71942 5.720157,-6.67043 7.371303,-7.54035 0.796871,-0.41983 8.880169,-2.33926 17.962887,-4.26539 9.08271,-1.92613 17.02725,-3.64584 17.65453,-3.82159 0.75588,-0.21178 0.94819,-0.12864 0.57025,0.24653 -0.31364,0.31133 -7.88371,2.16395 -16.82239,4.11693 -8.938671,1.95298 -17.356872,4.0687 -18.707111,4.70161 -1.542476,0.72302 -3.306334,2.27948 -4.745444,4.18746 -2.385153,3.16227 -4.75362,8.49977 -4.182302,9.4251 0.388679,0.62952 59.511387,0.71412 108.810317,0.15569 l 33.46233,-0.37904 -0.36194,-1.19071 c -1.52274,-5.00945 -6.12072,-11.50643 -9.3125,-13.15861 -0.84858,-0.43926 -9.09495,-2.28551 -18.32528,-4.10279 -9.23032,-1.81728 -16.26918,-3.37727 -15.64191,-3.46665 2.33716,-0.33303 33.23433,5.9524 35.17734,7.15615 5.40332,3.3475 8.97525,9.57776 15.90217,27.73698 1.54503,4.05038 2.80915,7.67981 2.80915,8.0654 0,0.7769 -3.75263,4.00968 -6.84454,5.8964 l -1.99434,1.21696 -71.56641,-0.0207 c -63.943137,-0.0185 -71.748646,-0.11631 -73.277168,-0.91815 z"
       id="path46"
       inkscape:connector-curvature="0" />
    <path
       style="fill:#171717;stroke-width:0.57053465"
       d="m 74.969421,216.43804 c -1.386732,-0.92148 -3.394209,-2.57931 -4.461061,-3.68404 l -1.939731,-2.00861 2.152496,-7.58963 c 2.717844,-9.58304 4.619001,-14.92157 6.412686,-18.00709 1.896472,-3.26233 2.22359,-3.08269 0.519735,0.28541 -1.750135,3.4596 -3.209579,8.37346 -3.209579,10.80647 v 1.89426 h 73.847413 73.84741 v -1.42478 c 0,-1.76226 -1.98175,-7.65011 -3.7953,-11.27595 -1.83573,-3.6702 -1.28486,-3.43733 0.85749,0.36248 1.57905,2.80073 10.35107,24.25502 10.35107,25.31629 0,0.60031 -5.50946,4.87423 -7.81262,6.06058 -1.66587,0.85808 -8.03434,0.94005 -73.03684,0.94005 H 77.490751 Z"
       id="path44"
       inkscape:connector-curvature="0" />
    <path
       style="fill:#050505;stroke-width:0.57053465"
       d="m 77.434783,217.47857 c -1.020971,-0.29751 -3.367723,-2.01023 -5.215003,-3.80604 l -3.358692,-3.26511 1.575023,-4.85196 1.575023,-4.85197 -0.06665,2.8541 -0.06665,2.8541 4.704565,-0.015 c 2.587511,-0.008 37.199431,-0.0725 76.915381,-0.1427 l 72.21083,-0.12769 -0.28968,-2.71139 -0.28967,-2.7114 1.04709,2.42502 c 0.57591,1.33375 1.50688,3.72705 2.06883,5.31844 l 1.02173,2.89342 -1.99587,1.6888 c -1.09773,0.92884 -3.15064,2.38857 -4.56201,3.24385 l -2.56612,1.55505 -70.42591,0.0957 c -42.97521,0.0584 -71.149467,-0.11513 -72.282223,-0.44522 z"
       id="path42"
       inkscape:connector-curvature="0" />
  </g>
</svg>
