<?xml version="1.0" encoding="UTF-8" standalone="no"?>
<svg width="60px" height="60px" viewBox="0 0 60 60" version="1.1" xmlns="http://www.w3.org/2000/svg" xmlns:xlink="http://www.w3.org/1999/xlink" xmlns:sketch="http://www.bohemiancoding.com/sketch/ns">
    <!-- Generator: Sketch 3.3.3 (12072) - http://www.bohemiancoding.com/sketch -->
    <title>blogger</title>
    <desc>Created with Sketch.</desc>
    <defs></defs>
    <g id="soical" stroke="none" stroke-width="1" fill="none" fill-rule="evenodd" sketch:type="MSPage">
        <g id="social" sketch:type="MSArtboardGroup" transform="translate(-273.000000, -538.000000)">
            <g id="slices" sketch:type="MSLayerGroup" transform="translate(173.000000, 138.000000)"></g>
            <g id="square-black" sketch:type="MSLayerGroup" transform="translate(173.000000, 138.000000)" fill="#000000">
                <path d="M102.995937,400 L157.004063,400 C158.658673,400 160,401.33731 160,402.995937 L160,457.004063 C160,458.658673 158.66269,460 157.004063,460 L102.995937,460 C101.341327,460 100,458.66269 100,457.004063 L100,402.995937 C100,401.341327 101.33731,400 102.995937,400 Z" id="square-42" sketch:type="MSShapeGroup"></path>
            </g>
            <g id="icon" sketch:type="MSLayerGroup" transform="translate(182.000000, 150.000000)" fill="#FFFFFF">
                <path d="M137.090667,423.962923 L137.176381,416.113127 L137.081612,415.664409 L136.810945,415.099742 L136.353253,414.745793 C135.758791,414.279486 132.746637,414.777383 131.935355,414.040768 C131.360278,413.515229 131.248,412.167026 131.073538,410.880103 C130.750462,408.387744 130.546205,408.257795 130.155641,407.412769 C128.737333,404.412462 124.889487,402.157744 122.245641,401.846154 L115.085179,401.846154 C109.451795,401.846154 104.846154,406.441744 104.846154,412.054667 L104.846154,423.962923 C104.846154,429.565077 109.451795,434.153846 115.085179,434.153846 L126.850205,434.153846 C132.482872,434.153846 137.059077,429.565077 137.090667,423.962923 Z M115.043884,409.923077 L121.185332,409.923077 C122.358164,409.923077 123.307692,410.963959 123.307692,412.229071 C123.307692,413.489086 122.358164,414.538462 121.185332,414.538462 L115.043884,414.538462 C113.871052,414.538462 112.923077,413.488661 112.923077,412.229071 C112.923077,410.963959 113.871052,409.923077 115.043884,409.923077 L115.043884,409.923077 Z M112.923077,423.769444 C112.923077,422.499264 113.839408,421.461538 114.97309,421.461538 L127.036295,421.461538 C128.162469,421.461538 129.076923,422.499264 129.076923,423.769444 C129.076923,425.022989 128.162469,426.076923 127.036295,426.076923 L114.97309,426.076923 C113.839408,426.077349 112.923077,425.022989 112.923077,423.769444 L112.923077,423.769444 Z" id="blogger" sketch:type="MSShapeGroup"></path>
            </g>
        </g>
    </g>
</svg>