<?xml version="1.0" encoding="UTF-8" standalone="no"?>
<!-- Created with Inkscape (http://www.inkscape.org/) -->

<svg
   xmlns:dc="http://purl.org/dc/elements/1.1/"
   xmlns:cc="http://creativecommons.org/ns#"
   xmlns:rdf="http://www.w3.org/1999/02/22-rdf-syntax-ns#"
   xmlns:svg="http://www.w3.org/2000/svg"
   xmlns="http://www.w3.org/2000/svg"
   xmlns:sodipodi="http://sodipodi.sourceforge.net/DTD/sodipodi-0.dtd"
   xmlns:inkscape="http://www.inkscape.org/namespaces/inkscape"
   version="1.1"
   id="svg896"
   width="300"
   height="300"
   viewBox="0 0 300 300"
   sodipodi:docname="check.svg"
   inkscape:version="0.92.2 5c3e80d, 2017-08-06">
  <metadata
     id="metadata902">
    <rdf:RDF>
      <cc:Work
         rdf:about="">
        <dc:format>image/svg+xml</dc:format>
        <dc:type
           rdf:resource="http://purl.org/dc/dcmitype/StillImage" />
        <dc:title></dc:title>
      </cc:Work>
    </rdf:RDF>
  </metadata>
  <defs
     id="defs900" />
  <sodipodi:namedview
     pagecolor="#ffffff"
     bordercolor="#666666"
     borderopacity="1"
     objecttolerance="10"
     gridtolerance="10"
     guidetolerance="10"
     inkscape:pageopacity="0"
     inkscape:pageshadow="2"
     inkscape:window-width="951"
     inkscape:window-height="616"
     id="namedview898"
     showgrid="false"
     inkscape:zoom="0.78666667"
     inkscape:cx="150"
     inkscape:cy="150"
     inkscape:window-x="283"
     inkscape:window-y="13"
     inkscape:window-maximized="0"
     inkscape:current-layer="svg896" />
  <g
     id="g906"
     transform="translate(1.2711868,1.2711867)">
    <path
       style="fill:#d4e7d3"
       d="M 125.5,290.50161 C 47.393646,276.74029 -5.055507,202.39338 8.500947,124.65491 22.499451,44.381547 102.1497,-8.3977615 181.51066,10.01205 237.97419,23.110215 280.99379,69.252599 290.58119,127 c 1.84054,11.08603 1.81721,34.45342 -0.0451,45.13246 -5.03366,28.86515 -17.75025,54.43048 -37.28574,74.95894 -20.12357,21.14642 -41.45633,33.66441 -70.10096,41.13498 -10.63748,2.77427 -13.2999,3.06627 -30.64943,3.36146 -13.2189,0.2249 -21.43415,-0.1056 -27,-1.08623 z m 47,-31.94734 c 16.00217,-3.40522 30.3501,-9.96629 44,-20.12045 21.72562,-16.16169 36.8907,-40.49954 42.64157,-68.43382 1.90423,-9.24957 1.6695,-33.56791 -0.41505,-43 C 252.2609,97.744537 235.83519,72.896324 213,57.82657 191.88744,43.893643 173.40402,38.060024 150.23923,38.018426 100.60601,37.929297 58.67549,68.077273 43.171427,115 c -6.807874,20.60389 -6.815076,48.25511 -0.01797,69 4.418451,13.48519 14.399549,30.50991 24.697259,42.126 2.255533,2.54431 8.04934,7.61033 12.875127,11.25784 16.916827,12.78636 34.296657,19.83717 56.774157,23.03267 5.69924,0.81023 28.02302,-0.37755 35,-1.86224 z m -80,-68.59411 c -17.087881,-16.51536 -30,-29.75581 -30,-30.76286 0,-1.0049 5.342591,-6.50048 12.37819,-12.73265 17.089628,-15.13806 16.814806,-14.94531 19.436931,-13.63213 1.201683,0.60181 8.698939,7.18569 16.660559,14.63084 C 118.9373,154.90851 125.92017,161 126.49315,161 127.96838,161 204,84.700259 204,83.219824 c 0,-3.49146 4.96978,0.228014 18.7621,14.041904 C 231.14294,105.65568 238,113.20325 238,114.03411 c 0,0.83086 -8.2125,9.10763 -18.25,18.39282 -10.0375,9.28519 -22.75895,21.20012 -28.26989,26.47762 -5.51094,5.2775 -21.48594,20.20938 -35.5,33.18195 -14.01406,12.97258 -26.09771,24.33508 -26.85255,25.25 -3.49306,4.23383 -5.38368,2.82073 -36.62756,-27.37634 z"
       id="path920"
       inkscape:connector-curvature="0" />
    <path
       style="fill:#a6cea5"
       d="M 123,289.00889 C 109.65232,286.47599 99.389075,282.92124 85.5,276.02049 70.67372,268.6541 59.267257,260.15509 46.959429,247.30373 32.564548,232.27315 22.919784,216.9241 15.664639,197.5 -1.9839004,150.2498 8.5313817,94.433686 42.295335,56.141743 90.520321,1.4494386 170.33756,-8.6789373 229.92016,32.333168 c 10.05804,6.923183 25.83111,22.180827 33.51713,32.421848 10.88753,14.506812 19.24731,32.371729 24.21373,51.744984 2.12909,8.30529 2.65042,13.07603 3.0762,28.15076 0.67153,23.77584 -1.81125,38.43477 -9.86903,58.26905 -7.5719,18.63831 -16.73059,32.1387 -32.299,47.6104 -21.01435,20.88384 -44.71286,33.1051 -75.41966,38.89373 -11.64936,2.19606 -37.50769,1.982 -50.13953,-0.41505 z m 49.69641,-29.48913 c 21.36556,-4.52492 41.8214,-15.98077 57.42113,-32.15747 8.92509,-9.25519 14.10783,-16.61564 19.83554,-28.17014 5.2025,-10.49499 7.03086,-15.61605 9.70833,-27.19215 2.35635,-10.18767 2.39565,-34.53647 0.0726,-45 C 251.81975,91.351594 230.49691,64.189795 197.5,47.724058 183.62919,40.802407 167.05787,37.048628 150.23923,37.018426 119.04533,36.962409 91.747845,48.167722 69.837376,70.022486 48.370265,91.435019 36.962731,119.14293 37.017459,149.73923 37.04999,167.92606 40.630526,183.2216 48.548922,199 66.211115,234.19414 96.750355,255.62336 137.5,261.41651 c 5.75275,0.81783 28.05337,-0.38395 35.19641,-1.89675 z M 114.16218,209.7606 C 82.960609,179.90936 63,160.20243 63,159.24865 63,157.73396 90.971986,133 92.68497,133 c 0.764976,0 6.842025,5.0625 13.50455,11.25 15.16797,14.08651 19.39869,17.75 20.49828,17.75 0.47843,0 18.60754,-17.775 40.28691,-39.5 C 188.65408,100.775 206.64673,83 206.95838,83 208.36144,83 237,112.70328 237,114.15851 c 0,0.89887 -1.6875,3.10361 -3.75,4.89942 -2.0625,1.79581 -16.53304,15.22992 -32.15676,29.85359 -15.62371,14.62366 -32.72371,30.59359 -38,35.48873 -5.27628,4.89514 -15.44324,14.37444 -22.59324,21.06512 -7.15,6.69068 -13.82702,12.4741 -14.83782,12.85206 -1.41042,0.52739 -4.08482,-1.46256 -11.5,-8.55683 z"
       id="path918"
       inkscape:connector-curvature="0" />
    <path
       style="fill:#88bb86"
       d="M 127.5,289.29146 C 121.08182,288.41672 104.32173,283.79554 97.09236,280.9073 63.969592,267.67429 37.041234,242.48295 21.969416,210.63016 12.683881,191.00611 9.1270427,176.26728 8.2876202,153.93554 6.4274925,104.44926 30.184434,58.559911 72,30.867514 c 14.475079,-9.586133 30.76973,-16.215727 50.5,-20.546276 11.28165,-2.4761817 40.4799,-2.5070621 53.05977,-0.05612 48.27646,9.405744 87.66886,42.113535 105.76303,87.815796 6.23663,15.752476 7.86741,24.877676 8.40138,47.010796 0.55446,22.98234 -0.39041,30.65558 -5.88444,47.78725 -7.19819,22.44567 -17.32682,38.82137 -34.74403,56.17324 -21.30114,21.2212 -43.79468,33.33557 -72.41922,39.00287 -7.79905,1.54411 -13.56936,1.91405 -28,1.7951 -9.99707,-0.0824 -19.52649,-0.33383 -21.17649,-0.55871 z m 43.01584,-28.75765 C 224.45927,249.28628 262.02547,204.08826 262.38567,150 262.55968,123.86988 254.85447,101.52806 237.91639,79.049535 230.67363,69.437663 224.64839,63.973081 211.79303,55.356973 173.0301,29.376732 124.46833,29.749399 85,56.329993 70.758629,65.921078 56.329487,82.480365 48.254637,98.5 41.016813,112.85907 36,133.73749 36,149.5 c 0,15.28842 5.011316,36.6219 11.745193,50 4.482814,8.90594 14.577854,22.82892 21.751908,30 18.085836,18.07835 40.529179,28.62638 70.002899,32.90029 5.24727,0.7609 23.75713,-0.35299 31.01584,-1.86648 z M 115,209.70516 c -4.675,-4.54637 -18.318578,-17.76 -30.319062,-29.36364 l -21.819062,-21.09751 14.119347,-12.622 c 7.765641,-6.94211 14.884219,-12.60079 15.819062,-12.57485 0.934843,0.0259 8.674715,6.54994 17.199715,14.49777 8.525,7.94784 15.96298,14.45161 16.52884,14.45284 0.56586,0.001 18.7665,-17.77277 40.44587,-39.49777 21.67937,-21.725 39.67202,-39.5 39.98367,-39.5 0.31164,0 7.30386,6.748485 15.53826,14.996634 l 14.97163,14.996636 -2.98413,2.86171 c -1.64128,1.57394 -9.95914,9.30964 -18.48414,17.19044 -8.525,7.88081 -22.475,20.91568 -31,28.9664 -8.525,8.05071 -22.025,20.64416 -30,27.98544 -7.975,7.34129 -17.71454,16.42015 -21.64342,20.17527 -3.92888,3.75511 -7.75388,6.82101 -8.5,6.81311 -0.74612,-0.008 -5.18158,-3.73411 -9.85658,-8.28048 z"
       id="path916"
       inkscape:connector-curvature="0" />
    <path
       style="fill:#63ac61"
       d="M 125.5,288.44484 C 94.471116,282.38434 71.138924,270.21193 49.96242,249.03686 10.685063,209.76218 -2.1400495,152.82645 16.728856,101.5 24.221908,81.117693 35.728207,63.423752 51.337823,48.279673 87.29039,13.399343 137.62823,0.20710451 185.71618,13.062604 228.575,24.520183 264.15716,56.141891 280.3133,97.13065 c 7.18126,18.21912 9.68346,31.79433 9.68533,52.54584 0.003,28.76062 -7.59784,54.52189 -22.74278,77.08544 -22.04597,32.845 -53.53883,53.71566 -92.54131,61.32815 -11.82886,2.30875 -38.23581,2.49911 -49.21454,0.35476 z m 47,-27.88943 c 34.69723,-7.37785 64.63574,-31.09483 79.62278,-63.07634 C 259.89725,180.88879 262.3438,169.43966 262.37538,149.5 262.4263,117.34002 252.19356,92.149694 230.04816,69.918872 207.61764,47.401839 180.94847,36.073572 150.23923,36.018426 126.51623,35.975825 104.41485,42.564083 85.5,55.31671 77.77307,60.526303 60.526303,77.77307 55.31671,85.5 c -16.160636,23.96965 -22.517209,53.63227 -17.78936,83.01313 3.813951,23.7015 14.222086,43.42921 32.553194,61.70172 18.221688,18.16345 39.219396,28.19262 67.419456,32.20166 5.69668,0.80986 28.02162,-0.37725 35,-1.8611 z M 113.71057,208.3148 C 82.00476,177.89083 64,160.13805 64,159.29993 c 0,-1.03947 22.122405,-21.02358 26.311841,-23.7686 3.258017,-2.13474 2.503511,-2.64919 20.297959,13.84 7.63961,7.07924 14.49769,13.10715 15.24018,13.39536 0.82947,0.32198 16.71969,-14.84209 41.2127,-39.32935 L 206.9254,83.58396 221.4627,97.997353 C 229.45821,105.92472 236,113.18567 236,114.13279 c 0,0.94713 -1.11078,2.59579 -2.46841,3.6637 -1.35763,1.06791 -15.37817,14.03807 -31.15676,28.82258 -15.77859,14.78451 -33.0053,30.88604 -38.28159,35.78118 -5.27628,4.89514 -15.44324,14.38412 -22.59324,21.08663 -7.15,6.70251 -14.03024,12.73522 -15.28943,13.40603 -2.13035,1.13491 -2.99887,0.53889 -12.5,-8.57811 z"
       id="path914"
       inkscape:connector-curvature="0" />
    <path
       style="fill:#31932f"
       d="M 129,288.32326 C 97.886718,283.29066 72.318357,270.34417 50.420617,248.53471 24.471708,222.69042 10.891488,191.62984 9.3070214,154.5 7.6201445,114.9703 22.342469,77.703028 50.668339,49.800256 72.417261,28.376192 93.721191,17.351382 126,10.816028 c 9.71075,-1.9660943 38.39002,-1.6799293 49,0.488927 30.05727,6.144205 52.65559,18.166582 73.53471,39.1207 18.83125,18.898878 29.89692,38.330172 37.05833,65.074345 2.34384,8.75304 2.73734,12.4412 3.15571,29.57721 0.38524,15.77933 0.14786,21.30818 -1.22365,28.5 -11.29347,59.21979 -54.90303,103.01605 -113.38557,113.871 -7.77992,1.44403 -38.00006,2.02986 -45.13953,0.87505 z m 42.5,-26.77944 c 34.63166,-7.30657 64.2633,-30.01394 79.88142,-61.21486 8.76283,-17.50585 11.94583,-31.01089 11.97987,-50.82896 0.026,-15.16185 -1.43455,-24.20914 -6.05399,-37.5 C 245.81122,78.923988 217.90931,51.569287 184.5,40.620601 151.21281,29.711934 114.44572,35.09324 84.612047,55.240407 76.748266,60.550945 60.550945,76.748266 55.240407,84.612047 27.18907,126.15012 28.454752,178.24248 58.485258,218.16212 77.473957,243.40384 105.00235,259.05251 138,263.36271 c 6.13895,0.80188 26.25491,-0.29032 33.5,-1.81889 z m -77,-72.63368 C 78.55,173.48832 65.370554,160.30795 65.212342,159.62043 64.871864,158.14087 90.714318,135 92.707095,135 c 0.752807,0 6.8199,5.0625 13.482425,11.25 15.06509,13.99097 19.39906,17.75 20.46481,17.75 0.46003,0 18.72403,-17.88343 40.58668,-39.74095 l 39.75027,-39.740958 14.00436,13.977557 C 228.69804,106.18331 235,113.23407 235,114.16402 c 0,0.92995 -1.11078,2.56456 -2.46841,3.63247 -1.35763,1.06791 -15.37431,14.03807 -31.14818,28.82258 -15.77387,14.78451 -35.70058,33.36368 -44.28159,41.28705 -8.581,7.92336 -19.03764,17.71086 -23.23698,21.75 -4.19934,4.03913 -8.24934,7.33259 -9,7.31879 C 124.11418,216.96111 110.45,204.33196 94.5,188.91014 Z"
       id="path912"
       inkscape:connector-curvature="0" />
    <path
       style="fill:#218c1e"
       d="M 133.48476,288.03833 C 111.54403,286.06976 85.435738,275.86842 66,261.6699 56.917129,255.03453 39.948761,237.17868 33.596083,227.57119 22.038149,210.09152 14.978524,192.09394 11.485224,171.20248 9.3608574,158.49785 9.8550035,132.61283 12.443591,121 20.678825,84.055378 42.297635,52.427135 72.95291,32.47508 107.9161,9.7192081 151.41342,3.7430104 191.78066,16.149061 c 9.8372,3.023264 26.20677,10.992968 36.08485,17.568302 10.6596,7.095556 29.79422,26.053239 36.63449,36.295728 14.52874,21.755072 22.50379,45.210269 23.96639,70.486909 3.30768,57.16304 -26.37406,108.69428 -77.15023,133.94251 -23.20523,11.5387 -49.52208,16.13581 -77.8314,13.59582 z m 37.12044,-25.52315 c 37.33158,-7.78386 67.60324,-31.7127 83.4149,-65.93698 C 261.32838,180.75946 265.85017,157.79874 264.57157,143 261.33226,105.50767 242.7479,73.597546 212.38625,53.395598 198.6027,44.22434 183.88276,38.541259 166,35.486772 137.97778,30.7004 104.98458,39.048007 81.256362,56.927758 56.506254,75.577524 40.405925,102.16934 35.534278,132.44382 c -5.891613,36.61297 7.673941,75.01044 35.728957,101.13126 18.087843,16.84081 42.486895,27.78411 68.736765,30.82935 5.98369,0.69417 23.35921,-0.37842 30.6052,-1.88925 z M 95,188.37086 C 79.325,173.20124 66.5,160.15957 66.5,159.38938 66.5,157.67624 90.784245,136 92.703504,136 c 0.754782,0 6.823491,5.0625 13.486016,11.25 15.06509,13.99097 19.39906,17.75 20.46481,17.75 0.46003,0 18.72606,-17.88546 40.59119,-39.74546 l 39.75478,-39.745466 14.19779,14.197791 14.19779,14.197795 -8.92879,8.29767 c -4.91084,4.56372 -16.58741,15.45976 -25.94794,24.21342 -9.36053,8.75367 -26.0103,24.27867 -36.99949,34.5 -10.98918,10.22134 -23.88971,22.29675 -28.66783,26.83425 -4.77812,4.5375 -9.28697,8.2392 -10.01966,8.226 C 124.09948,215.9628 110.675,203.54048 95,188.37086 Z"
       id="path910"
       inkscape:connector-curvature="0" />
    <path
       style="fill:#148611"
       d="M 123.5,285.99127 C 108.88186,283.05628 101.2927,280.59901 89.766114,275.06869 63.045779,262.24859 38.106168,237.96317 25.001454,212.00288 7.5617167,177.45495 5.5175217,136.14654 19.434725,99.512272 30.920815,69.277426 55.092075,42.002287 84.053501,26.595675 105.30878,15.288504 124.99425,10.488553 150,10.515799 c 38.06331,0.04147 70.45425,13.627128 97.5,40.89419 27.73681,27.963778 40.49509,58.920651 40.49863,98.266501 0.003,29.05225 -6.87435,52.02489 -22.84781,76.32351 -18.06958,27.48721 -47.07183,48.77015 -78.15082,57.35 -18.41582,5.08398 -45.68454,6.21822 -63.5,2.64127 z m 49,-23.43586 c 34.72302,-7.38334 64.30527,-30.05993 79.87163,-61.22645 8.94607,-17.91155 11.88704,-30.51758 11.975,-51.32896 0.0709,-16.77432 -1.22658,-25.15297 -6.03933,-39 C 242.42899,65.315615 198.6154,34.105297 150.23923,34.018426 126.22133,33.975296 103.33409,40.921789 83.612047,54.240407 75.748266,59.550945 59.550945,75.748266 54.240407,83.612047 31.042863,117.96269 27.48318,163.78163 45.23705,199.5 63.190901,235.6207 96.316023,259.03565 137,264.36392 c 6.33986,0.83031 28.36734,-0.29185 35.5,-1.80851 z M 115.46576,207.14862 C 110.53459,202.36213 97.394147,189.63304 86.264771,178.86176 L 66.029543,159.27762 79.152804,147.66637 c 8.238797,-7.28956 13.584168,-11.34236 14.361597,-10.88881 0.681084,0.39734 7.706469,6.72252 15.611969,14.05595 7.9055,7.33343 15.21554,13.79088 16.24455,14.3499 1.62117,0.88071 7.19509,-4.30164 41.75614,-38.82282 l 39.88523,-39.839207 13.69172,13.691717 13.69171,13.69171 -8.92871,8.2976 c -10.09153,9.37821 -34.63692,32.29317 -57.54584,53.72333 -34.46933,32.24435 -41.46695,38.72371 -42.45541,39.31105 -0.56883,0.338 -5.06883,-3.30167 -10,-8.08817 z"
       id="path908"
       inkscape:connector-curvature="0" />
  </g>
</svg>
