<?xml version="1.0" encoding="UTF-8" standalone="no"?>
<svg width="22px" height="15px" viewBox="0 0 22 15" version="1.1" xmlns="http://www.w3.org/2000/svg" xmlns:xlink="http://www.w3.org/1999/xlink" xmlns:sketch="http://www.bohemiancoding.com/sketch/ns">
    <!-- Generator: Sketch 3.0.1 (7597) - http://www.bohemiancoding.com/sketch -->
    <title>cloud_outline_stroke</title>
    <description>Created with Sketch.</description>
    <defs>
        <path d="M17.875,14.0193103 L18.5625,13.9639007 C20.513625,13.6461296 22,11.9985269 22,10.0137931 C22,8.26939033 20.851875,6.78534621 19.248625,6.23592277 C19.190875,2.78183174 16.2889375,0 12.71875,0 C10.143375,0 7.9165625,1.44732688 6.853,3.55022343 C6.34975,3.01014619 5.6216875,2.67034483 4.81250001,2.67034483 C3.29381251,2.67034483 2.0625,3.86599174 2.0625,5.34068968 C2.0625,5.72588689 2.146375,6.09172412 2.2969375,6.4221793 C0.9356875,7.07641379 0,8.43895727 0,10.0137931 C0,11.9985269 1.486375,13.6461296 3.4375,13.9639007 L4.12500001,14.0193103 L10.9310345,14.0193103 L11.0689655,14 L17.875,14.0193103 Z M11.0689655,13.0344828 L11.0689655,13.0263521 L17.8266979,13.0263521 L18.4315433,13.0263522 C19.749096,12.8160625 21.057377,11.2167504 21.057377,9.93938719 C21.057377,8.8371569 20.325555,7.8495117 19.236014,7.48296963 L18.2690677,7.22403027 L18.2690675,6.28626499 C18.2246939,3.63974037 15.4837751,0.992958255 12.7066744,0.992958255 C10.7385375,0.992958255 8.9925785,2.05379845 7.957129,3.59716442 L7.042871,4.81655424 L5.96748065,4.06931555 C5.70533545,3.79196758 5.2471417,3.59716448 4.85597191,3.59716452 C3.71659612,3.59716465 2.99063233,4.66391638 2.99063233,5.38202628 C2.99063233,5.56627386 3.02954448,5.74335986 3.10668616,5.90937803 L3.4375,6.77380128 C1.79384768,7.34104275 0.942622955,8.94132516 0.942622955,9.93938719 C0.942622955,11.2167504 2.39904333,12.7796035 3.71659601,12.9898932 L4.1733021,13.0263521 L10.9310344,13.0263521 L10.9310344,13.0344828 L11.0689655,13.0344828 L11.0689655,13.0344828 Z" id="path-1"></path>
    </defs>
    <g id="miu" stroke="none" stroke-width="1" fill="none" fill-rule="evenodd" sketch:type="MSPage">
        <g id="cloud_outline_stroke">
            <use fill="#000000" fill-rule="evenodd" sketch:type="MSShapeGroup" xlink:href="#path-1"></use>
            <use fill="none" xlink:href="#path-1"></use>
        </g>
    </g>
</svg>