<?xml version="1.0" encoding="UTF-8" standalone="no"?>
<svg width="18px" height="22px" preserveAspectRatio="none" viewBox="0 0 18 22" version="1.1" xmlns="http://www.w3.org/2000/svg" xmlns:xlink="http://www.w3.org/1999/xlink" xmlns:sketch="http://www.bohemiancoding.com/sketch/ns">
    <!-- Generator: Sketch 3.0.1 (7597) - http://www.bohemiancoding.com/sketch -->
    <title>editor_copy_duplicate_outline_stroke</title>
    <description>Created with Sketch.</description>
    <defs>
        <path d="M0.206336333,3 C0.0923799227,3 0,3.09326804 0,3.21012923 L0,21.7898708 C0,21.9059219 0.0918992144,22 0.206336333,22 L14.7936637,22 C14.9076201,22 15,21.906732 15,21.7898708 L15,3.21012923 C15,3.09407806 14.9081008,3 14.7936637,3 L0.206336333,3 Z M1,4 L1,21 L14,21 L14,4 L1,4 Z M3,2 L4,2 L4,1 L17,1 L17,18 L16,18 L16,19 L18,19 L18,0 L3,0 L3,2 Z" id="path-1"></path>
    </defs>
    <g id="miu" stroke="none" stroke-width="1" fill="none" fill-rule="evenodd" sketch:type="MSPage">
        <g id="editor_copy_duplicate_outline_stroke">
            <use fill="#000000" fill-rule="evenodd" sketch:type="MSShapeGroup" xlink:href="#path-1"></use>
            <use fill="none" xlink:href="#path-1"></use>
        </g>
    </g>
</svg>