<?xml version="1.0" encoding="UTF-8" standalone="no"?>
<svg
   xmlns:dc="http://purl.org/dc/elements/1.1/"
   xmlns:cc="http://creativecommons.org/ns#"
   xmlns:rdf="http://www.w3.org/1999/02/22-rdf-syntax-ns#"
   xmlns:svg="http://www.w3.org/2000/svg"
   xmlns="http://www.w3.org/2000/svg"
   xmlns:sodipodi="http://sodipodi.sourceforge.net/DTD/sodipodi-0.dtd"
   xmlns:inkscape="http://www.inkscape.org/namespaces/inkscape"
   version="1.0"
   width="64pt"
   height="64pt"
   viewBox="0 0 85.333333 85.333333"
   preserveAspectRatio="xMidYMid meet"
   id="svg43"
   sodipodi:docname="desktop.svg"
   inkscape:version="0.92.2 (5c3e80d, 2017-08-06)">
  <defs
     id="defs47" />
  <sodipodi:namedview
     pagecolor="#ffffff"
     bordercolor="#666666"
     borderopacity="1"
     objecttolerance="10"
     gridtolerance="10"
     guidetolerance="10"
     inkscape:pageopacity="0"
     inkscape:pageshadow="2"
     inkscape:window-width="3840"
     inkscape:window-height="2035"
     id="namedview45"
     showgrid="false"
     inkscape:zoom="2"
     inkscape:cx="14.201063"
     inkscape:cy="22.783846"
     inkscape:window-x="-13"
     inkscape:window-y="-13"
     inkscape:window-maximized="1"
     inkscape:current-layer="svg43"
     fit-margin-top="0"
     fit-margin-left="0"
     fit-margin-right="0"
     fit-margin-bottom="0" />
  <metadata
     id="metadata35">
Created by potrace 1.15, written by Peter Selinger 2001-2017
<rdf:RDF>
  <cc:Work
     rdf:about="">
    <dc:format>image/svg+xml</dc:format>
    <dc:type
       rdf:resource="http://purl.org/dc/dcmitype/StillImage" />
    <dc:title></dc:title>
  </cc:Work>
</rdf:RDF>
</metadata>
  <g
     transform="matrix(0.1,0,0,-0.1,-4.49724,90.783846)"
     id="g41"
     style="fill:#000000;stroke:none">
    <path
       d="m 253,744 c -60,-30 -68,-53 -68,-204 0,-116 3,-139 19,-163 36,-53 57,-57 278,-57 186,0 206,2 236,20 49,30 62,71 62,202 0,132 -14,173 -70,200 -49,25 -408,26 -457,2 z m 452,-59 c 24,-23 25,-30 25,-145 0,-115 -1,-122 -25,-145 -24,-25 -25,-25 -219,-25 -107,0 -202,3 -211,6 -32,13 -45,59 -45,164 0,101 8,133 39,157 11,9 74,12 214,13 197,0 198,0 222,-25 z"
       id="path37"
       inkscape:connector-curvature="0" />
    <path
       d="m 180,261 c -13,-25 -13,-27 6,-45 13,-14 54,-16 294,-16 240,0 281,2 294,16 19,18 19,20 6,45 -10,18 -24,19 -300,19 -276,0 -290,-1 -300,-19 z"
       id="path39"
       inkscape:connector-curvature="0" />
  </g>
</svg>
