<?xml version="1.0" encoding="UTF-8" standalone="no"?>
<svg width="16px" height="16px" viewBox="0 0 16 16" version="1.1" xmlns="http://www.w3.org/2000/svg" xmlns:xlink="http://www.w3.org/1999/xlink" xmlns:sketch="http://www.bohemiancoding.com/sketch/ns">
    <!-- Generator: Sketch 3.0.1 (7597) - http://www.bohemiancoding.com/sketch -->
    <title>business_coin_money_salary_outline_stroke</title>
    <description>Created with Sketch.</description>
    <defs>
        <path d="M16,8 C16,3.58172178 12.4182782,0 8,0 C3.58172178,0 0,3.58172178 0,8 C0,12.4182782 3.58172178,16 8,16 C12.4182782,16 16,12.4182782 16,8 Z M1,8 C1,4.13400653 4.13400653,1 8,1 C11.8659935,1 15,4.13400653 15,8 C15,11.8659935 11.8659935,15 8,15 C4.13400653,15 1,11.8659935 1,8 Z M8.38176353,4.5 L8.38176353,5.19083585 C8.61823766,5.23548193 8.81162249,5.3271225 8.96192385,5.46576032 C9.1122252,5.60439814 9.25551034,5.81705127 9.39178357,6.10372608 L8.80561122,6.48791541 C8.62925764,6.11194844 8.39879902,5.92396777 8.11422846,5.92396777 C7.93787487,5.92396777 7.79158375,5.98506149 7.6753507,6.10725076 C7.55911766,6.22944002 7.501002,6.38217431 7.501002,6.56545821 C7.501002,6.73229355 7.54809572,6.87092929 7.64228457,6.98136959 C7.7344694,7.08946009 7.92084028,7.21752192 8.20140281,7.36555891 C8.44388899,7.49479756 8.64428779,7.61639755 8.80260521,7.73036254 C8.96092264,7.84432753 9.08015992,7.95417873 9.16032064,8.05991944 C9.38677468,8.34659425 9.5,8.6931836 9.5,9.09969789 C9.5,9.49916279 9.39779661,9.85162654 9.19338677,10.1570997 C8.99098095,10.4602231 8.72044258,10.664652 8.38176353,10.7703927 L8.38176353,11.5 L7.85571142,11.5 L7.85571142,10.7915408 C7.46292389,10.7163474 7.16332769,10.5577387 6.95691383,10.31571 C6.75049997,10.0736812 6.59819688,9.70006966 6.5,9.19486405 L7.16132265,9.0327291 C7.25150346,9.38989772 7.3617228,9.6448465 7.49198397,9.79758308 C7.62825719,9.94327028 7.80961811,10.0161128 8.03607214,10.0161128 C8.25651413,10.0161128 8.44088102,9.93269637 8.58917836,9.76586103 C8.73547167,9.60137548 8.80861723,9.38872235 8.80861723,9.12789527 C8.80861723,8.8952657 8.7474956,8.70845992 8.6252505,8.56747231 C8.56312594,8.49932829 8.47144349,8.42237371 8.3502004,8.33660624 C8.22895731,8.25083878 8.07414924,8.15743589 7.88577154,8.05639476 C7.49699204,7.85196272 7.24148358,7.66398206 7.11923848,7.49244713 C6.92484873,7.23631963 6.82765531,6.92967617 6.82765531,6.57250755 C6.82765531,6.40332242 6.85070117,6.24588861 6.89679359,6.10020141 C6.942886,5.95451421 7.0095186,5.8223403 7.09669339,5.70367573 C7.18386817,5.58501116 7.29158253,5.48220923 7.41983968,5.39526687 C7.54809683,5.30832451 7.69338596,5.24018152 7.85571142,5.19083585 L7.85571142,4.5 L8.38176353,4.5 Z" id="path-1"></path>
    </defs>
    <g id="miu" stroke="none" stroke-width="1" fill="none" fill-rule="evenodd" sketch:type="MSPage">
        <g id="business_coin_money_salary_outline_stroke">
            <use fill="#000000" fill-rule="evenodd" sketch:type="MSShapeGroup" xlink:href="#path-1"></use>
            <use fill="none" xlink:href="#path-1"></use>
        </g>
    </g>
</svg>