<?xml version="1.0" standalone="no"?>
<!DOCTYPE svg PUBLIC "-//W3C//DTD SVG 20010904//EN"
 "http://www.w3.org/TR/2001/REC-SVG-20010904/DTD/svg10.dtd">
<svg version="1.0" xmlns="http://www.w3.org/2000/svg"
 width="300.000000pt" height="300.000000pt" viewBox="0 0 300.000000 300.000000"
 preserveAspectRatio="xMidYMid meet">
<metadata>
Created by potrace 1.15, written by Peter Selinger 2001-2017
</metadata>
<g transform="translate(0.000000,300.000000) scale(0.100000,-0.100000)"
fill="#000000" stroke="none">
<path d="M1395 2945 c-70 -16 -141 -45 -190 -78 -61 -42 -155 -136 -155 -156
0 -5 -4 -11 -8 -13 -15 -6 -59 -132 -73 -206 l-13 -73 -64 -35 c-98 -53 -198
-132 -299 -232 -29 -30 -53 -56 -53 -59 0 -2 -6 -10 -13 -17 -6 -7 -21 -25
-32 -40 -11 -15 -28 -37 -38 -48 -9 -12 -17 -27 -17 -35 0 -7 -4 -13 -10 -13
-5 0 -10 -5 -10 -11 0 -6 -8 -23 -19 -37 -10 -15 -30 -58 -45 -97 -15 -38 -34
-84 -42 -102 -8 -17 -14 -42 -14 -56 0 -14 -4 -28 -9 -31 -15 -9 -33 -170 -35
-297 l-1 -118 -38 -22 c-73 -41 -147 -132 -196 -243 -18 -42 -21 -67 -21 -193
0 -150 5 -173 57 -267 45 -82 143 -170 243 -219 82 -40 89 -41 202 -45 120 -5
193 9 261 47 25 14 30 14 60 -4 17 -10 34 -21 37 -24 21 -24 207 -103 304
-130 88 -24 277 -51 351 -50 132 1 441 70 490 108 5 5 27 14 48 20 20 7 37 17
37 22 0 5 6 9 13 9 7 0 31 13 53 30 53 40 54 40 159 -14 11 -5 72 -12 137 -14
92 -4 128 -1 175 13 75 23 178 83 226 131 44 44 101 128 112 164 4 14 13 31
19 39 7 9 12 73 14 165 3 135 1 157 -17 204 -41 104 -115 200 -198 256 l-37
25 -2 131 c-4 176 -14 229 -73 400 -29 86 -98 222 -134 265 -4 6 -26 35 -48
65 -87 118 -245 251 -406 341 -32 18 -43 30 -43 48 0 57 -61 240 -82 249 -5 2
-8 10 -8 17 0 17 -138 155 -155 155 -7 0 -15 3 -17 8 -7 15 -101 52 -170 67
-86 18 -132 18 -213 0z m-365 -791 c0 -8 37 -52 83 -98 58 -59 101 -92 148
-115 70 -34 178 -61 246 -61 63 0 169 28 241 62 71 34 190 144 213 197 8 17
17 31 20 31 25 0 259 -184 259 -203 0 -3 10 -17 23 -30 12 -13 29 -34 37 -46
8 -13 21 -29 27 -36 13 -14 89 -159 110 -210 7 -17 17 -48 22 -70 5 -22 15
-58 20 -80 6 -22 13 -81 17 -131 l7 -92 -64 -7 c-173 -19 -295 -88 -412 -234
-99 -124 -112 -410 -25 -558 l19 -32 -23 -15 c-50 -33 -160 -76 -256 -101 -84
-22 -124 -26 -230 -26 -71 0 -146 3 -168 6 -55 10 -173 43 -214 62 -74 32
-141 66 -145 72 -2 4 4 21 14 37 38 63 56 145 56 259 0 159 -37 255 -141 365
-93 98 -204 151 -346 166 l-68 6 0 47 c0 58 17 175 32 221 67 214 119 305 258
449 65 68 210 180 233 181 4 0 7 -7 7 -16z"/>
</g>
</svg>
