<?xml version="1.0" encoding="UTF-8" standalone="no"?>
<!-- Created with Inkscape (http://www.inkscape.org/) -->

<svg
   xmlns:dc="http://purl.org/dc/elements/1.1/"
   xmlns:cc="http://creativecommons.org/ns#"
   xmlns:rdf="http://www.w3.org/1999/02/22-rdf-syntax-ns#"
   xmlns:svg="http://www.w3.org/2000/svg"
   xmlns="http://www.w3.org/2000/svg"
   xmlns:sodipodi="http://sodipodi.sourceforge.net/DTD/sodipodi-0.dtd"
   xmlns:inkscape="http://www.inkscape.org/namespaces/inkscape"
   version="1.1"
   id="svg972"
   width="300"
   height="300"
   viewBox="0 0 300 300"
   sodipodi:docname="download.svg"
   inkscape:version="0.92.2 5c3e80d, 2017-08-06">
  <metadata
     id="metadata978">
    <rdf:RDF>
      <cc:Work
         rdf:about="">
        <dc:format>image/svg+xml</dc:format>
        <dc:type
           rdf:resource="http://purl.org/dc/dcmitype/StillImage" />
        <dc:title></dc:title>
      </cc:Work>
    </rdf:RDF>
  </metadata>
  <defs
     id="defs976" />
  <sodipodi:namedview
     pagecolor="#ffffff"
     bordercolor="#666666"
     borderopacity="1"
     objecttolerance="10"
     gridtolerance="10"
     guidetolerance="10"
     inkscape:pageopacity="0"
     inkscape:pageshadow="2"
     inkscape:window-width="1141"
     inkscape:window-height="648"
     id="namedview974"
     showgrid="false"
     inkscape:zoom="0.78666667"
     inkscape:cx="150"
     inkscape:cy="99.152542"
     inkscape:window-x="91"
     inkscape:window-y="17"
     inkscape:window-maximized="0"
     inkscape:current-layer="svg972" />
  <path
     style="fill:#3448c8;stroke-width:1.11139154"
     d="M 131.59126,299.48084 C 88.338126,293.96021 48.667188,268.84327 25.116721,232.06841 -3.699974,187.07015 -6.5741427,130.55031 17.535706,82.989325 24.805807,68.647764 31.4797,59.419341 43.900366,46.53322 65.680266,23.93715 91.649753,9.9402469 123.57035,3.5930921 c 13.6883,-2.72180614 39.48991,-2.68480216 53.74536,0.077075 60.3384,11.6901039 106.82887,57.7176949 119.31932,118.1313329 3.07582,14.8771 2.83926,44.88401 -0.47624,60.40585 -12.49411,58.49271 -56.52118,102.86431 -114.13669,115.02983 -12.27455,2.59179 -38.54599,3.76059 -50.43084,2.24366 z m 96.62568,-49.45609 c 0.88182,-1.06716 1.17684,-8.28418 0.96753,-23.66841 l -0.30115,-22.13311 h -11.64429 -11.64431 l -0.31366,12.5408 -0.31366,12.54081 -54.58091,-0.28893 -54.580895,-0.28892 -0.55449,-12.25188 -0.554492,-12.25188 H 83.052311 71.408009 l -0.301508,22.24473 c -0.165837,12.2346 -0.05677,22.88537 0.242433,23.66841 0.837193,2.19115 155.055826,2.08142 156.868006,-0.11162 z m -45.31839,-82.13159 c 17.3624,-16.6123 31.72707,-30.88489 31.92148,-31.71689 0.2853,-1.22107 -3.34948,-1.57153 -18.85268,-1.8178 l -19.20614,-0.30509 -0.5545,-46.222985 -0.55448,-46.222998 H 150.14566 124.6391 l -0.55449,46.222998 -0.55448,46.222985 -19.13385,0.55691 c -11.615022,0.33806 -19.146001,0.99458 -19.164798,1.67071 -0.04091,1.47279 63.284318,61.8163 64.870838,61.8163 0.6755,0 15.43382,-13.59187 32.79623,-30.20414 z"
     id="path982"
     inkscape:connector-curvature="0" />
</svg>
