<?xml version="1.0" encoding="UTF-8" standalone="no"?>
<!-- Created with Inkscape (http://www.inkscape.org/) -->

<svg 
   xmlns:dc="http://purl.org/dc/elements/1.1/"
   xmlns:cc="http://creativecommons.org/ns#"
   xmlns:rdf="http://www.w3.org/1999/02/22-rdf-syntax-ns#"
   xmlns:svg="http://www.w3.org/2000/svg"
   xmlns="http://www.w3.org/2000/svg"
   version="1.0"
   width="18pt" height="18pt" viewBox="0 0 18 18">
<g>
	<path d="M1.88 1C1.4 1 1 1.4 1 1.88v14.24c0 .48.4.88.88.88h7.67v-6.2H7.46V8.4h2.09V6.61c0-2.07 1.26-3.2 3.1-3.2.88 0 1.64.07 1.87.1v2.16h-1.29c-1 0-1.19.48-1.19 1.18V8.4h2.39l-.31 2.42h-2.08V17h4.08c.48 0 .88-.4.88-.88V1.88c0-.48-.4-.88-.88-.88H1.88z" fill="#fff"></path>
</g>
</svg>
