<?xml version="1.0" encoding="UTF-8" standalone="no"?>
<!-- Created with Inkscape (http://www.inkscape.org/) -->

<svg
   xmlns:dc="http://purl.org/dc/elements/1.1/"
   xmlns:cc="http://creativecommons.org/ns#"
   xmlns:rdf="http://www.w3.org/1999/02/22-rdf-syntax-ns#"
   xmlns:svg="http://www.w3.org/2000/svg"
   xmlns="http://www.w3.org/2000/svg"
   xmlns:sodipodi="http://sodipodi.sourceforge.net/DTD/sodipodi-0.dtd"
   xmlns:inkscape="http://www.inkscape.org/namespaces/inkscape"
   version="1.1"
   id="svg701"
   width="300"
   height="300"
   viewBox="0 0 300 300"
   sodipodi:docname="flag.svg"
   inkscape:version="0.92.2 5c3e80d, 2017-08-06">
  <metadata
     id="metadata707">
    <rdf:RDF>
      <cc:Work
         rdf:about="">
        <dc:format>image/svg+xml</dc:format>
        <dc:type
           rdf:resource="http://purl.org/dc/dcmitype/StillImage" />
        <dc:title></dc:title>
      </cc:Work>
    </rdf:RDF>
  </metadata>
  <defs
     id="defs705" />
  <sodipodi:namedview
     pagecolor="#ffffff"
     bordercolor="#666666"
     borderopacity="1"
     objecttolerance="10"
     gridtolerance="10"
     guidetolerance="10"
     inkscape:pageopacity="0"
     inkscape:pageshadow="2"
     inkscape:window-width="1010"
     inkscape:window-height="644"
     id="namedview703"
     showgrid="false"
     inkscape:zoom="0.78666667"
     inkscape:cx="150"
     inkscape:cy="150"
     inkscape:window-x="243"
     inkscape:window-y="16"
     inkscape:window-maximized="0"
     inkscape:current-layer="svg701" />
  <g
     id="g711"
     transform="translate(1.2711868,1.2711862)">
    <path
       style="fill:#dba39f"
       d="M 124.5,289.39308 C 112.69217,287.28619 97.794396,282.41422 87.545646,277.30802 45.156166,256.18844 17.154264,218.71368 8.8573516,172 6.9478819,161.24921 7.223349,135.7367 9.3756235,124 17.217293,81.238107 44.626084,43.94401 83.201934,23.547351 95.262468,17.170444 110.66003,11.821905 124,9.3756235 135.7367,7.223349 161.24921,6.9478819 172,8.8573516 218.41751,17.10166 256.2893,45.191826 276.66821,86.491578 286.95204,107.33271 291,125.15185 291,149.58023 c 0,28.22135 -6.47217,51.33869 -20.97533,74.91977 -14.09955,22.92485 -35.18055,41.57973 -60.52467,53.55917 -19.87497,9.39433 -36.85706,12.98373 -60.80076,12.85109 -9.20373,-0.051 -19.65398,-0.70617 -24.19924,-1.51718 z m 47,-29.82886 c 34.78959,-7.44128 62.86607,-29.03094 78.41253,-60.29604 8.22624,-16.54357 11.332,-29.94259 11.41989,-49.26818 0.12109,-26.62458 -7.0196,-48.0875 -23.10604,-69.450331 C 214.05928,48.455691 170.94972,31.557125 131,38.517872 83.08022,46.867303 46.867303,83.08022 38.517872,131 c -6.979244,40.05588 9.90974,83.00702 42.224519,107.38307 16.410119,12.37868 35.860589,20.18487 57.257609,22.97961 6.24443,0.81561 26.31662,-0.26197 33.5,-1.79846 z m -49.43303,-39.98353 c -0.68701,-0.8278 -2.96183,-7.7096 -5.05514,-15.29289 C 114.91852,196.70451 107.4698,169.8 100.45911,144.5 93.448432,119.2 87.664624,97.65895 87.606209,96.631001 c -0.163079,-2.869753 2.868598,-4.386171 5.085255,-2.5436 2.302133,1.913622 10.453996,4.583473 16.425936,5.379726 6.49714,0.866283 21.74513,-1.627318 43.08694,-7.04627 16.23763,-4.122939 19.1952,-4.593683 26.29553,-4.185346 10.18824,0.585922 24.98285,5.024333 26.9376,8.081331 0.76779,1.200737 3.43949,9.608158 5.93711,18.683158 2.49761,9.075 6.58509,23.80777 9.08327,32.73948 2.49818,8.93171 4.54215,17.14421 4.54215,18.25 0,2.82546 -4.68605,2.66138 -14.61095,-0.51161 -16.93635,-5.41454 -29.16888,-5.26837 -51.55236,0.616 -19.47979,5.12103 -27.09177,6.19679 -35.70438,5.04593 -4.1751,-0.55789 -7.74654,-0.85891 -7.93653,-0.66892 -0.18999,0.19 2.41354,10.33428 5.78563,22.54286 3.37208,12.20858 5.99325,23.38356 5.82482,24.83329 -0.35087,3.02012 -2.89823,3.95197 -4.73926,1.73366 z"
       id="path725"
       inkscape:connector-curvature="0" />
    <path
       style="fill:#d68579"
       d="M 125.01774,288.41962 C 97.256894,283.35887 72.774606,270.98296 52.423922,251.72312 35.513143,235.71879 22.981737,216.06634 15.57866,193.94031 10.417676,178.51536 8.6095995,167.01983 8.5888562,149.5 8.5700927,133.65223 9.698935,124.88116 13.543826,111 32.025228,44.276855 98.224523,0.32870454 166.61212,9.3815716 c 33.40967,4.4226334 58.7921,16.9259524 82.39109,40.5856324 12.73529,12.768034 20.61694,23.728111 27.42392,38.135157 9.73592,20.606189 12.63167,33.238649 13.27195,57.897639 0.4435,17.08004 0.28047,19.48197 -2.12398,31.29367 -5.7288,28.14229 -18.2474,51.45099 -38.53612,71.75137 -20.61519,20.62704 -44.64272,33.33267 -73.60461,38.92174 -12.53902,2.41978 -38.35497,2.65166 -50.41663,0.45284 z M 171.5,260.56422 c 28.17177,-6.02577 52.34363,-21.46858 68.9715,-44.06422 9.55496,-12.98425 14.94125,-24.59367 19.1215,-41.21382 2.31122,-9.1891 2.71975,-12.93315 2.75914,-25.28618 0.05,-15.69991 -1.34738,-24.48468 -6.04484,-38 C 244.88851,79.146369 217.70336,52.501795 184.5,41.620601 125.24464,22.20181 61.000185,54.967855 41.605211,114.5 20.717639,178.61362 60.870898,247.22148 127,260.40979 c 4.125,0.82266 9.075,1.70146 11,1.95289 6.24443,0.81561 26.31662,-0.26197 33.5,-1.79846 z M 121.98866,217.75 c -0.53265,-1.2375 -2.50392,-7.875 -4.3806,-14.75 C 114.2178,190.58019 89.230308,100.08593 88.27341,96.762151 c -0.843255,-2.92904 2.70957,-3.436175 4.786156,-0.683183 0.992007,1.315133 2.100109,2.09469 2.462451,1.732349 0.362341,-0.362342 2.305618,-0.08106 4.318392,0.625075 10.554711,3.702868 22.558331,2.552478 52.381851,-5.020085 16.21975,-4.118399 19.17815,-4.589083 26.27761,-4.180796 9.33287,0.53673 25.04849,5.046733 26.3924,7.573984 0.49443,0.929778 2.95196,9.115505 5.46119,18.190505 2.50923,9.075 6.60621,23.80777 9.10439,32.73948 2.49818,8.93171 4.54215,16.91921 4.54215,17.75 0,2.23668 -4.49566,1.90255 -13.61095,-1.01161 -16.93406,-5.41381 -29.15991,-5.26831 -51.55236,0.61352 -17.93522,4.71105 -26.53817,6.06422 -33.83669,5.32221 -6.56069,-0.667 -9.88792,-1.79633 -11.23469,-3.8133 -1.50523,-2.2543 -0.64255,1.45141 5.73469,24.63375 3.575,12.99572 6.5,24.78449 6.5,26.19727 0,3.23737 -2.66396,3.44901 -4.01134,0.31868 z"
       id="path723"
       inkscape:connector-curvature="0" />
    <path
       style="fill:#ce645c"
       d="M 127.5,288.42492 C 83.776778,281.149 46.216221,254.49355 25.250205,215.86173 13.179067,193.61953 6.7343651,163.02504 9.0183553,138.80536 12.392564,103.02489 25.868143,74.0144 50.529705,49.438906 73.07832,26.968986 103.72683,12.32916 134,9.5677756 149.27515,8.1744442 151.97005,8.1275378 161,9.0978253 191.0898,12.33104 214.83263,21.70541 236.5,38.907446 270.55736,65.946078 289.98151,106.12901 289.99598,149.57511 290.0141,203.98112 257.91509,254.22639 208.57821,277.0201 184.1741,288.29483 153.0377,292.67461 127.5,288.42492 Z m 46,-27.90298 c 44.40914,-10.3236 76.65086,-42.69726 87.16525,-87.52194 2.67216,-11.3919 2.41143,-37.51312 -0.49181,-49.27237 C 251.65621,89.229602 230.87101,63.055363 199.39901,47.196049 184.65326,39.765399 167.91545,36 149.63074,36 134.8514,36 128.49391,36.941762 115,41.130002 86.121323,50.093367 62.081494,70.330616 48.29689,97.282125 43.825743,106.02406 38.931472,120.58004 37.107537,130.5602 c -2.816901,15.41345 -0.705938,39.95746 4.845548,56.33881 13.491209,39.80992 48.924308,68.74218 92.046915,75.15925 8.24617,1.22711 31.50379,0.32252 39.5,-1.53632 z m -51.46722,-43.93572 c -0.50475,-1.32758 -3.91325,-13.36508 -7.57446,-26.75 C 110.79711,176.4513 103.57122,150.24561 98.400785,131.60136 93.230353,112.95711 89,97.094608 89,96.35136 c 0,-2.204161 2.964193,-1.53735 3.994751,0.89864 0.523531,1.2375 3.236123,10.575 6.027982,20.75 2.791857,10.175 5.890597,21.425 6.886077,25 0.99548,3.575 2.54038,9.2 3.4331,12.5 0.89272,3.3 5.00599,18.42514 9.14061,33.61142 4.13461,15.18628 7.51748,28.12378 7.51748,28.75 0,2.12857 -3.04527,1.14972 -3.96722,-1.2752 z M 126,170.35446 c -7.16719,-1.1291 -8.60108,-1.44815 -9.72783,-2.16449 -0.6753,-0.42933 -2.5408,-5.2602 -4.14556,-10.73528 C 106.30327,137.58669 96,100.2666 96,99.041504 c 0,-0.790764 0.647763,-1.001169 1.75,-0.568429 10.16311,3.990055 25.41377,2.696245 54.62151,-4.633874 23.1808,-5.81757 26.81289,-5.912194 42.12849,-1.097549 7.09027,2.228912 9.24685,3.352214 10.16331,5.293803 0.63983,1.3555 5.04109,16.414545 9.78058,33.464545 4.73949,17.05 8.85952,31.78972 9.15563,32.75493 0.94404,3.07721 -2.23152,3.04049 -12.82812,-0.14835 -18.50526,-5.5688 -29.38988,-5.21414 -57.7714,1.88237 -15.88204,3.97114 -22.60418,5.05801 -27,4.36551 z"
       id="path721"
       inkscape:connector-curvature="0" />
    <path
       style="fill:#cb4439"
       d="M 125.01774,287.41962 C 96.385214,282.19996 71.440856,269.17003 50.690106,248.59384 1.713089,200.02884 -4.6036463,122.71217 35.853975,67 43.812848,56.040234 60.148655,40.312942 71.082949,33.083319 87.592498,22.167405 102.19638,16.094885 122,11.911217 135.7942,8.9970848 159.89367,8.728723 174,11.332166 230.18096,21.70084 273.95948,63.976641 286.5305,120 c 1.0765,4.7975 1.86295,14.01581 2.18254,25.5827 0.43282,15.66486 0.21536,19.56848 -1.62631,29.19458 -11.04094,57.70919 -54.23259,101.10863 -111.65236,112.1895 -12.53902,2.41978 -38.35497,2.65166 -50.41663,0.45284 z M 171.5,261.56422 c 9.48827,-2.02948 18.60755,-5.10996 27,-9.12055 20.86865,-9.97274 37.04305,-25.14735 50.9058,-47.75914 3.56512,-5.81513 8.54813,-18.90411 11.17839,-29.36249 C 262.90507,166.0938 263.31272,162.36453 263.35214,150 263.4537,118.14396 252.35286,91.087749 230.09719,68.94733 190.58035,29.63513 132.04743,23.942976 85,54.837055 77.65792,59.658292 60.306898,76.998883 55.207096,84.612047 24.014349,131.17768 29.417135,190.21277 68.476106,229.59965 87.4695,248.7525 110.0323,259.70972 138,263.36268 c 6.24443,0.81561 26.31662,-0.26197 33.5,-1.79846 z M 122.6016,217.25 c -0.29325,-0.9625 -2.75535,-9.85 -5.47133,-19.75 -14.52126,-52.93131 -27.072367,-98.193872 -27.632195,-99.648849 -0.612786,-1.592617 1.093774,-3.592636 2.157687,-2.528722 0.287485,0.287485 4.714054,15.745051 9.836818,34.350131 5.12277,18.60509 12.50761,45.37815 16.41077,59.49569 3.90316,14.11754 7.09665,26.60504 7.09665,27.75 0,2.529 -1.65904,2.75848 -2.3984,0.33175 z M 122,169.14215 c -5.7009,-0.87925 -6.62743,-1.48778 -7.4342,-4.8827 C 113.68525,160.55404 101.23039,115.67736 99.5069,110 c -0.751343,-2.475 -1.673356,-6.03006 -2.048919,-7.90013 -0.590548,-2.940574 -0.45171,-3.311441 1.027219,-2.743923 0.940534,0.360917 4.73422,1.125423 8.43041,1.698913 8.7462,1.35702 20.73155,-0.39863 45.28873,-6.634003 21.49141,-5.456939 28.19715,-5.616045 43.01891,-1.020705 l 8.72324,2.704557 1.94391,6.697641 c 1.06914,3.68371 4.94169,17.49765 8.60567,30.69765 3.66397,13.2 7.14835,25.6904 7.74307,27.75645 0.59471,2.06604 0.77269,4.06505 0.3955,4.44224 -0.81108,0.81109 -7.4192,-0.60981 -17.13464,-3.68434 -5.4533,-1.72574 -9.43053,-2.21665 -18,-2.22175 -11.15508,-0.007 -17.03717,1.01499 -38.19335,6.63359 -10.29369,2.73377 -20.5664,3.75551 -27.30665,2.71596 z"
       id="path719"
       inkscape:connector-curvature="0" />
    <path
       style="fill:#c63329"
       d="M 125,286.8626 C 95.414396,281.37083 71.730005,268.8807 50.472705,247.56012 31.889715,228.92181 19.044571,206.25149 13.485641,182.28185 7.3772051,155.94279 8.5677519,130.54064 17.142227,104.26295 33.218728,54.994238 79.620515,16.999484 131,11.033822 c 16.27932,-1.8901879 21.13581,-1.9625008 33.01672,-0.491617 19.93124,2.467534 31.96515,5.944074 47.48328,13.717697 26.25269,13.150973 49.94014,36.647389 62.74611,62.240098 19.14016,38.25156 19.59441,84.58239 1.20594,123 -16.46896,34.40733 -47.53048,61.60543 -83.22035,72.86941 -21.09702,6.65838 -46.4421,8.35222 -67.2317,4.49319 z m 48.5,-25.3417 c 45.05194,-10.47968 77.50171,-43.06034 88.16525,-88.5209 2.67216,-11.3919 2.41143,-37.51312 -0.49181,-49.27237 C 254.06346,94.929487 238.84465,72.28482 215.5,55.768289 195.80731,41.835552 174.12749,35 149.63074,35 134.82632,35 128.51246,35.938402 114.85919,40.167945 79.196614,51.215584 51.276518,79.183762 40.155784,115 35.978048,128.45512 35,134.90153 35,148.98227 c 0,26.6089 7.463681,48.88206 23.542784,70.25649 17.556812,23.3388 44.941616,39.32614 74.957216,43.76028 8.68205,1.28258 31.80511,0.4281 40,-1.47814 z M 123,217.62781 C 123,217.25438 107.54476,160.93773 95.982973,119.18169 90.69286,100.07616 89.504905,94.093916 91.396093,96.083333 91.92259,96.637177 125,215.98652 125,217.33237 125,217.69957 124.55,218 124,218 c -0.55,0 -1,-0.16748 -1,-0.37219 z m 0.14664,-48.64548 c -2.94435,-0.43398 -5.82215,-1.25784 -6.3951,-1.83079 -0.9609,-0.9609 -19.747029,-66.29941 -19.244661,-66.93329 0.122814,-0.15497 3.446871,0.2506 7.386801,0.90127 9.93476,1.64069 22.61096,-0.0402 47.60632,-6.31285 23.02019,-5.776935 26.71058,-5.872722 41.92079,-1.088089 7.97513,2.508711 9.02681,3.122898 9.9208,5.793804 4.03816,12.064465 18.23528,65.161775 17.60825,65.854975 -0.43323,0.47895 -5.41154,-0.52512 -11.1172,-2.2422 -18.57103,-5.58885 -29.42589,-5.23903 -57.83264,1.86379 -17.87375,4.46915 -22.46173,5.08287 -29.85336,3.99338 z"
       id="path717"
       inkscape:connector-curvature="0" />
    <path
       style="fill:#c42519"
       d="M 122.62664,286.03981 C 109.40484,283.17898 100.61663,280.30342 90.156437,275.41535 42.959289,253.36 12.547645,207.27688 10.360737,154.5 8.731134,115.17262 23.198891,78.626453 51.580635,50.37679 70.963415,31.084211 93.533518,19.001528 121.73395,12.820901 136.33216,9.6214447 162.5077,9.627197 176.8805,12.83302 234.08517,25.592397 274.41019,66.296352 286.02189,123 c 1.87881,9.17484 2.09672,12.89791 1.72657,29.5 -0.36219,16.24467 -0.80375,20.52268 -3.04494,29.5 -4.29331,17.19738 -9.97273,30.21731 -19.19321,44 -20.17565,30.15836 -48.23807,49.88644 -83.51031,58.70835 -9.24634,2.31259 -12.88793,2.66347 -30.5,2.93878 -16.79592,0.26255 -21.42155,0.005 -28.87336,-1.60732 z M 171.5,262.54382 c 26.39596,-5.569 50.03425,-19.80662 66.69524,-40.17132 11.24611,-13.74609 18.88089,-29.13864 23.43967,-47.25693 2.26524,-9.00294 2.67802,-12.8183 2.71723,-25.11557 C 264.45781,116.85531 252.40365,88.806856 228.2032,65.886153 192.26785,31.851092 141.92678,24.467657 97.5,46.716144 85.940589,52.504981 80.537137,56.433803 69.668004,66.952643 58.839272,77.432384 52.60003,85.735162 46.712751,97.5 c -16.765055,33.50243 -16.924684,70.1002 -0.449256,103 5.607451,11.19753 10.416205,17.9723 19.77324,27.85736 C 85.2259,248.62939 109.13637,260.5925 138,264.36271 c 6.13895,0.80188 26.25491,-0.29032 33.5,-1.81889 z M 119.07432,201.41765 C 114.75345,185.47429 91.493739,101.26289 90.371623,97.5 c -0.387989,-1.301077 -0.258269,-1.650538 0.371199,-1 0.532186,0.55 2.645537,7.075 4.696336,14.5 21.130652,76.50439 28.616282,104.33369 28.310652,105.25056 -0.19887,0.59661 -2.30284,-6.0782 -4.67549,-14.83291 z m 2.71771,-33.28285 c -2.58938,-0.39458 -4.90421,-0.92382 -5.14406,-1.1761 C 116.17421,166.46037 98,101.70108 98,100.51127 c 0,-0.39888 0.7875,-0.41627 1.75,-0.0386 9.22143,3.61803 22.55028,2.39027 50.75,-4.674741 18.447,-4.621617 20.66003,-4.968438 28.5,-4.466458 8.51458,0.545173 21.47368,3.835776 23.66978,6.010282 C 203.60321,98.265984 222,162.06376 222,164.37654 c 0,1.24009 -3.9308,0.56946 -13.12701,-2.23958 -17.39482,-5.31336 -26.92678,-4.97259 -53.80345,1.92345 -16.15703,4.1456 -25.39089,5.27616 -33.27751,4.07439 z"
       id="path715"
       inkscape:connector-curvature="0" />
    <path
       style="fill:#c51d11"
       d="M 128.5,286.44178 C 111.14241,283.15676 103.59372,280.79108 90.012088,274.38007 53.270401,257.03672 25.548828,223.56807 15.151659,184 2.75105,136.80752 16.549848,86.419442 51.454326,51.436162 58.636521,44.237752 70.143581,35.06747 77.025152,31.05809 82.153633,28.070106 95.578066,21.295578 97.5,20.725629 c 1.1,-0.326205 3.91247,-1.295695 6.24994,-2.154423 8.95235,-3.288867 19.89028,-5.677258 32.84622,-7.172252 12.33492,-1.4233354 14.5463,-1.4140597 26.67684,0.111896 7.27485,0.915136 16.602,2.552111 20.727,3.637721 44.14294,11.617467 79.26479,43.422263 95.35737,86.351429 11.51729,30.72392 11.48347,64.94644 -0.0949,96 -20.36025,54.60708 -72.76186,90.82107 -130.76252,90.3681 -7.15,-0.0558 -16.15,-0.69768 -20,-1.42632 z m 45,-23.92088 c 23.27142,-5.41324 41.42496,-15.33864 57.55361,-31.46729 C 243.70762,218.3996 252.65528,204.2616 258.30139,188 c 5.07678,-14.62182 6.12459,-21.31831 6.10242,-39 -0.0183,-14.57059 -0.33385,-17.72781 -2.69882,-27 C 255.79996,98.848579 245.24512,80.83148 228.33735,65.041494 219.17563,56.485456 212.17519,51.572501 201.37579,46.119699 163.0046,26.74543 115.2655,30.673232 81,56.023787 73.579903,61.513379 60.131119,75.109773 54.811229,82.5 c -8.552691,11.881133 -16.829387,32.05494 -19.717631,48.0602 -1.592489,8.8248 -1.344226,29.41306 0.474644,39.36187 9.000648,49.23152 48.407143,86.92765 98.431758,94.15952 8.33103,1.20439 31.55832,0.28665 39.5,-1.56069 z M 126,168.37254 c -1.375,-0.22656 -3.93115,-0.64257 -5.68034,-0.92448 -2.76427,-0.4455 -3.37664,-1.12976 -4.68072,-5.23031 -3.29906,-10.37355 -16.912591,-60.27572 -16.538736,-60.62489 0.219888,-0.20536 3.324796,0.0793 6.899796,0.63265 9.27126,1.43495 22.48177,-0.39618 45.92997,-6.366445 22.67645,-5.773769 27.03629,-5.916296 41.86178,-1.3685 l 9.04977,2.776067 6.18062,22.116688 c 3.39934,12.16417 7.66832,27.29168 9.48662,33.61668 1.81831,6.325 2.98275,11.62165 2.58765,11.77033 -0.3951,0.14868 -4.97868,-1.04108 -10.18572,-2.64391 -17.86207,-5.49829 -30.62899,-5.0895 -57.41069,1.83826 -15.13816,3.91587 -22.91791,5.16285 -27.5,4.40786 z"
       id="path713"
       inkscape:connector-curvature="0" />
  </g>
</svg>
