<?xml version="1.0" encoding="UTF-8" standalone="no"?>
<svg width="22px" height="22px" viewBox="0 0 22 22" version="1.1" xmlns="http://www.w3.org/2000/svg" xmlns:xlink="http://www.w3.org/1999/xlink" xmlns:sketch="http://www.bohemiancoding.com/sketch/ns">
    <!-- Generator: Sketch 3.0.1 (7597) - http://www.bohemiancoding.com/sketch -->
    <title>circle_gift_present_outline_stroke</title>
    <description>Created with Sketch.</description>
    <defs>
        <path d="M0,11 C0,4.92486745 4.92486745,0 11,0 C17.0751325,0 22,4.92486745 22,11 C22,17.0751325 17.0751325,22 11,22 C4.92486745,22 0,17.0751325 0,11 L0,11 Z M21,11 C21,5.47715225 16.5228478,1 11,1 C5.47715225,1 1,5.47715225 1,11 C1,16.5228478 5.47715225,21 11,21 C16.5228478,21 21,16.5228478 21,11 L21,11 Z M10.5,2 L10.5,5.5 L11,6.5 L11.5,5.5 L11.5,2 L10.5,2 L10.5,2 Z M11,13.5 L10.5,14.5 L10.5,20 L11.5,20 L11.5,14.5 L11,13.5 L11,13.5 Z M11.5,12 C11.5,12 13.0437731,13.4947447 13.2393799,14.4727783 C13.5437732,15.9947447 15.9095459,17.4428711 15.9095459,17.4428711 L15.4421387,16.2592774 L16.7529297,16.2592774 C16.7529297,16.2592774 14.6071777,15.2934571 14.3035889,14.0205078 C14,12.7475586 12.5,11.5 12.5,11.5 L11.5,12 L11.5,12 Z M10.6920426,12 C10.6920426,12 9.1482694,13.4947447 8.95266265,14.4727783 C8.64826935,15.9947447 6.28249665,17.4428711 6.28249665,17.4428711 L6.74990385,16.2592774 L5.43911285,16.2592774 C5.43911285,16.2592774 7.5848648,15.2934571 7.88845365,14.0205078 C8.19204255,12.7475586 9.69204255,11.5 9.69204255,11.5 L10.6920426,12 L10.6920426,12 Z M16,10.5 L14.5,11.5 L20,11.5 L20,10.5 L16,10.5 L16,10.5 Z M2,10.5 L2,11.5 L7.5,11.5 L6,10.5 L2,10.5 L2,10.5 Z M11,11.5 C11.2761424,11.5 11.5,11.2761424 11.5,11 C11.5,10.7238576 11.2761424,10.5 11,10.5 C10.7238576,10.5 10.5,10.7238576 10.5,11 C10.5,11.2761424 10.7238576,11.5 11,11.5 L11,11.5 Z M16.2301748,5.7651361 C13.3288971,2.86385693 11.2861242,8.59926015 11.2861242,8.59926015 L11.6396776,10.3670271 C11.6396776,10.3670271 13.7537801,4.70295416 15.5287649,6.4779398 C17.3037497,8.2529254 11.6396776,10.3670271 11.6396776,10.3670271 L13.4074445,10.7205804 C13.4074445,10.7205804 19.1314525,8.66641525 16.2301748,5.7651361 L16.2301748,5.7651361 Z M5.7651361,5.7698252 C2.86385693,8.67110295 8.59926015,10.7138758 8.59926015,10.7138758 L10.3670271,10.3603224 C10.3670271,10.3603224 4.70295416,8.2462199 6.4779398,6.4712351 C8.2529254,4.69625031 10.3670271,10.3603224 10.3670271,10.3603224 L10.7205804,8.59255545 C10.7205804,8.59255545 8.66641525,2.86854746 5.7651361,5.7698252 L5.7651361,5.7698252 Z" id="path-1"></path>
    </defs>
    <g id="miu" stroke="none" stroke-width="1" fill="none" fill-rule="evenodd" sketch:type="MSPage">
        <g id="circle_gift_present_outline_stroke">
            <use fill="#000000" fill-rule="evenodd" sketch:type="MSShapeGroup" xlink:href="#path-1"></use>
            <use fill="none" xlink:href="#path-1"></use>
        </g>
    </g>
</svg>