<?xml version="1.0" encoding="UTF-8" standalone="no"?>
<!-- Created with Inkscape (http://www.inkscape.org/) -->

<svg
   xmlns:dc="http://purl.org/dc/elements/1.1/"
   xmlns:cc="http://creativecommons.org/ns#"
   xmlns:rdf="http://www.w3.org/1999/02/22-rdf-syntax-ns#"
   xmlns:svg="http://www.w3.org/2000/svg"
   xmlns="http://www.w3.org/2000/svg"
   xmlns:sodipodi="http://sodipodi.sourceforge.net/DTD/sodipodi-0.dtd"
   xmlns:inkscape="http://www.inkscape.org/namespaces/inkscape"
   version="1.1"
   id="svg972"
   width="300"
   height="300"
   viewBox="0 0 300 300"
   sodipodi:docname="importr.svg"
   inkscape:version="0.92.2 5c3e80d, 2017-08-06">
  <metadata
     id="metadata978">
    <rdf:RDF>
      <cc:Work
         rdf:about="">
        <dc:format>image/svg+xml</dc:format>
        <dc:type
           rdf:resource="http://purl.org/dc/dcmitype/StillImage" />
        <dc:title></dc:title>
      </cc:Work>
    </rdf:RDF>
  </metadata>
  <defs
     id="defs976" />
  <sodipodi:namedview
     pagecolor="#ffffff"
     bordercolor="#666666"
     borderopacity="1"
     objecttolerance="10"
     gridtolerance="10"
     guidetolerance="10"
     inkscape:pageopacity="0"
     inkscape:pageshadow="2"
     inkscape:window-width="1141"
     inkscape:window-height="648"
     id="namedview974"
     showgrid="false"
     inkscape:zoom="0.78666667"
     inkscape:cx="150"
     inkscape:cy="99.152542"
     inkscape:window-x="91"
     inkscape:window-y="17"
     inkscape:window-maximized="0"
     inkscape:current-layer="svg972" />
  <path
     style="fill:#3448c8;stroke-width:1.11139154"
     d="M 298.65893,169.317 C 293.1383,212.57013 268.02136,252.24107 231.2465,275.79154 186.24824,304.60823 129.7284,307.4824 82.16742,283.37255 67.82586,276.10245 58.59744,269.42856 45.71131,257.00789 23.11524,235.22799 9.1183402,209.25851 2.7711902,177.33791 0.04938019,163.64961 0.08638019,137.848 2.8482902,123.59255 14.5384,63.254156 60.56599,16.763686 120.97962,4.273236 c 14.8771,-3.0758201 44.88401,-2.8392601 60.40585,0.47624 58.49268,12.49411 102.86428,56.52118 115.0298,114.136684 2.59179,12.27455 3.76059,38.54599 2.24366,50.43084 z M 249.20284,72.691326 c -1.06716,-0.88182 -8.28418,-1.17684 -23.66841,-0.96753 l -22.13311,0.30115 v 11.64429 11.64431 l 12.5408,0.31366 12.54081,0.31366 -0.28893,54.580904 -0.28892,54.5809 -12.25188,0.55449 -12.25188,0.55449 v 11.6443 11.6443 l 22.24473,0.30151 c 12.2346,0.16584 22.88537,0.0568 23.66841,-0.24243 2.19115,-0.8372 2.08142,-155.055824 -0.11162,-156.868004 z m -82.13159,45.318384 c -16.6123,-17.36239 -30.88489,-31.727064 -31.71689,-31.921474 -1.22107,-0.2853 -1.57153,3.34948 -1.8178,18.852674 l -0.30509,19.20614 -46.22298,0.5545 -46.223,0.55448 v 25.50657 25.50656 l 46.223,0.55449 46.22298,0.55448 0.55691,19.13385 c 0.33806,11.61502 0.99458,19.146 1.67071,19.1648 1.47279,0.0409 61.8163,-63.28432 61.8163,-64.87084 0,-0.6755 -13.59187,-15.43382 -30.20414,-32.79623 z"
     id="path982"
     inkscape:connector-curvature="0" />
</svg>
