<?xml version="1.0"?>
<svg xmlns="http://www.w3.org/2000/svg" viewBox="0 0 50 50">
    <path style="line-height:normal;text-indent:0;text-align:start;text-decoration-line:none;text-decoration-style:solid;text-decoration-color:#000;text-transform:none;block-progression:tb;isolation:auto;mix-blend-mode:normal" d="M 4 12 C 1.8026661 12 0 13.802666 0 16 L 0 34 C 0 36.197334 1.8026661 38 4 38 L 46 38 C 48.197334 38 50 36.197334 50 34 L 50 16 C 50 13.802666 48.197334 12 46 12 L 4 12 z M 4 14 L 46 14 C 47.116666 14 48 14.883334 48 16 L 48 34 C 48 35.116666 47.116666 36 46 36 L 4 36 C 2.8833339 36 2 35.116666 2 34 L 2 16 C 2 14.883334 2.8833339 14 4 14 z M 33.525391 22.308594 C 31.834391 22.308594 30.744141 23.445344 30.744141 25.277344 C 30.744141 27.113344 31.822391 28.251953 33.525391 28.251953 C 35.220391 28.251953 36.298828 27.113344 36.298828 25.277344 C 36.298828 23.445344 35.220391 22.309594 33.525391 22.308594 z M 6.9121094 22.462891 L 6.9121094 28.097656 L 9.6191406 28.097656 C 10.826141 28.097656 11.589844 27.460656 11.589844 26.472656 C 11.589844 25.753656 11.017297 25.179625 10.279297 25.140625 L 10.279297 25.066406 C 10.877297 24.984406 11.330078 24.472188 11.330078 23.867188 C 11.330078 22.992187 10.667969 22.462891 9.5429688 22.462891 L 6.9121094 22.462891 z M 13.015625 22.462891 L 13.015625 26.152344 C 13.015625 27.418344 13.980312 28.251953 15.445312 28.251953 C 16.910313 28.251953 17.871094 27.418344 17.871094 26.152344 L 17.871094 22.462891 L 16.4375 22.462891 L 16.4375 26.001953 C 16.4375 26.657953 16.082312 27.044922 15.445312 27.044922 C 14.808312 27.044922 14.449219 26.657953 14.449219 26.001953 L 14.449219 22.462891 L 13.015625 22.462891 z M 19.294922 22.462891 L 19.294922 23.615234 L 20.919922 23.615234 L 20.919922 28.099609 L 22.349609 28.099609 L 22.349609 23.615234 L 23.978516 23.615234 L 23.978516 22.462891 L 19.294922 22.462891 z M 25.089844 22.462891 L 25.089844 23.615234 L 26.714844 23.615234 L 26.714844 28.099609 L 28.144531 28.099609 L 28.144531 23.615234 L 29.773438 23.615234 L 29.773438 22.462891 L 25.089844 22.462891 z M 37.761719 22.462891 L 37.761719 28.099609 L 39.119141 28.099609 L 39.119141 24.896484 L 39.195312 24.896484 L 41.550781 28.099609 L 42.6875 28.099609 L 42.6875 22.462891 L 41.328125 22.462891 L 41.328125 25.634766 L 41.253906 25.634766 L 38.90625 22.462891 L 37.761719 22.462891 z M 8.3476562 23.472656 L 9.1601562 23.472656 C 9.6481562 23.472656 9.9335938 23.715187 9.9335938 24.117188 C 9.9335938 24.516187 9.6284687 24.759766 9.1054688 24.759766 L 8.3476562 24.759766 L 8.3476562 23.472656 z M 33.523438 23.496094 C 34.312438 23.496094 34.839844 24.191344 34.839844 25.277344 C 34.839844 26.367344 34.316437 27.0625 33.523438 27.0625 C 32.723437 27.0625 32.203125 26.367344 32.203125 25.277344 C 32.203125 24.191344 32.730438 23.496094 33.523438 23.496094 z M 8.3476562 25.630859 L 9.2050781 25.630859 C 9.7990781 25.630859 10.132812 25.888609 10.132812 26.349609 C 10.132812 26.825609 9.8088437 27.087891 9.2148438 27.087891 L 8.3476562 27.087891 L 8.3476562 25.630859 z" font-weight="400" font-family="sans-serif" white-space="normal" overflow="visible"/>
</svg>
