<?xml version="1.0" encoding="UTF-8" standalone="no"?>
<!-- Created with Inkscape (http://www.inkscape.org/) -->

<svg
   xmlns:dc="http://purl.org/dc/elements/1.1/"
   xmlns:cc="http://creativecommons.org/ns#"
   xmlns:rdf="http://www.w3.org/1999/02/22-rdf-syntax-ns#"
   xmlns:svg="http://www.w3.org/2000/svg"
   xmlns="http://www.w3.org/2000/svg"
   xmlns:sodipodi="http://sodipodi.sourceforge.net/DTD/sodipodi-0.dtd"
   xmlns:inkscape="http://www.inkscape.org/namespaces/inkscape"
   version="1.1"
   id="svg679"
   width="300"
   height="300"
   viewBox="0 0 300 300"
   sodipodi:docname="inspect.svg"
   inkscape:version="0.92.2 5c3e80d, 2017-08-06">
  <metadata
     id="metadata685">
    <rdf:RDF>
      <cc:Work
         rdf:about="">
        <dc:format>image/svg+xml</dc:format>
        <dc:type
           rdf:resource="http://purl.org/dc/dcmitype/StillImage" />
        <dc:title></dc:title>
      </cc:Work>
    </rdf:RDF>
  </metadata>
  <defs
     id="defs683" />
  <sodipodi:namedview
     pagecolor="#ffffff"
     bordercolor="#666666"
     borderopacity="1"
     objecttolerance="10"
     gridtolerance="10"
     guidetolerance="10"
     inkscape:pageopacity="0"
     inkscape:pageshadow="2"
     inkscape:window-width="1032"
     inkscape:window-height="628"
     id="namedview681"
     showgrid="false"
     inkscape:zoom="0.78666667"
     inkscape:cx="150"
     inkscape:cy="150"
     inkscape:window-x="198"
     inkscape:window-y="33"
     inkscape:window-maximized="0"
     inkscape:current-layer="svg679" />
  <g
     id="g689"
     transform="translate(1.2711902)">
    <path
       style="fill:#b6c9e1"
       d="M 135.41776,290.95679 C 88.536034,287.25611 43.849383,256.57263 22.046988,213.11228 -4.5008639,160.19246 4.9301283,95.029743 45.314907,52.344391 66.772251,29.664699 90.586954,16.390231 122.5,9.3209223 133.64634,6.8518086 163.97882,6.8305314 175.89021,9.2834708 233.85747,21.220792 276.92055,64.010964 289.1417,121.81724 c 2.9893,14.13945 2.92411,40.59211 -0.1358,55.10404 -2.94276,13.95632 -6.21448,23.57339 -12.10389,35.57872 -13.42032,27.35684 -36.35412,50.25374 -64.40201,64.2984 -23.34996,11.69223 -48.89146,16.38367 -77.08224,14.15839 z m 37.93296,-31.92198 C 217.70657,248.69237 250.02345,215.70279 259.59037,171 c 2.87946,-13.45467 2.48514,-33.58708 -0.92055,-47 C 254.03151,105.73255 248.21112,93.860016 236.16217,78.088481 224.16172,62.380442 201.90771,47.755805 180.5864,41.565838 146.78468,31.752578 110.13756,38.466458 82,59.627211 71.682879,67.386165 67.894597,71.13976 60.429707,81 c -19.021364,25.12498 -27.03912,56.82826 -21.86002,86.43746 3.405842,19.47138 10.503994,35.3237 23.458884,52.39079 16.227632,21.37868 45.247109,37.45493 74.471429,41.25579 9.0428,1.17608 27.39508,0.15553 36.85072,-2.04923 z M 196,214.00031 c -0.825,-0.53298 -5.1,-2.16649 -9.5,-3.63 -4.4,-1.46352 -8.88763,-3.27056 -9.97251,-4.01563 C 175.44262,205.60961 173.55667,205 172.33651,205 c -1.22016,0 -2.47788,-0.41972 -2.79493,-0.93272 -0.31705,-0.513 -3.15611,-1.45589 -6.30902,-2.09531 -3.15291,-0.63942 -7.67807,-2.00899 -10.05592,-3.0435 -4.18745,-1.82178 -4.27434,-1.9509 -2.76401,-4.1072 1.20021,-1.71354 2.65659,-2.26777 6.32336,-2.40637 6.51208,-0.24617 12.51869,-1.67894 12.99205,-3.09903 0.54467,-1.634 -6.58351,-9.31587 -8.6444,-9.31587 -0.926,0 -2.11114,0.39215 -2.63364,0.87145 -0.5225,0.4793 -3.50361,1.65524 -6.62469,2.6132 -4.39651,1.34944 -8.113,1.6461 -16.5,1.31707 -9.6927,-0.38024 -11.50538,-0.75959 -17.32531,-3.62572 -12.08938,-5.95365 -16.19557,-9.23954 -21.891411,-17.51817 -10.355047,-15.05055 -11.683942,-32.99551 -3.70799,-50.07149 4.620255,-9.89166 11.987981,-17.253519 23.176611,-23.158168 8.9217,-4.70831 8.92407,-4.708897 19.42279,-4.818528 9.09656,-0.09499 11.69919,0.283088 19.47187,2.828619 8.59251,2.814023 9.33502,3.300279 17.56066,11.5 7.37893,7.355677 9.06014,9.688667 11.93481,16.561737 3.06678,7.33236 3.34767,8.87627 3.36578,18.5 0.0196,10.43074 -1.11121,15.80263 -4.84766,23.02812 -0.817,1.57991 -1.48546,3.64048 -1.48546,4.57904 0,0.93856 7.425,9.21534 16.5,18.39284 15.69613,15.87341 16.5,16.87757 16.5,20.61105 0,4.66023 -3.90506,11.02216 -7.63639,12.4408 -3.20292,1.21775 -8.4392,1.19171 -10.36361,-0.0515 z m -38.50708,-40.98886 c 0.35034,-0.56686 -0.0511,-0.7345 -0.94098,-0.39301 -1.73242,0.66479 -2.04939,1.38156 -0.61096,1.38156 0.51754,0 1.21592,-0.44485 1.55194,-0.98855 z m 8.07206,-5.1166 c 0.48462,-0.78412 0.0909,-0.78107 -1.38861,0.0108 -1.13574,0.60783 -2.36935,1.59762 -2.74135,2.19954 -0.48462,0.78412 -0.0909,0.78107 1.38861,-0.0108 1.13574,-0.60783 2.36935,-1.59762 2.74135,-2.19954 z m 5.20296,-4.64485 c 3.43422,-4.95981 3.7091,-5.85873 1.15395,-3.77377 -3.03758,2.47863 -4.92189,4.66654 -4.92189,5.7149 0,1.69745 1.94088,0.69757 3.76794,-1.94113 z M 177,153.44098 c 0,-0.85746 -0.45,-1.2809 -1,-0.94098 -0.55,0.33992 -1,1.04148 -1,1.55902 0,0.51754 0.45,0.94098 1,0.94098 0.55,0 1,-0.70156 1,-1.55902 z m -33.71958,-5.86904 c 0.30598,-2.96467 1.90031,-7.96799 3.63246,-11.39935 3.82652,-7.58031 3.98955,-11.35127 0.58712,-13.58063 -2.79692,-1.83262 -3.27818,-4.35611 -0.99766,-5.23123 0.87875,-0.33721 2.31774,0.40222 3.46674,1.78138 1.60708,1.92902 1.97043,2.04766 1.99765,0.6523 0.0517,-2.65197 -4.58746,-8.82768 -8.20197,-10.9185 -7.57112,-4.37954 -7.49032,-4.36566 -14.58208,-2.50422 -5.33363,1.39996 -7.57547,2.63681 -11.10522,6.12688 l -4.42253,4.37282 1.33859,7.3143 c 0.754,4.11996 2.1006,8.05933 3.0834,9.02022 0.95964,0.93825 2.06581,3.16745 2.45816,4.95379 0.80354,3.65851 4.21611,6.75626 9.42317,8.55386 1.93341,0.66746 3.97124,1.82512 4.52852,2.57259 1.33657,1.79272 4.0531,3.25358 6.37549,3.42852 1.55049,0.1168 1.96668,-0.76834 2.41816,-5.14273 z m -36.46858,-45.83342 c 0.46613,-2.420405 -1.50601,-2.178485 -2.85963,0.35078 -0.95762,1.78933 -0.85664,2.03894 0.70333,1.73852 1.00182,-0.19293 1.97216,-1.13312 2.1563,-2.0893 z"
       id="path703"
       inkscape:connector-curvature="0" />
    <path
       style="fill:#a0abd6"
       d="M 133.17884,289.96386 C 111.96891,287.92221 88.813264,279.30461 69.827457,266.38703 38.469482,245.05166 18.538632,214.53303 9.818643,174.5 7.7348831,164.93356 8.0613319,131.46605 10.335615,121.5 17.084934,91.924086 28.967314,70.062458 49.495799,49.451693 69.565541,29.301509 89.741522,18.17112 119.5,10.832804 c 7.7231,-1.9044844 11.83755,-2.2274099 29,-2.2760832 20.81981,-0.059046 24.06705,0.3442937 41,5.0926082 10.55119,2.958748 28.49429,11.251484 37.5917,17.373691 36.76428,24.740962 59.31522,62.525143 63.02781,105.60334 3.37457,39.15609 -8.85287,76.78189 -34.56876,106.37364 -15.10473,17.38128 -39.63378,33.65961 -61.55075,40.8472 -17.10966,5.61106 -41.05576,8.01927 -60.82116,6.11666 z m 37.47688,-29.45922 c 38.3875,-8.00402 69.21389,-33.54722 83.72141,-69.37279 5.34511,-13.19946 7.90844,-26.44679 7.95895,-41.13185 0.0668,-19.42874 -3.91531,-35.63608 -13.05297,-53.125905 C 232.50559,64.761283 204.04761,44.349444 166.5,37.496878 134.31219,31.622494 95.746597,43.989299 70.184879,68.382191 63.176016,75.070569 53.297023,88.84537 48.585031,98.5 31.98431,132.51402 31.920109,167.11165 48.397147,199.74972 c 8.453609,16.74508 18.088488,28.62669 31.328694,38.63412 17.212333,13.00971 37.253919,21.11648 59.274159,23.97624 5.96472,0.77463 24.15542,-0.29158 31.65572,-1.85544 z M 198,213.26796 c -3.45993,-1.32432 -19.49455,-16.23432 -23.53697,-21.88616 -2.40678,-3.365 -6.69305,-8.20144 -9.52503,-10.74763 l -5.14905,-4.62944 3.28919,-2.75236 c 1.80905,-1.51381 5.73961,-5.00237 8.73459,-7.75237 5.15521,-4.73354 5.50514,-4.89342 6.56634,-3 0.61651,1.1 8.15558,9.2 16.75348,18 8.5979,8.8 16.17366,17.05441 16.83503,18.34314 3.59136,6.99808 -6.40344,17.32008 -13.96758,14.42482 z m -60.73097,-30.96095 c 0.97297,-0.25354 2.32297,-0.23687 3,0.0371 0.67703,0.27393 -0.11903,0.48137 -1.76903,0.46099 -1.65,-0.0204 -2.20394,-0.2445 -1.23097,-0.49804 z M 126,173.10801 c -14.82571,-4.78405 -24.90072,-15.35136 -28.983223,-30.39945 -2.768011,-10.20288 0.640902,-24.90139 7.816763,-33.70422 5.17982,-6.35424 7.77488,-8.4493 15.11758,-12.204825 6.1613,-3.151285 6.94748,-3.298408 17.5,-3.274864 10.51117,0.02345 11.35713,0.184378 17.3828,3.306755 9.0764,4.703204 14.32889,9.972964 18.53233,18.593264 6.04314,12.39311 5.78235,26.83666 -0.68329,37.84329 -3.94706,6.71917 -11.67491,14.03753 -18.18296,17.21946 -5.24557,2.56467 -7.25738,2.96457 -16,3.18041 -5.5,0.13579 -11.125,-0.11613 -12.5,-0.55982 z m 26.6453,-9.88066 c 12.50808,-8.02707 18.01592,-19.63375 14.44768,-30.44561 -0.67664,-2.05025 -2.07673,-3.9592 -3.15476,-4.30135 -1.93864,-0.6153 -2.06253,-1.18063 -2.33333,-10.64733 -0.12835,-4.48721 -2.95446,-7.72919 -10.58271,-12.14002 C 145.99439,102.78587 144.73902,102.5 137,102.5 c -6.97334,0 -9.38419,0.43517 -13.42291,2.42291 -14.53057,7.15152 -21.06741,23.64522 -15.51296,39.14219 5.72335,15.96817 16.0685,23.25374 32.08117,22.59316 6.55059,-0.27023 8.34042,-0.76149 12.5,-3.43091 z"
       id="path701"
       inkscape:connector-curvature="0" />
    <path
       style="fill:#969ea6"
       d="M 126.5,288.44469 C 86.577238,281.69904 52.389163,259.11018 30.4769,225 14.522024,200.16351 6.2985644,167.51981 8.876352,139.25486 12.058354,104.36481 24.49133,76.252226 47.311014,52.349076 62.45783,36.483097 81.964787,23.702667 102,16.518333 121.18524,9.6387867 145.14602,6.9339325 165.00882,9.4054724 226.93676,17.111201 273.89334,59.90308 287.48522,121.01912 c 0.95398,4.28959 1.89823,14.32506 2.21347,23.52472 0.86881,25.35463 -3.00501,44.07375 -13.64927,65.95616 -20.10099,41.32352 -57.02719,69.36789 -101.97431,77.44653 -13.42179,2.41238 -34.91429,2.63744 -47.57511,0.49816 z m 46,-27.8692 c 22.61338,-4.87325 40.67972,-14.71221 57.0215,-31.05399 20.66855,-20.66855 31.40132,-44.85937 33.06037,-74.51545 1.80298,-32.22894 -9.2074,-61.244087 -32.08187,-84.543858 -22.87511,-23.300424 -49.05113,-34.425341 -81,-34.425341 -32.61132,0 -60.313962,12.05547 -83.126484,36.174492 C 46.322264,93.410953 36.036851,119.61508 36.036851,149.5 c 0,31.33375 10.988495,57.70298 33.374331,80.08882 18.726124,18.72612 38.740078,28.63444 65.588818,32.4711 7.89954,1.12883 29.30564,0.28148 37.5,-1.48443 z M 193.32073,209.75 c -7.67749,-6.44999 -15.56997,-14.32995 -18.32564,-18.29655 -1.54617,-2.2256 -5.41721,-6.69451 -8.6023,-9.9309 l -5.79109,-5.88436 3.89998,-3.06909 c 2.14499,-1.68801 5.59178,-4.7566 7.65955,-6.8191 2.06776,-2.0625 3.98285,-3.75 4.25575,-3.75 0.2729,0 4.67822,4.3383 9.7896,9.64067 5.11138,5.30237 13.00592,13.47874 17.54342,18.16971 7.48723,7.74046 8.25,8.89242 8.25,12.45933 0,3.13641 -0.68677,4.61706 -3.4,7.33029 -4.68923,4.68923 -9.81628,4.73956 -15.27927,0.15 z M 129,172.88343 c -6.75084,-1.80574 -17.85056,-7.97562 -21.38359,-11.88626 -10.955259,-12.12616 -13.605591,-29.85266 -6.64418,-44.43898 9.70931,-20.344026 33.91071,-28.71325 53.88028,-18.632643 6.91544,3.490903 16.50109,13.400653 19.31717,19.970293 4.04546,9.43768 3.3225,24.27053 -1.66063,34.07083 -7.76416,15.26976 -28.08973,25.04117 -43.50905,20.91676 z m 21.23064,-6.74134 c 19.18128,-9.33293 26.18118,-30.98248 15.6507,-48.40506 -7.74645,-12.81643 -23.31162,-19.384144 -37.48272,-15.81582 -6.0241,1.51689 -14.82864,8.11057 -18.44549,13.81375 -9.03673,14.24944 -7.86716,29.23041 3.25636,41.71073 7.50808,8.42387 15.00256,11.69609 25.79051,11.26058 4.30974,-0.17399 8.09405,-1.03802 11.23064,-2.56418 z"
       id="path699"
       inkscape:connector-curvature="0" />
    <path
       style="fill:#7888b4"
       d="M 126.5,288.44469 C 86.577238,281.69904 52.389163,259.11018 30.4769,225 14.522024,200.16351 6.2985644,167.51981 8.876352,139.25486 12.058354,104.36481 24.49133,76.252226 47.311014,52.349076 62.45783,36.483097 81.964787,23.702667 102,16.518333 121.18524,9.6387867 145.14602,6.9339325 165.00882,9.4054724 226.93676,17.111201 273.89334,59.90308 287.48522,121.01912 c 0.95398,4.28959 1.89823,14.32506 2.21347,23.52472 0.86881,25.35463 -3.00501,44.07375 -13.64927,65.95616 -20.10099,41.32352 -57.02719,69.36789 -101.97431,77.44653 -13.42179,2.41238 -34.91429,2.63744 -47.57511,0.49816 z m 46,-27.8692 c 22.61338,-4.87325 40.67972,-14.71221 57.0215,-31.05399 20.66855,-20.66855 31.40132,-44.85937 33.06037,-74.51545 1.80298,-32.22894 -9.2074,-61.244087 -32.08187,-84.543858 -22.87511,-23.300424 -49.05113,-34.425341 -81,-34.425341 -32.61132,0 -60.313962,12.05547 -83.126484,36.174492 C 46.322264,93.410953 36.036851,119.61508 36.036851,149.5 c 0,31.33375 10.988495,57.70298 33.374331,80.08882 18.726124,18.72612 38.740078,28.63444 65.588818,32.4711 7.89954,1.12883 29.30564,0.28148 37.5,-1.48443 z M 189,202.67003 c -9.71542,-9.44813 -24.5,-25.51002 -24.5,-26.61666 0,-0.40904 2.6104,-3.12946 5.80088,-6.04538 l 5.80089,-5.30169 3.44911,3.34302 c 4.16823,4.04 4.2956,4.88516 0.69912,4.63894 -1.99724,-0.13673 -2.64906,0.22234 -2.38126,1.31174 0.20281,0.825 0.60435,3.46143 0.89231,5.85874 0.46318,3.85598 1.48757,5.32057 8.88126,12.69763 4.59673,4.58639 8.35769,8.77576 8.35769,9.3097 0,1.43076 6.39664,5.13393 8.86803,5.13393 2.65875,0 2.76484,1.59093 0.19771,2.96482 -4.60666,2.4654 -7.27554,1.25357 -16.06574,-7.29479 z m -64,-32.91209 c -8.45783,-2.99652 -15.59134,-8.56213 -20.21026,-15.76819 -4.708,-7.34503 -6.16829,-13.18946 -5.581217,-22.33731 1.435277,-22.36471 21.978287,-39.284688 43.457287,-35.793016 11.21246,1.822722 22.64941,9.048096 26.68989,16.861536 1.96959,3.80876 6.6443,17.9454 6.6443,20.0928 0,6.56355 -6.48508,23.39093 -9.45361,24.53006 -2.07902,0.7978 -2.03006,0.61019 1.70361,-6.52852 3.1051,-5.93689 3.24263,-6.67526 3.08459,-16.56104 -0.12272,-7.67741 -0.57679,-10.91565 -1.75983,-12.55068 -9.02265,-12.46975 -10.57624,-14.17413 -15.97491,-17.52546 -5.07248,-3.14885 -6.88172,-3.70399 -13.094,-4.01769 -16.49107,-0.832763 -26.26107,4.3743 -33.9084,18.07197 -2.21138,3.96098 -2.6715,6.13184 -2.86006,13.49399 -0.19324,7.54517 0.16416,9.76903 2.55263,15.88296 3.60922,9.23878 7.90234,14.09425 16.20954,18.33281 6.06413,3.09408 7.56815,3.44056 14.87338,3.42641 6.01662,-0.0117 9.49038,-0.57713 13.37706,-2.17757 2.8875,-1.189 5.25,-1.70239 5.25,-1.14087 0,1.93414 -8.82304,4.79681 -16.6528,5.40308 -6.65171,0.51505 -8.83745,0.25678 -14.3472,-1.69527 z"
       id="path697"
       inkscape:connector-curvature="0" />
    <path
       style="fill:#5464ca"
       d="M 135.5,288.95571 C 104.16913,286.31249 74.080192,272.00325 50.431682,248.50023 29.939853,228.13446 17.748744,205.50318 11.376967,176 8.5124696,162.73654 8.7393292,134.89738 11.824185,121.1195 16.264873,101.28606 24.115027,83.172806 34.827792,68.041542 41.4757,58.651693 57.686207,42.267411 66.872809,35.653007 82.613943,24.319303 100.60059,16.418348 121.1195,11.824185 134.92819,8.7324306 162.76549,8.5023357 176,11.370559 c 29.43393,6.37901 51.93047,18.420538 72.05039,38.565775 12.19213,12.207482 19.68642,22.466805 26.70925,36.563666 11.73397,23.55351 16.27879,47.2939 14.21929,74.27611 -2.55404,33.46129 -16.561,63.82922 -40.4673,87.73552 -23.93727,23.93727 -54.125,37.87496 -87.68578,40.48456 -6.77922,0.52714 -13.22585,0.90451 -14.32585,0.83862 -1.1,-0.0659 -6.05,-0.46149 -11,-0.8791 z m 35.00979,-27.40056 C 225.16881,250.00183 263.0225,204.53498 263.38567,150 263.76048,93.71684 223.59789,46.433329 167,36.524919 138.43942,31.52491 105.19713,39.903421 80.848393,58.238896 57.425881,75.87689 41.740075,101.94422 36.589508,131.79018 c -7.231509,41.90438 12.780702,88.02318 48.499673,111.76911 16.095789,10.70046 32.363849,16.63315 54.410819,19.84272 5.33287,0.77635 23.80384,-0.32373 31.00979,-1.84686 z M 189,202.67003 c -9.71542,-9.44813 -24.5,-25.51002 -24.5,-26.61666 0,-0.40904 2.6104,-3.12946 5.80088,-6.04538 l 5.80089,-5.30169 3.44911,3.34302 c 4.16823,4.04 4.2956,4.88516 0.69912,4.63894 -1.99724,-0.13673 -2.64906,0.22234 -2.38126,1.31174 0.20281,0.825 0.60435,3.46143 0.89231,5.85874 0.46318,3.85598 1.48757,5.32057 8.88126,12.69763 4.59673,4.58639 8.35769,8.77576 8.35769,9.3097 0,1.43076 6.39664,5.13393 8.86803,5.13393 2.65875,0 2.76484,1.59093 0.19771,2.96482 -4.60666,2.4654 -7.27554,1.25357 -16.06574,-7.29479 z m -18.27954,-82.00182 c -1.11427,-2.83307 -0.93262,-4.28037 0.37332,-2.97443 0.60158,0.60158 0.92578,1.92908 0.72046,2.95 -0.36008,1.79033 -0.3989,1.79119 -1.09378,0.0244 z m -67.68719,-1.55018 C 102.9219,114.49199 114.79005,101.94267 121.5,99.591392 130.21023,96.539191 136.25785,95.758573 142.39418,96.8944 149.2299,98.15968 159,102.36391 159,104.04013 c 0,0.63893 -2.33517,-0.16246 -5.25,-1.8017 -6.67807,-3.755615 -18.67,-5.095588 -25.92394,-2.896735 -6.56702,1.990625 -13.76253,6.913845 -17.84639,12.210635 -1.91382,2.48222 -4.2522,5.5109 -5.1964,6.7304 -1.07942,1.39414 -1.72908,1.70424 -1.75,0.8353 z"
       id="path695"
       inkscape:connector-curvature="0" />
    <path
       style="fill:#727273"
       d="M 135.5,288.05158 C 74.612359,282.15968 25.20212,237.22312 12.293087,176 9.5446621,162.96516 9.7767407,133.78766 12.731126,120.9286 20.662195,86.40838 38.53826,58.320856 65.5,38.016226 88.327168,20.825304 114.5773,11.450223 143.1487,10.284448 c 40.58952,-1.6561401 76.96718,12.529869 105.19248,41.021372 28.84972,29.121819 43.24506,68.85628 39.70717,109.60091 -1.62253,18.68611 -4.97771,31.38278 -12.67483,47.96418 -18.31163,39.4475 -54.85271,68.1686 -97.9031,76.95131 -11.49841,2.3458 -30.39464,3.34951 -41.97042,2.22936 z m 35.01584,-25.51777 c 23.7067,-4.94299 43.98526,-15.83419 60.28797,-32.37945 C 252.95744,207.67113 264.38578,179.98229 264.29962,149 264.14301,92.687991 223.59108,45.319316 167.20982,35.589508 139.97676,30.889853 108.76525,37.956781 84.5,54.31671 76.77307,59.526303 59.526303,76.77307 54.31671,84.5 37.912913,108.83031 30.877251,139.90374 35.589508,167.20982 43.929602,215.53811 80.749297,253.45023 128,262.3621 c 4.675,0.88174 9.85,1.79893 11.5,2.03819 5.24727,0.7609 23.75713,-0.35299 31.01584,-1.86648 z M 189,202.67003 c -9.71542,-9.44813 -24.5,-25.51002 -24.5,-26.61666 0,-0.40904 2.6104,-3.12946 5.80088,-6.04538 l 5.80089,-5.30169 3.44911,3.34302 c 4.16823,4.04 4.2956,4.88516 0.69912,4.63894 -1.99724,-0.13673 -2.64906,0.22234 -2.38126,1.31174 0.20281,0.825 0.60435,3.46143 0.89231,5.85874 0.46318,3.85598 1.48757,5.32057 8.88126,12.69763 4.59673,4.58639 8.35769,8.77576 8.35769,9.3097 0,1.43076 6.39664,5.13393 8.86803,5.13393 2.65875,0 2.76484,1.59093 0.19771,2.96482 -4.60666,2.4654 -7.27554,1.25357 -16.06574,-7.29479 z m -18.27954,-82.00182 c -1.11427,-2.83307 -0.93262,-4.28037 0.37332,-2.97443 0.60158,0.60158 0.92578,1.92908 0.72046,2.95 -0.36008,1.79033 -0.3989,1.79119 -1.09378,0.0244 z m -67.68719,-1.55018 C 102.9219,114.49199 114.79005,101.94267 121.5,99.591392 130.21023,96.539191 136.25785,95.758573 142.39418,96.8944 149.2299,98.15968 159,102.36391 159,104.04013 c 0,0.63893 -2.33517,-0.16246 -5.25,-1.8017 -6.67807,-3.755615 -18.67,-5.095588 -25.92394,-2.896735 -6.56702,1.990625 -13.76253,6.913845 -17.84639,12.210635 -1.91382,2.48222 -4.2522,5.5109 -5.1964,6.7304 -1.07942,1.39414 -1.72908,1.70424 -1.75,0.8353 z"
       id="path693"
       inkscape:connector-curvature="0" />
    <path
       style="fill:#3347c7"
       d="M 135.5,288.05158 C 74.612359,282.15968 25.20212,237.22312 12.293087,176 9.5446621,162.96516 9.7767407,133.78766 12.731126,120.9286 20.662195,86.40838 38.53826,58.320856 65.5,38.016226 88.327168,20.825304 114.5773,11.450223 143.1487,10.284448 c 40.58952,-1.6561401 76.96718,12.529869 105.19248,41.021372 28.84972,29.121819 43.24506,68.85628 39.70717,109.60091 -1.62253,18.68611 -4.97771,31.38278 -12.67483,47.96418 -18.31163,39.4475 -54.85271,68.1686 -97.9031,76.95131 -11.49841,2.3458 -30.39464,3.34951 -41.97042,2.22936 z m 35.01584,-25.51777 c 23.7067,-4.94299 43.98526,-15.83419 60.28797,-32.37945 C 252.95744,207.67113 264.38578,179.98229 264.29962,149 264.14301,92.687991 223.59108,45.319316 167.20982,35.589508 139.97676,30.889853 108.76525,37.956781 84.5,54.31671 76.77307,59.526303 59.526303,76.77307 54.31671,84.5 37.912913,108.83031 30.877251,139.90374 35.589508,167.20982 43.929602,215.53811 80.749297,253.45023 128,262.3621 c 4.675,0.88174 9.85,1.79893 11.5,2.03819 5.24727,0.7609 23.75713,-0.35299 31.01584,-1.86648 z"
       id="path691"
       inkscape:connector-curvature="0" />
  </g>
</svg>
