<?xml version="1.0" encoding="UTF-8"?>
<svg xmlns="http://www.w3.org/2000/svg" xmlns:xlink="http://www.w3.org/1999/xlink" viewBox="0 0 24 24" version="1.1" width="96px" height="96px">
<g id="surface1">
<path style=" " d="M 1.59375 0 C 0.695313 0 0 0.695313 0 1.59375 L 0 12.5 C 0 13.300781 0.695313 14 1.59375 14 L 4 14 L 2 16 L 3 16 L 3 19 L 6 22 L 9 22 L 9 23 L 10 22 L 10 22.3125 C 10 23.210938 10.789063 24 11.6875 24 L 22.3125 24 C 23.210938 24 24 23.210938 24 22.3125 L 24 11.6875 C 24 10.789063 23.210938 10 22.3125 10 L 14.09375 10 L 14.09375 1.59375 C 13.992188 0.695313 13.304688 0 12.40625 0 Z M 1.8125 1.8125 L 12.1875 1.8125 L 12.1875 10 L 11.6875 10 C 10.789063 10 10 10.789063 10 11.6875 L 10 12.3125 L 1.8125 12.3125 Z M 6 3 L 6 4 L 3 4 L 3 5 L 9.15625 5 C 8.53125 6.152344 7.761719 7.082031 6.96875 7.84375 C 6.585938 7.507813 6.25 7.183594 6 6.90625 C 5.328125 6.152344 5.125 5.71875 5.125 5.71875 L 3.875 6.28125 C 3.875 6.28125 4.160156 6.972656 4.9375 7.84375 C 5.195313 8.132813 5.53125 8.449219 5.90625 8.78125 C 4.300781 10.015625 2.875 10.53125 2.875 10.53125 L 3.34375 11.875 C 3.34375 11.875 5.109375 11.25 7.03125 9.6875 C 7.589844 10.089844 8.222656 10.492188 8.96875 10.90625 L 9.625 9.6875 C 9.035156 9.363281 8.542969 9.035156 8.09375 8.71875 C 8.984375 7.832031 9.847656 6.742188 10.53125 5.40625 L 9.71875 5 L 11 5 L 11 4 L 8 4 L 8 3 Z M 16.09375 12.3125 L 18.1875 12.3125 L 21.59375 21.59375 L 19.40625 21.59375 L 18.6875 19.59375 L 15.40625 19.59375 L 14.6875 21.59375 L 12.59375 21.59375 Z M 5 14 L 10 14 L 10 19 L 9 18 L 9 19 L 6 19 L 6 16 L 7 16 Z M 17 14.90625 L 15.8125 18.1875 L 18.09375 18.1875 Z "/>
</g>
</svg>
