<?xml version="1.0" encoding="UTF-8" standalone="no"?>
<svg width="22px" height="16px" preserveAspectRatio="none" viewBox="0 0 22 16" version="1.1" xmlns="http://www.w3.org/2000/svg" xmlns:xlink="http://www.w3.org/1999/xlink" xmlns:sketch="http://www.bohemiancoding.com/sketch/ns">
    <!-- Generator: Sketch 3.0.1 (7597) - http://www.bohemiancoding.com/sketch -->
    <title>common_email_envelope_mail_outline_stroke</title>
    <description>Created with Sketch.</description>
    <defs>
        <path d="M0,2 L11,11 L22,2 L22,0 L0,0 L0,2 Z M1,1.3598633 L11,9.64599609 L21,1.35986328 L21,1 L1,1.00000001 L1,1.3598633 Z M0,14.2492676 L1,13.2657471 L1,4.08032227 L0,3.37805176 L0,14.2492676 Z M22,14.3959961 L21,13.4884033 L21,4.14892578 L22,3.45056152 L22,14.3959961 Z M19.4274609,14.9220581 L2.46092719,14.9220581 L7.39596865,9.81403696 L6.49999999,9 L0,16 L22,16 L15.4899292,9 L14.5943921,9.81403696 L19.4274609,14.9220581 Z" id="path-1"></path>
    </defs>
    <g id="miu" stroke="none" stroke-width="1" fill="none" fill-rule="evenodd" sketch:type="MSPage">
        <g id="common_email_envelope_mail_outline_stroke">
            <use fill="#000000" fill-rule="evenodd" sketch:type="MSShapeGroup" xlink:href="#path-1"></use>
            <use fill="none" xlink:href="#path-1"></use>
        </g>
    </g>
</svg>