<?xml version="1.0" encoding="UTF-8" standalone="no"?>
<svg
   xmlns:sketch="http://www.bohemiancoding.com/sketch/ns"
   xmlns:dc="http://purl.org/dc/elements/1.1/"
   xmlns:cc="http://creativecommons.org/ns#"
   xmlns:rdf="http://www.w3.org/1999/02/22-rdf-syntax-ns#"
   xmlns:svg="http://www.w3.org/2000/svg"
   xmlns="http://www.w3.org/2000/svg"
   xmlns:xlink="http://www.w3.org/1999/xlink"
   xmlns:sodipodi="http://sodipodi.sourceforge.net/DTD/sodipodi-0.dtd"
   xmlns:inkscape="http://www.inkscape.org/namespaces/inkscape"
   width="28"
   height="28"
   viewBox="0 0 28 28"
   version="1.1"
   id="svg3808"
   sodipodi:docname="mobile.svg"
   inkscape:version="0.92.2 (5c3e80d, 2017-08-06)">
  <metadata
     id="metadata3812">
    <rdf:RDF>
      <cc:Work
         rdf:about="">
        <dc:format>image/svg+xml</dc:format>
        <dc:type
           rdf:resource="http://purl.org/dc/dcmitype/StillImage" />
        <dc:title>device_smart-phone_vertical_glyph</dc:title>
      </cc:Work>
    </rdf:RDF>
  </metadata>
  <sodipodi:namedview
     pagecolor="#ffffff"
     bordercolor="#666666"
     borderopacity="1"
     objecttolerance="10"
     gridtolerance="10"
     guidetolerance="10"
     inkscape:pageopacity="0"
     inkscape:pageshadow="2"
     inkscape:window-width="3840"
     inkscape:window-height="2035"
     id="namedview3810"
     showgrid="false"
     inkscape:zoom="2.8284271"
     inkscape:cx="6.8898305"
     inkscape:cy="11.5"
     inkscape:window-x="-13"
     inkscape:window-y="-13"
     inkscape:window-maximized="1"
     inkscape:current-layer="svg3808" />
  <!-- Generator: Sketch 3.0.1 (7597) - http://www.bohemiancoding.com/sketch -->
  <title
     id="title3797">device_smart-phone_vertical_glyph</title>
  <description>Created with Sketch.</description>
  <defs
     id="defs3800">
    <path
       d="M 2,0 C 2,0 0,0 0,2.0030817 V 20.030817 c 0,2.003081 2,2.003081 2,2.003081 h 9 c 0,0 2,0 2,-2.003081 V 2.0030817 C 13,0 11,0 11,0 Z M 1,2.5 v 16 h 11 v -16 z m 5.5,18.699997 c 0.5522848,0 1,-0.447715 1,-1 0,-0.552285 -0.4477152,-1 -1,-1 -0.5522848,0 -1,0.447715 -1,1 0,0.552285 0.4477152,1 1,1 z M 4.2212953,1 C 4.0990773,1 4,1.0965536 4,1.2211029 v 0.058565 C 4,1.4017796 4.099877,1.5007707 4.2212953,1.5007707 H 8.7787047 C 8.9009227,1.5007704 9,1.4042168 9,1.2796676 V 1.2211029 C 9,1.0989911 8.9001231,1 8.7787047,1 Z"
       id="path-1"
       inkscape:connector-curvature="0" />
  </defs>
  <g
     id="miu"
     sketch:type="MSPage"
     style="fill:none;fill-rule:evenodd;stroke:none;stroke-width:1"
     transform="translate(7.309322,2.9533899)">
    <g
       id="device_smart-phone_vertical_glyph">
      <use
         sketch:type="MSShapeGroup"
         xlink:href="#path-1"
         id="use3802"
         style="fill:#000000;fill-rule:evenodd"
         x="0"
         y="0"
         width="100%"
         height="100%" />
      <use
         xlink:href="#path-1"
         id="use3804"
         style="fill:none"
         x="0"
         y="0"
         width="100%"
         height="100%" />
    </g>
  </g>
</svg>
