<?xml version="1.0" encoding="UTF-8" standalone="no"?>
<svg viewBox="0 0 23 16" preserveAspectRatio="none" version="1.1" xmlns="http://www.w3.org/2000/svg" xmlns:xlink="http://www.w3.org/1999/xlink" xmlns:sketch="http://www.bohemiancoding.com/sketch/ns">
    <!-- Generator: Sketch 3.0.1 (7597) - http://www.bohemiancoding.com/sketch -->
    <title>device_volume_loudspeaker_speaker_mute_outline_stroke</title>
    <description>Created with Sketch.</description>
    <defs>
        <path d="M11,8.97905294 L11,16 L3.12499999,11.2 L1.04166667,11.2 C1.55717661e-11,11.2 0,10.1333333 0,10.1333333 L0,5.86666667 C0,5.86666667 0,4.8 1.04166667,4.8 L3.12499999,4.8 L3.85024313,4.35794704 L4.71882468,4.91933779 L3.12183619,5.80212402 L1.00000012,5.80212402 L1.00000012,10.1168213 L3.12183619,10.1168213 L10,14 L10,8.33272245 L11,8.97905294 L11,8.97905294 Z M11,5.4069824 L11,0 L6.69457828,2.62425704 L7.69775372,3.27263992 L10,2 L10,4.7606519 L11,5.4069824 Z M14.1802905,11.0345717 C13.2920443,12.4644872 12,13 12,13 L12,11.8888889 C12,11.8888889 12.8033118,11.5484337 13.3917163,10.5248921 L14.1802933,11.0345735 L14.1802905,11.0345717 Z M14.9999958,7.99230165 C14.9959009,4.24170927 12,3 12,3 L12,4.11111112 C12,4.11111112 13.6981499,4.83081175 13.9649203,7.3233008 L15.0000006,7.99230476 L14.9999958,7.99230165 Z M16.5503019,12.5663823 C15.7839152,13.5689114 15,14 15,14 L15,12.7336426 C15,12.7336426 15.3346288,12.5230259 15.7301327,12.036282 L16.5503019,12.5663823 L16.5503019,12.5663823 Z M17.811166,9.80924671 C17.9299137,9.26675238 18,8.66492081 18,8 C17.9999999,3.6497521 15,2 15,2 L15,3.22436523 C15,3.22436523 17,4.52516526 17,8 C17,8.44457275 16.9672624,8.85287175 16.910164,9.22690165 L17.811166,9.80924671 L17.811166,9.80924671 Z M19.0281452,14.167888 C18.4646078,14.7771309 18,15 18,15 L18,13.6801758 C18,13.6801758 18.049804,13.653231 18.1336934,13.5897766 L19.0281452,14.167888 L19.0281452,14.167888 Z M20.4979965,11.5458272 C20.7976236,10.610603 21,9.44432876 21,8 C20.9999999,2.43907878 18,1 18,1 L18,2.2980957 C18,2.2980957 19.9999999,3.40185547 20,8 C20,9.23639098 19.8553973,10.2185622 19.6439561,10.9938348 L20.4979965,11.5458272 L20.4979965,11.5458272 Z M1.96191409,1.80151368 L21.5144041,14.675781 L22.0603411,13.8379548 L2.5078511,0.963687459 L1.96191409,1.80151368 Z" id="path-1"></path>
    </defs>
    <g id="miu" stroke="none" stroke-width="1" fill="none" fill-rule="evenodd" sketch:type="MSPage">
        <g id="device_volume_loudspeaker_speaker_mute_outline_stroke">
            <use fill="#000000" fill-rule="evenodd" sketch:type="MSShapeGroup" xlink:href="#path-1"></use>
            <use fill="none" xlink:href="#path-1"></use>
        </g>
    </g>
</svg>