<?xml version="1.0" encoding="UTF-8" standalone="no"?>
<!-- Created with Inkscape (http://www.inkscape.org/) -->

<svg
   xmlns:dc="http://purl.org/dc/elements/1.1/"
   xmlns:cc="http://creativecommons.org/ns#"
   xmlns:rdf="http://www.w3.org/1999/02/22-rdf-syntax-ns#"
   xmlns:svg="http://www.w3.org/2000/svg"
   xmlns="http://www.w3.org/2000/svg"
   xmlns:sodipodi="http://sodipodi.sourceforge.net/DTD/sodipodi-0.dtd"
   xmlns:inkscape="http://www.inkscape.org/namespaces/inkscape"
   version="1.1"
   id="svg80"
   width="64"
   height="64"
   viewBox="0 0 64 64"
   sodipodi:docname="okbutton.svg"
   inkscape:version="0.92.2 5c3e80d, 2017-08-06">
  <metadata
     id="metadata86">
    <rdf:RDF>
      <cc:Work
         rdf:about="">
        <dc:format>image/svg+xml</dc:format>
        <dc:type
           rdf:resource="http://purl.org/dc/dcmitype/StillImage" />
        <dc:title></dc:title>
      </cc:Work>
    </rdf:RDF>
  </metadata>
  <defs
     id="defs84" />
  <sodipodi:namedview
     pagecolor="#ffffff"
     bordercolor="#666666"
     borderopacity="1"
     objecttolerance="10"
     gridtolerance="10"
     guidetolerance="10"
     inkscape:pageopacity="0"
     inkscape:pageshadow="2"
     inkscape:window-width="1201"
     inkscape:window-height="678"
     id="namedview82"
     showgrid="false"
     inkscape:zoom="1.4142136"
     inkscape:cx="32"
     inkscape:cy="26.494624"
     inkscape:window-x="29"
     inkscape:window-y="4"
     inkscape:window-maximized="0"
     inkscape:current-layer="svg80" />
  <path
     style="fill:#000000"
     d="m 5.3382989,60.972323 c -1.19705,-1.115223 -2.4307,-3.040679 -2.74145,-4.278791 -0.31075,-1.238113 -0.42869,-12.914025 -0.2621,-25.946471 0.29556,-23.122369 0.35792,-23.7503906 2.57874,-25.971209 2.22081,-2.220819 2.84884,-2.283176 25.9712041,-2.57874 13.032446,-0.166589 24.708358,-0.04864 25.946471,0.262105 1.238112,0.310747 3.163568,1.544399 4.278791,2.7414499 1.92637,2.0677161 2.027677,3.443334 2.027677,27.5333491 V 58.090909 L 60.683087,60.545455 58.228541,63 H 32.871648 C 8.7816289,63 7.4060189,62.898693 5.3382989,60.972323 Z M 59.566203,59.428571 c 1.345991,-1.34599 1.571429,-5.211295 1.571429,-26.943296 0,-25.0849506 -0.02513,-25.3894711 -2.222506,-26.9285711 C 57.051748,4.251543 52.769686,4 32.415126,4 9.4709689,4 8.0277889,4.109841 6.1376289,5.9999999 c -1.89015,1.8901589 -2,3.3333333 -2,26.2774941 0,20.35456 0.25155,24.636622 1.55671,26.5 C 7.2334389,60.974867 7.5379589,61 32.622907,61 54.354908,61 58.220213,60.774562 59.566203,59.428571 Z M 18.79262,45.171259 C 17.454309,43.69244 17.137629,41.138934 17.137629,31.826247 17.137629,18.895531 18.010679,17 23.966373,17 c 5.970585,0 7.171259,2.511429 7.171259,15 0,9.666667 -0.242424,11.242424 -2,13 -2.553554,2.553554 -8.105881,2.645472 -10.345012,0.171259 z m 7.345012,-13.24081 c 0,-10.907549 -0.03293,-11.064874 -2.25,-10.75 -2.127265,0.30212 -2.26581,0.833672 -2.539841,9.744534 C 21.015663,41.725015 21.306921,43 24.106247,43 c 1.919506,0 2.031385,-0.609659 2.031385,-11.069551 z m 8,0.06955 V 17 h 2.5 c 2.390827,0 2.503756,0.272934 2.586001,6.25 l 0.086,6.25 2.917319,-6.25 c 2.149861,-4.605812 3.442587,-6.25 4.914,-6.25 2.551017,0 2.559809,-0.05852 -1.072208,7.136466 l -3.068888,6.079433 3.074265,7.64205 c 3.651476,9.07689 3.681862,9.373282 0.918757,8.961602 C 45.439114,46.588053 44.300007,45.053356 42.858957,41.25 41.764915,38.3625 40.480054,36 40.003711,36 c -0.476344,0 -0.866079,2.475 -0.866079,5.5 0,5.2 -0.136364,5.5 -2.5,5.5 h -2.5 z"
     id="path90"
     inkscape:connector-curvature="0" />
</svg>
