<?xml version="1.0" encoding="UTF-8" standalone="no"?>
<!-- Created with Inkscape (http://www.inkscape.org/) -->

<svg
   xmlns:dc="http://purl.org/dc/elements/1.1/"
   xmlns:cc="http://creativecommons.org/ns#"
   xmlns:rdf="http://www.w3.org/1999/02/22-rdf-syntax-ns#"
   xmlns:svg="http://www.w3.org/2000/svg"
   xmlns="http://www.w3.org/2000/svg"
   xmlns:sodipodi="http://sodipodi.sourceforge.net/DTD/sodipodi-0.dtd"
   xmlns:inkscape="http://www.inkscape.org/namespaces/inkscape"
   version="1.1"
   id="svg171"
   width="300"
   height="300"
   viewBox="0 0 300 300"
   sodipodi:docname="pin.svg"
   inkscape:version="0.92.2 5c3e80d, 2017-08-06">
  <metadata
     id="metadata177">
    <rdf:RDF>
      <cc:Work
         rdf:about="">
        <dc:format>image/svg+xml</dc:format>
        <dc:type
           rdf:resource="http://purl.org/dc/dcmitype/StillImage" />
        <dc:title></dc:title>
      </cc:Work>
    </rdf:RDF>
  </metadata>
  <defs
     id="defs175" />
  <sodipodi:namedview
     pagecolor="#ffffff"
     bordercolor="#666666"
     borderopacity="1"
     objecttolerance="10"
     gridtolerance="10"
     guidetolerance="10"
     inkscape:pageopacity="0"
     inkscape:pageshadow="2"
     inkscape:window-width="1097"
     inkscape:window-height="655"
     id="namedview173"
     showgrid="false"
     inkscape:zoom="0.78666667"
     inkscape:cx="150"
     inkscape:cy="150"
     inkscape:window-x="149"
     inkscape:window-y="22"
     inkscape:window-maximized="0"
     inkscape:current-layer="svg171" />
  <g
     id="g181"
     transform="translate(1.2711895)">
    <path
       style="fill:#a9ccaa"
       d="M 123.76917,289.42244 C 112.84417,287.44669 95.972778,281.79556 86,276.77151 30.021673,248.57098 -1.3857686,187.25023 9.0083813,126.45097 19.063249,67.636308 62.008811,22.968358 121.1195,9.8434954 134.78974,6.8081716 161.63394,6.549681 175.374,9.3210629 220.04324,18.33089 256.08622,45.548323 276.60822,85.766902 c 5.35318,10.491049 10.80167,26.907848 12.87367,38.789568 2.23635,12.82423 2.0347,38.70774 -0.39941,51.26437 -11.16799,57.61155 -55.65009,102.09365 -113.26164,113.26164 -12.0831,2.34231 -39.97233,2.52446 -52.05167,0.33996 z m 47.85266,-29.94888 c 45.07936,-10.20522 76.56053,-41.25107 87.55734,-86.3466 1.64644,-6.75166 2.11274,-11.8876 2.14516,-23.62696 0.0363,-13.1281 -0.29872,-16.3373 -2.6842,-25.71612 C 250.81128,93.003764 235.37961,71.385541 209.21785,54.548195 169.46383,28.963065 117.59639,31.723452 79.526788,61.450359 70.307196,68.64954 65.150882,74.115625 57.783405,84.5 20.017881,137.73008 35.565807,211.88718 91.582337,245.70676 103.33796,252.80414 120.9693,258.90738 136,261.08233 c 7.77232,1.12466 27.47886,0.23467 35.62183,-1.60877 z M 102.75,199.31067 c -2.14606,-0.56082 -2.26648,-2.63714 -0.25,-4.31067 0.825,-0.68469 1.5,-2.21033 1.5,-3.39031 0,-1.39328 3.68108,-5.81398 10.5,-12.60969 6.7628,-6.73978 10.5,-11.22135 10.5,-12.59136 0,-1.16991 -1.35,-4.65695 -3,-7.74898 -2.55491,-4.78779 -3,-6.71739 -3,-13.00591 0,-9.02079 1.68849,-11.65671 9.75094,-15.22231 C 132.81255,128.6352 136.02162,128 141.03463,128 c 6.42692,0 7.05826,-0.21539 11.93842,-4.07293 l 5.15264,-4.07293 -0.6611,-5.29129 c -0.57719,-4.61961 -0.33313,-5.81083 1.92255,-9.38407 3.68797,-5.842114 5.28981,-6.405024 17.12209,-6.016958 9.79859,0.321366 10.50207,0.491977 14.15098,3.431948 2.11188,1.70158 5.30229,4.99906 7.08979,7.32774 3.11,4.05158 3.25,4.62007 3.25,13.19672 0,7.67094 -0.31767,9.39243 -2.20403,11.94387 C 195.72705,139.21304 190.59008,142 186.00794,142 181.41108,142 177,143.50213 177,145.06752 c 0,0.61436 -0.9,2.26119 -2,3.65961 -1.64908,2.09647 -2,4.05678 -2,11.17254 0,6.84525 -0.43539,9.4541 -2.10532,12.61514 C 166.76623,180.3296 165.62091,181 156.39835,181 c -7.46977,0 -8.88364,-0.3287 -14.89775,-3.46347 -5.28128,-2.75279 -6.98903,-3.23494 -8.32267,-2.34974 -0.92286,0.61255 -5.94996,5.77111 -11.17133,11.46347 C 116.78522,192.34262 112.00282,197 111.37904,197 c -0.62378,0 -1.69435,0.675 -2.37904,1.5 -1.23245,1.48501 -2.86118,1.69627 -6.25,0.81067 z"
       id="path195"
       inkscape:connector-curvature="0" />
    <path
       style="fill:#6f96da"
       d="M 136,289.96791 C 113.65582,288.22466 91.248342,280.37472 72.029833,267.55745 32.388633,241.11983 10.065031,201.32127 8.3337704,154 7.409345,128.73229 11.481652,110.0042 23.012288,86.495101 42.354067,47.060347 78.801906,19.281383 123,10.288797 c 12.22947,-2.4882188 41.34891,-2.4432974 53,0.08176 25.85826,5.604081 48.40528,16.615351 66.10407,32.283191 34.3719,30.427695 51.34956,72.322612 47.87233,118.132162 -4.63934,61.11952 -48.73231,112.28359 -108.84478,126.29998 -7.51135,1.75142 -28.45443,4.08838 -33.63162,3.75283 -1.1,-0.0713 -6.275,-0.46316 -11.5,-0.87081 z m 35.69289,-29.52275 c 22.95213,-5.23486 40.40644,-14.58453 56.55774,-30.29599 22.60407,-21.98852 34.01993,-49.17453 34.0759,-81.14917 0.0218,-12.47801 -0.34741,-15.96858 -2.64795,-25.03141 C 247.87735,77.478412 213.84116,45.721153 167,37.495413 128.72994,30.774836 86.123222,47.152411 61.626198,78 c -9.57913,12.062407 -14.399421,20.861481 -19.518872,35.63022 -13.263661,38.26338 -4.21951,80.84322 23.938943,112.70449 15.825625,17.90668 44.280911,32.34534 70.453731,35.74933 8.36044,1.08734 27.05735,0.21665 35.19289,-1.63888 z M 103.54271,198.0691 c -0.31644,-0.512 -0.17612,-1.17763 0.31182,-1.47919 0.48793,-0.30156 1.14581,-1.84163 1.46196,-3.42238 0.36896,-1.84478 4.34277,-6.77656 11.09589,-13.77081 5.78659,-5.99319 10.53604,-11.49768 10.55434,-12.23218 0.0183,-0.7345 -1.54172,-4.5325 -3.46672,-8.43998 -2.93254,-5.95267 -3.5,-8.1783 -3.5,-13.72745 0,-5.92441 0.29004,-6.89873 2.75,-9.23792 4.33083,-4.11822 12.86326,-7.05613 18.38458,-6.33024 5.79725,0.76217 8.23903,-0.1752 13.71743,-5.26599 4.27669,-3.9741 4.34039,-4.12863 3.68028,-8.92819 -0.55258,-4.01773 -0.27591,-5.5804 1.5597,-8.80944 C 163.53512,100.36849 164.37994,100 174.8231,100 c 9.99453,0 13.21303,1.12704 18.59886,6.51287 6.16477,6.16477 6.57804,7.22815 6.57804,16.92582 0,9.13732 -0.0119,9.1805 -3.44345,12.5065 -2.82182,2.73502 -4.40143,3.41478 -8.75,3.76546 -6.93404,0.55917 -9.43152,1.88391 -12.81047,6.79504 -2.46731,3.58612 -2.83261,5.14142 -3.17626,13.52323 -0.34408,8.39216 -0.72617,10.01504 -3.35407,14.24613 -2.25466,3.63015 -3.83084,5.00889 -6.57381,5.75032 -5.29854,1.43222 -12.54019,0.0798 -19.78409,-3.69467 -3.51569,-1.83188 -6.91997,-3.3307 -7.56507,-3.3307 -0.64511,0 -5.86864,4.97563 -11.60785,11.05697 -5.73921,6.08133 -12.1045,11.93133 -14.14509,13 -4.25693,2.22937 -4.46949,2.27038 -5.24713,1.01213 z"
       id="path193"
       inkscape:connector-curvature="0" />
    <path
       style="fill:#90b097"
       d="M 136,289.96791 C 113.65582,288.22466 91.248342,280.37472 72.029833,267.55745 32.388633,241.11983 10.065031,201.32127 8.3337704,154 7.409345,128.73229 11.481652,110.0042 23.012288,86.495101 42.354067,47.060347 78.801906,19.281383 123,10.288797 c 12.22947,-2.4882188 41.34891,-2.4432974 53,0.08176 25.85826,5.604081 48.40528,16.615351 66.10407,32.283191 34.3719,30.427695 51.34956,72.322612 47.87233,118.132162 -4.63934,61.11952 -48.73231,112.28359 -108.84478,126.29998 -7.51135,1.75142 -28.45443,4.08838 -33.63162,3.75283 -1.1,-0.0713 -6.275,-0.46316 -11.5,-0.87081 z m 35.69289,-29.52275 c 22.95213,-5.23486 40.40644,-14.58453 56.55774,-30.29599 22.60407,-21.98852 34.01993,-49.17453 34.0759,-81.14917 0.0218,-12.47801 -0.34741,-15.96858 -2.64795,-25.03141 C 247.87735,77.478412 213.84116,45.721153 167,37.495413 128.72994,30.774836 86.123222,47.152411 61.626198,78 c -9.57913,12.062407 -14.399421,20.861481 -19.518872,35.63022 -13.263661,38.26338 -4.21951,80.84322 23.938943,112.70449 15.825625,17.90668 44.280911,32.34534 70.453731,35.74933 8.36044,1.08734 27.05735,0.21665 35.19289,-1.63888 z M 151.5,179.99267 c -4.70668,-0.89073 -17.79218,-7.36716 -16.82976,-8.32958 0.3647,-0.3647 0.22173,-0.66309 -0.31772,-0.66309 -0.53945,0 -2.48521,-2.00782 -4.32392,-4.46183 -1.83871,-2.454 -3.68995,-4.24747 -4.11386,-3.98548 -1.08215,0.66881 -2.19739,-3.28633 -1.32478,-4.69825 0.48041,-0.77731 0.27948,-0.89178 -0.60539,-0.3449 -0.95646,0.59112 -1.15044,0.3651 -0.69818,-0.81347 0.34444,-0.89761 0.12639,-1.94096 -0.48457,-2.31855 -0.71945,-0.44465 -0.82579,-0.22532 -0.30182,0.62248 0.50977,0.82482 0.4167,1.06655 -0.25161,0.65351 -0.58335,-0.36052 -0.83884,-1.66755 -0.56776,-2.90451 0.4108,-1.87455 0.29622,-1.99926 -0.68822,-0.749 -0.98771,1.25442 -1.07029,1.17256 -0.50438,-0.5 0.37218,-1.1 0.92394,-4.32715 1.22613,-7.17143 0.39848,-3.75063 1.30749,-6.00141 3.30861,-8.19236 1.51755,-1.66151 2.53874,-3.24137 2.26929,-3.51081 -0.26944,-0.26944 0.41794,-0.25249 1.5275,0.0377 1.10957,0.29015 2.84158,0.0132 3.84892,-0.61551 1.61152,-1.00575 1.53122,-1.07845 -0.66848,-0.60523 -2.1601,0.46471 -2.09211,0.34138 0.5,-0.90714 3.3466,-1.61193 7.97074,-1.83691 11,-0.53519 l 2,0.85943 -2,0.10069 c -1.84192,0.0927 -1.86168,0.18126 -0.25,1.11998 2.43673,1.41927 2.20502,2.63763 -1.25,6.57268 -1.65,1.87925 -3,4.13904 -3,5.02177 0,1.49945 2.65209,4.22231 4.18205,4.29365 0.37513,0.0175 4.87513,-3.64305 10,-8.13454 13.83156,-12.12211 16.22942,-17.99064 10.25301,-25.0932 -2.65302,-3.15295 -3.04019,-5.74125 -1.33529,-8.92688 0.78359,-1.46416 0.78689,-1.86156 0.0114,-1.38232 -0.68254,0.42183 -0.86229,0.0836 -0.48212,-0.9071 1.01084,-2.63419 3.45932,-3.27671 13.16932,-3.45587 8.06287,-0.148766 9.77952,0.12578 12.91914,2.06617 4.78785,2.95905 9.40225,7.86266 8.60811,9.14762 -0.35068,0.5674 -0.14899,0.72676 0.45072,0.35612 1.86666,-1.15366 2.32905,1.02834 2.42395,11.43855 0.0909,9.97149 0.0554,10.12905 -2.96127,13.14572 -2.45835,2.45835 -4.09429,3.13732 -8.39617,3.48468 -6.97154,0.56294 -9.46417,1.88204 -12.84682,6.79854 -2.46731,3.58612 -2.83261,5.14142 -3.17626,13.52323 -0.34415,8.39376 -0.72567,10.01364 -3.35407,14.24088 -3.89342,6.26176 -7.56823,7.50134 -16.96575,5.72287 z m -22.5,-35.826 c 0,-1.30208 -1.18877,-2.16804 -2.15579,-1.57039 C 125.80999,143.23547 126.70176,145 128.05902,145 128.57656,145 129,144.625 129,144.16667 Z"
       id="path191"
       inkscape:connector-curvature="0" />
    <path
       style="fill:#5da45e"
       d="M 124.03415,287.86785 C 82.977043,280.2424 47.518684,254.98277 26.658601,218.5 13.309796,195.15391 6.5080917,164.28228 8.9830239,138.27396 12.349949,102.89195 25.65679,74.159965 49.908378,49.908378 74.143606,25.673149 103.36027,12.186935 138.5,9.0150786 c 10.96848,-0.9900596 15.03152,-0.9243538 26,0.4204604 34.19084,4.192044 61.4493,17.369663 84.92094,41.053524 26.50949,26.749183 40.50967,60.837207 40.5616,98.760497 0.0874,63.82955 -42.19947,119.17834 -103.98254,136.10148 -18.31292,5.01613 -43.09042,6.0225 -61.96585,2.51681 z M 172.5,260.57549 c 39.09363,-8.4248 71.47604,-36.92148 84.1762,-74.07549 4.41653,-12.92044 5.67397,-21.08394 5.69918,-37 0.0394,-24.89475 -5.80307,-44.34566 -19.41421,-64.634101 C 233.37656,70.579314 214.34206,54.523683 197.5357,46.549445 181.32192,38.856371 170.05861,36.5 149.5,36.5 c -16.30455,0 -24.04767,1.095945 -36.142,5.115457 C 95.82486,47.442545 81.126987,56.905096 67.400094,71.203349 54.797825,84.330165 47.034161,97.057666 41.599506,113.5 c -3.738211,11.30981 -4.702266,17.17229 -5.281148,32.11497 -0.9726,25.10571 4.653877,45.29927 18.554663,66.59314 17.969109,27.52591 46.981589,45.15493 82.626979,50.20711 5.80408,0.82264 28.07888,-0.34821 35,-1.83973 z m -22,-81.4707 c -2.63924,-0.91826 -10.17456,-4.6031 -14.26634,-6.97638 -4.29556,-2.49148 -8.75346,-8.20106 -12.27197,-15.71766 -2.41277,-5.15441 -2.76419,-6.92419 -2.28906,-11.52781 0.75581,-7.32307 3.32781,-10.34321 10.83255,-12.71999 4.53713,-1.43693 6.65684,-1.65383 8.81388,-0.90188 4.10536,1.43114 4.30388,3.26542 0.7869,7.27103 -1.70828,1.94562 -3.10596,4.25972 -3.10596,5.14245 0,1.49945 2.65209,4.22231 4.18205,4.29365 0.37513,0.0175 4.87513,-3.64305 10,-8.13454 13.83156,-12.12211 16.22942,-17.99064 10.25301,-25.0932 -2.941,-3.49518 -3.06493,-6.19519 -0.47902,-10.4362 2.27214,-3.72641 6.01551,-4.7637 14.8778,-4.12266 6.87106,0.49701 12.83712,4.05377 17.87164,10.65448 3.11521,4.08431 3.29256,4.76419 3.25856,12.49166 -0.0306,6.94814 -0.36761,8.56496 -2.25,10.7939 -3.11914,3.69338 -5.85747,4.87335 -11.3983,4.91163 -5.40244,0.0373 -7.34001,1.29762 -11.56574,7.52294 -2.44903,3.60791 -2.75,4.95195 -2.75,12.28078 0,6.77956 -0.43722,9.09231 -2.48157,13.12664 -1.36486,2.69343 -3.48999,5.60347 -4.72251,6.46676 -2.28949,1.60362 -9.56457,1.97263 -13.29592,0.6744 z M 129,144.16667 c 0,-1.30208 -1.18877,-2.16804 -2.15579,-1.57039 C 125.80999,143.23547 126.70176,145 128.05902,145 128.57656,145 129,144.625 129,144.16667 Z"
       id="path189"
       inkscape:connector-curvature="0" />
    <path
       style="fill:#2145a1"
       d="m 129.5,287.8918 c -17.67812,-3.12731 -27.31045,-6.18645 -42,-13.33883 C 51.09676,256.82813 24.632483,224.45997 14.043641,184.70933 3.8923519,146.60126 11.267962,103.69942 33.627384,70.796211 47.79782,49.943582 65.83456,34.399748 88.5,23.507688 112.39964,12.022526 139.4369,7.3706924 164.35801,10.456116 c 34.14624,4.227565 61.54756,17.448996 84.73989,40.887901 38.84874,39.261791 50.62513,98.887203 29.73965,150.575793 -7.47522,18.50011 -18.8448,35.18983 -33.28248,48.85631 -26.63752,25.21463 -60.10599,38.35195 -97.05507,38.09685 -7.7,-0.0532 -16.25,-0.49469 -19,-0.98117 z m 43,-26.31631 c 22.38072,-4.82312 40.31533,-14.43859 56.75063,-30.42632 16.83687,-16.37837 27.26121,-35.37332 32.4608,-59.14917 2.30463,-10.53821 2.27538,-34.80197 -0.0548,-45.5 C 255.30821,97.354666 239.5878,72.933704 216.63457,56.560295 203.24471,47.008794 186.21494,39.586752 171.20922,36.762676 162.58201,35.139034 136.44941,35.13256 127.858,36.751936 107.31784,40.62351 85.650578,51.749595 70.144024,66.38792 54.262047,81.380649 41.063862,105.43759 36.890857,127 c -2.014618,10.40977 -2.221775,30.90105 -0.419363,41.48201 4.939542,28.99733 20.364495,54.62195 43.290192,71.91559 16.390409,12.36385 35.851244,20.17189 57.238314,22.96503 6.45495,0.84302 28.42828,-0.26317 35.5,-1.78714 z M 147,176.61258 c -14.5659,-5.94945 -17.62364,-8.6344 -23.06032,-20.2489 -2.46422,-5.26438 -2.7829,-6.89848 -2.24267,-11.5 0.81841,-6.9711 3.38223,-10.33231 9.37668,-12.29299 5.57985,-1.82508 9.27421,-1.99005 11.99205,-0.53551 2.63675,1.41115 2.44159,2.62297 -1.06574,6.6176 -1.65,1.87925 -3,4.13904 -3,5.02177 0,1.49945 2.65209,4.22231 4.18205,4.29365 0.37513,0.0175 4.87513,-3.64305 10,-8.13454 13.83156,-12.12211 16.22942,-17.99064 10.25301,-25.0932 -2.82838,-3.36135 -3.03717,-5.67544 -0.88716,-9.83308 1.92976,-3.73175 4.93283,-4.90738 12.53561,-4.90738 8.87474,0 16.5976,4.50003 22.26313,12.97251 1.19783,1.79129 1.65336,4.70153 1.65336,10.56291 0,7.52323 -0.19279,8.27431 -2.75,10.71387 -3.42393,3.2664 -7.24763,4.75071 -12.23818,4.75071 -3.01529,0 -4.56432,0.70635 -7.09178,3.23381 -5.81556,5.81555 -6.91221,8.51996 -6.9163,17.05603 -0.004,8.3779 -2.11827,14.30841 -6.36635,17.85778 -2.94452,2.46022 -9.84767,2.23822 -16.63739,-0.53504 z m -18,-32.44591 c 0,-1.30208 -1.18877,-2.16804 -2.15579,-1.57039 C 125.80999,143.23547 126.70176,145 128.05902,145 128.57656,145 129,144.625 129,144.16667 Z"
       id="path187"
       inkscape:connector-curvature="0" />
    <path
       style="fill:#158613"
       d="m 129.5,287.8918 c -17.67812,-3.12731 -27.31045,-6.18645 -42,-13.33883 C 51.09676,256.82813 24.632483,224.45997 14.043641,184.70933 3.8923519,146.60126 11.267962,103.69942 33.627384,70.796211 47.79782,49.943582 65.83456,34.399748 88.5,23.507688 112.39964,12.022526 139.4369,7.3706924 164.35801,10.456116 c 34.14624,4.227565 61.54756,17.448996 84.73989,40.887901 38.84874,39.261791 50.62513,98.887203 29.73965,150.575793 -7.47522,18.50011 -18.8448,35.18983 -33.28248,48.85631 -26.63752,25.21463 -60.10599,38.35195 -97.05507,38.09685 -7.7,-0.0532 -16.25,-0.49469 -19,-0.98117 z m 43,-26.31631 c 22.38072,-4.82312 40.31533,-14.43859 56.75063,-30.42632 16.83687,-16.37837 27.26121,-35.37332 32.4608,-59.14917 2.30463,-10.53821 2.27538,-34.80197 -0.0548,-45.5 C 255.30821,97.354666 239.5878,72.933704 216.63457,56.560295 203.24471,47.008794 186.21494,39.586752 171.20922,36.762676 162.58201,35.139034 136.44941,35.13256 127.858,36.751936 107.31784,40.62351 85.650578,51.749595 70.144024,66.38792 54.262047,81.380649 41.063862,105.43759 36.890857,127 c -2.014618,10.40977 -2.221775,30.90105 -0.419363,41.48201 4.939542,28.99733 20.364495,54.62195 43.290192,71.91559 16.390409,12.36385 35.851244,20.17189 57.238314,22.96503 6.45495,0.84302 28.42828,-0.26317 35.5,-1.78714 z M 144.10053,174.75 c -6.12085,-3.19675 -9.24814,-5.61127 -12.61902,-9.74291 -5.25317,-6.43872 -5.75458,-9.47255 -1.73151,-10.47659 1.5125,-0.37748 3.51982,-1.38001 4.46071,-2.22785 1.28621,-1.15899 2.83431,-1.37303 6.23862,-0.86252 l 4.5279,0.679 12.52854,-11.12425 12.52853,-11.12425 3.13649,1.56468 c 2.08754,1.0414 5.90807,1.56469 11.42383,1.56469 5.00179,0 8.55976,0.44078 8.97448,1.1118 1.07155,1.73381 -1.61812,2.85614 -6.88484,2.87289 -6.13634,0.0195 -7.80075,0.95642 -12.69216,7.14452 -3.94273,4.98792 -3.9921,5.1549 -3.9921,13.50043 0,8.88924 -1.72792,14.14413 -6.28717,19.12036 -3.44048,3.75515 -9.843,3.10224 -19.6123,-2 z m -7.851,-40 C 136.87956,132.85781 140,132.5888 140,134.42668 140,135.35431 139.145,136 137.91667,136 c -1.22198,0 -1.91126,-0.51682 -1.66714,-1.25 z m 36.38931,-11.06989 C 170.08748,121.30417 168,118.8053 168,118.12706 c 0,-0.67824 -1.125,-2.88875 -2.5,-4.91225 -3.15089,-4.63695 -3.14222,-6.48168 0.0454,-9.66936 2.22961,-2.2296 3.39167,-2.54545 9.36515,-2.54545 5.30549,0 7.38422,0.44407 9.36227,2 1.39842,1.1 2.94992,2 3.44777,2 1.6348,0 6.20535,5.48925 7.38273,8.8667 1.12348,3.22281 1.01316,3.45241 -4.1906,8.72162 -4.7592,4.81906 -5.79839,5.41168 -9.48977,5.41168 -3.50482,0 -4.86209,-0.66748 -8.78416,-4.31989 z"
       id="path185"
       inkscape:connector-curvature="0" />
    <path
       style="fill:#091169"
       d="m 144.10053,174.75 c -6.12085,-3.19675 -9.24814,-5.61127 -12.61902,-9.74291 -5.25317,-6.43872 -5.75458,-9.47255 -1.73151,-10.47659 1.5125,-0.37748 3.51982,-1.38001 4.46071,-2.22785 1.28621,-1.15899 2.83431,-1.37303 6.23862,-0.86252 l 4.5279,0.679 12.52854,-11.12425 12.52853,-11.12425 3.13649,1.56468 c 2.08754,1.0414 5.90807,1.56469 11.42383,1.56469 5.00179,0 8.55976,0.44078 8.97448,1.1118 1.07155,1.73381 -1.61812,2.85614 -6.88484,2.87289 -6.13634,0.0195 -7.80075,0.95642 -12.69216,7.14452 -3.94273,4.98792 -3.9921,5.1549 -3.9921,13.50043 0,8.88924 -1.72792,14.14413 -6.28717,19.12036 -3.44048,3.75515 -9.843,3.10224 -19.6123,-2 z m -7.851,-40 C 136.87956,132.85781 140,132.5888 140,134.42668 140,135.35431 139.145,136 137.91667,136 c -1.22198,0 -1.91126,-0.51682 -1.66714,-1.25 z m 36.38931,-11.06989 C 170.08748,121.30417 168,118.8053 168,118.12706 c 0,-0.67824 -1.125,-2.88875 -2.5,-4.91225 -3.15089,-4.63695 -3.14222,-6.48168 0.0454,-9.66936 2.22961,-2.2296 3.39167,-2.54545 9.36515,-2.54545 5.30549,0 7.38422,0.44407 9.36227,2 1.39842,1.1 2.94992,2 3.44777,2 1.6348,0 6.20535,5.48925 7.38273,8.8667 1.12348,3.22281 1.01316,3.45241 -4.1906,8.72162 -4.7592,4.81906 -5.79839,5.41168 -9.48977,5.41168 -3.50482,0 -4.86209,-0.66748 -8.78416,-4.31989 z"
       id="path183"
       inkscape:connector-curvature="0" />
  </g>
</svg>
