<?xml version="1.0" encoding="UTF-8" standalone="no"?>
<!-- Created with Inkscape (http://www.inkscape.org/) -->

<svg
   xmlns:dc="http://purl.org/dc/elements/1.1/"
   xmlns:cc="http://creativecommons.org/ns#"
   xmlns:rdf="http://www.w3.org/1999/02/22-rdf-syntax-ns#"
   xmlns:svg="http://www.w3.org/2000/svg"
   xmlns="http://www.w3.org/2000/svg"
   xmlns:sodipodi="http://sodipodi.sourceforge.net/DTD/sodipodi-0.dtd"
   xmlns:inkscape="http://www.inkscape.org/namespaces/inkscape"
   version="1.1"
   id="svg406"
   width="300"
   height="300"
   viewBox="0 0 300 300"
   sodipodi:docname="plus.svg"
   inkscape:version="0.92.2 5c3e80d, 2017-08-06">
  <metadata
     id="metadata412">
    <rdf:RDF>
      <cc:Work
         rdf:about="">
        <dc:format>image/svg+xml</dc:format>
        <dc:type
           rdf:resource="http://purl.org/dc/dcmitype/StillImage" />
        <dc:title></dc:title>
      </cc:Work>
    </rdf:RDF>
  </metadata>
  <defs
     id="defs410" />
  <sodipodi:namedview
     pagecolor="#ffffff"
     bordercolor="#666666"
     borderopacity="1"
     objecttolerance="10"
     gridtolerance="10"
     guidetolerance="10"
     inkscape:pageopacity="0"
     inkscape:pageshadow="2"
     inkscape:window-width="999"
     inkscape:window-height="589"
     id="namedview408"
     showgrid="false"
     inkscape:zoom="0.78666667"
     inkscape:cx="150"
     inkscape:cy="150"
     inkscape:window-x="256"
     inkscape:window-y="74"
     inkscape:window-maximized="0"
     inkscape:current-layer="svg406" />
  <g
     id="g416"
     transform="translate(4.5762712e-6)">
    <path
       style="fill:#b2ceb1"
       d="M 132.5,296.38791 C 67.895839,286.92298 19.909169,242.78825 5.8241845,179.8805 3.8262868,170.95729 3.5,166.76244 3.5,150 3.5,133.23756 3.8262868,129.04271 5.8241845,120.1195 18.983404,61.346494 61.346494,18.983404 120.1195,5.8241845 129.04271,3.8262868 133.23756,3.5 150,3.5 c 16.76244,0 20.95729,0.3262868 29.8805,2.3241845 29.26147,6.5516135 53.57854,19.7536265 74.06836,40.2125455 20.46508,20.434205 33.65294,44.721237 40.22696,74.08277 1.99789,8.92321 2.32418,13.11806 2.32418,29.8805 0,16.76244 -0.32629,20.95729 -2.32418,29.8805 -6.55551,29.27886 -19.77144,53.61285 -40.22696,74.06836 -20.06232,20.06232 -43.46574,32.98478 -71.94886,39.72737 -8.68484,2.05589 -13.6117,2.54311 -28.5,2.81839 -9.9,0.18305 -19.35,0.13503 -21,-0.10671 z M 167,194.5 l 0.5,-27 27,-0.5 27,-0.5 V 150 133.5 l -27,-0.5 -27,-0.5 -0.5,-27 -0.5,-27 H 150 133.5 l -0.5,27 -0.5,27 -27,0.5 -27,0.5 v 16.5 16.5 l 27,0.5 27,0.5 0.25414,26 c 0.13978,14.3 0.46745,26.57369 0.72816,27.27488 0.36338,0.97731 4.27194,1.21071 16.74586,1 L 166.5,221.5 Z"
       id="path430"
       inkscape:connector-curvature="0" />
    <path
       style="fill:#8db68c"
       d="M 127.5,294.5903 C 96.746935,289.44056 71.209248,276.70505 49.183466,255.53426 31.305252,238.35004 18.985681,219.14426 11.598299,196.94031 5.5581968,178.78582 4.5,171.78807 4.5,150 4.5,128.21193 5.5581968,121.21418 11.598299,103.05969 19.03165,80.717573 31.190636,61.760185 49.173314,44.475519 69.582769,24.858275 93.293576,12.433174 122,6.3123746 c 12.06781,-2.5731045 43.93219,-2.5731045 56,0 19.48596,4.1548064 37.90813,11.8500824 53.97416,22.5459834 10.73766,7.14856 27.32978,23.053483 35.58105,34.107384 11.95104,16.010356 21.61252,37.836058 26.13242,59.034258 2.5731,12.06781 2.5731,43.93219 0,56 -4.15481,19.48596 -11.85009,37.90813 -22.54599,53.97416 -7.14856,10.73766 -23.05348,27.32978 -34.10738,35.58105 -15.66659,11.69444 -37.52146,21.46524 -58.03426,25.94578 -10.27137,2.24353 -40.75658,2.88835 -51.5,1.08931 z M 168,195.5 l 0.5,-27 27,-0.5 27,-0.5 V 150 132.5 l -27,-0.5 -27,-0.5 -0.5,-27 -0.5,-27 H 150 132.5 l -0.5,27 -0.5,27 -27,0.5 -27,0.5 v 17.5 17.5 l 27,0.5 27,0.5 0.25414,26 c 0.13978,14.3 0.46725,26.57317 0.72772,27.27371 0.36398,0.97897 4.47035,1.21037 17.74585,1 L 167.5,222.5 Z"
       id="path428"
       inkscape:connector-curvature="0" />
    <path
       style="fill:#71ad70"
       d="M 136.5,295.41178 C 114.0526,292.18605 98.953887,287.67323 83.1978,279.48038 42.764874,258.45608 14.791042,220.59445 6.3725497,175.5 c -2.5562873,-13.69299 -2.5562873,-37.30701 0,-51 C 17.715902,63.738266 63.235971,18.204915 124.5,6.3380849 c 12.74563,-2.4688268 37.68395,-2.45618 51,0.025863 29.71245,5.5382471 56.23152,19.4698471 77.44886,40.6871881 28.04516,28.04516 42.54545,63.132064 42.54545,102.948864 0,39.8168 -14.50029,74.9037 -42.54545,102.94886 -20.68106,20.68107 -46.23072,34.39622 -74.7664,40.13488 -9.29456,1.86918 -34.91702,3.30024 -41.68246,2.32804 z M 168,196.7 c 0,-19.12222 0.3275,-26.6275 1.2,-27.5 0.8725,-0.8725 8.37778,-1.2 27.5,-1.2 H 223 v -18 -18 h -26.3 c -19.12222,0 -26.6275,-0.3275 -27.5,-1.2 -0.8725,-0.8725 -1.2,-8.37778 -1.2,-27.5 V 77 h -18 -18 v 26.3 c 0,19.12222 -0.3275,26.6275 -1.2,27.5 -0.8725,0.8725 -8.37778,1.2 -27.5,1.2 H 77 v 18 18 h 26.3 c 19.12222,0 26.6275,0.3275 27.5,1.2 0.8725,0.8725 1.2,8.37778 1.2,27.5 V 223 h 18 18 z"
       id="path426"
       inkscape:connector-curvature="0" />
    <path
       style="fill:#4d974b"
       d="m 132,294.3846 c -15.43746,-2.83354 -20.9268,-4.15781 -29.41559,-7.09635 C 81.207659,279.88834 63.814444,268.93469 47.439879,252.56012 27.001264,232.12151 13.628889,207.56539 7.3670627,178.97315 c -2.6599684,-12.14573 -2.6599684,-45.80057 0,-57.9463 C 18.404118,70.630345 53.865873,29.947938 101.5,13.035737 c 15.48726,-5.4986544 24.43625,-7.1060979 43,-7.7237832 20.72039,-0.6894449 33.45638,0.9909758 50.61228,6.6779242 22.80979,7.561133 40.43543,18.437593 57.44784,35.450001 20.66394,20.663937 34.02765,45.37585 40.05023,74.060121 2.69209,12.82183 2.69209,44.17817 0,57 -10.73271,51.1176 -47.52905,92.91161 -95.95903,108.99217 -16.91093,5.61506 -23.39507,6.65789 -43.65132,7.02031 -10.175,0.18205 -19.625,0.1245 -21,-0.12788 z m 35.86033,-71.71631 c 0.72815,-0.87736 1.19639,-10.17445 1.37245,-27.25 L 169.5,169.5 l 26,-0.25816 c 23.01745,-0.22854 26.14339,-0.45121 27.25,-1.94113 C 223.6248,166.1229 224,160.92994 224,150 c 0,-10.92994 -0.3752,-16.1229 -1.25,-17.30071 -1.10661,-1.48992 -4.23255,-1.71259 -27.25,-1.94113 l -26,-0.25816 -0.26722,-25.91829 c -0.17606,-17.075552 -0.6443,-26.372639 -1.37245,-27.25 -1.59483,-1.92166 -34.12583,-1.92166 -35.72066,0 -0.72815,0.877361 -1.19639,10.174448 -1.37245,27.25 L 130.5,130.5 l -26,0.25816 C 81.482552,130.9867 78.356608,131.20937 77.25,132.69929 76.375198,133.8771 76,139.07006 76,150 c 0,10.92994 0.375198,16.1229 1.25,17.30071 1.106608,1.48992 4.232552,1.71259 27.25,1.94113 l 26,0.25816 0.26722,25.91829 c 0.17606,17.07555 0.6443,26.37264 1.37245,27.25 C 132.97954,223.68027 137.26757,224 150,224 c 12.73243,0 17.02046,-0.31973 17.86033,-1.33171 z"
       id="path424"
       inkscape:connector-curvature="0" />
    <path
       style="fill:#338f30"
       d="M 133.0904,293.9531 C 100.00128,289.7968 71.606598,275.86159 47.868478,252.12887 26.604115,230.86935 14.289817,208.03415 7.8931275,178 c -3.2035192,-15.04137 -3.2035192,-40.95863 0,-56 C 14.289325,91.968156 26.602229,69.134727 47.868478,47.868478 69.134727,26.602229 91.968156,14.289325 122,7.8931275 c 15.04137,-3.2035192 40.95863,-3.2035192 56,0 30.02069,6.3938215 52.61914,18.5940385 74.13152,40.0213465 21.2336,21.149631 33.57061,44.013572 39.97535,74.085526 1.82987,8.59172 2.2363,13.68047 2.2363,28 0,14.31953 -0.40643,19.40828 -2.2363,28 -6.40474,30.07195 -18.74175,52.93589 -39.97535,74.08553 -21.58115,21.49581 -44.66529,33.92934 -74.10487,39.91421 -12.03022,2.44566 -33.56453,3.38175 -44.93625,1.95336 z m 35.67682,-96.37139 c 0.174,-16.87625 0.64806,-26.37716 1.35884,-27.23361 0.84043,-1.01265 7.10703,-1.37662 27.23278,-1.58171 L 223.5,168.5 V 150 131.5 l -25.91829,-0.26722 c -16.87625,-0.174 -26.37716,-0.64806 -27.23361,-1.35884 -1.01265,-0.84043 -1.37662,-7.10703 -1.58171,-27.23278 L 168.5,76.5 H 150 131.5 l -0.26639,26.14116 c -0.20509,20.12575 -0.56906,26.39235 -1.58171,27.23278 -0.85645,0.71078 -10.35736,1.18484 -27.23361,1.35884 L 76.5,131.5 v 18.5 18.5 l 25.91829,0.26722 c 17.07555,0.17606 26.37264,0.6443 27.25,1.37245 1.04576,0.8679 1.33171,6.62599 1.33171,26.81611 0,14.14099 0.30982,26.02071 0.6885,26.39938 0.37867,0.37868 8.81617,0.56618 18.75,0.41667 L 168.5,223.5 Z"
       id="path422"
       inkscape:connector-curvature="0" />
    <path
       style="fill:#1c7d19"
       d="M 133.5,293.3761 C 98.197388,288.03023 71.055822,274.78553 48.10203,251.7031 32.925393,236.44141 21.576647,218.54897 13.945237,197.85148 6.4324297,177.47564 4.0075752,148.77295 7.8846293,126.11283 18.28408,65.331419 65.479913,18.261581 126.49425,7.8198471 141.41283,5.2667452 165.09762,5.7118086 179.5,8.815884 c 56.70301,12.220927 100.69993,56.869333 112.18366,113.844846 2.49817,12.39443 2.49817,42.28411 0,54.67854 -11.48391,56.97641 -55.42586,101.572 -112.18366,113.85241 -8.77113,1.89776 -38.55345,3.31205 -46,2.18442 z M 168.8,223.8 c 0.8725,-0.8725 1.2,-8.37778 1.2,-27.5 V 170 h 26.3 c 19.12222,0 26.6275,-0.3275 27.5,-1.2 1.68814,-1.68814 1.68814,-35.91186 0,-37.6 -0.8725,-0.8725 -8.37778,-1.2 -27.5,-1.2 H 170 v -26.3 c 0,-19.122222 -0.3275,-26.627503 -1.2,-27.5 -1.68814,-1.688136 -35.91186,-1.688136 -37.6,0 -0.8725,0.872497 -1.2,8.377778 -1.2,27.5 V 130 h -26.3 c -19.122222,0 -26.627503,0.3275 -27.5,1.2 -1.688136,1.68814 -1.688136,35.91186 0,37.6 0.872497,0.8725 8.377778,1.2 27.5,1.2 H 130 v 26.3 c 0,19.12222 0.3275,26.6275 1.2,27.5 0.84242,0.84242 6.44444,1.2 18.8,1.2 12.35556,0 17.95758,-0.35758 18.8,-1.2 z"
       id="path420"
       inkscape:connector-curvature="0" />
    <path
       style="fill:#148611"
       d="M 136.82533,292.99393 C 108.60896,290.33818 81.583669,279.38542 59.5,261.65566 33.096384,240.45766 14.490428,208.69326 8.4486868,174.5 c -2.364486,-13.38182 -2.364486,-35.61818 0,-49 C 14.490428,91.306742 33.096384,59.542342 59.5,38.344339 c 18.834341,-15.12105 42.24367,-25.719194 66,-29.880284 13.35102,-2.3385268 35.64898,-2.3385268 49,0 37.93972,6.645413 72.02293,28.368013 93.41312,59.535945 17.07433,24.879233 25.3744,51.70176 25.3744,82 0,36.00394 -11.7204,67.26782 -35.71092,95.25806 -28.40203,33.13721 -75.98789,51.94905 -120.75127,47.73587 z m 33.13949,-69.92819 c 0.6346,-1.18576 1.03518,-11.63389 1.03518,-27 V 171 h 24.4349 c 13.45638,0 25.58739,-0.43818 27,-0.97525 L 225,169.0495 V 150 130.9505 l -2.5651,-0.97525 C 221.02229,129.43818 208.89128,129 195.4349,129 H 171 V 103.93426 C 171,88.568154 170.59942,78.120021 169.96482,76.934259 168.99733,75.126492 167.69172,75 150,75 132.30828,75 131.00267,75.126492 130.03518,76.934259 129.40058,78.120021 129,88.568154 129,103.93426 V 129 h -24.4349 c -13.456379,0 -25.587392,0.43818 -27,0.97525 L 75,130.9505 V 150 169.0495 l 2.5651,0.97525 c 1.412608,0.53707 13.543621,0.97525 27,0.97525 H 129 v 25.06574 c 0,15.36611 0.40058,25.81424 1.03518,27 C 131.00267,224.87351 132.30828,225 150,225 c 17.69172,0 18.99733,-0.12649 19.96482,-1.93426 z"
       id="path418"
       inkscape:connector-curvature="0" />
  </g>
</svg>
