<?xml version="1.0" encoding="UTF-8" standalone="no"?>
<!-- Created with Inkscape (http://www.inkscape.org/) -->

<svg
   xmlns:dc="http://purl.org/dc/elements/1.1/"
   xmlns:cc="http://creativecommons.org/ns#"
   xmlns:rdf="http://www.w3.org/1999/02/22-rdf-syntax-ns#"
   xmlns:svg="http://www.w3.org/2000/svg"
   xmlns="http://www.w3.org/2000/svg"
   xmlns:sodipodi="http://sodipodi.sourceforge.net/DTD/sodipodi-0.dtd"
   xmlns:inkscape="http://www.inkscape.org/namespaces/inkscape"
   version="1.1"
   id="svg64"
   width="300"
   height="300"
   viewBox="0 0 300 300"
   sodipodi:docname="relationships.svg"
   inkscape:version="0.92.2 5c3e80d, 2017-08-06">
  <metadata
     id="metadata70">
    <rdf:RDF>
      <cc:Work
         rdf:about="">
        <dc:format>image/svg+xml</dc:format>
        <dc:type
           rdf:resource="http://purl.org/dc/dcmitype/StillImage" />
        <dc:title></dc:title>
      </cc:Work>
    </rdf:RDF>
  </metadata>
  <defs
     id="defs68" />
  <sodipodi:namedview
     pagecolor="#ffffff"
     bordercolor="#666666"
     borderopacity="1"
     objecttolerance="10"
     gridtolerance="10"
     guidetolerance="10"
     inkscape:pageopacity="0"
     inkscape:pageshadow="2"
     inkscape:window-width="985"
     inkscape:window-height="623"
     id="namedview66"
     showgrid="false"
     inkscape:zoom="0.96873629"
     inkscape:cx="150"
     inkscape:cy="150"
     inkscape:window-x="264"
     inkscape:window-y="30"
     inkscape:window-maximized="0"
     inkscape:current-layer="svg64" />
  <g
     id="g74"
     transform="translate(2.0645453,1.0322726)">
    <path
       style="fill:#9fa7da"
       d="M 125.01774,289.41962 C 104.49616,285.67857 83.494015,276.86675 66.819864,265.00168 10.534109,224.9496 -8.6352172,149.91761 21.471375,87.5 41.165888,46.668928 79.813586,17.296327 124.14331,9.4683934 c 33.1585,-5.8552696 68.78195,0.4542292 96.85819,17.1551766 36.56855,21.752545 61.15316,57.345794 68.45948,99.11467 2.51028,14.35082 2.07086,36.88317 -1.01676,52.13612 -8.86931,43.81479 -38.32743,81.20494 -78.99106,100.26056 -19.70809,9.23552 -37.22672,12.91402 -60.75392,12.75689 -8.90958,-0.0595 -19.56626,-0.72199 -23.6815,-1.47219 z M 172,259.48539 c 33.53819,-7.04789 62.44675,-29.16664 77.43393,-59.24686 8.84854,-17.7596 11.86728,-30.5398 11.98469,-50.73853 0.0475,-8.17476 -0.46548,-16.49653 -1.2329,-20 -1.92068,-8.76831 -7.0327,-24.24508 -9.90909,-30 C 231.23295,61.398486 191.92844,37.036851 149.5,37.036851 87.271059,37.036851 37,87.291443 37,149.5 c 0,56.75495 41.08024,103.25898 98.5,111.50487 8.24487,1.18402 27.43704,0.38506 36.5,-1.51948 z m -2.56903,-45.30311 C 158.069,210.25432 152.01995,201.81294 152.00558,189.86534 l -0.006,-4.63465 -13.64894,-8.28457 -13.64895,-8.28457 -4.82723,2.71352 c -16.00279,8.9956 -35.418548,-0.93511 -37.525569,-19.19346 -1.758278,-15.23633 14.164828,-29.62271 29.090039,-26.2826 2.80314,0.62732 6.56189,2.03167 8.3528,3.12078 1.7909,1.08912 4.03281,1.94988 4.98202,1.91282 0.94921,-0.0371 7.35083,-3.56338 14.22583,-7.83624 l 12.5,-7.76885 0.64418,-7.1245 c 0.92393,-10.218559 6.41755,-17.903925 15.51517,-21.705155 4.63408,-1.93624 13.09705,-1.915419 17.78602,0.04376 5.43618,2.27138 12.20689,8.980954 14.12132,13.993815 4.11368,10.77154 -0.26772,23.91203 -9.97377,29.91282 -7.05727,4.36317 -16.47753,4.82141 -23.95084,1.16505 -2.93778,-1.43732 -5.97157,-2.60336 -6.74175,-2.5912 -0.77018,0.0122 -7.02533,3.51498 -13.90033,7.78403 l -12.5,7.7619 -0.2942,5.52486 -0.2942,5.52487 13.56543,8.25855 13.56543,8.25856 6.13849,-3.06744 c 10.19677,-5.09538 19.47495,-3.8796 27.84883,3.64924 6.21232,5.58541 8.3506,10.96866 7.79883,19.63404 -0.71786,11.27377 -8.09838,19.98309 -19.0829,22.51862 -6.16658,1.42342 -6.21839,1.42053 -12.31474,-0.68706 z"
       id="path88"
       inkscape:connector-curvature="0" />
    <path
       style="fill:#9d9ea7"
       d="M 124,288.00451 C 94.946339,282.47781 70.939952,269.82775 49.979958,249 11.902934,211.16321 -1.3589938,155.67607 15.577498,105.0621 32.004264,55.971424 74.154165,19.514299 125,10.418229 c 11.57609,-2.0709064 34.28544,-2.3379023 45.5,-0.534948 30.79763,4.951305 56.56319,18.116866 78.5,40.111547 27.22221,27.294024 40.98813,60.831592 40.99681,99.879532 0.008,37.64405 -14.40562,72.43689 -41.04559,99.07686 -20.00341,20.00341 -44.08221,32.8241 -72.42616,38.5631 -15.4622,3.13074 -37.55966,3.33697 -52.52506,0.49019 z m 48.5,-27.4491 c 22.39742,-4.76248 41.62978,-15.38956 57.83887,-31.95958 15.2219,-15.56084 24.4707,-32.4436 29.83941,-54.46887 C 262.95495,162.7356 263.24766,138.25136 260.74169,127 254.33523,98.236199 239.94694,75.600805 217.23394,58.554424 197.18353,43.506348 174.71492,36.036851 149.5,36.036851 c -23.32455,0 -45.1605,6.578032 -64,19.279859 C 77.77307,60.526303 60.526303,77.77307 55.31671,85.5 c -12.701827,18.8395 -19.279859,40.67545 -19.279859,64 0,25.21492 7.469497,47.68353 22.517573,67.73394 19.142412,25.5058 45.120806,40.37389 78.945576,45.18257 5.69668,0.80986 28.02162,-0.37725 35,-1.8611 z m -3.8725,-46.96265 c -9.37966,-3.49102 -15.61648,-12.09393 -15.64281,-21.57729 -0.008,-3.03351 -0.34592,-6.02556 -0.75,-6.64899 -0.64567,-0.99619 -19.89079,-13.02834 -26.01108,-16.26226 -1.89029,-0.99882 -2.73833,-0.88938 -5,0.64523 -10.49829,7.12344 -25.44245,5.20776 -32.60228,-4.17927 -9.553505,-12.52529 -6.730644,-27.70647 6.758897,-36.34897 3.508596,-2.24789 5.232413,-2.6411 11.619773,-2.6505 6.42776,-0.009 8.22503,0.39966 12.57142,2.86169 l 5.07142,2.87273 5.92858,-3.51829 c 15.18478,-9.01136 20.02116,-12.11304 21.17858,-13.58231 0.6875,-0.87273 1.25,-3.99371 1.25,-6.9355 0,-12.302717 10.69508,-22.643645 23.5,-22.721838 8.46635,-0.0517 15.75814,4.089927 20.25,11.501693 2.91102,4.803305 3.25,6.155175 3.25,12.961095 0,6.69421 -0.35065,8.15138 -2.94654,12.24467 -4.8458,7.64103 -14.27897,12.4309 -22.62808,11.48983 -2.3856,-0.26889 -6.59895,-1.6714 -9.36301,-3.11669 C 162.29831,129.18251 159.63018,128 159.13319,128 c -0.90644,0 -20.22666,11.56933 -25.38319,15.19996 -2.34599,1.65177 -2.75,2.63802 -2.75,6.71315 0,5.80489 -0.11568,5.69211 15.79341,15.39755 l 12.29342,7.49967 5.95616,-3.07183 c 10.08925,-5.20343 20.19409,-3.86551 28.20762,3.7348 4.81439,4.56612 6.7498,9.65505 6.74565,17.73686 -0.004,7.57962 -1.3883,11.20611 -6.35125,16.63716 -5.36607,5.87218 -17.3082,8.61477 -25.01751,5.74544 z"
       id="path86"
       inkscape:connector-curvature="0" />
    <path
       style="fill:#7985d0"
       d="M 124,288.00451 C 94.946339,282.47781 70.939952,269.82775 49.979958,249 11.902934,211.16321 -1.3589938,155.67607 15.577498,105.0621 32.004264,55.971424 74.154165,19.514299 125,10.418229 c 11.57609,-2.0709064 34.28544,-2.3379023 45.5,-0.534948 30.79763,4.951305 56.56319,18.116866 78.5,40.111547 27.22221,27.294024 40.98813,60.831592 40.99681,99.879532 0.008,37.64405 -14.40562,72.43689 -41.04559,99.07686 -20.00341,20.00341 -44.08221,32.8241 -72.42616,38.5631 -15.4622,3.13074 -37.55966,3.33697 -52.52506,0.49019 z m 48.5,-27.4491 c 22.39742,-4.76248 41.62978,-15.38956 57.83887,-31.95958 15.2219,-15.56084 24.4707,-32.4436 29.83941,-54.46887 C 262.95495,162.7356 263.24766,138.25136 260.74169,127 254.33523,98.236199 239.94694,75.600805 217.23394,58.554424 197.18353,43.506348 174.71492,36.036851 149.5,36.036851 c -23.32455,0 -45.1605,6.578032 -64,19.279859 C 77.77307,60.526303 60.526303,77.77307 55.31671,85.5 c -12.701827,18.8395 -19.279859,40.67545 -19.279859,64 0,25.21492 7.469497,47.68353 22.517573,67.73394 19.142412,25.5058 45.120806,40.37389 78.945576,45.18257 5.69668,0.80986 28.02162,-0.37725 35,-1.8611 z M 169.83835,212.8182 C 165.1372,211.56629 158.48128,205.86371 155.96551,200.93239 154.67062,198.39419 154,195.07181 154,191.19483 c 0,-7.0641 0.6294,-6.42029 -16.31729,-16.69108 l -12.8173,-7.76811 -6.07317,3.13218 c -10.7482,5.54328 -21.67583,3.75921 -28.93749,-4.72441 C 83.800674,158.07059 82.402771,149.12 86.08403,141 c 3.789993,-8.35985 10.030721,-12.74351 19.53917,-13.72487 4.64161,-0.47906 6.23091,-0.12921 11.74511,2.58542 3.50741,1.7267 6.78653,3.13945 7.28693,3.13945 1.13622,0 25.16083,-14.52357 27.44695,-16.59248 1.16546,-1.05473 1.79592,-3.5986 2.06292,-8.32375 0.68807,-12.177213 8.44652,-20.145878 20.35255,-20.903997 7.53534,-0.479814 12.45583,0.980044 17.12702,5.081405 5.20577,4.57072 7.69525,10.147632 7.69525,17.238822 0,7.3821 -2.57709,12.83523 -8.43571,17.84999 -7.59275,6.49911 -17.21434,7.06269 -26.71138,1.56461 C 162.3739,127.86157 160.22923,127 159.42689,127 c -1.82412,0 -26.47668,14.72861 -28.17689,16.83421 -0.6875,0.85143 -1.25,3.9064 -1.25,6.78883 0,6.09334 -0.85253,5.29545 17.3079,16.19854 l 11.8079,7.08918 5.95637,-3.02681 c 12.4794,-6.34158 26.04431,-2.33568 32.14164,9.49184 2.5984,5.04035 2.79806,14.38645 0.4233,19.81513 -2.40287,5.49295 -8.20224,10.60246 -13.98212,12.3189 -5.61757,1.66824 -8.47098,1.73192 -13.81664,0.30838 z"
       id="path84"
       inkscape:connector-curvature="0" />
    <path
       style="fill:#5464ca"
       d="M 122.12276,286.95546 C 94.274517,281.38428 71.090609,268.94732 50.437399,248.5 29.987115,228.25358 17.117616,204.16775 11.309215,175.2699 8.8430775,163.00042 8.8846217,135.92092 11.388638,123.5 17.371653,93.821856 31.258256,68.37393 52.593224,47.990441 72.496142,28.975135 94.375808,17.526735 121.79717,11.779899 c 14.02052,-2.9383504 40.05549,-3.1675185 53.47273,-0.470684 27.83044,5.593853 52.37609,18.450533 71.74062,37.576759 20.05842,19.811581 32.47343,41.691162 39.21095,69.103366 2.9889,12.16061 3.7059,42.98633 1.29408,55.63599 -2.6595,13.94873 -6.24522,24.97217 -11.99466,36.87467 -19.42264,40.20878 -56.9663,68.70433 -101.38136,76.94821 -12.06641,2.23965 -39.66537,1.97821 -52.01677,-0.49275 z M 171.5,261.54382 c 44.18959,-9.3231 77.97132,-42.04601 89.10684,-86.31397 6.30136,-25.05033 2.28566,-56.32982 -10.14527,-79.02464 C 239.40944,76.027652 224.5908,60.980635 204.49122,49.526392 167.10864,28.223013 119.6377,30.68785 84,55.782667 75.660199,61.655263 61.655263,75.660199 55.782667,84 c -24.253928,34.44353 -27.41331,79.607 -8.18466,117 17.872722,34.7562 49.635676,56.56534 90.901993,62.4153 5.50819,0.78085 25.91348,-0.37637 33,-1.87148 z M 169.83835,212.8182 C 165.1372,211.56629 158.48128,205.86371 155.96551,200.93239 154.67062,198.39419 154,195.07181 154,191.19483 c 0,-7.0641 0.6294,-6.42029 -16.31729,-16.69108 l -12.8173,-7.76811 -6.07317,3.13218 c -10.7482,5.54328 -21.67583,3.75921 -28.93749,-4.72441 -7.756313,-9.06151 -7.559633,-22.38976 0.457318,-30.99073 6.476602,-6.94841 19.444312,-8.69548 28.203732,-3.79974 2.60486,1.45588 5.25656,2.64706 5.89267,2.64706 1.31221,0 25.12314,-14.26614 27.69372,-16.59248 1.16546,-1.05473 1.79592,-3.5986 2.06292,-8.32375 0.68807,-12.177213 8.44652,-20.145878 20.35255,-20.903997 7.53534,-0.479814 12.45583,0.980044 17.12702,5.081405 C 196.8975,96.873212 199,101.80089 199,109.5 c 0,7.98987 -2.17248,12.77987 -8.09578,17.84999 -7.59275,6.49911 -17.21434,7.06269 -26.71138,1.56461 C 162.3739,127.86157 160.22923,127 159.42689,127 c -1.82412,0 -26.47668,14.72861 -28.17689,16.83421 -0.6875,0.85143 -1.25,3.9064 -1.25,6.78883 0,6.09334 -0.85253,5.29545 17.3079,16.19854 l 11.8079,7.08918 5.95637,-3.02681 c 12.34464,-6.27309 26.09604,-2.3152 31.97168,9.202 2.39724,4.69899 2.63619,15.04223 0.46741,20.23285 -2.22272,5.31972 -8.08442,10.47696 -13.85627,12.19102 -5.61757,1.66824 -8.47098,1.73192 -13.81664,0.30838 z"
       id="path82"
       inkscape:connector-curvature="0" />
    <path
       style="fill:#59608f"
       d="M 135.5,288.05158 C 74.612359,282.15968 25.20212,237.22312 12.293087,176 9.5446621,162.96516 9.7767407,133.78766 12.731126,120.9286 20.662195,86.40838 38.53826,58.320856 65.5,38.016226 88.327168,20.825304 114.5773,11.450223 143.1487,10.284448 c 40.58952,-1.6561401 76.96718,12.529869 105.19248,41.021372 28.84972,29.121819 43.24506,68.85628 39.70717,109.60091 -1.62253,18.68611 -4.97771,31.38278 -12.67483,47.96418 -18.31163,39.4475 -54.85271,68.1686 -97.9031,76.95131 -11.49841,2.3458 -30.39464,3.34951 -41.97042,2.22936 z m 35.01584,-25.51777 c 23.7067,-4.94299 43.98526,-15.83419 60.28797,-32.37945 C 252.95744,207.67113 264.38578,179.98229 264.29962,149 264.14301,92.687991 223.59108,45.319316 167.20982,35.589508 139.97676,30.889853 108.76525,37.956781 84.5,54.31671 76.77307,59.526303 59.526303,76.77307 54.31671,84.5 37.912913,108.83031 30.877251,139.90374 35.589508,167.20982 43.929602,215.53811 80.749297,253.45023 128,262.3621 c 4.675,0.88174 9.85,1.79893 11.5,2.03819 5.24727,0.7609 23.75713,-0.35299 31.01584,-1.86648 z M 169.83835,212.8182 C 165.1372,211.56629 158.48128,205.86371 155.96551,200.93239 154.67062,198.39419 154,195.07181 154,191.19483 c 0,-7.0641 0.6294,-6.42029 -16.31729,-16.69108 l -12.8173,-7.76811 -6.07317,3.13218 c -10.7482,5.54328 -21.67583,3.75921 -28.93749,-4.72441 -7.756313,-9.06151 -7.559633,-22.38976 0.457318,-30.99073 3.113845,-3.34068 9.550189,-6.41217 12.325182,-5.88169 1.29951,0.24842 2.36275,0.0641 2.36275,-0.40966 0,-1.14646 3.72899,-1.10885 4.44198,0.0448 0.30801,0.49837 1.44249,0.67535 2.52106,0.39329 1.09565,-0.28651 4.01922,0.63751 6.62496,2.09388 2.56515,1.43369 5.18436,2.60671 5.82047,2.60671 1.31221,0 25.12314,-14.26614 27.69372,-16.59248 1.16546,-1.05473 1.79592,-3.5986 2.06292,-8.32375 0.68807,-12.177213 8.44652,-20.145878 20.35255,-20.903997 7.53534,-0.479814 12.45583,0.980044 17.12702,5.081405 5.46618,4.799365 7.12447,9.045962 6.92699,17.738822 -0.20005,8.80562 -1.73175,12.26925 -7.67572,17.35707 -7.58401,6.49162 -17.21039,7.05311 -26.70311,1.55753 C 162.3739,127.86157 160.22923,127 159.42689,127 c -1.82412,0 -26.47668,14.72861 -28.17689,16.83421 -0.6875,0.85143 -1.25,3.9064 -1.25,6.78883 0,6.09334 -0.85253,5.29545 17.3079,16.19854 l 11.8079,7.08918 5.95637,-3.02681 c 9.60989,-4.88339 18.92946,-3.97999 26.72168,2.5903 5.28559,4.45674 6.98093,8.8675 6.73627,17.52575 -0.25483,9.01803 -1.23754,11.64839 -6.12537,16.39539 -5.75851,5.59259 -14.25853,7.63519 -22.5664,5.42281 z"
       id="path80"
       inkscape:connector-curvature="0" />
    <path
       style="fill:#3347c7"
       d="M 135.5,288.05158 C 74.612359,282.15968 25.20212,237.22312 12.293087,176 9.5446621,162.96516 9.7767407,133.78766 12.731126,120.9286 20.662195,86.40838 38.53826,58.320856 65.5,38.016226 88.327168,20.825304 114.5773,11.450223 143.1487,10.284448 c 40.58952,-1.6561401 76.96718,12.529869 105.19248,41.021372 28.84972,29.121819 43.24506,68.85628 39.70717,109.60091 -1.62253,18.68611 -4.97771,31.38278 -12.67483,47.96418 -18.31163,39.4475 -54.85271,68.1686 -97.9031,76.95131 -11.49841,2.3458 -30.39464,3.34951 -41.97042,2.22936 z m 35.01584,-25.51777 c 23.7067,-4.94299 43.98526,-15.83419 60.28797,-32.37945 C 252.95744,207.67113 264.38578,179.98229 264.29962,149 264.14301,92.687991 223.59108,45.319316 167.20982,35.589508 139.97676,30.889853 108.76525,37.956781 84.5,54.31671 76.77307,59.526303 59.526303,76.77307 54.31671,84.5 37.912913,108.83031 30.877251,139.90374 35.589508,167.20982 43.929602,215.53811 80.749297,253.45023 128,262.3621 c 4.675,0.88174 9.85,1.79893 11.5,2.03819 5.24727,0.7609 23.75713,-0.35299 31.01584,-1.86648 z M 167.5,210.34115 c -8.05829,-4.24073 -12.44265,-11.42131 -12.47804,-20.43616 -0.016,-4.07722 -0.4967,-5.99741 -1.77196,-7.07835 C 149.61407,179.74474 126.17031,166 124.5496,166 c -0.9314,0 -3.61003,1.12318 -5.9525,2.49596 C 103.47323,177.35914 86,167.44463 86,150 c 0,-12.55829 8.523301,-21.23668 21,-21.3821 4.43307,-0.0517 6.66829,0.58165 11.52254,3.26477 l 6.02255,3.32889 14.47745,-8.71861 c 7.9626,-4.79524 14.80807,-9.23034 15.21215,-9.85578 0.40408,-0.62544 0.74158,-3.50457 0.75,-6.39807 0.036,-12.358521 9.58898,-22.227946 21.51531,-22.227946 19.13122,0 28.58285,22.894486 15.19932,36.817016 -6.86979,7.14645 -17.08879,8.29211 -26.72262,2.99589 l -5.77703,-3.17594 -13.84984,8.30777 c -7.6174,4.56927 -14.63733,9.19829 -15.59983,10.28672 -2.42223,2.73913 -2.42223,11.84938 0,14.00427 3.17037,2.82045 28.20823,17.75312 29.76697,17.75312 0.83925,0 3.20376,-1.07748 5.25447,-2.3944 10.69274,-6.86663 25.17164,-2.94571 31.05136,8.40878 1.94636,3.75868 2.25156,5.58017 1.88323,11.23961 -0.54379,8.35545 -3.60809,13.28631 -10.63288,17.10968 -5.71342,3.10963 -14.67153,3.557 -19.57315,0.97748 z"
       id="path78"
       inkscape:connector-curvature="0" />
    <path
       style="fill:#3545ac"
       d="m 167.5,210.34115 c -8.05829,-4.24073 -12.44265,-11.42131 -12.47804,-20.43616 -0.016,-4.07722 -0.4967,-5.99741 -1.77196,-7.07835 C 149.61407,179.74474 126.17031,166 124.5496,166 c -0.9314,0 -3.61003,1.12318 -5.9525,2.49596 C 103.47323,177.35914 86,167.44463 86,150 c 0,-9.09678 3.799515,-15.39113 11.70034,-19.38303 1.760187,-0.88933 4.01019,-1.58518 5,-1.54633 0.98981,0.0388 -0.22534,0.96737 -2.70034,2.06339 -9.070997,4.01694 -12,8.62181 -12,18.86597 0,7.75192 1.196908,10.96294 5.660724,15.18638 3.818672,3.61304 7.362486,4.81362 14.208596,4.81362 4.65891,0 6.62949,-0.56466 10.46963,-3 2.60178,-1.65 5.32011,-3 6.04074,-3 0.72063,0 3.9675,1.70694 7.21527,3.79321 3.24777,2.08626 9.65067,5.995 14.22867,8.68608 4.578,2.69108 8.9655,5.80926 9.75,6.92929 0.79227,1.13112 1.42637,4.35364 1.42637,7.24883 0,6.32979 1.26833,9.9348 4.81362,13.68187 4.17983,4.41772 7.45178,5.66107 14.88672,5.65698 9.66536,-0.005 15.7435,-3.97067 18.38799,-11.99626 1.64888,-5.0041 3.29478,-6.3627 2.42292,-2 -1.83443,9.17929 -10.91125,16.02984 -21.14658,15.95996 -3.33453,-0.0228 -7.15893,-0.72115 -8.86467,-1.61881 z M 196.56754,186.5 c -1.6611,-4.99344 -4.3653,-9.07576 -7.87727,-11.89172 -3.49626,-2.80337 -4.44248,-3.05691 -11.5,-3.08149 -6.70366,-0.0233 -8.34861,0.34992 -12.82176,2.90955 l -5.13149,2.93633 -7.36851,-4.38499 c -14.2448,-8.47705 -23.78032,-14.95438 -24.78871,-16.83857 -1.00258,-1.87335 -1.18934,-6.50928 -0.43798,-10.87239 0.37523,-2.17892 8.21689,-7.82934 22.85818,-16.47076 10.94419,-6.45936 10.05188,-6.29125 15.22076,-2.86753 2.54217,1.68386 5.10748,3.09134 5.70068,3.12772 6.82269,0.41848 12.81171,-0.13536 15.28295,-1.41328 4.10561,-2.1231 9.25428,-8.19623 9.96616,-11.75561 0.57551,-2.87755 2.32945,-5.07927 2.32945,-2.92416 0,2.50688 -3.32084,8.75522 -6.30068,11.85507 -6.86979,7.14645 -17.08879,8.29211 -26.72262,2.99589 l -5.77703,-3.17594 -13.84984,8.30777 c -7.6174,4.56927 -14.63733,9.19829 -15.59983,10.28672 -2.42223,2.73913 -2.42223,11.84938 0,14.00427 3.17037,2.82045 28.20823,17.75312 29.76697,17.75312 0.83925,0 3.20376,-1.07748 5.25447,-2.3944 7.45887,-4.78992 17.5917,-4.46879 24.56709,0.77858 4.21813,3.17316 9.24681,11.48642 8.37053,13.8379 -0.30673,0.82313 -0.71298,0.56616 -1.14152,-0.72208 z M 116.5,132.48224 c -7.45895,-4.29786 -5.34235,-4.63046 2.39568,-0.37646 l 5.64941,3.10578 14.47745,-8.71861 c 7.9626,-4.79524 14.80807,-9.23034 15.21215,-9.85578 0.40408,-0.62544 0.74158,-3.50457 0.75,-6.39807 0.0551,-18.931341 21.72284,-29.214903 35.69962,-16.943126 3.40549,2.990054 7.24445,9.576146 7.29373,12.513046 0.0395,2.35193 -1.70505,0.30593 -2.30749,-2.70628 -0.76196,-3.809799 -6.25237,-10.030067 -10.37281,-11.751696 -3.86535,-1.615048 -13.05706,-1.770615 -16.98264,-0.287426 -6.88122,2.599904 -11.29114,9.713142 -11.35054,18.308502 -0.0195,2.82034 -0.58661,6.11944 -1.26027,7.33134 -1.36701,2.45922 -28.97436,19.31376 -31.55769,19.26626 -0.90563,-0.0166 -4.3466,-1.58602 -7.6466,-3.48748 z m -10.23097,-4.17523 c 0.97297,-0.25354 2.32297,-0.23687 3,0.0371 0.67703,0.27393 -0.11903,0.48137 -1.76903,0.46099 -1.65,-0.0204 -2.20394,-0.2445 -1.23097,-0.49804 z"
       id="path76"
       inkscape:connector-curvature="0" />
  </g>
</svg>
