<?xml version="1.0" encoding="UTF-8" standalone="no"?>
<svg width="22px" height="22px" viewBox="0 0 22 22" version="1.1" xmlns="http://www.w3.org/2000/svg" xmlns:xlink="http://www.w3.org/1999/xlink" xmlns:sketch="http://www.bohemiancoding.com/sketch/ns">
    <!-- Generator: Sketch 3.0.1 (7597) - http://www.bohemiancoding.com/sketch -->
    <title>circle_close_delete_outline_stroke</title>
    <description>Created with Sketch.</description>
    <defs>
        <path d="M11,22 C17.0751325,22 22,17.0751325 22,11 C22,4.92486745 17.0751325,0 11,0 C4.92486745,0 0,4.92486745 0,11 C0,17.0751325 4.92486745,22 11,22 L11,22 Z M11,21 C16.5228478,21 21,16.5228478 21,11 C21,5.47715223 16.5228478,1 11,1 C5.47715223,1 1,5.47715223 1,11 C1,16.5228478 5.47715223,21 11,21 Z M6.75735931,15.9497475 L6.05025253,15.2426407 L10.2928932,11 L6.05025253,6.75735931 L6.75735931,6.05025253 L11,10.2928932 L15.2426407,6.05025253 L15.9497475,6.75735931 L11.7071068,11 L15.9497475,15.2426407 L15.2426407,15.9497475 L11,11.7071068 L6.75735931,15.9497475 Z" id="path-1"></path>
    </defs>
    <g id="miu" stroke="none" stroke-width="1" fill="none" fill-rule="evenodd" sketch:type="MSPage">
        <g id="circle_close_delete_outline_stroke">
            <use fill="#000000" fill-rule="evenodd" sketch:type="MSShapeGroup" xlink:href="#path-1"></use>
            <use fill="none" xlink:href="#path-1"></use>
        </g>
    </g>
</svg>