<?xml version="1.0" encoding="UTF-8" standalone="no"?>
<!-- Created with Inkscape (http://www.inkscape.org/) -->

<svg
   xmlns:dc="http://purl.org/dc/elements/1.1/"
   xmlns:cc="http://creativecommons.org/ns#"
   xmlns:rdf="http://www.w3.org/1999/02/22-rdf-syntax-ns#"
   xmlns:svg="http://www.w3.org/2000/svg"
   xmlns="http://www.w3.org/2000/svg"
   xmlns:sodipodi="http://sodipodi.sourceforge.net/DTD/sodipodi-0.dtd"
   xmlns:inkscape="http://www.inkscape.org/namespaces/inkscape"
   version="1.1"
   id="svg149"
   width="300"
   height="300"
   viewBox="0 0 300 300"
   sodipodi:docname="round_voice.svg"
   inkscape:version="0.92.2 5c3e80d, 2017-08-06">
  <metadata
     id="metadata155">
    <rdf:RDF>
      <cc:Work
         rdf:about="">
        <dc:format>image/svg+xml</dc:format>
        <dc:type
           rdf:resource="http://purl.org/dc/dcmitype/StillImage" />
        <dc:title></dc:title>
      </cc:Work>
    </rdf:RDF>
  </metadata>
  <defs
     id="defs153" />
  <sodipodi:namedview
     pagecolor="#ffffff"
     bordercolor="#666666"
     borderopacity="1"
     objecttolerance="10"
     gridtolerance="10"
     guidetolerance="10"
     inkscape:pageopacity="0"
     inkscape:pageshadow="2"
     inkscape:window-width="1200"
     inkscape:window-height="655"
     id="namedview151"
     showgrid="false"
     inkscape:zoom="0.78666667"
     inkscape:cx="150"
     inkscape:cy="150"
     inkscape:window-x="54"
     inkscape:window-y="34"
     inkscape:window-maximized="0"
     inkscape:current-layer="svg149" />
  <path
     style="fill:#000000"
     d="M 129.83333,293.01838 C 129.65,292.47848 126.8,291.63396 123.5,291.14166 115.92928,290.01225 104.79776,287.08929 103.55,285.90311 103.0275,285.4064 101.99031,285 101.24514,285 c -1.474086,0 -7.199796,-2.4236 -17.036406,-7.21125 -16.38415,-7.97444 -38.07573,-27.07164 -50.68521,-44.62312 -1.93794,-2.69747 -3.52352,-5.3651 -3.52352,-5.92807 0,-0.56297 -0.58534,-1.2482 -1.30076,-1.52273 -0.71541,-0.27453 -3.23648,-4.48517 -5.60237,-9.35699 -2.3659,-4.87181 -4.70556,-9.63923 -5.19925,-10.59427 -0.49369,-0.95504 -0.89762,-2.23703 -0.89762,-2.84887 0,-0.61184 -0.63706,-2.53045 -1.41568,-4.26357 -1.49676,-3.33162 -4.50428,-14.14544 -6.7168604,-24.15113 -1.78071,-8.05268 -1.78071,-39.94732 0,-48 2.2125804,-10.00569 5.2201004,-20.81951 6.7168604,-24.15113 0.77862,-1.73312 1.41568,-3.609152 1.41568,-4.16896 0,-0.559807 0.64127,-2.291799 1.42505,-3.84887 0.78378,-1.557072 3.13757,-6.372491 5.23064,-10.700931 2.09308,-4.328439 4.3768,-8.089084 5.07495,-8.356988 0.69815,-0.267904 1.26936,-0.893569 1.26936,-1.390366 0,-2.491738 9.58851,-14.493498 19.48888,-24.393871 C 59.389254,39.588511 71.391014,30 73.882754,30 c 0.4968,0 1.12246,-0.571211 1.39037,-1.269358 0.2679,-0.698147 4.02855,-2.981873 8.35699,-5.074948 4.32844,-2.093075 9.14385,-4.446864 10.70093,-5.230642 C 95.888114,17.641273 97.620104,17 98.179914,17 c 0.5598,0 2.435836,-0.659196 4.168956,-1.464881 1.73312,-0.805684 4.95113,-1.909857 7.15113,-2.453718 2.2,-0.543861 5.8,-1.431678 8,-1.972928 15.73676,-3.8715961 19.20697,-4.2572194 35,-3.8893346 8.8,0.2049883 18.7,0.9582481 22,1.6739108 9.69768,2.1031118 20.76143,5.1684158 24.15113,6.6912738 C 200.38425,16.362945 202.30286,17 202.9147,17 c 0.61184,0 1.89383,0.40393 2.84887,0.897622 0.95504,0.493693 5.72246,2.833354 10.59427,5.199247 4.87182,2.365894 9.08246,4.886964 9.35699,5.602378 C 225.98936,29.414661 226.67459,30 227.23756,30 c 3.45523,0 24.25854,18.189216 34.05137,29.772561 5.69556,6.736933 13.5392,18.353332 16.49982,24.43617 C 282.5764,94.045348 285,99.771049 285,101.24514 c 0,0.74517 0.4064,1.78236 0.90311,2.30486 1.18618,1.24776 4.10914,12.37928 5.23855,19.95 0.4923,3.3 1.33682,6.15 1.87672,6.33333 1.31561,0.44675 1.32545,40.88204 0.0101,41.33334 -0.53436,0.18333 -1.42682,3.25833 -1.98323,6.83333 -1.05268,6.76346 -3.38643,16.05076 -4.90005,19.5 -0.48271,1.1 -1.9088,4.7 -3.16908,8 -12.1072,31.70228 -45.7738,65.36888 -77.47608,77.47608 -3.3,1.26028 -6.9,2.68637 -8,3.16908 -3.44924,1.51362 -12.73654,3.84737 -19.5,4.90005 -3.575,0.55641 -6.65,1.44887 -6.83333,1.98323 -0.4513,1.31539 -40.88659,1.30555 -41.33334,-0.0101 z m 43.64382,-13.61147 c 7.85123,-1.559 20.54241,-5.05804 23.52285,-6.48539 3.84279,-1.84034 19.41234,-9.57326 21.81168,-10.8332 4.80045,-2.52081 17.53217,-12.6903 24.05926,-19.21738 6.52708,-6.52709 16.69657,-19.25881 19.21738,-24.05926 1.25994,-2.39934 8.99286,-17.96889 10.8332,-21.81168 1.42735,-2.98044 4.92639,-15.67162 6.48539,-23.52285 2.13996,-10.77691 2.13996,-35.17739 0,-45.9543 C 277.84879,119.67606 274.35015,106.98476 272.92232,104 261.21837,79.533913 255.42903,70.700123 242.86446,58.135544 229.99516,45.266249 222.04869,40.038875 198.47593,28.935728 172.6215,16.757884 128.04662,17.014807 101.35597,29.495515 78.944874,39.975079 70.387084,45.726032 57.273704,59.11941 c -12.30931,12.572132 -17.85614,20.990765 -27.66395,41.98656 -12.59939,26.97182 -12.90693,71.39864 -0.67403,97.36996 11.10315,23.57276 16.33053,31.51923 29.19982,44.38853 12.56458,12.56457 21.39837,18.35391 45.864456,30.05786 2.73616,1.30891 15.39601,4.89238 22.5,6.36881 10.02339,2.08318 36.7377,2.14902 46.97715,0.11578 z M 124,218.5 c 0,-2.44444 0.45238,-3.5 1.5,-3.5 0.825,0 1.5,-0.45 1.5,-1 0,-0.5641 2.83333,-1 6.5,-1 h 6.5 v -6 -6 h -3.5 c -1.925,0 -3.5,-0.45 -3.5,-1 0,-0.55 -1.35,-1 -3,-1 -1.65,0 -3,-0.3596 -3,-0.79911 0,-0.43951 -1.53208,-1.35312 -3.40461,-2.03024 -1.87254,-0.67712 -3.65842,-1.89252 -3.96862,-2.70089 C 119.31657,192.66139 118.44039,192 117.6797,192 115.6696,192 108,184.11006 108,182.04221 108,181.46899 107.55,181 107,181 c -0.55,0 -1,-0.92656 -1,-2.05902 0,-1.13246 -0.45,-1.7809 -1,-1.44098 -0.56481,0.34907 -1,-0.46994 -1,-1.88197 0,-1.375 -0.45,-2.77811 -1,-3.11803 -0.55,-0.33992 -1,-3.32362 -1,-6.63045 0,-5.89608 1.34098,-8.86955 4,-8.86955 1.95662,0 4,2.74301 4,5.36955 0,1.38183 0.45,2.79053 1,3.13045 0.55,0.33992 1,2.16648 1,4.05902 0,2.39198 0.45728,3.44098 1.5,3.44098 0.825,0 1.5,0.80066 1.5,1.77924 0,0.97858 0.9,2.42792 2,3.22076 1.1,0.79284 2,2.01718 2,2.72076 0,0.70358 0.4541,1.27924 1.0091,1.27924 0.55501,0 2.42175,1.35 4.14832,3 1.72656,1.65 3.77961,3 4.56232,3 0.78272,0 2.09812,0.675 2.92312,1.5 0.825,0.825 3.04285,1.5 4.92857,1.5 1.88571,0 3.42857,0.48088 3.42857,1.06862 0,0.71657 3.04735,0.90668 9.25,0.57706 12.50029,-0.66428 17.79532,-1.6002 18.4314,-3.25781 C 167.97432,188.62454 169.06583,188 170.10699,188 171.14814,188 172,187.55 172,187 c 0,-0.55 0.9,-1 2,-1 1.1,0 2,-0.37396 2,-0.83102 0,-0.45706 1.125,-1.4331 2.5,-2.16898 1.375,-0.73588 2.5,-1.93692 2.5,-2.66898 0,-0.73206 0.45,-1.33102 1,-1.33102 0.55,0 1,-0.9 1,-2 0,-1.11111 0.66667,-2 1.5,-2 0.93333,0 1.5,-0.94444 1.5,-2.5 0,-1.375 0.45,-2.5 1,-2.5 0.55,0 1,-2.26412 1,-5.03138 0,-3.54126 0.44255,-5.20121 1.49426,-5.60479 0.82184,-0.31537 1.24528,-0.97625 0.94098,-1.46861 C 190.13094,157.40285 191.06008,157 192.5,157 c 1.49071,0 2.35191,0.4306 2,1 -0.33992,0.55 0.0835,1 0.94098,1 1.68979,0 1.81399,0.7153 1.56271,9 -0.10807,3.56293 -0.66638,5.78165 -1.58525,6.29969 -0.78014,0.43983 -1.41844,1.67733 -1.41844,2.75 0,1.07267 -0.45,1.95031 -1,1.95031 -0.55,0 -1,0.9 -1,2 0,1.1 -0.45,2 -1,2 -0.55,0 -1,0.48214 -1,1.07143 0,1.12307 -2.44678,3.92857 -3.42625,3.92857 -0.31301,0 -2.23891,1.575 -4.27977,3.5 -2.04086,1.925 -4.2919,3.5 -5.00232,3.5 -0.71041,0 -1.29166,0.45 -1.29166,1 0,0.55 -0.9,1 -2,1 -1.1,0 -2,0.39893 -2,0.8865 0,0.88424 -3.14811,1.73659 -10.25,2.77517 l -3.75,0.5484 V 207.10504 213 h 6.92857 c 4.72444,0 7.39061,0.46204 8.38095,1.45238 0.79881,0.79881 1.73096,1.17381 2.07143,0.83333 C 175.72143,214.94524 176,215.64167 176,216.83333 176,218.025 175.55,219 175,219 c -0.55,0 -1,0.675 -1,1.5 0,1.29333 -3.44444,1.5 -25,1.5 H 124 Z M 143,182 c 0,-0.55 -1.575,-1 -3.5,-1 -1.925,0 -3.5,-0.36601 -3.5,-0.81335 0,-0.44735 -1.575,-1.43134 -3.5,-2.18665 -1.925,-0.75531 -3.5,-1.9643 -3.5,-2.68665 0,-0.72234 -0.3375,-1.3139 -0.75,-1.31457 -1.54493,-0.003 -6.25,-4.79425 -6.25,-6.36513 C 122,166.73514 121.62203,166 121.16006,166 c -1.74318,0 -3.30421,-7.85237 -3.47894,-17.5 L 117.5,138.5 148,138.22012 c 16.775,-0.15394 31.5125,-0.0329 32.75,0.26905 2.11177,0.51521 2.25,1.06632 2.25,8.97087 0,4.63206 -0.45,8.70004 -1,9.03996 -0.55,0.33992 -1,1.94148 -1,3.55902 0,1.61754 -0.44143,2.94098 -0.98095,2.94098 -0.53952,0 -1.2633,1.125 -1.60841,2.5 -0.3451,1.375 -1.02867,2.5 -1.51905,2.5 -0.49037,0 -0.89288,0.7875 -0.89447,1.75 -0.002,0.9625 -1.35028,2.65 -2.99712,3.75 -1.64684,1.1 -2.99554,2.3375 -2.99712,2.75 -0.002,0.4125 -0.67788,0.75 -1.50288,0.75 -0.825,0 -1.5,0.45 -1.5,1 0,0.55 -0.9,1 -2,1 -1.1,0 -2,0.45 -2,1 0,0.55 -1.575,1 -3.5,1 -1.925,0 -3.5,0.45 -3.5,1 0,0.5641 -2.83333,1 -6.5,1 -3.66667,0 -6.5,-0.4359 -6.5,-1 z m -25.63542,-64.75 c 0.36816,-6.4625 1.11174,-11.9 1.6524,-12.08333 0.54066,-0.18334 0.98302,-1.3215 0.98302,-2.52924 0,-1.20775 0.9,-2.844595 2,-3.63743 1.1,-0.792835 2,-2.017177 2,-2.720759 0,-0.703583 0.3375,-1.281323 0.75,-1.283868 0.4125,-0.0025 2.18809,-1.352546 3.94577,-3 C 130.45344,90.347918 132.59094,89 133.44577,89 134.30059,89 135,88.55 135,88 c 0,-0.55 1.125,-1 2.5,-1 1.375,0 2.5,-0.480879 2.5,-1.06862 0,-0.714193 3.06793,-0.916523 9.25,-0.610038 9.85735,0.488693 15.75,1.463509 15.75,2.605511 0,0.38492 1.575,1.317836 3.5,2.073147 1.925,0.755311 3.5,1.743397 3.5,2.195748 0,0.45235 1.35,2.235101 3,3.961668 1.65,1.726567 3,3.934974 3,4.907564 0,0.97259 0.5185,1.94119 1.15222,2.15243 1.85081,0.61693 3.7559,9.64874 3.80365,18.03259 l 0.0441,7.75 h -33.1524 -33.15241 z"
     id="path3848"
     inkscape:connector-curvature="0" />
</svg>
