<?xml version="1.0" encoding="UTF-8" standalone="no"?>
<!-- Created with Inkscape (http://www.inkscape.org/) -->

<svg
   xmlns:dc="http://purl.org/dc/elements/1.1/"
   xmlns:cc="http://creativecommons.org/ns#"
   xmlns:rdf="http://www.w3.org/1999/02/22-rdf-syntax-ns#"
   xmlns:svg="http://www.w3.org/2000/svg"
   xmlns="http://www.w3.org/2000/svg"
   xmlns:sodipodi="http://sodipodi.sourceforge.net/DTD/sodipodi-0.dtd"
   xmlns:inkscape="http://www.inkscape.org/namespaces/inkscape"
   version="1.1"
   id="svg64"
   width="300"
   height="300"
   viewBox="0 0 300 300"
   sodipodi:docname="round_message_2.svg"
   inkscape:version="0.92.2 5c3e80d, 2017-08-06">
  <metadata
     id="metadata70">
    <rdf:RDF>
      <cc:Work
         rdf:about="">
        <dc:format>image/svg+xml</dc:format>
        <dc:type
           rdf:resource="http://purl.org/dc/dcmitype/StillImage" />
        <dc:title></dc:title>
      </cc:Work>
    </rdf:RDF>
  </metadata>
  <defs
     id="defs68" />
  <sodipodi:namedview
     pagecolor="#ffffff"
     bordercolor="#666666"
     borderopacity="1"
     objecttolerance="10"
     gridtolerance="10"
     guidetolerance="10"
     inkscape:pageopacity="0"
     inkscape:pageshadow="2"
     inkscape:window-width="1260"
     inkscape:window-height="674"
     id="namedview66"
     showgrid="false"
     inkscape:zoom="0.79"
     inkscape:cx="150"
     inkscape:cy="150"
     inkscape:window-x="0"
     inkscape:window-y="0"
     inkscape:window-maximized="0"
     inkscape:current-layer="svg64" />
  <path
     style="fill:#000000"
     d="m 130,291.06128 c 0,-0.5163 -2.1375,-1.21943 -4.75,-1.5625 -2.6125,-0.34308 -6.775,-1.22615 -9.25,-1.96237 -2.475,-0.73623 -5.99281,-1.65051 -7.81736,-2.03175 -1.82455,-0.38123 -4.52455,-1.32297 -6,-2.09274 -1.47545,-0.76977 -3.291431,-1.40236 -4.035501,-1.40575 -2.354,-0.0107 -20.34568,-9.46973 -28.147,-14.7981 -14.22523,-9.71597 -29.0288,-24.66162 -38.65962,-39.03068 -3.8938,-5.80949 -12.48394,-22.73404 -14.80913,-29.17738 -2.2317,-6.18427 -4.46403,-14.18346 -6.27907,-22.5 -1.8239598,-8.35736 -2.8525598,-43.91333 -1.3592298,-46.98459 0.53897,-1.10848 1.4043198,-4.49041 1.9230098,-7.51541 1.31915,-7.69337 4.20346,-18.31674 5.28079,-19.45 0.49671,-0.5225 0.90311,-1.57471 0.90311,-2.33826 0,-1.181201 1.60068,-4.925051 7.14509,-16.711751 3.19853,-6.799653 12.43149,-19.760215 22.33977,-31.358943 5.96016,-6.977025 28.38011,-23.934087 37.01514,-27.99597 11.7867,-5.544413 15.53054,-7.145087 16.711741,-7.145087 0.76355,0 1.81576,-0.406401 2.33826,-0.903114 1.13326,-1.077327 11.75663,-3.961635 19.45,-5.280791 3.025,-0.518686 6.40693,-1.3840396 7.51541,-1.9230086 3.07126,-1.49333 38.62723,-0.464722 46.98459,1.3592296 8.31654,1.815042 16.31573,4.047376 22.5,6.279075 6.44334,2.325185 23.36789,10.915326 29.17738,14.809127 14.36906,9.630824 29.31471,24.434389 39.03068,38.659626 C 272.38292,77.5767 282,95.778399 282,97.996019 c 0,0.66095 0.64472,2.619741 1.43271,4.352861 1.85056,4.07014 5.21206,16.81066 6.04231,22.90113 0.35614,2.6125 1.06995,4.75 1.58625,4.75 0.55184,0 0.93873,7.78371 0.93873,18.88569 0,14.80773 -0.32256,19.50418 -1.49384,21.75 -0.82161,1.57537 -1.49661,4.27513 -1.5,5.99948 -0.0157,7.99008 -9.305,32.50985 -17.37586,45.86483 -4.26469,7.05684 -14.16252,20.05547 -19.99938,26.26477 -5.31779,5.65712 -20.98071,17.95419 -29.13092,22.87089 -13.39618,8.08139 -37.88159,17.35481 -45.86483,17.3705 -1.72435,0.003 -4.42411,0.67839 -5.99948,1.5 -2.24582,1.17128 -6.94227,1.49384 -21.75,1.49384 -11.10198,0 -18.88569,-0.38689 -18.88569,-0.93873 z m 41.86821,-13.7054 c 18.4675,-3.51757 35.78956,-10.69794 52.63179,-21.81701 7.7323,-5.10478 25.93408,-23.30656 31.03886,-31.03886 23.29904,-35.29144 29.2629,-71.75241 18.23786,-111.5 -1.14418,-4.125 -2.41072,-8.175 -2.81454,-9 -0.40382,-0.825 -1.7956,-3.975 -3.09285,-7.000011 C 262.10802,83.565498 251.38432,68.218515 240.00934,57.128832 234.77862,52.029293 221.72908,41.763882 217.47611,39.40307 202.7728,31.241318 199.5946,29.824917 187.5,26.043861 c -23.44515,-7.329504 -53.48737,-7.301207 -75.5,0.07111 -11.26017,3.771179 -14.105951,4.945944 -22.205951,9.166831 -33.74455,17.584172 -58.87574,50.589691 -66.41001,87.218208 -5.37572,26.1345 -3.57246,48.5787 6.03828,75.1555 1.26481,3.49759 4.6344,10.18921 9.98075,19.82061 2.36081,4.25297 12.62622,17.30251 17.72576,22.53323 11.18533,11.47308 26.49143,22.17402 39.87117,27.87509 3.025001,1.28895 6.175001,2.67393 7.000001,3.07775 2.25379,1.10318 15.57155,4.71704 23.5,6.37687 9.91915,2.07659 33.50732,2.08554 44.36821,0.0168 z M 63.999999,214.83334 c 0,-0.64166 0.25765,-0.90902 0.57255,-0.59411 0.3149,0.3149 5.81425,-5.1226 12.22077,-12.08334 6.40653,-6.96073 14.65855,-15.80588 18.33783,-19.65588 3.67928,-3.85 9.036651,-9.5875 11.905271,-12.75 5.43882,-5.99602 7.97352,-6.95597 11.03977,-4.18105 2.25498,2.04073 1.13363,4.25577 -5.57619,11.01472 -17.427211,17.55482 -28.502121,29.60388 -27.982801,30.44415 0.37896,0.61317 24.213161,0.97218 64.541821,0.97218 55.96776,0 63.94098,-0.18572 63.94098,-1.48941 0,-1.88123 -5.71071,-8.28842 -27.63964,-31.01059 -5.89296,-6.10613 -6.6032,-7.93288 -4.00969,-10.31302 2.91491,-2.67508 4.96134,-1.7059 11.51312,5.45256 2.95009,3.22325 8.76813,9.46046 12.92898,13.86046 16.21577,17.14779 21.82418,23.16841 24.8106,26.63413 1.70685,1.9808 3.73185,3.85042 4.5,4.15471 0.76814,0.3043 -37.41587,0.58879 -84.85337,0.63221 -65.092731,0.0596 -86.250001,-0.20724 -86.250001,-1.08772 z m 0,-55.1798 v -41.73879 l 3.49997,2.79263 3.49997,2.79263 3e-5,35.55383 3e-5,35.55384 -3.5,3.39233 -3.5,3.39233 z M 230.68709,198.19529 228,195.39057 v -35.50819 -35.50819 l 2.91874,-2.79633 c 1.60531,-1.53798 3.40531,-2.49561 4,-2.12807 0.74617,0.46116 1.08126,13.20108 1.08126,41.10924 0,43.87318 0.0851,43.27054 -5.31291,37.63626 z m -89.69248,-28.45085 c -3.57797,-2.88444 -7.40297,-6.00232 -8.5,-6.92862 -1.09704,-0.9263 -7.13025,-5.8763 -13.40715,-11 -19.252271,-15.71522 -36.411461,-29.82561 -40.087461,-32.96481 -1.925,-1.6439 -6.06202,-4.87038 -9.19339,-7.16995 l -5.69338,-4.18105 -0.0566,-8.250001 -0.0566,-8.25001 h 86.000001 86 v 7.96482 c 0,6.993681 -0.24876,8.097951 -2.0402,9.056701 -1.12211,0.60054 -5.05961,3.66417 -8.75,6.80808 -3.69039,3.14391 -8.7348,7.27442 -11.2098,9.17892 -2.475,1.9045 -5.13595,4.073 -5.91321,4.81889 -0.77727,0.74589 -7.07727,5.90293 -14,11.46009 -6.92274,5.55716 -12.81179,10.42228 -13.08679,10.81138 -1.85991,2.63159 -29.89385,23.89569 -31.5,23.89315 -1.1,-0.002 -4.92743,-2.36316 -8.50539,-5.24759 z m 12.7057,-6.05113 c 0.43983,-0.71869 6.42469,-5.87098 13.29969,-11.44954 15.18521,-12.32169 26.81899,-21.93881 33.5,-27.69292 2.75,-2.36848 10.0625,-8.42748 16.25,-13.46444 6.1875,-5.03697 11.25,-9.60312 11.25,-10.14701 0,-2.724291 -7.54325,-2.979931 -80.07983,-2.713851 -57.372331,0.21045 -75.106331,0.55991 -76.044601,1.49849 -1.46098,1.461461 -0.75669,2.170301 14.79218,14.887691 5.95774,4.87283 11.28225,9.35984 11.83225,9.97114 0.55,0.6113 5.725001,4.84901 11.500001,9.41714 5.775,4.56813 10.95,8.81865 11.5,9.44561 0.55,0.62696 6.175,5.34158 12.5,10.47693 6.325,5.13535 11.65,9.72861 11.83333,10.20723 0.52554,1.37202 6.97933,1.01395 7.86698,-0.43647 z"
     id="path74"
     inkscape:connector-curvature="0" />
</svg>
