<?xml version="1.0" encoding="UTF-8" standalone="no"?>
<!-- Created with Inkscape (http://www.inkscape.org/) -->

<svg
   xmlns:dc="http://purl.org/dc/elements/1.1/"
   xmlns:cc="http://creativecommons.org/ns#"
   xmlns:rdf="http://www.w3.org/1999/02/22-rdf-syntax-ns#"
   xmlns:svg="http://www.w3.org/2000/svg"
   xmlns="http://www.w3.org/2000/svg"
   xmlns:sodipodi="http://sodipodi.sourceforge.net/DTD/sodipodi-0.dtd"
   xmlns:inkscape="http://www.inkscape.org/namespaces/inkscape"
   version="1.1"
   id="svg3923"
   width="300"
   height="300"
   viewBox="0 0 300 300"
   sodipodi:docname="round_avatar.svg"
   inkscape:version="0.92.2 5c3e80d, 2017-08-06">
  <metadata
     id="metadata3929">
    <rdf:RDF>
      <cc:Work
         rdf:about="">
        <dc:format>image/svg+xml</dc:format>
        <dc:type
           rdf:resource="http://purl.org/dc/dcmitype/StillImage" />
        <dc:title></dc:title>
      </cc:Work>
    </rdf:RDF>
  </metadata>
  <defs
     id="defs3927" />
  <sodipodi:namedview
     pagecolor="#ffffff"
     bordercolor="#666666"
     borderopacity="1"
     objecttolerance="10"
     gridtolerance="10"
     guidetolerance="10"
     inkscape:pageopacity="0"
     inkscape:pageshadow="2"
     inkscape:window-width="1235"
     inkscape:window-height="685"
     id="namedview3925"
     showgrid="false"
     inkscape:zoom="0.78666667"
     inkscape:cx="150"
     inkscape:cy="150"
     inkscape:window-x="32"
     inkscape:window-y="22"
     inkscape:window-maximized="0"
     inkscape:current-layer="svg3923" />
  <path
     style="fill:#000000"
     d="M 129.83333,293.01838 C 129.65,292.47848 126.8,291.63396 123.5,291.14166 115.92928,290.01225 104.79776,287.08929 103.55,285.90311 103.0275,285.4064 101.99031,285 101.24514,285 99.77105,285 94.04535,282.5764 84.20873,277.78875 67.82458,269.81431 46.13301,250.71711 33.52353,233.16563 31.58559,230.46816 30,227.80053 30,227.23756 c 0,-0.56297 -0.58534,-1.2482 -1.30075,-1.52273 -0.71542,-0.27453 -3.23649,-4.48517 -5.60238,-9.35699 -2.36589,-4.87181 -4.70555,-9.63923 -5.19925,-10.59427 C 17.40393,204.80853 17,203.52654 17,202.9147 c 0,-0.61184 -0.63705,-2.53045 -1.41568,-4.26357 -1.49676,-3.33162 -4.50428,-14.14544 -6.71686,-24.15113 -1.78071,-8.05268 -1.78071,-39.94732 0,-48 2.21258,-10.00569 5.2201,-20.81951 6.71686,-24.15113 C 16.36295,100.61575 17,98.739718 17,98.17991 c 0,-0.559807 0.64127,-2.291799 1.42505,-3.84887 0.78378,-1.557072 3.13757,-6.372491 5.23064,-10.700931 2.09308,-4.328439 4.37681,-8.089084 5.07495,-8.356988 C 29.42879,75.005217 30,74.379552 30,73.882755 30,71.391017 39.58851,59.389257 49.48888,49.488884 59.38926,39.588511 71.39102,30 73.88276,30 c 0.49679,0 1.12246,-0.571211 1.39036,-1.269358 0.26791,-0.698147 4.02855,-2.981873 8.35699,-5.074948 4.32844,-2.093075 9.14386,-4.446864 10.70093,-5.230642 C 95.88811,17.641273 97.6201,17 98.17991,17 c 0.55981,0 2.43584,-0.659196 4.16896,-1.464881 1.73312,-0.805684 4.95113,-1.909857 7.15113,-2.453718 2.2,-0.543861 5.8,-1.431678 8,-1.972928 15.73676,-3.8715961 19.20697,-4.2572194 35,-3.8893346 8.8,0.2049883 18.7,0.9582481 22,1.6739108 9.69768,2.1031118 20.76143,5.1684158 24.15113,6.6912738 C 200.38425,16.362945 202.30286,17 202.9147,17 c 0.61184,0 1.89383,0.40393 2.84887,0.897622 0.95504,0.493693 5.72246,2.833354 10.59427,5.199247 4.87182,2.365894 9.08246,4.886964 9.35699,5.602378 C 225.98936,29.414661 226.67459,30 227.23756,30 c 3.45523,0 24.25854,18.189216 34.05137,29.772561 5.69556,6.736933 13.5392,18.353332 16.49982,24.43617 C 282.5764,94.045348 285,99.771049 285,101.24514 c 0,0.74517 0.4064,1.78236 0.90311,2.30486 1.18618,1.24776 4.10914,12.37928 5.23855,19.95 0.4923,3.3 1.33682,6.15 1.87672,6.33333 1.31561,0.44675 1.32545,40.88204 0.0101,41.33334 -0.53436,0.18333 -1.42682,3.25833 -1.98323,6.83333 -1.05268,6.76346 -3.38643,16.05076 -4.90005,19.5 -0.48271,1.1 -1.9088,4.7 -3.16908,8 -12.1072,31.70228 -45.7738,65.36888 -77.47608,77.47608 -3.3,1.26028 -6.9,2.68637 -8,3.16908 -3.44924,1.51362 -12.73654,3.84737 -19.5,4.90005 -3.575,0.55641 -6.65,1.44887 -6.83333,1.98323 -0.4513,1.31539 -40.88659,1.30555 -41.33334,-0.0101 z m 43.64382,-13.61147 c 7.85123,-1.559 20.54241,-5.05804 23.52285,-6.48539 3.84279,-1.84034 19.41234,-9.57326 21.81168,-10.8332 4.80045,-2.52081 17.53217,-12.6903 24.05926,-19.21738 6.52708,-6.52709 16.69657,-19.25881 19.21738,-24.05926 1.25994,-2.39934 8.99286,-17.96889 10.8332,-21.81168 1.42735,-2.98044 4.92639,-15.67162 6.48539,-23.52285 2.13996,-10.77691 2.13996,-35.17739 0,-45.9543 C 277.84879,119.67606 274.35015,106.98476 272.92232,104 261.21837,79.533913 255.42903,70.700123 242.86446,58.135544 229.99516,45.266249 222.04869,40.038875 198.47593,28.935728 172.6215,16.757884 128.04662,17.014807 101.35597,29.495515 78.94488,39.975079 70.38709,45.726032 57.2737,59.11941 44.9644,71.691542 39.41756,80.110175 29.60976,101.10597 c -12.5994,26.97182 -12.90693,71.39864 -0.67403,97.36996 11.10315,23.57276 16.33052,31.51923 29.19981,44.38853 12.56458,12.56457 21.39837,18.35391 45.86446,30.05786 2.73616,1.30891 15.39601,4.89238 22.5,6.36881 10.02339,2.08318 36.7377,2.14902 46.97715,0.11578 z M 114.98469,235.25 c -0.0131,-1.49555 -0.15626,-1.5319 -0.98469,-0.25 -0.64625,1 -0.97448,1.08333 -0.98469,0.25 -0.008,-0.6875 -0.69031,-1.25 -1.51531,-1.25 -0.825,0 -1.5,-0.46412 -1.5,-1.03138 0,-0.56727 -0.7875,-1.32959 -1.75,-1.69405 C 106.00408,230.42412 104,228.44214 104,227.07143 104,226.48214 103.325,226 102.5,226 c -0.825,0 -1.5,-0.62686 -1.5,-1.39301 0,-0.76616 -0.675,-1.65203 -1.5,-1.96862 C 98.675,222.32179 98,220.92365 98,219.53138 98,218.13912 97.55,217 97,217 c -0.55,0 -1.00614,-1.4625 -1.01365,-3.25 -0.007,-1.7875 -0.30812,-4.3509 -0.66801,-5.69645 -0.60603,-2.26579 -0.71059,-2.30271 -1.41606,-0.5 C 93.46369,208.6743 93.10814,205.47004 93.06413,200 93.01303,193.64948 92.49244,189.55041 91.49384,187.63569 89.68437,184.16619 89.30619,161 91.05902,161 c 0.58246,0 0.7809,-0.45 0.44098,-1 -0.33992,-0.55 -0.14148,-1 0.44098,-1 C 92.52344,159 93,158.07344 93,156.94098 c 0,-1.13397 0.45454,-1.77809 1.01175,-1.43372 0.56125,0.34687 1.28132,-0.7226 1.61718,-2.40192 0.333,-1.66497 0.89021,-2.9915 1.23826,-2.94786 C 99.29291,150.46168 101,149.77705 101,148.5 c 0,-0.825 0.6375,-1.5 1.41667,-1.5 0.77916,0 1.56666,-0.43699 1.75,-0.97108 0.18333,-0.5341 1.45833,-1.15816 2.83333,-1.38681 1.375,-0.22866 2.3875,-0.91667 2.25,-1.52892 C 109.06954,142.30964 120.40442,142 150,142 c 35.77778,0 41,0.19106 41,1.5 0,0.93333 0.94444,1.5 2.5,1.5 1.375,0 2.5,0.45 2.5,1 0,0.55 0.675,1 1.5,1 0.825,0 1.5,0.675 1.5,1.5 0,0.825 0.675,1.5 1.5,1.5 0.825,0 1.5,0.675 1.5,1.5 0,0.825 0.675,1.5 1.5,1.5 0.825,0 1.5,0.675 1.5,1.5 0,0.825 0.675,1.5 1.5,1.5 1,0 1.5,1 1.5,3 0,2.08294 0.48894,3 1.5995,3 1.37378,0 1.55018,1.27527 1.25,9.0371 -0.21577,5.57909 -0.80668,9.31942 -1.54429,9.7749 -0.76286,0.47107 -1.26226,4.07274 -1.38144,9.96289 C 207.78115,197.82361 207.41424,200 206.36856,200 205.36254,200 205,201.58945 205,206 c 0,4.12517 -0.39059,6.00478 -1.25,6.01531 -0.93594,0.0115 -0.91487,0.22775 0.0839,0.86084 1.07393,0.68077 1.02522,0.96395 -0.25,1.4533 -0.87112,0.33428 -1.58385,1.7469 -1.58385,3.13917 0,1.58345 -0.56171,2.53138 -1.5,2.53138 -1,0 -1.5,1 -1.5,3 0,1.65 -0.48214,3 -1.07143,3 C 196.54409,226 194,228.54409 194,229.92857 194,230.51786 193.325,231 192.5,231 c -0.825,0 -1.5,0.675 -1.5,1.5 0,1 -1,1.5 -3,1.5 -2,0 -3,0.5 -3,1.5 0,1.30476 -4.55556,1.5 -35,1.5 -32.66083,0 -35.00102,-0.11696 -35.01531,-1.75 z m 23.84916,-106.12615 c 1.06402,-0.67448 0.9969,-0.97482 -0.33179,-1.48469 C 137.58596,127.28762 135.72167,127 134.3592,127 c -1.39685,0 -2.20769,-0.43613 -1.8592,-1 0.33992,-0.55 -0.30852,-1 -1.44098,-1 C 129.89545,125 129,124.34766 129,123.5 c 0,-0.825 -0.45,-1.5 -1,-1.5 -0.55,0 -1,-0.675 -1,-1.5 0,-0.825 -0.675,-1.5 -1.5,-1.5 -0.825,0 -1.5,-0.675 -1.5,-1.5 0,-0.825 -0.61749,-1.5 -1.37219,-1.5 -0.82762,0 -1.62604,-1.58745 -2.01182,-4 -0.35179,-2.2 -1.08431,-4 -1.62781,-4 C 118.40741,108 118,104.12744 118,98.606989 c 0,-7.452508 0.3118,-9.512661 1.50928,-9.972175 0.8301,-0.318539 1.45181,-0.929184 1.38157,-1.356988 -0.40879,-2.490056 0.25306,-5.306919 1.12089,-4.770567 0.56223,0.347472 1.28422,-0.73707 1.625,-2.440983 C 123.97404,78.379824 124.63861,77 125.11357,77 c 1.44167,0 4.819,-3.300083 4.27619,-4.178379 C 129.11047,72.36973 130.25852,72 131.94098,72 133.99344,72 135,71.506431 135,70.5 c 0,-0.99187 0.99206,-1.5 2.92857,-1.5 1.61072,0 3.60357,-0.675 4.42857,-1.5 C 144.0761,65.781044 157,65.32931 157,66.988182 c 0,0.543501 1.8,1.276014 4,1.627809 2.41255,0.385782 4,1.184198 4,2.011817 C 165,71.382514 165.9,72 167,72 c 1.1,0 2,0.441427 2,0.980948 0,0.539521 1.16776,1.274037 2.59502,1.632257 1.91733,0.481219 2.24377,0.873922 1.25,1.503739 -0.99853,0.632837 -1.02301,0.856375 -0.095,0.867743 0.6875,0.0084 1.25,0.690313 1.25,1.515313 0,0.825 0.675,1.5 1.5,1.5 0.825,0 1.5,0.675 1.5,1.5 0,0.825 0.675,1.5 1.5,1.5 1.09564,0 1.50413,1.145695 1.51531,4.25 0.0112,3.112455 0.27478,3.848514 0.98469,2.75 0.66238,-1.024957 0.97422,1.606473 0.98469,8.309017 0.01,6.288353 -0.34361,9.587193 -0.98469,9.190983 -0.58342,-0.36058 -1,0.65628 -1,2.44098 0,2.05246 -0.49357,3.05902 -1.5,3.05902 -0.93829,0 -1.5,0.94793 -1.5,2.53138 0,1.39227 -0.675,2.79041 -1.5,3.10699 -0.825,0.31659 -1.5,1.20246 -1.5,1.96862 0,0.76615 -0.675,1.39301 -1.5,1.39301 -0.825,0 -1.5,0.675 -1.5,1.5 0,0.93333 -0.94444,1.5 -2.5,1.5 -1.375,0 -2.5,0.41425 -2.5,0.92054 0,0.5063 -1.35,1.21706 -3,1.57946 -1.65,0.3624 -3,1.07316 -3,1.57946 0,0.50708 -5.05293,0.91366 -11.25,0.90523 -6.52092,-0.009 -10.6893,-0.37074 -9.91615,-0.86084 z"
     id="path3933"
     inkscape:connector-curvature="0" />
</svg>
