<?xml version="1.0" encoding="UTF-8" standalone="no"?>
<!-- Created with Inkscape (http://www.inkscape.org/) -->

<svg
   xmlns:dc="http://purl.org/dc/elements/1.1/"
   xmlns:cc="http://creativecommons.org/ns#"
   xmlns:rdf="http://www.w3.org/1999/02/22-rdf-syntax-ns#"
   xmlns:svg="http://www.w3.org/2000/svg"
   xmlns="http://www.w3.org/2000/svg"
   xmlns:sodipodi="http://sodipodi.sourceforge.net/DTD/sodipodi-0.dtd"
   xmlns:inkscape="http://www.inkscape.org/namespaces/inkscape"
   version="1.1"
   id="svg97"
   width="300"
   height="300"
   viewBox="0 0 300 300"
   sodipodi:docname="round_avatar_2.svg"
   inkscape:version="0.92.2 5c3e80d, 2017-08-06">
  <metadata
     id="metadata103">
    <rdf:RDF>
      <cc:Work
         rdf:about="">
        <dc:format>image/svg+xml</dc:format>
        <dc:type
           rdf:resource="http://purl.org/dc/dcmitype/StillImage" />
        <dc:title></dc:title>
      </cc:Work>
    </rdf:RDF>
  </metadata>
  <defs
     id="defs101" />
  <sodipodi:namedview
     pagecolor="#ffffff"
     bordercolor="#666666"
     borderopacity="1"
     objecttolerance="10"
     gridtolerance="10"
     guidetolerance="10"
     inkscape:pageopacity="0"
     inkscape:pageshadow="2"
     inkscape:window-width="1126"
     inkscape:window-height="646"
     id="namedview99"
     showgrid="false"
     inkscape:zoom="0.56686394"
     inkscape:cx="150"
     inkscape:cy="150"
     inkscape:window-x="0"
     inkscape:window-y="0"
     inkscape:window-maximized="0"
     inkscape:current-layer="svg97" />
  <path
     style="fill:#000000"
     d="M 129.83333,291.25429 C 129.65,290.71439 126.8,289.86987 123.5,289.37757 c -7.57072,-1.12941 -18.70224,-4.05237 -19.95,-5.23855 -0.5225,-0.49671 -1.55969,-0.90311 -2.30486,-0.90311 -1.474087,0 -7.199787,-2.4236 -17.036407,-7.21125 -16.38415,-7.97444 -38.07573,-27.07164 -50.6852,-44.62312 -1.93794,-2.69747 -3.52353,-5.3651 -3.52353,-5.92807 0,-0.56297 -0.58534,-1.2482 -1.30076,-1.52273 -0.71541,-0.27453 -3.23648,-4.48517 -5.60237,-9.35699 -2.3659,-4.87181 -4.70556,-9.63923 -5.19925,-10.59427 -0.49369,-0.95504 -0.89762,-2.23703 -0.89762,-2.84887 0,-0.61184 -0.63706,-2.53045 -1.41568,-4.26357 -1.49676,-3.33162 -4.50428,-14.14544 -6.7168601,-24.15113 -1.78071,-8.05268 -1.78071,-39.94732 0,-48 2.2125801,-10.00569 5.2201001,-20.81951 6.7168601,-24.15113 0.77862,-1.733119 1.41568,-3.609149 1.41568,-4.168959 0,-0.55981 0.64127,-2.2918 1.42505,-3.84887 0.78378,-1.557075 3.13757,-6.372494 5.23064,-10.700934 2.09308,-4.328439 4.3768,-8.089084 5.07495,-8.356988 0.69815,-0.267904 1.26936,-0.893569 1.26936,-1.390366 0,-2.491738 9.58851,-14.493498 19.48888,-24.393871 9.90037,-9.900373 21.90213,-19.488884 24.39387,-19.488884 0.4968,0 1.12246,-0.571211 1.39037,-1.269358 0.2679,-0.698147 4.02855,-2.981873 8.35699,-5.074948 4.32844,-2.093075 9.14386,-4.446864 10.70093,-5.230642 1.55707,-0.783779 3.28906,-1.425052 3.84887,-1.425052 0.55981,0 2.435837,-0.659196 4.168957,-1.464881 1.73312,-0.805684 4.95113,-1.909857 7.15113,-2.453718 2.2,-0.543861 5.8,-1.4316778 8,-1.9729278 15.73676,-3.871596 19.20697,-4.257219 35,-3.889335 8.8,0.204989 18.7,0.958249 22,1.673911 9.69768,2.103112 20.76143,5.1684158 24.15113,6.6912738 1.73312,0.778622 3.65173,1.415677 4.26357,1.415677 0.61184,0 1.89383,0.40393 2.84887,0.897622 0.95504,0.493693 5.72246,2.833354 10.59427,5.199247 4.87182,2.365894 9.08246,4.886964 9.35699,5.602378 0.27453,0.715414 0.95976,1.300753 1.52273,1.300753 3.45523,0 24.25854,18.189216 34.05137,29.772561 5.69556,6.736933 13.5392,18.353332 16.49982,24.43617 C 282.5764,92.281261 285,98.006961 285,99.481051 c 0,0.745169 0.4064,1.782359 0.90311,2.304859 1.18618,1.24776 4.10914,12.37928 5.23855,19.95 0.4923,3.3 1.33682,6.15 1.87672,6.33333 1.31561,0.44675 1.32545,40.88204 0.0101,41.33334 -0.53436,0.18333 -1.42682,3.25833 -1.98323,6.83333 -1.05268,6.76346 -3.38643,16.05076 -4.90005,19.5 -0.48271,1.1 -1.9088,4.7 -3.16908,8 -12.1072,31.70228 -45.7738,65.36888 -77.47608,77.47608 -3.3,1.26028 -6.9,2.68637 -8,3.16908 -3.44924,1.51362 -12.73654,3.84737 -19.5,4.90005 -3.575,0.55641 -6.65,1.44887 -6.83333,1.98323 -0.4513,1.31539 -40.88659,1.30555 -41.33334,-0.0101 z m 43.64382,-13.61147 c 7.85123,-1.559 20.54241,-5.05804 23.52285,-6.48539 3.84279,-1.84034 19.41234,-9.57326 21.81168,-10.8332 4.80045,-2.52081 17.53217,-12.6903 24.05926,-19.21738 6.52708,-6.52709 16.69657,-19.25881 19.21738,-24.05926 1.25994,-2.39934 8.99286,-17.96889 10.8332,-21.81168 1.42735,-2.98044 4.92639,-15.67162 6.48539,-23.52285 2.13996,-10.77691 2.13996,-35.17739 0,-45.9543 -1.55812,-7.84679 -5.05676,-20.53809 -6.48459,-23.52285 C 261.21837,77.769821 255.42903,68.936031 242.86446,56.371452 229.99516,43.502157 222.04869,38.274783 198.47593,27.171636 172.6215,14.993792 128.04662,15.250715 101.35597,27.731423 78.944883,38.210987 70.387093,43.96194 57.273703,57.355318 c -12.3093,12.572132 -17.85614,20.990765 -27.66395,41.986563 -12.59939,26.971819 -12.90693,71.398639 -0.67402,97.369959 11.10314,23.57276 16.33052,31.51923 29.19981,44.38853 12.56458,12.56457 21.39837,18.35391 45.864457,30.05786 2.73616,1.30891 15.39601,4.89238 22.5,6.36881 10.02339,2.08318 36.7377,2.14902 46.97715,0.11578 z m -58.49246,-44.15691 c -0.0131,-1.49555 -0.15626,-1.5319 -0.98469,-0.25 -0.64625,1 -0.97448,1.08333 -0.98469,0.25 -0.008,-0.6875 -0.69031,-1.25 -1.51531,-1.25 -0.825,0 -1.5,-0.46412 -1.5,-1.03138 0,-0.56727 -0.7875,-1.32959 -1.75,-1.69405 -2.24592,-0.85045 -4.25,-2.83243 -4.25,-4.20314 0,-0.58929 -0.675,-1.07143 -1.5,-1.07143 -0.825,0 -1.5,-0.62686 -1.5,-1.39301 0,-0.76616 -0.675,-1.65203 -1.499997,-1.96862 -0.825,-0.31658 -1.5,-1.71472 -1.5,-3.10699 0,-1.39226 -0.45,-2.53138 -1,-2.53138 -0.55,0 -1.00615,-1.4625 -1.01366,-3.25 -0.008,-1.7875 -0.30811,-4.3509 -0.668,-5.69645 -0.60603,-2.26579 -0.7106,-2.30271 -1.41606,-0.5 -0.43859,1.12075 -0.79414,-2.08351 -0.83816,-7.55355 -0.0511,-6.35052 -0.57169,-10.44959 -1.57028,-12.36431 -1.80947,-3.4695 -2.18766,-26.63569 -0.43483,-26.63569 0.58246,0 0.78091,-0.45 0.44099,-1 -0.33992,-0.55 -0.14148,-1 0.44098,-1 0.58246,0 1.05902,-0.92656 1.05902,-2.05902 0,-1.13397 0.45454,-1.77809 1.01174,-1.43372 0.56126,0.34687 1.28133,-0.7226 1.61719,-2.40192 0.33299,-1.66497 0.89021,-2.9915 1.23825,-2.94786 2.42573,0.3042 4.132817,-0.38043 4.132817,-1.65748 0,-0.825 0.6375,-1.5 1.41667,-1.5 0.77916,0 1.56666,-0.43699 1.75,-0.97108 0.18333,-0.5341 1.45833,-1.15816 2.83333,-1.38681 1.375,-0.22866 2.3875,-0.91667 2.25,-1.52892 -0.18046,-0.80355 11.15442,-1.11319 40.75,-1.11319 35.77778,0 41,0.19106 41,1.5 0,0.93333 0.94444,1.5 2.5,1.5 1.375,0 2.5,0.45 2.5,1 0,0.55 0.675,1 1.5,1 0.825,0 1.5,0.675 1.5,1.5 0,0.825 0.675,1.5 1.5,1.5 0.825,0 1.5,0.675 1.5,1.5 0,0.825 0.675,1.5 1.5,1.5 0.825,0 1.5,0.675 1.5,1.5 0,0.825 0.675,1.5 1.5,1.5 1,0 1.5,1 1.5,3 0,2.08294 0.48894,3 1.5995,3 1.37378,0 1.55018,1.27527 1.25,9.0371 -0.21577,5.57909 -0.80668,9.31942 -1.54429,9.7749 -0.76286,0.47107 -1.26226,4.07274 -1.38144,9.96289 -0.14262,7.04872 -0.50953,9.22511 -1.55521,9.22511 -1.00602,0 -1.36856,1.58945 -1.36856,6 0,4.12517 -0.39059,6.00478 -1.25,6.01531 -0.93594,0.0115 -0.91487,0.22775 0.0839,0.86084 1.07393,0.68077 1.02522,0.96395 -0.25,1.4533 -0.87112,0.33428 -1.58385,1.7469 -1.58385,3.13917 0,1.58345 -0.56171,2.53138 -1.5,2.53138 -1,0 -1.5,1 -1.5,3 0,1.65 -0.48214,3 -1.07143,3 -1.38453,0 -3.92862,2.54409 -3.92862,3.92857 0,0.58929 -0.675,1.07143 -1.5,1.07143 -0.825,0 -1.5,0.675 -1.5,1.5 0,1 -1,1.5 -3,1.5 -2,0 -3,0.5 -3,1.5 0,1.30476 -4.55556,1.5 -35,1.5 -32.66083,0 -35.00102,-0.11696 -35.01531,-1.75 z m 23.84916,-106.12615 c 1.06402,-0.67448 0.9969,-0.97482 -0.33179,-1.48469 -0.9161,-0.35154 -2.78039,-0.63916 -4.14286,-0.63916 -1.39685,0 -2.20769,-0.43613 -1.8592,-1 0.33992,-0.55 -0.30852,-1 -1.44098,-1 -1.16357,0 -2.05902,-0.65234 -2.05902,-1.5 0,-0.825 -0.45,-1.5 -1,-1.5 -0.55,0 -1,-0.675 -1,-1.5 0,-0.825 -0.675,-1.5 -1.5,-1.5 -0.825,0 -1.5,-0.675 -1.5,-1.5 0,-0.825 -0.61749,-1.5 -1.37219,-1.5 -0.82762,0 -1.62604,-1.58745 -2.01182,-4 -0.35179,-2.2 -1.08431,-4 -1.62781,-4 -0.58077,0 -0.98818,-3.87256 -0.98818,-9.393009 0,-7.452512 0.3118,-9.512665 1.50928,-9.972179 0.8301,-0.318539 1.45181,-0.929184 1.38157,-1.356988 -0.40879,-2.490056 0.25306,-5.306919 1.12089,-4.770567 0.56223,0.347472 1.28422,-0.73707 1.625,-2.440983 0.3373,-1.686452 1.00187,-3.066276 1.47683,-3.066276 1.44167,0 4.819,-3.300083 4.27619,-4.178379 -0.27929,-0.451891 0.86876,-0.821621 2.55122,-0.821621 2.05246,0 3.05902,-0.493569 3.05902,-1.5 0,-0.99187 0.99206,-1.5 2.92857,-1.5 1.61072,0 3.60357,-0.675 4.42857,-1.5 C 144.0761,64.016952 157,63.565218 157,65.22409 c 0,0.543501 1.8,1.276014 4,1.627809 2.41255,0.385782 4,1.184198 4,2.011817 0,0.754706 0.9,1.372192 2,1.372192 1.1,0 2,0.441427 2,0.980948 0,0.539521 1.16776,1.274037 2.59502,1.632257 1.91733,0.481219 2.24377,0.873922 1.25,1.503739 -0.99853,0.632837 -1.02301,0.856375 -0.095,0.867743 0.6875,0.0084 1.25,0.690313 1.25,1.515313 0,0.825 0.675,1.5 1.5,1.5 0.825,0 1.5,0.675 1.5,1.5 0,0.825 0.675,1.5 1.5,1.5 1.09564,0 1.50413,1.145695 1.51531,4.25 0.0112,3.112455 0.27478,3.848514 0.98469,2.75 0.66238,-1.024957 0.97422,1.606473 0.98469,8.309013 0.01,6.288359 -0.34361,9.587199 -0.98469,9.190989 -0.58342,-0.36058 -1,0.65628 -1,2.44098 0,2.05246 -0.49357,3.05902 -1.5,3.05902 -0.93829,0 -1.5,0.94793 -1.5,2.53138 0,1.39227 -0.675,2.79041 -1.5,3.10699 -0.825,0.31659 -1.5,1.20246 -1.5,1.96862 0,0.76615 -0.675,1.39301 -1.5,1.39301 -0.825,0 -1.5,0.675 -1.5,1.5 0,0.93333 -0.94444,1.5 -2.5,1.5 -1.375,0 -2.5,0.41425 -2.5,0.92054 0,0.5063 -1.35,1.21706 -3,1.57946 -1.65,0.3624 -3,1.07316 -3,1.57946 0,0.50708 -5.05293,0.91366 -11.25,0.90523 -6.52092,-0.009 -10.6893,-0.37074 -9.91615,-0.86084 z"
     id="path107"
     inkscape:connector-curvature="0" />
</svg>
