<?xml version="1.0" encoding="UTF-8" standalone="no"?>
<!-- Created with Inkscape (http://www.inkscape.org/) -->

<svg
   xmlns:dc="http://purl.org/dc/elements/1.1/"
   xmlns:cc="http://creativecommons.org/ns#"
   xmlns:rdf="http://www.w3.org/1999/02/22-rdf-syntax-ns#"
   xmlns:svg="http://www.w3.org/2000/svg"
   xmlns="http://www.w3.org/2000/svg"
   xmlns:sodipodi="http://sodipodi.sourceforge.net/DTD/sodipodi-0.dtd"
   xmlns:inkscape="http://www.inkscape.org/namespaces/inkscape"
   version="1.1"
   id="svg877"
   width="300"
   height="300"
   viewBox="0 0 300 300"
   sodipodi:docname="save.svg"
   inkscape:version="0.92.2 5c3e80d, 2017-08-06">
  <metadata
     id="metadata883">
    <rdf:RDF>
      <cc:Work
         rdf:about="">
        <dc:format>image/svg+xml</dc:format>
        <dc:type
           rdf:resource="http://purl.org/dc/dcmitype/StillImage" />
        <dc:title></dc:title>
      </cc:Work>
    </rdf:RDF>
  </metadata>
  <defs
     id="defs881" />
  <sodipodi:namedview
     pagecolor="#ffffff"
     bordercolor="#666666"
     borderopacity="1"
     objecttolerance="10"
     gridtolerance="10"
     guidetolerance="10"
     inkscape:pageopacity="0"
     inkscape:pageshadow="2"
     inkscape:window-width="1097"
     inkscape:window-height="656"
     id="namedview879"
     showgrid="false"
     inkscape:zoom="0.78666667"
     inkscape:cx="150"
     inkscape:cy="150"
     inkscape:window-x="157"
     inkscape:window-y="17"
     inkscape:window-maximized="0"
     inkscape:current-layer="svg877" />
  <g
     id="g887"
     transform="translate(2.2033898e-6,1.271186)">
    <path
       style="fill:#edecec"
       d="M 124.29638,290.41919 C 105.59409,287.27939 83.449898,278.03622 66.815193,266.42607 55.728569,258.68819 37.880264,240.59414 30.88383,230 5.6235377,191.75035 -0.59127021,146.45444 13.597651,104.0117 29.816593,55.496642 70.279416,19.743413 121.31159,8.834922 c 13.41796,-2.8681832 39.60586,-3.1559753 53.3241,-0.5860055 29.38322,5.5046395 54.87339,18.9985955 75.86454,40.1610725 21.54119,21.717017 35.06823,47.710768 40.05604,76.972281 2.12339,12.45713 1.57534,42.19902 -0.98801,53.61773 -6.20906,27.65885 -19.42536,51.83656 -39.07853,71.48973 -20.86031,20.86032 -48.14318,35.0518 -76.87072,39.98515 -11.06119,1.89952 -37.85655,1.86927 -49.32263,-0.0557 z M 171.5,258.54382 c 24.69638,-5.21043 45.31963,-17.32525 61.83979,-36.32685 18.47577,-21.25097 26.97238,-44.11599 27.0215,-72.71697 0.0412,-23.97345 -5.66301,-43.21234 -18.38254,-62 C 209.83993,40.028667 148.81017,24.523745 97.564174,50.810735 78.118413,60.785573 59.85355,79.387667 49.757584,99.5 32.559291,133.76099 34.578202,177.04542 54.83849,208.4321 73.825529,237.84629 102.44623,255.71863 138,260.36271 c 6.13895,0.80188 26.25491,-0.29032 33.5,-1.81889 z M 80,225 c -1.963434,-1.96343 -2,-3.33333 -2,-74.92742 V 77.14516 l 2.634859,-2.07258 C 83.240847,73.022709 84.002861,73 150.18031,73 h 66.9106 l 2.45454,2.454545 L 222,77.909091 v 72.545459 c 0,71.21212 -0.0368,72.58221 -2,74.54545 -1.96078,1.96078 -3.33333,2 -70,2 -66.666667,0 -68.039216,-0.0392 -70,-2 z"
       id="path901"
       inkscape:connector-curvature="0" />
    <path
       style="fill:#a5acda"
       d="M 128.5,289.8918 C 110.41436,286.6924 99.858497,283.28828 85.5,276.0249 70.365706,268.36907 62.428809,262.51226 48.93593,249.04344 21.171218,221.32825 7.5061294,188.05215 7.6469869,148.5 7.7053366,132.11566 9.5426416,120.47109 14.478469,105.20304 38.5378,30.780101 119.75925,-10.23462 193.94031,14.579489 c 22.30264,7.4604 41.66424,19.856605 58.23643,37.285711 20.47048,21.528956 32.52461,45.742239 37.40445,75.1348 1.87121,11.27079 1.80863,34.17955 -0.1243,45.5 -10.29288,60.28159 -56.6753,106.66401 -116.95689,116.95689 -9.84343,1.68073 -35.52278,1.93456 -44,0.43491 z m 44.26811,-30.38699 c 43.28407,-9.16554 76.63388,-42.59944 86.78602,-87.00481 2.4536,-10.73203 2.54889,-34.82946 0.17992,-45.5 C 247.87829,73.598056 203.28744,37.04079 150,37.035885 126.43538,37.033715 105.54495,43.351493 85.375896,56.579792 77.775495,61.564676 61.543315,77.813597 56.485484,85.5 43.508195,105.22163 37.03797,126.34594 37.035885,149 c -0.0022,23.74452 6.03589,43.51233 19.562263,64.04407 C 73.7613,239.09609 103.5172,256.97877 137,261.36392 c 6.42603,0.8416 28.41033,-0.30107 35.76811,-1.85911 z M 80.802339,223.80234 C 79.099297,222.0993 79,218.03721 79,150.07143 79,71.969919 78.727682,75.839921 84.319927,74.468287 c 1.19904,-0.294094 31.582483,-0.407269 67.518763,-0.251502 l 65.3387,0.283215 1.9113,2.360784 C 220.93043,79.135642 221,81.812989 221,150.41965 c 0,59.19529 -0.23427,71.51847 -1.38962,73.09851 -1.34051,1.83326 -3.78587,1.9037 -69.19766,1.99347 -64.066456,0.0879 -67.907494,-0.006 -69.610381,-1.70929 z M 201.65632,118.24089 201.81265,77.981774 151.15632,78.240887 100.5,78.5 l -0.26197,38.99761 c -0.14409,21.44868 -0.0441,39.56535 0.22217,40.25926 0.38265,0.99719 11.02343,1.20731 50.76197,1.00239 L 201.5,158.5 Z"
       id="path899"
       inkscape:connector-curvature="0" />
    <path
       style="fill:#b0b1b5"
       d="M 126,288.4346 C 95.610229,282.96841 71.631507,270.54868 50.08295,249.11351 22.30471,221.48144 8.4867352,187.92021 8.6579269,148.5 8.7578307,125.4952 13.335991,106.25395 23.528846,86 30.489064,72.169538 37.353285,62.60368 48.754479,50.846004 91.320695,6.9488641 158.03659,-4.1810803 212.91918,23.459067 c 33.93875,17.092345 59.81381,47.774489 70.96924,84.153943 4.43083,14.4496 6.10475,25.94377 6.10839,41.9441 0.009,38.84395 -14.21976,72.90971 -41.91978,100.36342 -19.90406,19.72708 -47.33545,33.71421 -75.57703,38.53636 -11.06136,1.88869 -35.94205,1.87676 -46.5,-0.0223 z m 46.76811,-27.92979 c 37.66997,-7.97674 69.85577,-35.88624 83.03739,-72.00481 5.1644,-14.1508 6.57683,-22.51521 6.58563,-39 0.0112,-20.96773 -3.13625,-34.37084 -12.20672,-51.981448 C 230.71754,59.723026 192.12628,36.039763 150,36.035885 117.47456,36.032891 88.94197,48.337453 66.735049,71.943548 46.573859,93.375019 36.038571,119.81912 36.035885,149 c -0.0018,19.27407 3.435496,33.86192 12.040925,51.10197 17.286173,34.63099 48.706217,56.52604 89.42319,62.31454 5.77727,0.82132 28.06731,-0.3869 35.26811,-1.9117 z m -71.21576,-35.2644 C 86.638799,225.00096 83.300017,224.6765 81.802355,223.32113 80.097752,221.77849 80,217.79471 80,149.86807 V 78.046106 l 2.430321,-1.592407 c 1.751264,-1.147472 4.407482,-1.528281 9.506516,-1.362903 3.891907,0.126228 7.373263,-0.06756 7.736346,-0.430645 0.939527,-0.93953 99.114497,-0.697762 109.242437,0.269022 6.35947,0.607058 8.74164,1.249193 9.75,2.628209 C 219.74853,79.03835 220,92.791638 220,150.53614 c 0,67.1395 -0.10113,71.24541 -1.79258,72.77615 -1.59889,1.44698 -6.88502,1.626 -48.92306,1.65685 -25.92176,0.019 -47.7276,0.15267 -48.45742,0.29701 -0.72982,0.14434 -9.40338,0.13275 -19.27459,-0.0257 z m 100.64733,-105.9069 c 0.16517,-22.091563 0.0457,-40.421135 -0.26539,-40.732378 -0.31115,-0.311242 -23.48615,-0.590072 -51.5,-0.619621 L 99.5,77.927785 99.238306,117.71223 c -0.143931,21.88144 -0.04398,40.35178 0.222106,41.0452 0.3823,0.99626 11.178748,1.2064 51.461368,1.00167 L 201.89935,159.5 Z"
       id="path897"
       inkscape:connector-curvature="0" />
    <path
       style="fill:#7985d2"
       d="M 126,288.4346 C 95.610229,282.96841 71.631507,270.54868 50.08295,249.11351 22.30471,221.48144 8.4867352,187.92021 8.6579269,148.5 8.7578307,125.4952 13.335991,106.25395 23.528846,86 30.489064,72.169538 37.353285,62.60368 48.754479,50.846004 91.320695,6.9488641 158.03659,-4.1810803 212.91918,23.459067 c 33.93875,17.092345 59.81381,47.774489 70.96924,84.153943 4.43083,14.4496 6.10475,25.94377 6.10839,41.9441 0.009,38.84395 -14.21976,72.90971 -41.91978,100.36342 -19.90406,19.72708 -47.33545,33.71421 -75.57703,38.53636 -11.06136,1.88869 -35.94205,1.87676 -46.5,-0.0223 z m 46.76811,-27.92979 c 37.66997,-7.97674 69.85577,-35.88624 83.03739,-72.00481 5.1644,-14.1508 6.57683,-22.51521 6.58563,-39 0.0112,-20.96773 -3.13625,-34.37084 -12.20672,-51.981448 C 230.71754,59.723026 192.12628,36.039763 150,36.035885 117.47456,36.032891 88.94197,48.337453 66.735049,71.943548 46.573859,93.375019 36.038571,119.81912 36.035885,149 c -0.0018,19.27407 3.435496,33.86192 12.040925,51.10197 17.286173,34.63099 48.706217,56.52604 89.42319,62.31454 5.77727,0.82132 28.06731,-0.3869 35.26811,-1.9117 z M 81.675224,223.19362 C 80.141086,221.49842 80,215.31122 80,149.72796 V 78.113408 l 2.222506,-1.556704 C 84.54456,74.930274 96.56776,74.345721 98.5,75.765313 c 0.6388,0.469318 1,15.724478 1,42.234687 v 41.5 H 151 202.5 V 117.70599 75.911981 l 2.30423,-0.578009 c 4.18847,-1.050666 12.43584,0.273857 13.86364,2.226496 C 219.74783,79.03739 220,92.851855 220,150.53614 c 0,67.66274 -0.0897,71.23509 -1.82874,72.80887 -1.51282,1.36908 -4.17639,1.65499 -15.41821,1.65499 -7.47421,0 -14.30128,-0.27314 -15.17126,-0.60699 C 186.20311,223.86396 186,220.84476 186,200.87953 v -22.90649 l -33.25,0.26348 -33.25,0.26348 -0.5,23 -0.5,23 -17.57478,0.27236 c -16.035396,0.24851 -17.721505,0.11022 -19.249996,-1.57874 z M 158,200.46107 v -19.53894 l 8.75,0.28894 8.75,0.28893 0.27159,19.25 0.2716,19.25 H 167.02159 158 Z"
       id="path895"
       inkscape:connector-curvature="0" />
    <path
       style="fill:#5363ca"
       d="M 120.5,286.54481 C 64.931652,274.80231 22.655375,231.71911 11.309215,175.2699 8.8430775,163.00042 8.8846217,135.92092 11.388638,123.5 17.371653,93.821856 31.258256,68.37393 52.593224,47.990441 72.496142,28.975135 94.375808,17.526735 121.79717,11.779899 c 14.02052,-2.9383504 40.05549,-3.1675185 53.47273,-0.470684 27.83044,5.593853 52.37609,18.450533 71.74062,37.576759 20.05842,19.811581 32.47343,41.691162 39.21095,69.103366 2.9889,12.16061 3.7059,42.98633 1.29408,55.63599 -2.6595,13.94873 -6.24522,24.97217 -11.99466,36.87467 -19.42264,40.20878 -56.9663,68.70433 -101.38136,76.94821 -13.29696,2.46805 -39.79708,2.02174 -53.63953,-0.9034 z m 51,-25.00099 c 44.18959,-9.3231 77.97132,-42.04601 89.10684,-86.31397 2.29603,-9.12763 2.70597,-12.89504 2.7453,-25.22985 0.0497,-15.59888 -1.15114,-23.18434 -5.94018,-37.52184 C 248.63243,86.193836 230.05411,64.094032 204.49122,49.526392 167.36998,28.371943 121.13522,30.575712 84.612047,55.240407 76.748266,60.550945 60.550945,76.748266 55.240407,84.612047 27.18907,126.15012 28.454752,178.24248 58.485258,218.16212 77.51949,243.46437 104.19781,258.55258 138.5,263.4153 c 5.50819,0.78085 25.91348,-0.37637 33,-1.87148 z M 82.2,222.8 C 81.288989,221.88899 81,204.33832 81,149.92244 c 0,-60.399827 0.221456,-71.861342 1.4075,-72.845672 0.867227,-0.719735 4.147954,-1.054625 8.546836,-0.872445 L 98.093671,76.5 l -0.06812,40.8719 c -0.04882,29.29236 0.255916,41.26233 1.075609,42.25 1.71607,2.06773 102.09973,2.04589 103.81641,-0.0226 0.84697,-1.02054 1.1221,-12.48722 1.01369,-42.25 L 203.78249,76.5 l 5.5827,-0.299127 c 3.07049,-0.164519 6.49443,0.188814 7.60876,0.785184 2.00587,1.073511 2.02605,1.799835 2.02605,72.926683 0,60.02317 -0.22808,72.03166 -1.38638,72.99296 -0.9401,0.78022 -6.01013,1.06106 -15.75,0.87245 L 187.5,223.5 187.23157,200.25 186.96314,177 h -33.87458 c -29.9667,0 -33.94461,0.18248 -34.48157,1.58179 -0.33385,0.86998 -0.60699,11.44498 -0.60699,23.5 V 224 h -17.3 c -12.122222,0 -17.659152,-0.35915 -18.5,-1.2 z m 76.26028,-4.04292 c -0.27951,-0.72837 -0.38491,-9.40919 -0.23424,-19.2907 L 158.5,181.5 h 8.5 8.5 v 19 19 l -8.26577,0.2907 c -6.14959,0.21627 -8.39587,-0.0483 -8.77395,-1.03362 z"
       id="path893"
       inkscape:connector-curvature="0" />
    <path
       style="fill:#3347c7"
       d="M 135,287.95979 C 99.839068,284.81041 63.697656,265.35395 41.342959,237.54022 19.391075,210.22767 8.8874046,178.51432 10.264565,143.70634 12.79374,79.780988 57.169445,27.079716 120.39476,12.914018 132.11513,10.288058 154.40457,9.326212 166.5,10.92446 c 65.71799,8.683749 115.85898,60.646407 121.52884,125.94408 2.77105,31.91323 -5.00815,63.03968 -22.29439,89.20517 -23.61215,35.74077 -60.51416,57.83041 -103.4034,61.89753 -11.84485,1.12323 -14.67626,1.12204 -27.33105,-0.0115 z m 37.5,-25.84438 C 226.00544,250.59478 264.30338,203.67784 264.42712,149.5 264.50982,113.29236 247.55797,79.586815 218.14562,57.477998 193.00838,38.582721 162.32403,30.726074 132.44382,35.534278 114.27489,38.457949 94.603411,46.640559 80.864974,56.989177 72.897751,62.990568 59.407727,77.034967 54.107892,84.845846 37.981424,108.61297 30.903456,140.05559 35.579803,167.15358 c 4.451376,25.79436 16.91158,48.98667 35.658585,66.37171 18.845486,17.47636 39.078292,26.62825 68.261612,30.87672 5.97802,0.87027 24.20366,-0.3926 33,-2.2866 z M 82.459869,221.75 C 82.19732,221.0625 82.098943,188.325 82.241254,149 L 82.5,77.5 89.75,77.20619 97,76.912381 v 40.972379 c 0,35.91429 0.193995,41.16638 1.571429,42.54381 C 99.958801,161.81594 106.09957,162 151,162 c 45.95572,0 51.01638,-0.15924 52.50938,-1.65224 1.48111,-1.48111 1.63453,-5.33936 1.48123,-37.25 -0.0941,-19.57877 -0.13042,-37.981733 -0.0808,-40.895477 L 205,76.904565 211.25,77.202283 217.5,77.5 v 72.5 72.5 l -14.7315,0.27663 -14.73151,0.27662 L 187.7685,199.77663 187.5,176.5 153.06726,176.23666 c -26.88163,-0.20559 -34.6086,0.0137 -35.23468,1 -0.44108,0.69484 -0.80885,11.27584 -0.81727,23.51334 L 117,223 H 99.968615 c -12.703848,0 -17.152678,-0.31761 -17.508746,-1.25 z m 75.984791,-3.03362 c -0.27091,-0.70599 -0.36929,-9.36849 -0.21862,-19.25 L 158.5,181.5 l 7.91317,-0.295 c 5.65526,-0.21083 8.14758,0.0745 8.73469,1 0.94301,1.48652 1.16192,33.82414 0.24515,36.21321 -0.79509,2.07198 -16.16392,2.34236 -16.94835,0.29817 z"
       id="path891"
       inkscape:connector-curvature="0" />
    <path
       style="fill:#3b3b3b"
       d="m 158.44466,218.71638 c -0.27091,-0.70599 -0.36929,-9.36849 -0.21862,-19.25 L 158.5,181.5 l 7.91317,-0.295 c 5.65526,-0.21083 8.14758,0.0745 8.73469,1 0.94301,1.48652 1.16192,33.82414 0.24515,36.21321 -0.79509,2.07198 -16.16392,2.34236 -16.94835,0.29817 z"
       id="path889"
       inkscape:connector-curvature="0" />
  </g>
</svg>
