<?xml version="1.0" encoding="UTF-8" standalone="no"?>
<!-- Created with Inkscape (http://www.inkscape.org/) -->

<svg
   xmlns:dc="http://purl.org/dc/elements/1.1/"
   xmlns:cc="http://creativecommons.org/ns#"
   xmlns:rdf="http://www.w3.org/1999/02/22-rdf-syntax-ns#"
   xmlns:svg="http://www.w3.org/2000/svg"
   xmlns="http://www.w3.org/2000/svg"
   xmlns:sodipodi="http://sodipodi.sourceforge.net/DTD/sodipodi-0.dtd"
   xmlns:inkscape="http://www.inkscape.org/namespaces/inkscape"
   version="1.1"
   id="svg1485"
   width="300"
   height="300"
   viewBox="0 0 300 300"
   sodipodi:docname="script-save.svg"
   inkscape:version="0.92.2 5c3e80d, 2017-08-06">
  <metadata
     id="metadata1491">
    <rdf:RDF>
      <cc:Work
         rdf:about="">
        <dc:format>image/svg+xml</dc:format>
        <dc:type
           rdf:resource="http://purl.org/dc/dcmitype/StillImage" />
        <dc:title></dc:title>
      </cc:Work>
    </rdf:RDF>
  </metadata>
  <defs
     id="defs1489" />
  <sodipodi:namedview
     pagecolor="#ffffff"
     bordercolor="#666666"
     borderopacity="1"
     objecttolerance="10"
     gridtolerance="10"
     guidetolerance="10"
     inkscape:pageopacity="0"
     inkscape:pageshadow="2"
     inkscape:window-width="993"
     inkscape:window-height="619"
     id="namedview1487"
     showgrid="false"
     inkscape:zoom="0.55625733"
     inkscape:cx="150"
     inkscape:cy="150"
     inkscape:window-x="242"
     inkscape:window-y="32"
     inkscape:window-maximized="0"
     inkscape:current-layer="svg1485" />
  <g
     id="g1495"
     transform="translate(-2.4762712e-6)">
    <path
       style="fill:#ececec"
       d="M 123.92149,290.40596 C 95.045057,285.1626 69.612635,271.63317 47.987535,250.01094 35.078964,237.10408 27.260757,226.10412 19.955795,210.57119 10.182882,189.79054 6.6186996,173.51603 6.5809624,149.5 6.5518029,130.9429 8.2337894,120.03424 13.594719,104.0117 29.841971,55.452562 70.248538,19.750014 121.31159,8.834922 c 13.41796,-2.8681832 39.60586,-3.1559753 53.3241,-0.5860055 19.09797,3.5778055 38.45696,11.4523555 54.9355,22.3458065 11.0354,7.295155 28.96512,24.916247 36.85488,36.22047 11.72838,16.80409 20.56076,38.037847 23.99456,57.684807 2.29197,13.11382 2.12392,38.61997 -0.33815,51.32084 -11.33034,58.44905 -55.81259,102.9313 -114.26164,114.26164 -11.979,2.32213 -39.93277,2.49636 -51.89935,0.32348 z M 172.5,258.50609 c 39.52639,-9.09903 70.13624,-36.68112 82.95109,-74.74604 3.86132,-11.4696 4.96756,-19.27689 4.92527,-34.76005 -0.0362,-13.23679 -0.41501,-16.96654 -2.59458,-25.54382 C 254.34295,109.92334 249.8889,99.572601 242.97063,89.036654 203.04564,28.234256 118.96186,20.311093 68.88423,72.632599 57.105136,84.939489 48.922986,98.371419 43.684999,114 c -9.37763,27.98003 -7.236779,58.71369 5.920745,84.99712 10.282357,20.54 29.183604,39.71753 49.178397,49.89723 10.073269,5.12848 26.978709,10.09383 39.215859,11.51822 6.97031,0.81133 27.66045,-0.33201 34.5,-1.90648 z M 78,225 c -1.963633,-1.96363 -1.999722,-3.32285 -1.984687,-74.75 0.0084,-40.0125 0.345922,-73.245133 0.75,-73.850296 C 78.946687,73.132794 81.747879,73 148.47971,73 h 66.6112 l 2.45454,2.454545 L 220,77.909091 v 72.545459 c 0,71.21212 -0.0368,72.58221 -2,74.54545 -1.96078,1.96078 -3.33333,2 -70,2 -66.666667,0 -68.039216,-0.0392 -70,-2 z"
       id="path1509"
       inkscape:connector-curvature="0" />
    <path
       style="fill:#d1d1d1"
       d="M 135.36784,291.0057 C 74.287857,285.70986 23.40957,239.93121 9.7735542,178 6.8863934,164.88727 6.6775864,135.73913 9.3759719,122.5 15.232249,93.767267 28.17673,69.697218 48.936974,48.936974 69.862809,28.011139 93.200656,15.458592 122.5,9.3701972 135.62745,6.6423174 164.73968,6.8538962 178,9.7735542 249.72783,25.56659 297.31261,89.491392 290.99401,161.56831 c -4.39102,50.08884 -33.68799,93.04089 -78.69743,115.37765 -23.19853,11.51269 -49.93891,16.39985 -76.92874,14.05974 z M 173,259.10208 c 38.54567,-8.69695 68.96078,-35.54129 82.25944,-72.60208 4.52399,-12.60749 6.15497,-22.77852 6.09349,-38 -0.0756,-18.7219 -3.26911,-32.33511 -11.4404,-48.768181 C 234.87287,69.485952 205.74027,46.68038 173,39.523191 143.44767,33.062901 110.05322,39.820088 85.119996,57.305232 76.433164,63.397126 63.036168,76.857881 57.12822,85.430227 40.535514,109.506 33.729061,139.60146 38.567143,167.5 c 1.777799,10.25158 6.13334,24.00198 10.052963,31.73709 7.309315,14.42445 20.29374,29.96479 33.328809,39.88941 13.36771,10.17789 35.895505,19.32879 54.051085,21.9558 8.30486,1.20167 27.43539,0.17781 37,-1.98022 z M 78.571429,224.42857 C 77.171648,223.02879 77,214.90803 77,150.08356 77,80.851686 77.089,77.229431 78.828741,75.654988 80.492071,74.149695 86.713037,74 147.60623,74 c 58.97539,0 67.21345,0.185398 69.17126,1.556704 L 219,77.113408 v 72.871872 c 0,64.91381 -0.17161,73.04347 -1.57143,74.44329 C 216.03088,225.82627 208.35498,226 148,226 87.645022,226 79.969123,225.82627 78.571429,224.42857 Z M 199,118.5 V 79 H 149 99 v 39.5 39.5 h 50 50 z"
       id="path1507"
       inkscape:connector-curvature="0" />
    <path
       style="fill:#b2b2b2"
       d="M 132.5,290.37159 C 98.542469,285.28996 72.614313,272.53369 49.425655,249.50023 27.811579,228.03081 14.464103,202.19977 9.4717154,172.17835 8.118877,164.04314 7.8653015,158.11188 8.2746472,144.17835 8.7300676,128.6765 9.1720728,125.05595 11.86478,114.77092 18.998102,87.524542 31.412818,66.40706 51.802686,46.836374 70.53811,28.853663 89.922503,18.230461 116.5,11.380395 c 10.35517,-2.6689341 12.23104,-2.8364588 32,-2.8577636 16.61219,-0.017903 22.71229,0.3544334 29.195,1.7819966 28.75679,6.332559 51.59647,18.776103 71.80523,39.121027 20.38324,20.520586 33.09285,44.060591 39.18399,72.574345 2.74347,12.8427 2.52945,43.01585 -0.39774,56.07321 -9.69564,43.24952 -36.92218,78.66922 -75.28648,97.94211 -19.78303,9.9383 -36.87748,14.02988 -60.5,14.48074 -9.35,0.17846 -18.35,0.12245 -20,-0.12447 z m 41,-30.84965 c 33.67048,-7.82723 61.47405,-29.3832 76.35864,-59.20049 8.96288,-17.95473 11.6165,-29.73669 11.55897,-51.32145 -0.0383,-14.36236 -0.3772,-17.80122 -2.61602,-26.54382 C 253.44397,101.53468 243.86947,84.580571 229.12926,69.913663 207.00902,47.903448 180.67909,37 149.64848,37 141.95392,37 133.16815,37.653538 128.10284,38.602692 95.155536,44.776463 64.917173,67.176548 49.757607,96.639559 40.545044,114.54442 37.000438,129.2511 37.000171,149.57055 36.999755,181.32618 47.757972,206.98821 70.50877,229.5 88.424361,247.22738 108.66554,257.28824 134,261.05826 c 8.24617,1.22711 31.50379,0.32252 39.5,-1.53632 z M 78.785313,223.78531 C 77.104695,222.10469 77,217.78684 77,150.15499 77,81.822699 77.089413,78.229058 78.828741,76.654988 80.492448,75.149353 86.759303,75 148.27204,75 h 67.61455 l 1.55671,2.222506 C 218.81679,79.183447 219,87.811134 219,150.53138 c 0,59.14412 -0.23375,71.40604 -1.39142,72.98925 -1.34314,1.83685 -3.74494,1.90543 -69.21469,1.97644 -63.82763,0.0692 -67.928441,-0.0316 -69.608577,-1.71176 z M 199.76134,118.25 200.02269,78 H 149.01134 98 v 39.83333 c 0,21.90834 0.304118,40.13745 0.675817,40.50915 0.3717,0.3717 23.209203,0.5592 50.750003,0.41667 L 199.5,158.5 Z"
       id="path1505"
       inkscape:connector-curvature="0" />
    <path
       style="fill:#909090"
       d="M 136.95211,289.91548 C 119.13176,288.67761 102.59841,283.88433 84.943155,274.83725 50.894139,257.38952 24.770811,226.18528 14.134246,190.25623 9.6340294,175.05503 8.5517833,167.01605 8.5801357,149 8.6189255,124.35177 12.792267,106.52888 23.42505,85.602538 43.444024,46.203271 79.048551,19.447141 123.5,10.398101 134.61113,8.1361933 161.70257,7.8610837 173,9.8954354 c 11.14013,2.0060266 25.89106,6.6089926 35.69532,11.1385696 19.52934,9.022583 40.52068,26.1303 53.87697,43.90915 12.47767,16.609293 22.46717,39.756795 26.03735,60.333285 1.88534,10.86603 1.51624,43.92328 -0.5831,52.22356 -7.87346,31.12976 -18.96589,51.46063 -39.0159,71.51064 -24.10619,24.10619 -55.95818,39.13953 -86.01064,40.59487 -5.225,0.25302 -11.075,0.57551 -13,0.71662 -1.925,0.14112 -7.79655,-0.0419 -13.04789,-0.40665 z M 171,260.54644 c 40.58677,-8.59403 72.56851,-36.52629 85.56179,-74.7281 C 264.43764,162.66237 264.56852,137.19449 256.93087,114 245.71287,79.93249 219.25191,53.3798 185.2115,42.031986 155.98339,32.288418 126.03541,34.520492 98,48.532007 54.556309,70.24426 29.317558,119.92921 37.567143,167.5 46.440525,218.66789 85.465193,255.52745 138,262.36079 c 6.42834,0.83615 25.41163,-0.20756 33,-1.81435 z M 79.221252,223.82125 C 78.281961,222.88196 78,205.80016 78,149.83518 78,78.918199 78.04912,77.044079 79.934259,76.035184 81.211964,75.351377 104.43896,75 148.36283,75 c 59.11604,0 66.66868,0.174367 68.06574,1.571429 1.39956,1.399563 1.57143,9.470995 1.57143,73.800001 0,54.84444 -0.28882,72.51739 -1.2,73.42857 -0.83195,0.83195 -6.04035,1.2 -16.98157,1.2 H 184.03686 L 183.76843,201.75 183.5,178.5 H 151 118.5 l -0.5,23 -0.5,23 -18.528748,0.27125 c -13.568154,0.19863 -18.855707,-0.0557 -19.75,-0.95 z M 200.63531,120 c 0.0744,-21.175 -0.0466,-39.5125 -0.26905,-40.75 L 199.9619,77 h -50.42194 c -37.96551,0 -50.60402,0.294634 -51.159019,1.192641 -0.876756,1.418621 -1.841648,77.164389 -1.010552,79.330199 0.500755,1.30494 7.103301,1.46236 51.851721,1.23626 L 200.5,158.5 Z m -45.17508,99.75696 c -0.27829,-0.7252 -0.38318,-9.85469 -0.2331,-20.28775 L 155.5,180.5 h 9.5 9.5 v 20 20 l -9.2669,0.28775 c -6.95776,0.21605 -9.39298,-0.0408 -9.77287,-1.03079 z"
       id="path1503"
       inkscape:connector-curvature="0" />
    <path
       style="fill:#5e5e5e"
       d="M 133.5,289.32436 C 125.80502,288.36 109.91943,284.5639 102.1195,281.82553 56.590594,265.84139 21.332744,225.293 11.405825,177.5 8.7892974,164.90277 8.726411,134.16883 11.292263,122 17.28416,93.582791 29.891251,70.153046 50.022149,50.022149 69.529224,30.515074 91.778729,18.282351 119.5,11.823397 c 11.52687,-2.6857171 35.90877,-3.5975511 48.87491,-1.8278231 21.38048,2.9181861 45.08553,12.3605421 62.88571,25.0490521 10.80866,7.704748 24.89499,21.786342 32.61719,32.606245 23.95707,33.567219 31.77892,75.730989 21.64273,116.665399 -6.40478,25.86538 -22.64076,52.56191 -42.74084,70.27803 -26.00798,22.92332 -60.05622,35.67603 -94.12907,35.25587 -6.68285,-0.0824 -13.50063,-0.31902 -15.15063,-0.52581 z m 43.57377,-29.64398 c 20.7184,-5.35776 37.41003,-14.90078 52.55793,-30.04868 15.08322,-15.08322 24.53219,-31.56945 30.12323,-52.55793 2.27153,-8.5272 2.55561,-11.54146 2.59873,-27.57377 0.041,-15.26118 -0.27527,-19.23109 -2.07885,-26.09095 C 250.03293,84.454419 224.82296,56.137126 188.06691,42.300976 165.91963,33.964035 134.96759,33.767529 111.9404,41.817669 90.51818,49.30672 69.788036,64.826283 56.691252,83.179781 51.101512,91.013099 44.10165,104.88922 41.143875,114 c -7.180609,22.1183 -6.943298,51.51785 0.585015,72.47509 13.161955,36.64011 42.445801,63.57553 79.58485,73.20252 10.2422,2.65493 16.48849,3.21434 31.68626,2.8378 11.31963,-0.28046 16.59987,-0.90229 24.07377,-2.83503 z M 79.675224,223.19362 C 78.141151,221.49849 78,215.32048 78,149.87126 78,95.615835 78.289053,78.110947 79.2,77.2 c 0.746169,-0.746169 4.433544,-1.200063 9.75,-1.200166 l 8.55,-1.67e-4 V 117.74983 159.5 h 51.5 51.5 l 0.26097,-41.75 0.26097,-41.75 h 7.45385 c 6.34594,0 7.60771,0.287499 8.48903,1.934259 C 217.6503,79.215091 218,103.66944 218,150.32347 c 0,65.61584 -0.1202,70.60235 -1.75,72.6008 -1.66497,2.04157 -2.45453,2.13198 -16.25,1.86078 L 185.5,224.5 185.23041,202.07886 c -0.17417,-14.48531 -0.65994,-22.89148 -1.37244,-23.75 -0.87516,-1.0545 -7.63275,-1.3257 -32.73041,-1.31355 -17.39516,0.008 -32.18138,0.36712 -32.85827,0.7971 -0.90249,0.57329 -1.30252,6.90294 -1.5,23.73468 L 116.5,224.5 98.925224,224.77236 c -16.0354,0.24851 -17.721509,0.11022 -19.25,-1.57874 z m 76.785056,-4.43654 c -0.27951,-0.72837 -0.38491,-9.40919 -0.23424,-19.2907 L 156.5,181.5 h 8.5 8.5 v 19 19 l -8.26577,0.2907 c -6.14959,0.21627 -8.39587,-0.0483 -8.77395,-1.03362 z"
       id="path1501"
       inkscape:connector-curvature="0" />
    <path
       style="fill:#2f2f2f"
       d="M 131.5,288.37476 C 109.66687,285.15396 90.400191,277.79728 71,265.27377 60.696926,258.62277 40.606516,238.72613 33.784678,228.41739 22.7257,211.70574 15.867723,195.05081 11.856602,175.164 9.106068,161.52708 8.9137067,138.91138 11.434177,125.5 16.982579,95.977042 29.947104,71.093205 50.522089,50.475476 70.616962,30.338856 94.794107,17.516531 123.33943,11.856871 c 14.77969,-2.93036 37.49043,-2.9394559 51.82457,-0.02076 32.26381,6.569515 57.23436,20.815947 79.10921,45.134136 15.41379,17.135455 26.0068,37.931642 31.85094,62.529753 2.10743,8.8702 2.3719,12.3161 2.34085,30.5 -0.0327,19.1735 -0.21788,21.21178 -2.86113,31.5 C 271.7479,235.43106 232.96215,273.51622 179,286.17827 c -6.40912,1.50388 -12.92775,2.07377 -26.5,2.31677 -9.9,0.17725 -19.35,0.12312 -21,-0.12028 z m 41,-26.77865 c 34.32508,-7.50945 63.71985,-30.03972 78.921,-60.49072 C 260.25273,183.41361 263.44281,169.68541 263.41276,149.5 263.36504,117.43678 252.70312,91.399431 230.35227,68.763291 209.03224,47.171136 179.93064,34.997651 149.64194,35.001367 86.348606,35.009133 35.001128,85.95638 35.000171,148.74956 c -5.02e-4,33.009 11.72956,60.35619 35.928924,83.76382 16.198009,15.66807 41.159375,27.67175 63.570905,30.57066 8.6793,1.12266 29.85772,0.29339 38,-1.48793 z M 80.2,222.8 C 79.288962,221.88896 79,204.31893 79,149.83518 79,67.515678 77.80101,76 89.434259,76 H 96 v 41.46482 c 0,39.97159 0.06966,41.50209 1.934259,42.5 1.25927,0.67394 19.362721,1.03518 51.877551,1.03518 41.92941,0 50.13245,-0.22791 51.12209,-1.42035 0.86036,-1.03668 1.14755,-10.82888 1.06313,-36.25 -0.0636,-19.15631 -0.089,-37.64215 -0.0564,-41.07965 L 202,76 h 5.56574 C 218.02999,76 217,67.930513 217,149.91274 c 0,60.02317 -0.22808,72.03166 -1.38638,72.99296 -0.9401,0.78022 -6.01013,1.06106 -15.75,0.87245 L 185.5,223.5 l -0.26846,-23.26311 -0.26847,-23.2631 -34.23153,0.2631 L 116.5,177.5 116.23157,200.75 115.96314,224 H 98.68157 C 86.573682,224 81.040749,223.64075 80.2,222.8 Z m 77.24347,-5.08672 c -0.27157,-0.7077 -0.36995,-8.9202 -0.21862,-18.25 L 157.5,182.5 l 7.25,-0.29381 7.25,-0.29381 V 200.45619 219 h -7.03138 c -4.80964,0 -7.18741,-0.40657 -7.52515,-1.28672 z"
       id="path1499"
       inkscape:connector-curvature="0" />
    <path
       style="fill:#010101"
       d="M 131.5,287.36702 C 77.545515,279.11344 34.890174,244.08941 17.810674,194.01745 12.583578,178.69317 10.735787,167.19894 10.734509,150 10.732165,118.45108 19.568534,91.194012 37.661062,66.94112 59.280786,37.960049 88.400153,19.79426 125,12.455706 c 12.6456,-2.5355417 37.42995,-2.366536 50.5,0.344362 55.57354,11.526667 97.05288,51.918274 109.719,106.841762 1.97802,8.5772 2.26937,12.52195 2.24221,30.35817 -0.029,19.07962 -0.22291,21.24501 -2.79791,31.25255 -4.70808,18.29764 -10.16911,30.58812 -20.51904,46.1797 -15.09747,22.74348 -39.53458,42.05953 -65.70024,51.93204 -16.1537,6.09492 -25.54043,7.77434 -45.44402,8.13055 -10.175,0.1821 -19.85,0.12458 -21.5,-0.12782 z m 35.57378,-23.97466 c 48.84397,-8.33031 85.03403,-43.01349 95.57588,-91.59629 2.3787,-10.96241 2.41628,-34.14953 0.0726,-44.79607 C 258.22742,106.5815 250.83303,91.20974 237.87731,75.351321 208.39687,39.265856 156.41362,24.654681 112.37498,40.075792 65.215904,56.589594 34.092907,99.855737 34.021621,149 33.935591,208.30825 77.853197,257.26184 137.5,264.34412 c 7.825,0.92912 21.0389,0.50386 29.57378,-0.95176 z M 80.459869,221.75 C 80.19732,221.0625 80.098943,188.325 80.241254,149 L 80.5,77.5 87.75,77.20619 95,76.912381 95.08247,83.20619 C 95.12783,86.667786 95.09654,104.8 95.01294,123.5 c -0.0836,18.7 0.152432,34.7875 0.524517,35.75 0.632456,1.63602 4.114527,1.75 53.462543,1.75 49.34364,0 52.83089,-0.11412 53.47403,-1.75 0.37841,-0.9625 0.60178,-17.725 0.49638,-37.25 -0.10539,-19.525 -0.14185,-37.658973 -0.081,-40.297717 L 203,76.904565 209.25,77.202283 215.5,77.5 v 72.5 72.5 l -14.7315,0.27663 -14.73151,0.27662 L 185.7685,199.77663 185.5,176.5 h -35 -35 l -0.26843,23.25 -0.26843,23.25 H 97.950185 c -12.689104,0 -17.134276,-0.31769 -17.490316,-1.25 z"
       id="path1497"
       inkscape:connector-curvature="0" />
  </g>
</svg>
