<?xml version="1.0" encoding="UTF-8" standalone="no"?>
<!-- Created with Inkscape (http://www.inkscape.org/) -->

<svg
   xmlns:dc="http://purl.org/dc/elements/1.1/"
   xmlns:cc="http://creativecommons.org/ns#"
   xmlns:rdf="http://www.w3.org/1999/02/22-rdf-syntax-ns#"
   xmlns:svg="http://www.w3.org/2000/svg"
   xmlns="http://www.w3.org/2000/svg"
   xmlns:sodipodi="http://sodipodi.sourceforge.net/DTD/sodipodi-0.dtd"
   xmlns:inkscape="http://www.inkscape.org/namespaces/inkscape"
   version="1.1"
   id="svg984"
   width="300"
   height="300"
   viewBox="0 0 300 300"
   sodipodi:docname="select.svg"
   inkscape:version="0.92.2 5c3e80d, 2017-08-06">
  <metadata
     id="metadata990">
    <rdf:RDF>
      <cc:Work
         rdf:about="">
        <dc:format>image/svg+xml</dc:format>
        <dc:type
           rdf:resource="http://purl.org/dc/dcmitype/StillImage" />
        <dc:title></dc:title>
      </cc:Work>
    </rdf:RDF>
  </metadata>
  <defs
     id="defs988" />
  <sodipodi:namedview
     pagecolor="#ffffff"
     bordercolor="#666666"
     borderopacity="1"
     objecttolerance="10"
     gridtolerance="10"
     guidetolerance="10"
     inkscape:pageopacity="0"
     inkscape:pageshadow="2"
     inkscape:window-width="1132"
     inkscape:window-height="641"
     id="namedview986"
     showgrid="false"
     inkscape:zoom="0.78666667"
     inkscape:cx="150"
     inkscape:cy="150"
     inkscape:window-x="106"
     inkscape:window-y="24"
     inkscape:window-maximized="0"
     inkscape:current-layer="svg984" />
  <g
     id="g994"
     transform="translate(4.2372881e-6)">
    <path
       style="fill:#ced0d3"
       d="M 133.5,290.96181 C 112.69675,289.22083 89.193542,280.5424 69,267.14553 57.62756,259.60078 38.983691,240.96558 31.585524,229.74844 20.757911,213.33156 13.9749,197.37733 9.371872,177.5 6.7551899,166.20034 6.7027391,133.09594 9.2831452,121.5 20.718236,70.1125 56.260779,30.107538 105,13.765755 c 14.97936,-5.0224334 23.94543,-6.2672137 45,-6.2474575 21.09633,0.019795 26.49155,0.8212659 44.6697,6.6357615 40.91495,13.087129 75.84584,48.11371 89.75983,90.005721 5.76906,17.36939 6.81234,24.21559 6.83315,44.84022 0.0253,25.09238 -3.0461,39.66466 -12.78111,60.63969 -20.96456,45.17017 -65.19475,76.68916 -114.12858,81.32947 -11.89387,1.12787 -17.30335,1.12658 -30.85299,-0.007 z m 37.15572,-31.45717 c 21.88102,-4.56232 41.0005,-14.6221 56.40929,-29.67993 16.296,-15.92484 25.77409,-32.62539 31.51986,-55.53853 2.25263,-8.98307 2.71254,-13.04295 2.75121,-24.28618 0.0503,-14.61574 -1.43484,-23.75149 -6.01471,-37 C 237.62628,61.8121 185.25202,30.036594 132.55349,38.51663 71.177021,48.393085 28.795644,106.03619 38.51268,166.42197 c 5.788551,35.9725 28.714707,67.28623 60.98732,83.29964 11.02002,5.46804 26.02072,9.88792 39.5,11.63847 5.96472,0.77463 24.15542,-0.29158 31.65572,-1.85544 z M 107.45455,191.54545 105,189.09091 v -39.6112 c 0,-39.33642 0.24894,-42.61058 3.3997,-44.7144 0.60517,-0.40408 19.59306,-0.74158 42.19531,-0.75 38.55325,-0.0144 41.19738,0.0978 42.75,1.81343 1.48418,1.63999 1.65499,6.12384 1.65499,43.4433 v 41.61455 l -2.22251,1.55671 C 190.85516,193.78975 185.10899,194 150.23204,194 H 109.90909 Z M 177.76348,182.10869 184.02696,182 183.76348,148.75 183.5,115.5 l -4.75,-0.30479 c -2.6125,-0.16764 -4.75,-0.0401 -4.75,0.28333 0,0.32347 1.55336,2.14149 3.45192,4.04005 4.28672,4.28672 5.38444,9.09853 3.11394,13.64985 -1.40374,2.81387 -1.46093,3.9621 -0.40295,8.09014 C 181.87077,147.92229 179.47791,168 176.97588,168 175.98217,168 174,159.10244 174,154.64191 c 0,-1.79281 -0.64286,-4.13316 -1.42858,-5.20078 -1.56202,-2.12245 -1.36379,-2.3843 -3.52076,4.65053 -0.60569,1.97541 -2.1556,4.5084 -3.44425,5.62887 -1.50658,1.30995 -2.58729,3.66632 -3.02734,6.60074 -0.53526,3.56938 -1.71874,5.66531 -5.43267,9.62113 -4.53193,4.82712 -4.98671,5.0576 -9.97948,5.0576 -2.87714,0 -6.6792,-0.60473 -8.44904,-1.34385 -2.51769,-1.05144 -4.60409,-1.11446 -9.58858,-0.28966 -6.2639,1.03652 -6.40978,1.00876 -8.70203,-1.65615 C 117.40862,174.20095 117,174.29046 117,178.46107 v 3.46106 l 8.75,0.31349 c 7.61703,0.27289 32.46752,0.21225 52.01348,-0.12693 z M 119.40029,160.04012 C 120.09698,154.78825 119.37746,150 117.89159,150 117.40122,150 117,153.375 117,157.5 c 0,8.50293 1.41119,9.99633 2.40029,2.54012 z M 120.5,118 c 1.76679,-1.95228 1.74663,-2 -0.84501,-2 -1.98832,0 -2.65499,0.5022 -2.65499,2 0,1.1 0.38026,2 0.84501,2 0.46476,0 1.6595,-0.9 2.65499,-2 z m 38.76903,-1.65594 c -0.67703,-0.27392 -2.02703,-0.29059 -3,-0.037 -0.97297,0.25354 -0.41903,0.47766 1.23097,0.49804 1.65,0.0204 2.44606,-0.18706 1.76903,-0.46099 z"
       id="path1008"
       inkscape:connector-curvature="0" />
    <path
       style="fill:#a2aad5"
       d="M 131.5808,289.93483 C 96.388491,285.85408 60.364453,265.58815 38.576039,237.61342 24.286753,219.26703 16.057203,202.02825 10.833505,179.5 7.8285581,166.54056 7.1510061,140.82443 9.4460715,126.84069 19.000441,68.626301 62.651493,23.212083 121.5,10.260648 c 11.53291,-2.5381749 44.7114,-2.5064308 56,0.05358 24.07482,5.459647 42.80161,14.370045 61.08594,29.065309 64.93552,52.189219 70.18103,150.821233 11.15997,209.842303 -31.27814,31.27813 -73.645,45.87535 -118.16511,40.71299 z m 38.71759,-29.53328 c 15.58406,-3.18249 32.20509,-10.32646 44.64727,-19.19006 8.04915,-5.73408 20.64856,-18.37433 26.4375,-26.52318 C 258.65382,190.3771 266.21852,156.84738 260.60265,129.5 255.61312,105.20268 245.77511,86.602431 229.08634,69.913663 211.44443,52.271758 190.33977,41.522353 165.4957,37.524545 153.55599,35.603255 146.62082,35.604382 133.80228,37.529697 117.19157,40.024587 100.21599,46.528538 86,55.844457 78.699397,60.628633 61.32101,77.977543 56.260274,85.533739 43.924828,103.95182 36,128.97229 36,149.5 c 0,14.59367 5.225358,36.07951 12.074102,49.64679 11.372686,22.52917 31.510537,42.3114 53.191208,52.25189 12.03088,5.51611 26.56509,9.57179 39.23469,10.9482 6.30237,0.68468 21.90873,-0.33415 29.79839,-1.94533 z M 110.25,190.98618 108,190.06445 v -40.83223 c 0,-30.42506 0.30585,-41.13807 1.2,-42.03222 1.57397,-1.57397 78.94167,-1.72973 81.86574,-0.16482 1.86352,0.99733 1.9337,2.50594 1.91895,41.25 -0.009,23.57544 -0.40738,40.83546 -0.96288,41.71482 -0.81238,1.286 -6.55259,1.5291 -40.23469,1.70396 -22.20336,0.11526 -40.26552,-0.19686 -41.53712,-0.71778 z m 75.09782,-6.85862 C 186.82441,182.90097 187,179.16238 187,148.94898 187,119.54947 186.79516,114.93802 185.42857,113.57143 184.0635,112.20636 179.52433,112 150.86283,112 c -20.83147,0 -33.70735,0.3816 -34.92857,1.03518 C 114.07945,114.02785 114,115.48364 114,148.47848 v 34.40811 l 2.25,1.58713 c 1.96441,1.38567 6.38767,1.55153 34.84782,1.3067 25.8414,-0.2223 32.94025,-0.56488 34.25,-1.65286 z M 137.75298,173.167 c -2.48639,-2.65815 -4.82211,-6.20528 -5.19049,-7.88251 -0.36839,-1.67722 -1.99565,-4.23084 -3.61614,-5.67471 -4.89993,-4.36585 -3.66931,-7.85599 3.92657,-11.13606 4.85294,-2.09561 4.60283,-2.21846 9.32613,4.58056 l 1.69904,2.44572 3.53882,-4 c 1.94634,-2.2 4.23003,-6.28965 5.07485,-9.08811 0.84482,-2.79846 2.65028,-6.59838 4.01214,-8.44428 1.60691,-2.17804 2.4761,-4.68401 2.4761,-7.13884 0,-4.21476 2.02351,-6.11577 7.79064,-7.31899 4.26098,-0.88899 7.65607,1.28371 9.16892,5.86769 1.37632,4.17028 -0.83542,12.13311 -4.61901,16.62965 -1.30072,1.54583 -2.9782,4.54871 -3.72772,6.67308 -0.74952,2.12437 -2.54403,5.60318 -3.9878,7.73069 C 162.18127,158.5384 161,161.0282 161,161.94377 c 0,1.85646 -5.08257,10.33287 -8.2784,13.80623 -1.51426,1.64576 -3.19515,2.25 -6.25907,2.25 -3.71706,0 -4.69801,-0.54434 -8.70955,-4.833 z m -14.25857,-30.32096 c -0.31413,-0.81862 -0.44138,-5.95637 -0.28278,-11.41722 L 123.5,121.5 l 12,-0.2896 c 14.00736,-0.33805 17.27238,0.15401 15.46581,2.3308 -0.9085,1.09467 -3.62851,1.4588 -10.89713,1.4588 -6.24383,0 -10.24527,0.44425 -11.25887,1.25 -1.04858,0.83356 -1.78795,3.74138 -2.21932,8.72819 -0.6425,7.42767 -1.97023,10.80175 -3.09608,7.86785 z"
       id="path1006"
       inkscape:connector-curvature="0" />
    <path
       style="fill:#a8aaad"
       d="M 124,288.00451 C 94.946339,282.47781 70.939952,269.82775 49.979958,249 22.464451,221.65809 8.5287006,187.93723 8.6531634,149 8.7291868,125.21666 13.698605,104.96106 24.60944,83.961405 44.501889,45.675195 82.170611,18.080196 125,10.418229 c 11.57609,-2.0709064 34.28544,-2.3379023 45.5,-0.534948 30.89334,4.966692 56.49502,18.048514 78.5,40.111547 27.22221,27.294024 40.98813,60.831592 40.99681,99.879532 0.008,37.64405 -14.40562,72.43689 -41.04559,99.07686 -20.63086,20.63086 -47.29502,34.36801 -76.68946,39.50976 C 160.152,290.57925 136.35195,290.35414 124,288.00451 Z m 48.5,-27.45024 c 43.5624,-9.26998 76.87523,-42.10752 87.67828,-86.42731 C 262.95495,162.7356 263.24766,138.25136 260.74169,127 254.33523,98.236199 239.94694,75.600805 217.23394,58.554424 197.42765,43.689563 174.75387,36.062448 150.23923,36.018426 126.51623,35.975825 104.41485,42.564083 85.5,55.31671 77.621971,60.628176 60.493578,77.823581 55.054657,85.881167 42.720896,104.15324 36.036851,126.51287 36.036851,149.5 c 0,25.21492 7.469497,47.68353 22.517573,67.73394 19.142412,25.5058 45.120806,40.37389 78.945576,45.18257 5.69924,0.81023 28.02302,-0.37755 35,-1.86224 z M 110.25,190.98618 108,190.06445 v -40.83223 c 0,-30.42506 0.30585,-41.13807 1.2,-42.03222 1.57397,-1.57397 78.94167,-1.72973 81.86574,-0.16482 1.86352,0.99733 1.9337,2.50594 1.91895,41.25 -0.009,23.57544 -0.40738,40.83546 -0.96288,41.71482 -0.81238,1.286 -6.55259,1.5291 -40.23469,1.70396 -22.20336,0.11526 -40.26552,-0.19686 -41.53712,-0.71778 z m 75.09782,-6.85862 C 186.82441,182.90097 187,179.16238 187,148.94898 187,119.54947 186.79516,114.93802 185.42857,113.57143 184.0635,112.20636 179.52433,112 150.86283,112 c -20.83147,0 -33.70735,0.3816 -34.92857,1.03518 C 114.07945,114.02785 114,115.48364 114,148.47848 v 34.40811 l 2.25,1.58713 c 1.96441,1.38567 6.38767,1.55153 34.84782,1.3067 25.8414,-0.2223 32.94025,-0.56488 34.25,-1.65286 z m -44.97788,-11.3759 c -2.03481,-1.78658 -4.7403,-5.60142 -6.0122,-8.47741 -1.2719,-2.87599 -3.22271,-5.79749 -4.33514,-6.49221 -2.82431,-1.76381 -2.52281,-3.47201 0.92774,-5.25636 4.41156,-2.28131 6.24368,-1.88962 9.54966,2.0416 1.92213,2.28565 3.53894,3.3485 4.5,2.95818 2.25054,-0.91402 7.73955,-8.60902 8.57802,-12.02546 0.40494,-1.65 2.24055,-5.84987 4.07912,-9.33305 1.83857,-3.48318 3.34286,-7.59058 3.34286,-9.12756 0,-3.52222 1.85819,-5.07655 6.87309,-5.74919 3.62815,-0.48664 4.08147,-0.27875 5.53922,2.54023 0.87323,1.68864 1.58769,3.98349 1.58769,5.09967 0,2.96831 -2.94359,9.83428 -4.46675,10.41877 -0.72124,0.27676 -2.11025,2.67399 -3.08669,5.32717 -0.97645,2.65318 -2.75811,6.17396 -3.95925,7.82396 -1.20114,1.65 -2.77298,4.79634 -3.49298,6.99186 -1.57522,4.80343 -8.41442,15.07163 -10.59619,15.90885 -3.12896,1.2007 -5.4038,0.53322 -9.0282,-2.64905 z m -16.87553,-29.90562 c -0.31413,-0.81862 -0.44138,-5.95637 -0.28278,-11.41722 L 123.5,121.5 l 12,-0.2896 c 14.00736,-0.33805 17.27238,0.15401 15.46581,2.3308 -0.9085,1.09467 -3.62851,1.4588 -10.89713,1.4588 -6.24383,0 -10.24527,0.44425 -11.25887,1.25 -1.04858,0.83356 -1.78795,3.74138 -2.21932,8.72819 -0.6425,7.42767 -1.97023,10.80175 -3.09608,7.86785 z"
       id="path1004"
       inkscape:connector-curvature="0" />
    <path
       style="fill:#7885ca"
       d="M 124,288.00451 C 94.946339,282.47781 70.939952,269.82775 49.979958,249 22.464451,221.65809 8.5287006,187.93723 8.6531634,149 8.7291868,125.21666 13.698605,104.96106 24.60944,83.961405 44.501889,45.675195 82.170611,18.080196 125,10.418229 c 11.57609,-2.0709064 34.28544,-2.3379023 45.5,-0.534948 30.89334,4.966692 56.49502,18.048514 78.5,40.111547 27.22221,27.294024 40.98813,60.831592 40.99681,99.879532 0.008,37.64405 -14.40562,72.43689 -41.04559,99.07686 -20.63086,20.63086 -47.29502,34.36801 -76.68946,39.50976 C 160.152,290.57925 136.35195,290.35414 124,288.00451 Z m 48.5,-27.45024 c 43.5624,-9.26998 76.87523,-42.10752 87.67828,-86.42731 C 262.95495,162.7356 263.24766,138.25136 260.74169,127 254.33523,98.236199 239.94694,75.600805 217.23394,58.554424 197.42765,43.689563 174.75387,36.062448 150.23923,36.018426 126.51623,35.975825 104.41485,42.564083 85.5,55.31671 77.621971,60.628176 60.493578,77.823581 55.054657,85.881167 42.720896,104.15324 36.036851,126.51287 36.036851,149.5 c 0,25.21492 7.469497,47.68353 22.517573,67.73394 19.142412,25.5058 45.120806,40.37389 78.945576,45.18257 5.69924,0.81023 28.02302,-0.37755 35,-1.86224 z M 139.36292,170.75 c -2.22942,-2.3375 -4.62302,-5.70119 -5.31912,-7.47487 -0.69609,-1.77368 -2.08761,-4.17263 -3.09225,-5.33099 -2.19581,-2.53179 -1.69824,-4.2829 1.65051,-5.80869 3.9549,-1.80197 5.32618,-1.37139 7.53044,2.36455 1.13578,1.925 2.84529,3.5 3.79891,3.5 2.33779,0 7.93526,-7.14342 10.13611,-12.93558 0.98316,-2.58747 2.68174,-6.24797 3.77462,-8.13445 1.09288,-1.88648 2.55596,-5.37332 3.25129,-7.74852 1.41236,-4.82459 4.04041,-7.18145 8.00776,-7.18145 5.59167,0 6.28243,9.20845 1.24733,16.62808 -1.42922,2.10608 -3.20785,5.55607 -3.95251,7.66665 -0.74465,2.11057 -2.20092,5.04518 -3.23616,6.52134 -1.03523,1.47616 -2.42975,4.37189 -3.09893,6.43495 -1.22404,3.77364 -7.44615,13.61579 -9.47254,14.98367 -2.99784,2.02363 -7.2227,0.71211 -11.22546,-3.48469 z"
       id="path1002"
       inkscape:connector-curvature="0" />
    <path
       style="fill:#5464ca"
       d="M 120.5,286.54481 C 65.016267,274.82019 22.663328,231.69836 11.408384,175.47271 8.8900981,162.89226 8.8741,135.9176 11.37756,123.5 18.559786,87.874914 37.187076,58.240087 65.94112,36.692865 82.461627,24.313005 102.03205,15.705625 123.5,11.37756 c 12.21154,-2.4619187 39.44785,-2.4927648 51.44784,-0.05827 58.14678,11.796526 101.02989,54.574554 112.13464,111.85987 2.6809,13.82973 2.66753,38.88682 -0.028,52.49733 -2.80155,14.14579 -5.52312,22.35969 -11.53833,34.82351 -19.39778,40.19316 -56.95985,68.70401 -101.37662,76.94821 -13.29696,2.46805 -39.79708,2.02174 -53.63953,-0.9034 z m 51,-25.00099 c 44.18959,-9.3231 77.97132,-42.04601 89.10684,-86.31397 6.30136,-25.05033 2.28566,-56.32982 -10.14527,-79.02464 C 239.40944,76.027652 224.5908,60.980635 204.49122,49.526392 167.10864,28.223013 119.6377,30.68785 84,55.782667 75.660199,61.655263 61.655263,75.660199 55.782667,84 c -24.253928,34.44353 -27.41331,79.607 -8.18466,117 17.872722,34.7562 49.635676,56.56534 90.901993,62.4153 5.50819,0.78085 25.91348,-0.37637 33,-1.87148 z M 140.36227,168.75 c -2.22978,-2.3375 -5.02542,-6.275 -6.21252,-8.75 -2.0122,-4.19522 -2.04355,-4.58466 -0.46294,-5.75 2.41978,-1.78403 2.77442,-1.64514 5.74539,2.25 1.47387,1.93234 3.56056,3.5 4.65882,3.5 2.81119,0 9.46637,-7.57632 10.91288,-12.42333 0.66914,-2.24217 2.25304,-5.87667 3.51978,-8.07667 1.26674,-2.2 2.87259,-5.94335 3.56857,-8.31855 1.99513,-6.80896 7.53042,-9.49977 9.70847,-4.71947 1.31349,2.88279 0.0162,7.82381 -2.90544,11.06649 -1.00522,1.11566 -2.50842,3.95789 -3.34043,6.31607 -0.83202,2.35818 -2.4317,5.57814 -3.55485,7.15546 -1.12315,1.57732 -2.67216,4.65365 -3.44223,6.83627 -1.56809,4.44442 -6.15695,12.008 -8.44153,13.91373 -2.68615,2.2407 -5.61371,1.34028 -9.75397,-3 z"
       id="path1000"
       inkscape:connector-curvature="0" />
    <path
       style="fill:#596c9e"
       d="M 135.5,288.05158 C 74.612359,282.15968 25.20212,237.22312 12.293087,176 9.5446621,162.96516 9.7767407,133.78766 12.731126,120.9286 20.662195,86.40838 38.53826,58.320856 65.5,38.016226 88.327168,20.825304 114.5773,11.450223 143.1487,10.284448 c 40.58952,-1.6561401 76.96718,12.529869 105.19248,41.021372 28.84972,29.121819 43.24506,68.85628 39.70717,109.60091 -1.62253,18.68611 -4.97771,31.38278 -12.67483,47.96418 -18.31163,39.4475 -54.85271,68.1686 -97.9031,76.95131 -11.49841,2.3458 -30.39464,3.34951 -41.97042,2.22936 z m 35.01584,-25.51777 c 23.7067,-4.94299 43.98526,-15.83419 60.28797,-32.37945 C 252.95744,207.67113 264.38578,179.98229 264.29962,149 264.14301,92.687991 223.59108,45.319316 167.20982,35.589508 139.97676,30.889853 108.76525,37.956781 84.5,54.31671 76.77307,59.526303 59.526303,76.77307 54.31671,84.5 37.912913,108.83031 30.877251,139.90374 35.589508,167.20982 43.929602,215.53811 80.749297,253.45023 128,262.3621 c 4.675,0.88174 9.85,1.79893 11.5,2.03819 5.24727,0.7609 23.75713,-0.35299 31.01584,-1.86648 z M 140.36227,168.75 c -2.22978,-2.3375 -5.02542,-6.275 -6.21252,-8.75 -2.0122,-4.19522 -2.04355,-4.58466 -0.46294,-5.75 2.41978,-1.78403 2.77442,-1.64514 5.74539,2.25 1.47387,1.93234 3.56056,3.5 4.65882,3.5 2.81119,0 9.46637,-7.57632 10.91288,-12.42333 0.66914,-2.24217 2.25304,-5.87667 3.51978,-8.07667 1.26674,-2.2 2.87259,-5.94335 3.56857,-8.31855 1.99513,-6.80896 7.53042,-9.49977 9.70847,-4.71947 1.31349,2.88279 0.0162,7.82381 -2.90544,11.06649 -1.00522,1.11566 -2.50842,3.95789 -3.34043,6.31607 -0.83202,2.35818 -2.4317,5.57814 -3.55485,7.15546 -1.12315,1.57732 -2.67216,4.65365 -3.44223,6.83627 -1.56809,4.44442 -6.15695,12.008 -8.44153,13.91373 -2.68615,2.2407 -5.61371,1.34028 -9.75397,-3 z"
       id="path998"
       inkscape:connector-curvature="0" />
    <path
       style="fill:#3347c7"
       d="M 135.5,288.05158 C 74.612359,282.15968 25.20212,237.22312 12.293087,176 9.5446621,162.96516 9.7767407,133.78766 12.731126,120.9286 20.662195,86.40838 38.53826,58.320856 65.5,38.016226 88.327168,20.825304 114.5773,11.450223 143.1487,10.284448 c 40.58952,-1.6561401 76.96718,12.529869 105.19248,41.021372 28.84972,29.121819 43.24506,68.85628 39.70717,109.60091 -1.62253,18.68611 -4.97771,31.38278 -12.67483,47.96418 -18.31163,39.4475 -54.85271,68.1686 -97.9031,76.95131 -11.49841,2.3458 -30.39464,3.34951 -41.97042,2.22936 z m 35.01584,-25.51777 c 23.7067,-4.94299 43.98526,-15.83419 60.28797,-32.37945 C 252.95744,207.67113 264.38578,179.98229 264.29962,149 264.14301,92.687991 223.59108,45.319316 167.20982,35.589508 139.97676,30.889853 108.76525,37.956781 84.5,54.31671 76.77307,59.526303 59.526303,76.77307 54.31671,84.5 37.912913,108.83031 30.877251,139.90374 35.589508,167.20982 43.929602,215.53811 80.749297,253.45023 128,262.3621 c 4.675,0.88174 9.85,1.79893 11.5,2.03819 5.24727,0.7609 23.75713,-0.35299 31.01584,-1.86648 z"
       id="path996"
       inkscape:connector-curvature="0" />
  </g>
</svg>
