<?xml version="1.0" encoding="UTF-8" standalone="no"?>
<svg
   xmlns:sketch="http://www.bohemiancoding.com/sketch/ns"
   xmlns:dc="http://purl.org/dc/elements/1.1/"
   xmlns:cc="http://creativecommons.org/ns#"
   xmlns:rdf="http://www.w3.org/1999/02/22-rdf-syntax-ns#"
   xmlns:svg="http://www.w3.org/2000/svg"
   xmlns="http://www.w3.org/2000/svg"
   xmlns:sodipodi="http://sodipodi.sourceforge.net/DTD/sodipodi-0.dtd"
   xmlns:inkscape="http://www.inkscape.org/namespaces/inkscape"
   width="60px"
   height="60px"
   viewBox="0 0 60 60"
   version="1.1"
   id="svg4312"
   sodipodi:docname="slack.svg"
   inkscape:version="0.92.2 (5c3e80d, 2017-08-06)">
  <metadata
     id="metadata4316">
    <rdf:RDF>
      <cc:Work
         rdf:about="">
        <dc:format>image/svg+xml</dc:format>
        <dc:type
           rdf:resource="http://purl.org/dc/dcmitype/StillImage" />
        <dc:title>twitter</dc:title>
      </cc:Work>
    </rdf:RDF>
  </metadata>
  <sodipodi:namedview
     pagecolor="#ffffff"
     bordercolor="#666666"
     borderopacity="1"
     objecttolerance="10"
     gridtolerance="10"
     guidetolerance="10"
     inkscape:pageopacity="0"
     inkscape:pageshadow="2"
     inkscape:window-width="3840"
     inkscape:window-height="2035"
     id="namedview4314"
     showgrid="false"
     inkscape:zoom="3.9333333"
     inkscape:cx="-34.322034"
     inkscape:cy="30"
     inkscape:window-x="-13"
     inkscape:window-y="-13"
     inkscape:window-maximized="1"
     inkscape:current-layer="svg4312" />
  <!-- Generator: Sketch 3.3.3 (12072) - http://www.bohemiancoding.com/sketch -->
  <title
     id="title4299">twitter</title>
  <desc
     id="desc4301">Created with Sketch.</desc>
  <defs
     id="defs4303" />
  <g
     id="g4416">
    <g
       sketch:type="MSPage"
       fill-rule="evenodd"
       fill="none"
       stroke-width="1"
       stroke="none"
       id="soical">
      <g
         transform="translate(-173.000000, -138.000000)"
         sketch:type="MSArtboardGroup"
         id="social">
        <g
           transform="translate(173.000000, 138.000000)"
           sketch:type="MSLayerGroup"
           id="slices" />
        <g
           fill="#000000"
           transform="translate(173.000000, 138.000000)"
           sketch:type="MSLayerGroup"
           id="square-black">
          <path
             sketch:type="MSShapeGroup"
             id="square"
             d="M2.99593743,0 L57.0040626,0 C58.6586731,0 60,1.33730974 60,2.99593743 L60,57.0040626 C60,58.6586731 58.6626903,60 57.0040626,60 L2.99593743,60 C1.34132688,60 0,58.6626903 0,57.0040626 L0,2.99593743 C0,1.34132688 1.33730974,0 2.99593743,0 Z" />
        </g>
        <g
           fill="#FFFFFF"
           transform="translate(182.000000, 150.000000)"
           sketch:type="MSLayerGroup"
           id="icon">
          <path
             sketch:type="MSShapeGroup"
             id="twitter"
             d="M32.0521385,6.43669427 C30.8431846,5.0622015 29.1205385,4.1864641 27.2140615,4.15473103 C23.5536,4.09380309 20.5856538,7.18692339 20.5856538,11.063116 C20.5856538,11.6132412 20.6442923,12.1496934 20.7573692,12.6646732 C15.2485846,12.3073526 10.3644692,9.43877059 7.09541538,5.1147218 C6.52486154,6.1508617 6.19790769,7.36188271 6.19790769,8.65915037 C6.19790769,11.1149884 7.36809231,13.2945272 9.14663077,14.5814174 C8.06012308,14.5334499 7.03806923,14.2045378 6.14443846,13.664952 C6.14379231,13.694445 6.14379231,13.7239449 6.14379231,13.7539625 C6.14379231,17.1835497 8.42859231,20.0607076 11.4608308,20.7309383 C10.9046538,20.888538 10.3190769,20.9710163 9.7146,20.967008 C9.28749231,20.9641758 8.87217692,20.9168118 8.46752308,20.831768 C9.31091538,23.6443777 11.7587077,25.6967663 14.6592923,25.764628 C12.3908077,27.6476963 9.53286923,28.7691933 6.42729231,28.762787 C5.89227692,28.7616833 5.36469231,28.727112 4.84615385,28.6605996 C7.77953077,30.6733139 11.2635923,31.8451711 15.0067615,31.8461531 C27.1985538,31.8493518 33.8657308,21.2395109 33.8657308,12.0367687 C33.8657308,11.7348363 33.8591077,11.4345191 33.8465077,11.135652 C35.1415615,10.1706665 36.2652231,8.96078915 37.1538462,7.57921901 C35.9652462,8.11501615 34.6876385,8.47086863 33.3470308,8.62013789 C34.7154231,7.77796518 35.7665538,6.43009607 36.2613462,4.8137584 C34.9805077,5.59049229 33.5620385,6.14751286 32.0521385,6.43669427 Z" />
        </g>
      </g>
    </g>
    <rect
       y="4.8305087"
       x="4.5762677"
       height="51.101692"
       width="51.101692"
       id="rect4318"
       style="fill:#000000;fill-opacity:1;stroke-width:1.07492781" />
  </g>
  <g
     style="fill:#ffffff;fill-rule:evenodd;stroke:none;stroke-width:1"
     id="miu"
     sketch:type="MSPage"
     transform="translate(-270.77837,-51.732798)">
    <g
       id="map_location_service_outline_stroke"
       style="fill:#ffffff">
      <path
         inkscape:connector-curvature="0"
         id="use4268"
         d="M 0,7.5 11,10.959262 14.5,22 22,0 Z M 2.5117885,7.5335517 11.75,10.25 14.5,19 20.5,1.5 Z"
         style="fill:#ffffff;fill-rule:evenodd" />
      <path
         inkscape:connector-curvature="0"
         id="use4270"
         d="M 0,7.5 11,10.959262 14.5,22 22,0 Z M 2.5117885,7.5335517 11.75,10.25 14.5,19 20.5,1.5 Z"
         style="fill:#ffffff" />
    </g>
  </g>
  <path
     style="fill:#ffffff;fill-opacity:1;stroke-width:0.25423729"
     d="m -260.98836,-86.986564 -1.2581,-4.00496 -2.16067,-0.68715 c -1.18836,-0.37793 -3.19032,-0.99591 -4.4488,-1.37328 l -2.28814,-0.68613 8.51695,-2.8504 c 4.68433,-1.56772 8.55945,-2.81403 8.61139,-2.76957 0.11761,0.10066 -5.29633,15.92188 -5.53844,16.18505 -0.0968,0.10527 -0.74223,-1.61084 -1.43419,-3.81356 z"
     id="path4366"
     inkscape:connector-curvature="0" />
  <g
     transform="matrix(2.0833333,0,0,2.0833333,4.6912886,5.0431019)"
     id="surface1"
     style="fill:#ffffff">
    <path
       inkscape:connector-curvature="0"
       style="fill:#ffffff"
       d="M 13.300781,2.003906 C 13.085938,1.988281 12.84375,2.027344 12.628906,2.101563 11.757813,2.390625 11.304688,3.320313 11.59375,4.1875 L 12.289063,6.226563 8.355469,7.546875 7.707031,5.578125 C 7.417969,4.710938 6.488281,4.257813 5.621094,4.546875 4.753906,4.835938 4.273438,5.765625 4.566406,6.632813 L 5.214844,8.578125 3.171875,9.273438 c -0.867187,0.289062 -1.320312,1.246093 -1.03125,2.113281 0.289063,0.867187 1.21875,1.320312 2.085938,1.03125 l 2.039062,-0.671875 1.320313,3.910156 -1.96875,0.648438 C 4.75,16.59375 4.296875,17.523438 4.585938,18.390625 c 0.292968,0.867188 1.222656,1.347656 2.089843,1.054688 l 1.945313,-0.644532 0.695312,2.039063 c 0.289063,0.867187 1.242188,1.320312 2.109375,1.03125 0.871094,-0.289063 1.320313,-1.21875 1.035157,-2.085938 l -0.675782,-2.039062 3.914063,-1.320313 0.648437,1.96875 c 0.289063,0.867188 1.21875,1.320313 2.085938,1.03125 0.867187,-0.289062 1.34375,-1.222656 1.054687,-2.085937 l -0.648437,-1.945313 2.039062,-0.695312 c 0.867188,-0.292969 1.324219,-1.246094 1.03125,-2.113281 -0.289062,-0.867188 -1.21875,-1.320313 -2.085937,-1.03125 l -2.039063,0.671875 -1.320312,-3.910157 1.96875,-0.648437 C 19.300781,7.378906 19.757813,6.449219 19.464844,5.582031 19.175781,4.714844 18.246094,4.234375 17.378906,4.523438 L 15.433594,5.171875 14.738281,3.132813 c -0.21875,-0.652344 -0.796875,-1.078125 -1.4375,-1.128907 z m 0.02344,7.367188 1.320312,3.910156 -3.914062,1.320313 -1.320313,-3.910157 z"
       id="path4455" />
  </g>
</svg>
