<?xml version="1.0" encoding="UTF-8" standalone="no"?>
<svg width="21px" height="16px" preserveAspectRatio="none" viewBox="0 0 21 16" version="1.1" xmlns="http://www.w3.org/2000/svg" xmlns:xlink="http://www.w3.org/1999/xlink" xmlns:sketch="http://www.bohemiancoding.com/sketch/ns">
    <!-- Generator: Sketch 3.0.1 (7597) - http://www.bohemiancoding.com/sketch -->
    <title>device_volume_loudspeaker_speaker_up_glyph</title>
    <description>Created with Sketch.</description>
    <defs>
        <path d="M3.12499999,4.8 L1.04166667,4.8 C0,4.8 0,5.86666667 0,5.86666667 L0,10.1333333 C0,10.1333333 1.55718031e-11,11.2 1.04166667,11.2 L3.12499999,11.2 L11,16 L11,0 L3.12499999,4.8 L3.12499999,4.8 Z M12,13 C12,13 15,11.7565918 15,8 C15,4.2434082 12,3 12,3 L12,4.11111112 C12,4.11111112 14,4.95874023 14,8 C13.9999999,11.0412598 12,11.8888889 12,11.8888889 L12,13 Z M15,14 C15,14 18,12.3502479 18,8 C17.9999999,3.6497521 15,2 15,2 L15,3.22436523 C15,3.22436523 17,4.52516526 17,8 C17,11.4748347 15,12.7336426 15,12.7336426 L15,14 Z M18,15 C18,15 21,13.5609212 21,8 C20.9999999,2.43907878 18,1 18,1 L18,2.2980957 C18,2.2980957 19.9999999,3.40185547 20,8 C20,12.5981445 18,13.6801758 18,13.6801758 L18,15 Z" id="path-1"></path>
    </defs>
    <g id="miu" stroke="none" stroke-width="1" fill="none" fill-rule="evenodd" sketch:type="MSPage">
        <g id="device_volume_loudspeaker_speaker_up_glyph">
            <use fill="#000000" fill-rule="evenodd" sketch:type="MSShapeGroup" xlink:href="#path-1"></use>
            <use fill="none" xlink:href="#path-1"></use>
        </g>
    </g>
</svg>