<?xml version="1.0" standalone="no"?>
<!DOCTYPE svg PUBLIC "-//W3C//DTD SVG 20010904//EN"
 "http://www.w3.org/TR/2001/REC-SVG-20010904/DTD/svg10.dtd">
<svg version="1.0" xmlns="http://www.w3.org/2000/svg"
 width="300.000000pt" height="300.000000pt" viewBox="0 0 300.000000 300.000000"
 preserveAspectRatio="xMidYMid meet">
<metadata>
Created by potrace 1.15, written by Peter Selinger 2001-2017
</metadata>
<g transform="translate(0.000000,300.000000) scale(0.100000,-0.100000)"
fill="#000000" stroke="none">
<path d="M1338 2905 c-190 -23 -334 -67 -495 -150 -131 -68 -237 -146 -344
-254 -191 -193 -302 -391 -379 -681 -11 -42 -27 -156 -35 -260 -7 -87 16 -298
46 -407 85 -317 267 -587 529 -781 83 -62 285 -169 370 -197 327 -105 647
-101 955 12 265 97 520 297 672 526 162 243 243 508 243 792 0 417 -172 793
-488 1068 -212 185 -464 294 -764 331 -145 18 -165 18 -310 1z m356 -281 c421
-82 756 -376 879 -770 45 -142 52 -192 51 -359 0 -141 -4 -172 -27 -258 -61
-225 -148 -378 -302 -532 -158 -159 -332 -255 -565 -311 -94 -23 -354 -26
-445 -6 -256 58 -449 164 -614 338 -333 350 -408 882 -184 1304 162 306 435
512 783 591 101 23 316 24 424 3z"/>
<path d="M750 1500 l0 -750 750 0 750 0 0 45 0 45 -702 2 -703 3 -3 93 -3 92
51 0 50 0 0 44 0 45 -47 3 -48 3 -3 93 -3 92 51 0 51 0 -3 48 -3 47 -47 3 -48
3 0 89 0 89 48 3 47 3 3 48 3 47 -50 0 -51 0 0 89 0 90 48 3 47 3 3 48 3 47
-50 0 -51 0 0 140 0 140 -45 0 -45 0 0 -750z"/>
<path d="M1880 1455 l0 -515 90 0 90 0 0 515 0 515 -90 0 -90 0 0 -515z"/>
<path d="M1310 1315 l0 -375 95 0 95 0 0 375 0 375 -95 0 -95 0 0 -375z"/>
<path d="M1030 1175 l0 -235 95 0 95 0 0 235 0 235 -95 0 -95 0 0 -235z"/>
<path d="M1590 1030 l0 -90 95 0 95 0 0 90 0 90 -95 0 -95 0 0 -90z"/>
</g>
</svg>
