<?xml version="1.0" encoding="UTF-8" standalone="no"?>
<svg width="22px" height="16px" viewBox="0 0 22 16" version="1.1" xmlns="http://www.w3.org/2000/svg" xmlns:xlink="http://www.w3.org/1999/xlink" xmlns:sketch="http://www.bohemiancoding.com/sketch/ns">
    <!-- Generator: Sketch 3.0.1 (7597) - http://www.bohemiancoding.com/sketch -->
    <title>other_conversation_review_comment_bubble_talk_glyph</title>
    <description>Created with Sketch.</description>
    <defs></defs>
    <g id="miu" stroke="none" stroke-width="1" fill="none" fill-rule="evenodd" sketch:type="MSPage">
        <path d="M12.5,3.00000032 L2.5,3 C3.99999999e-25,3.00000041 0,5.49792479 0,5.49792479 L0,11.5 C0,11.5 3.99999999e-25,14.0097656 2.5,14.0097656 L3.01466495,14.0097652 L4.77789003,15.7560929 L6.50341795,14.0097656 L12.5,14.0097656 C15,14.0097656 15,11.5 15,11.5 L15,5.50000004 C15,5.50000004 15,3 12.5,3.00000032 L12.5,3.00000032 Z M9.5,0 C7,4.02845188e-07 7,2.49792481 7,2.49792481 L12.6729736,2.5 C15.4875526,2.5 15.4875527,5.30566406 15.4875527,5.30566406 L15.4875527,11.009766 L17.0205087,12.7560933 L18.5085449,11.0097656 L19.5,11.0097656 C22,11.0097656 22,8.49999999 22,8.49999999 L22,2.50000004 C22,2.50000004 22,0 19.5,3.21029057e-07 L9.5,0 Z" id="other_conversation_review_comment_bubble_talk_glyph" fill="#000000" sketch:type="MSShapeGroup"></path>
    </g>
</svg>