<?xml version="1.0" encoding="UTF-8" standalone="no"?>
<svg width="20px" height="21px" preserveAspectRatio="none" viewBox="0 0 20 21" version="1.1" xmlns="http://www.w3.org/2000/svg" xmlns:xlink="http://www.w3.org/1999/xlink" xmlns:sketch="http://www.bohemiancoding.com/sketch/ns">
    <!-- Generator: Sketch 3.0.1 (7597) - http://www.bohemiancoding.com/sketch -->
    <title>editor_alarm_clock_glyph</title>
    <description>Created with Sketch.</description>
    <defs></defs>
    <g id="miu" stroke="none" stroke-width="1" fill="none" fill-rule="evenodd" sketch:type="MSPage">
        <path d="M14.2931225,18.912016 L16.3899943,21 L17.0900063,20.302955 L15.1562932,18.3774381 C17.4803385,16.7500801 19,14.0525082 19,11 C19,6.02943701 14.970563,2 10,2 C5.02943701,2 1,6.02943701 1,11 C1,14.0209238 2.48837628,16.6942184 4.77182503,18.3265802 L2.78703755,20.302955 L3.48704956,21 L5.6276856,18.8684372 C6.92221112,19.5893163 8.41314537,20 10,20 C11.5545955,20 13.0171308,19.6058441 14.2931225,18.912016 L14.2931225,18.912016 Z M10,10.9917509 L10,5 L10.995279,5 L10.995279,10.9917509 L11,10.9917509 L11,11.9960933 L10.995279,11.9960933 L10.995279,12 L10,12 L10,11.9960933 L6,11.9960933 L6,10.9917509 L10,10.9917509 Z M6.28752447,1.8350317 L1.55945995,5.52900056 L0.944440882,4.74181204 C0.266631755,3.87425592 0.41734813,2.61426146 1.28685255,1.93493016 L2.86616302,0.701037584 C3.73270102,0.0240239041 4.99210973,0.176976437 5.6725054,1.04784319 L5.98001494,1.44143745 L6.28752447,1.8350317 Z M18.44054,5.52900056 L13.7124755,1.8350317 L14.3274946,1.04784319 C15.0053037,0.180287072 16.2643326,0.0217062774 17.133837,0.701037584 L18.7131474,1.93493016 C19.5796854,2.61194384 19.7359548,3.87094529 19.0555591,4.74181204 L18.7480496,5.1354063 L18.44054,5.52900056 Z" id="editor_alarm_clock_glyph" fill="#000000" sketch:type="MSShapeGroup"></path>
    </g>
</svg>