<?xml version="1.0" encoding="UTF-8" standalone="no"?>
<svg width="60px" height="60px" viewBox="0 0 60 60" version="1.1" xmlns="http://www.w3.org/2000/svg" xmlns:xlink="http://www.w3.org/1999/xlink" xmlns:sketch="http://www.bohemiancoding.com/sketch/ns">
    <!-- Generator: Sketch 3.3.3 (12072) - http://www.bohemiancoding.com/sketch -->
    <title>tumblr</title>
    <desc>Created with Sketch.</desc>
    <defs></defs>
    <g id="soical" stroke="none" stroke-width="1" fill="none" fill-rule="evenodd" sketch:type="MSPage">
        <g id="social" sketch:type="MSArtboardGroup" transform="translate(-173.000000, -538.000000)">
            <g id="slices" sketch:type="MSLayerGroup" transform="translate(173.000000, 138.000000)"></g>
            <g id="square-black" sketch:type="MSLayerGroup" transform="translate(173.000000, 138.000000)" fill="#000000">
                <path d="M2.99593743,400 L57.0040626,400 C58.6586731,400 60,401.33731 60,402.995937 L60,457.004063 C60,458.658673 58.6626903,460 57.0040626,460 L2.99593743,460 C1.34132688,460 0,458.66269 0,457.004063 L0,402.995937 C0,401.341327 1.33730974,400 2.99593743,400 Z" id="square-41" sketch:type="MSShapeGroup"></path>
            </g>
            <g id="icon" sketch:type="MSLayerGroup" transform="translate(182.000000, 150.000000)" fill="#FFFFFF">
                <path d="M21.0134265,400.971504 L21.0134265,409.923499 L29.1022811,409.923499 L29.1022811,415.690195 L21.0134265,415.690195 L21.0134265,423.830602 C21.0134265,425.819701 21.1192454,427.096928 21.3279232,427.662282 C21.537341,428.226156 21.9273168,428.676811 22.4963708,429.014248 C23.2496829,429.469343 24.1117738,429.69652 25.0833835,429.69652 C26.8068254,429.69652 28.5228673,429.131166 30.2307692,428.001938 L30.2307692,433.412761 C29.9852101,433.529243 29.418626,435.283459 23.5991575,435.283462 C14.1553773,435.283464 14.1553772,428.633152 14.1553772,427.065108 L14.1553773,415.690195 L9.50463867,415.690195 L9.50463867,410.08928 C10.8440245,409.651205 11.7206045,409.108458 12.6744545,408.290766 C13.6297844,407.473075 14.3949363,406.491105 14.9721302,405.344117 C15.5500641,404.19935 15.9474399,402.478357 16.1657376,400.706815 L21.0134265,400.706815 L21.0134265,400.971504 Z" id="tumblr" sketch:type="MSShapeGroup"></path>
            </g>
        </g>
    </g>
</svg>