<?xml version="1.0" encoding="UTF-8" standalone="no"?>
<svg width="60px" height="60px" viewBox="0 0 60 60" version="1.1" xmlns="http://www.w3.org/2000/svg" xmlns:xlink="http://www.w3.org/1999/xlink" xmlns:sketch="http://www.bohemiancoding.com/sketch/ns">
    <!-- Generator: Sketch 3.3.3 (12072) - http://www.bohemiancoding.com/sketch -->
    <title>twitter</title>
    <desc>Created with Sketch.</desc>
    <defs></defs>
    <g id="soical" stroke="none" stroke-width="1" fill="none" fill-rule="evenodd" sketch:type="MSPage">
        <g id="social" sketch:type="MSArtboardGroup" transform="translate(-173.000000, -138.000000)">
            <g id="slices" sketch:type="MSLayerGroup" transform="translate(173.000000, 138.000000)"></g>
            <g id="square-black" sketch:type="MSLayerGroup" transform="translate(173.000000, 138.000000)" fill="#000000">
                <path d="M2.99593743,0 L57.0040626,0 C58.6586731,0 60,1.33730974 60,2.99593743 L60,57.0040626 C60,58.6586731 58.6626903,60 57.0040626,60 L2.99593743,60 C1.34132688,60 0,58.6626903 0,57.0040626 L0,2.99593743 C0,1.34132688 1.33730974,0 2.99593743,0 Z" id="square" sketch:type="MSShapeGroup"></path>
            </g>
            <g id="icon" sketch:type="MSLayerGroup" transform="translate(182.000000, 150.000000)" fill="#FFFFFF">
                <path d="M32.0521385,6.43669427 C30.8431846,5.0622015 29.1205385,4.1864641 27.2140615,4.15473103 C23.5536,4.09380309 20.5856538,7.18692339 20.5856538,11.063116 C20.5856538,11.6132412 20.6442923,12.1496934 20.7573692,12.6646732 C15.2485846,12.3073526 10.3644692,9.43877059 7.09541538,5.1147218 C6.52486154,6.1508617 6.19790769,7.36188271 6.19790769,8.65915037 C6.19790769,11.1149884 7.36809231,13.2945272 9.14663077,14.5814174 C8.06012308,14.5334499 7.03806923,14.2045378 6.14443846,13.664952 C6.14379231,13.694445 6.14379231,13.7239449 6.14379231,13.7539625 C6.14379231,17.1835497 8.42859231,20.0607076 11.4608308,20.7309383 C10.9046538,20.888538 10.3190769,20.9710163 9.7146,20.967008 C9.28749231,20.9641758 8.87217692,20.9168118 8.46752308,20.831768 C9.31091538,23.6443777 11.7587077,25.6967663 14.6592923,25.764628 C12.3908077,27.6476963 9.53286923,28.7691933 6.42729231,28.762787 C5.89227692,28.7616833 5.36469231,28.727112 4.84615385,28.6605996 C7.77953077,30.6733139 11.2635923,31.8451711 15.0067615,31.8461531 C27.1985538,31.8493518 33.8657308,21.2395109 33.8657308,12.0367687 C33.8657308,11.7348363 33.8591077,11.4345191 33.8465077,11.135652 C35.1415615,10.1706665 36.2652231,8.96078915 37.1538462,7.57921901 C35.9652462,8.11501615 34.6876385,8.47086863 33.3470308,8.62013789 C34.7154231,7.77796518 35.7665538,6.43009607 36.2613462,4.8137584 C34.9805077,5.59049229 33.5620385,6.14751286 32.0521385,6.43669427 Z" id="twitter" sketch:type="MSShapeGroup"></path>
            </g>
        </g>
    </g>
</svg>