<?xml version="1.0" encoding="UTF-8" standalone="no"?>
<!-- Created with Inkscape (http://www.inkscape.org/) -->

<svg
   xmlns:dc="http://purl.org/dc/elements/1.1/"
   xmlns:cc="http://creativecommons.org/ns#"
   xmlns:rdf="http://www.w3.org/1999/02/22-rdf-syntax-ns#"
   xmlns:svg="http://www.w3.org/2000/svg"
   xmlns="http://www.w3.org/2000/svg"
   xmlns:sodipodi="http://sodipodi.sourceforge.net/DTD/sodipodi-0.dtd"
   xmlns:inkscape="http://www.inkscape.org/namespaces/inkscape"
   version="1.1"
   id="svg4890"
   width="300"
   height="300"
   viewBox="0 0 300 300"
   sodipodi:docname="uncheck.svg"
   inkscape:version="0.92.2 5c3e80d, 2017-08-06">
  <metadata
     id="metadata4896">
    <rdf:RDF>
      <cc:Work
         rdf:about="">
        <dc:format>image/svg+xml</dc:format>
        <dc:type
           rdf:resource="http://purl.org/dc/dcmitype/StillImage" />
        <dc:title></dc:title>
      </cc:Work>
    </rdf:RDF>
  </metadata>
  <defs
     id="defs4894" />
  <sodipodi:namedview
     pagecolor="#ffffff"
     bordercolor="#666666"
     borderopacity="1"
     objecttolerance="10"
     gridtolerance="10"
     guidetolerance="10"
     inkscape:pageopacity="0"
     inkscape:pageshadow="2"
     inkscape:window-width="1168"
     inkscape:window-height="659"
     id="namedview4892"
     showgrid="false"
     inkscape:zoom="0.78666667"
     inkscape:cx="150"
     inkscape:cy="150"
     inkscape:window-x="99"
     inkscape:window-y="11"
     inkscape:window-maximized="0"
     inkscape:current-layer="svg4890" />
  <g
     id="g4900"
     transform="translate(1.2711912,1.2711864)">
    <path
       style="fill:#fcfdfc"
       d="M 0,150 V 0 H 150 300 V 150 300 H 150 0 Z"
       id="path4916"
       inkscape:connector-curvature="0" />
    <path
       style="fill:#a7cda7"
       d="M 123.68588,289.36666 C 66.252398,278.96353 21.014659,233.86565 9.3397029,175.374 6.6497694,161.8974 6.8845689,134.82785 9.8086367,121.31159 12.81241,107.4269 17.136802,95.459591 23.579577,83.201934 43.446095,45.405028 78.519475,19.066157 121.31159,9.8086367 134.82785,6.8845689 161.8974,6.6497694 175.374,9.3397029 234.17967,21.077338 279.3014,66.654709 289.42718,124.54461 c 2.08954,11.94605 2.10075,38.39015 0.021,49.59492 -10.87995,58.61721 -55.40351,103.65627 -113.62737,114.94295 -12.09771,2.34514 -39.91958,2.49679 -52.13496,0.28418 z M 171.5,259.54382 c 28.27318,-5.96506 53.24654,-22.31383 69.83681,-45.71856 6.86912,-9.69062 14.03111,-25.63834 17.21155,-38.32526 2.35865,-9.40876 2.76424,-13.09754 2.80378,-25.5 0.032,-10.04448 -0.47009,-16.84036 -1.63408,-22.11646 C 251.27029,89.591692 227.75731,60.77646 192.74718,45.810492 155.73826,29.990094 112.73986,35.804417 80.080095,61.045544 48.066449,85.787318 31.996288,126.92635 38.51663,167.44651 c 6.82572,42.41791 37.456544,77.23508 78.70549,89.46225 5.84814,1.73353 14.2109,3.50471 21.27788,4.50654 5.50819,0.78085 25.91348,-0.37637 33,-1.87148 z M 121.64732,218.81117 C 120.83391,217.54002 118.51691,210.425 116.49844,203 114.47997,195.575 107.0004,168.41621 99.877169,142.64714 89.767002,106.07248 87.180212,95.487784 88.085367,94.397139 c 1.413707,-1.703413 3.124591,-1.787181 4.682508,-0.229264 1.642233,1.642233 7.764435,3.730512 14.232125,4.854568 7.93775,1.379547 20.08845,-0.359133 43.5,-6.224544 18.41781,-4.614303 20.67243,-4.968336 28.5,-4.475213 10.62796,0.669544 24.40812,4.824071 26.42178,7.965804 C 207.04177,98.816022 225,162.64602 225,165.87654 c 0,2.97781 -4.6843,2.82313 -15.19838,-0.50186 -17.07305,-5.39923 -28.76545,-5.05975 -54.30162,1.57657 -18.26089,4.74563 -23.95019,5.46225 -32.96205,4.15186 -3.82913,-0.55678 -7.11741,-0.85698 -7.30729,-0.6671 -0.18988,0.18987 2.40846,10.31493 5.77409,22.50011 3.36562,12.18519 5.9789,23.36806 5.80728,24.85083 -0.40221,3.47513 -3.23665,4.03723 -5.16471,1.02422 z"
       id="path4914"
       inkscape:connector-curvature="0" />
    <path
       style="fill:#8bb78d"
       d="M 136.5,289.92391 C 114.168,288.35815 90.910075,280.1221 70.602886,266.58855 39.427844,245.81222 18.708266,214.6448 10.381136,176 7.6510033,163.32992 7.8477007,134.03991 10.750489,121 23.352889,64.387468 64.256114,23.555842 121.1195,10.824185 134.83976,7.7522313 162.68169,7.53144 176,10.388973 234.71849,22.987415 277.46131,66.173659 288.44451,124 c 1.85596,9.77161 2.20266,37.19753 0.597,47.22606 -5.63576,35.19938 -24.04312,66.53414 -52.54151,89.44111 -19.81079,15.9239 -49.1474,27.62605 -72.5,28.91969 -4.675,0.25898 -10.525,0.59851 -13,0.75453 -2.475,0.15601 -9,-0.0319 -14.5,-0.41748 z m 35.19289,-29.47875 c 22.95213,-5.23486 40.40644,-14.58453 56.55774,-30.29599 22.60407,-21.98852 34.01993,-49.17453 34.0759,-81.14917 0.0218,-12.47801 -0.34741,-15.96858 -2.64795,-25.03141 C 247.92132,77.651613 214.61417,46.411864 167.5,37.511609 139.95198,32.30756 105.47094,40.725617 82,58.385221 62.751454,72.867883 50.223066,90.217704 42.107326,113.63022 28.843665,151.8936 37.887816,194.47344 66.046269,226.33471 81.738207,244.09013 110.04458,258.52338 136,262.00369 c 8.71403,1.16845 27.29353,0.35717 35.69289,-1.55853 z M 122.14234,218.25 c -0.51041,-0.9625 -5.44969,-18.175 -10.97618,-38.25 -5.52648,-20.075 -13.008841,-47.21569 -16.627462,-60.31264 -3.61862,-13.09695 -6.318615,-24.234445 -5.999987,-24.749996 0.816787,-1.321589 2.53648,-1.164064 4.382548,0.401444 3.064161,2.598477 13.001791,4.871372 21.067511,4.818472 9.95709,-0.0653 16.16627,-1.177451 38.01123,-6.808316 16.03917,-4.134335 18.25129,-4.471541 26.5,-4.039542 10.21852,0.53516 24.90401,4.699105 26.37907,7.47956 0.49924,0.94106 3.92585,12.511018 7.6147,25.711018 3.68884,13.2 7.78681,27.76284 9.10661,32.36187 1.31979,4.59902 2.39962,9.21152 2.39962,10.25 0,2.67691 -4.07089,2.46555 -14.19838,-0.73719 -17.07918,-5.40117 -28.63453,-5.02461 -54.39998,1.77272 -13.69183,3.61212 -17.29132,4.19084 -25.90164,4.16441 -5.5,-0.0169 -11.2375,-0.5328 -12.75,-1.1465 -2.25128,-0.91345 -2.75,-0.85192 -2.75,0.33928 0,0.80031 2.52583,10.57667 5.61295,21.72525 6.92387,25.00428 7.15796,25.97456 6.63961,27.52016 -0.61134,1.82281 -3.03476,1.52801 -4.11022,-0.5 z"
       id="path4912"
       inkscape:connector-curvature="0" />
    <path
       style="fill:#84ba7b"
       d="M 128.5,288.8918 C 95.810342,283.10891 72.23694,271.15093 50.08295,249.11351 15.35681,214.5701 1.6175256,168.06182 11.645353,119 18.962974,83.198047 43.032872,49.379504 75.539305,29.228107 107.68943,9.2975902 148.72415,3.2835412 185.71618,13.080581 228.87702,24.511378 264.96353,56.878283 280.95199,98.5 c 11.8792,30.92436 12.16016,68.98684 0.73905,100.12211 -2.79125,7.60927 -9.55757,20.81654 -14.39469,28.09716 -21.91124,32.9799 -55.8596,55.0893 -94.79635,61.73762 -9.84343,1.68073 -35.52278,1.93456 -44,0.43491 z m 44.05587,-28.41486 c 22.84483,-5.21213 41.16589,-15.23512 57.0147,-31.19133 12.46855,-12.55304 21.21762,-26.3924 26.73243,-42.28561 4.98408,-14.36371 6.11046,-21.39662 6.086,-38 -0.02,-13.57165 -0.36726,-16.86851 -2.79133,-26.5 C 241.36765,50.067102 160.99014,14.524238 95,49.715056 75.720125,59.99651 56.407889,80.338483 47.225465,100.03695 39.595691,116.40462 36.046402,131.91572 36.021621,149 35.938216,206.49807 78.039212,254.34812 135.5,262.06253 c 8.54917,1.14777 28.8904,0.27739 37.05587,-1.58559 z M 122.04703,217.82855 C 121.50711,216.54785 117.18095,201.325 112.43335,184 107.68574,166.675 100.32013,139.9 96.065315,124.5 91.810501,109.1 88.528344,95.9375 88.771634,95.25 c 0.65241,-1.843616 3.014095,-1.518886 4.130965,0.568005 0.701485,1.310736 3.521674,2.30839 10.107281,3.575496 11.7548,2.261679 19.87001,1.312159 47.94037,-5.609306 18.24801,-4.499513 21.26326,-4.984284 28,-4.501652 6.73697,0.482649 23.38899,4.824889 25.2768,6.591268 0.76203,0.713022 2.50333,6.642169 13.23062,45.050589 3.59828,12.88341 6.54233,24.02091 6.54233,24.75 0,2.00565 -4.56215,1.59959 -13.26865,-1.18099 -18.02819,-5.75763 -28.91769,-5.48085 -55.93921,1.4218 -19.05561,4.86775 -23.65179,5.47057 -31.801,4.1709 -4.70581,-0.75051 -7.01116,-1.66107 -8.38184,-3.31067 l -1.8907,-2.27544 0.71495,4 c 0.39323,2.2 3.40496,13.62264 6.69274,25.38364 3.28778,11.761 5.84187,22.30076 5.67575,23.42167 -0.43561,2.93929 -2.60879,3.24211 -3.75501,0.52324 z"
       id="path4910"
       inkscape:connector-curvature="0" />
    <path
       style="fill:#7aab82"
       d="M 126,288.4346 C 95.646196,282.97488 71.5942,270.51248 50.051068,249.0821 22.447828,221.62333 8.5285874,187.97267 8.6531634,149 8.7291868,125.21666 13.698605,104.96106 24.60944,83.961405 44.501889,45.675195 82.170611,18.080196 125,10.418229 c 11.54183,-2.0647766 34.24315,-2.3388493 45.5,-0.5493209 53.5339,8.5104149 97.70041,46.5832259 113.38842,97.7441019 4.45968,14.54366 6.10475,25.92526 6.10839,42.26135 0.007,29.63113 -8.41199,56.15784 -25.68482,80.93219 -20.95418,30.05448 -54.5456,51.09402 -92.05023,57.65443 -10.78991,1.8874 -35.70091,1.8732 -46.26176,-0.0264 z m 46.5,-27.88487 c 34.12478,-7.22842 63.29928,-30.07006 79.29515,-62.08269 7.45091,-14.91154 10.549,-29.25002 10.58023,-48.96704 0.0508,-32.08867 -10.23092,-57.399596 -32.32722,-79.581128 C 207.5723,47.356324 181.01055,36.073683 150.23923,36.018426 126.69884,35.976153 104.27456,42.64326 85.623211,55.229832 77.209344,60.907798 60.305966,78.025115 54.74387,86.5 c -12.314059,18.76275 -18.685374,39.94692 -18.725444,62.26077 -0.05815,32.38015 12.198035,61.09387 35.422857,82.98851 18.397188,17.3435 40.988937,27.81177 66.058717,30.60942 7.07467,0.7895 27.78655,-0.281 35,-1.80897 z m -49.94634,-42.4629 c -0.49661,-0.80354 -9.07296,-31.58251 -28.23857,-101.34314 -4.149095,-15.10223 -5.402659,-21.056121 -4.601875,-21.856905 2.070531,-2.070531 3.9518,3.267847 13.607475,38.613215 5.25873,19.25 12.51311,45.8 16.12086,59 3.60774,13.2 6.55929,24.5625 6.55899,25.25 -6.2e-4,1.44119 -2.60694,1.69588 -3.44688,0.33683 z M 125.5,170.3534 c -1.65,-0.20198 -4.67248,-0.82768 -6.71663,-1.39046 -3.50561,-0.96513 -3.82868,-1.40478 -5.69005,-7.74308 C 108.2984,144.89218 96,100.14121 96,99.021268 c 0,-0.771492 0.65701,-0.977302 1.75,-0.548193 10.16975,3.992655 25.40287,2.697475 54.60217,-4.642491 23.25331,-5.845301 26.98885,-5.943916 42.14783,-1.11267 7.05028,2.246961 9.25202,3.400593 10.16331,5.325217 0.63983,1.351278 5.04109,16.406869 9.78058,33.456869 4.73949,17.05 8.85952,31.78972 9.15563,32.75493 0.94404,3.07721 -2.23152,3.04049 -12.82812,-0.14835 -18.50526,-5.5688 -29.38988,-5.21414 -57.7714,1.88237 -15.97505,3.9944 -22.30979,4.99977 -27.5,4.36445 z"
       id="path4908"
       inkscape:connector-curvature="0" />
    <path
       style="fill:#5fa65e"
       d="M 126,288.03621 C 109.55575,285.01792 102.80325,282.88998 89.012088,276.38007 57.237016,261.38114 31.756468,234.21196 18.656323,201.36173 10.764741,181.57261 7.1556667,158.04228 9.0497473,138.72908 12.245803,106.14014 23.55744,79.310771 43.889852,56.093994 66.26478,30.544947 101.09835,12.56029 134,9.5698998 c 3.575,-0.3249273 9.07912,-0.7998533 12.23137,-1.055391 6.9762,-0.5655265 27.40956,1.8561212 38.12594,4.5184722 49.25163,12.235955 89.95505,53.296325 101.57625,102.467019 6.23824,26.39475 4.98297,55.88197 -3.38163,79.43679 -20.53344,57.82243 -73.64062,95.46099 -133.97682,94.95316 -7.64473,-0.0643 -17.02067,-0.83424 -22.57511,-1.85374 z m 47.5,-27.51427 c 22.37495,-5.20141 40.01717,-14.95364 56.04273,-30.97921 16.1452,-16.1452 25.76155,-33.62031 31.1148,-56.54273 2.51276,-10.75953 2.47287,-36.54154 -0.0735,-47.5 C 254.99696,101.45545 244.80239,83.55468 227.2032,66.886153 210.80748,51.357456 194.35503,42.788652 171.57055,37.911429 161.37457,35.728889 140.50337,35.306751 130.5602,37.08196 115.75325,39.725525 95.414834,48.000504 84.5,55.822219 77.148741,61.09023 62.543425,75.542396 57.034216,83 c -8.964845,12.135364 -16.784279,30.81913 -19.904654,47.5602 -2.848924,15.28471 -0.73943,39.92362 4.823523,56.33881 8.693085,25.6516 29.960507,50.35963 54.17532,62.93971 11.826885,6.14431 27.033435,10.9269 39.871595,12.53997 7.14544,0.89779 30.65892,-0.26644 37.5,-1.85675 z m -50.94634,-42.43511 c -0.49661,-0.80354 -9.07296,-31.58251 -28.23857,-101.34314 -4.149095,-15.10223 -5.402659,-21.056121 -4.601875,-21.856905 2.070531,-2.070531 3.9518,3.267847 13.607475,38.613215 5.25873,19.25 12.51311,45.8 16.12086,59 3.60774,13.2 6.55929,24.5625 6.55899,25.25 -6.2e-4,1.44119 -2.60694,1.69588 -3.44688,0.33683 z M 125.5,170.3534 c -1.65,-0.20198 -4.67248,-0.82768 -6.71663,-1.39046 -3.50561,-0.96513 -3.82868,-1.40478 -5.69005,-7.74308 C 108.2984,144.89218 96,100.14121 96,99.021268 c 0,-0.775152 0.651825,-0.97576 1.75,-0.538586 0.9625,0.383162 4.63922,1.185543 8.17049,1.783068 8.99505,1.52205 21.91081,-0.267629 46.54031,-6.448875 23.14309,-5.808201 26.95072,-5.907738 42.0392,-1.098961 7.05028,2.246961 9.25202,3.400593 10.16331,5.325217 0.63983,1.351278 5.04109,16.406869 9.78058,33.456869 4.73949,17.05 8.85952,31.78972 9.15563,32.75493 0.94404,3.07721 -2.23152,3.04049 -12.82812,-0.14835 -18.50526,-5.5688 -29.38988,-5.21414 -57.7714,1.88237 -15.97505,3.9944 -22.30979,4.99977 -27.5,4.36445 z"
       id="path4906"
       inkscape:connector-curvature="0" />
    <path
       style="fill:#2e902c"
       d="m 128.5,287.8918 c -2.75,-0.48648 -8.15,-1.59241 -12,-2.45761 C 67.158167,274.34565 25.730102,233.48975 13.624009,183.97903 8.3383748,162.36218 8.025703,141.60195 12.645353,119 15.898277,103.08485 23.403783,85.7489 33.858358,70.002955 41.202481,58.941753 59.047361,41.080351 70.085829,33.74194 113.47109,4.8992772 167.18275,1.4257337 213,24.499654 c 34.30859,17.278072 61.9522,51.150339 71.41415,87.505186 5.05186,19.41033 6.06785,43.54305 2.62262,62.29501 -8.12163,44.20515 -35.30065,80.35289 -75.53677,100.46293 -19.96796,9.98 -39.22487,14.30155 -62.94289,14.12538 C 140.2757,288.82664 131.25,288.37828 128.5,287.8918 Z m 44.05587,-26.41486 c 22.59394,-5.15488 41.34427,-15.3485 56.96458,-30.96881 16.86994,-16.86995 27.15188,-35.72031 32.17054,-58.9798 2.56483,-11.88691 2.31614,-35.19181 -0.49786,-46.65529 C 255.35326,101.0829 244.61329,82.310535 227.78576,66.480404 218.34813,57.602152 211.33306,52.651121 200.38795,47.143829 162.23931,27.948423 116.116,31.812845 81.929839,57.068792 73.188009,63.527054 59.586869,77.793005 53.69532,86.683388 31.419316,120.29801 28.893285,163.97396 47.126755,200.2561 c 5.672286,11.28708 10.399575,18.01143 19.353649,27.52966 18.273286,19.42462 42.259016,31.68402 69.019596,35.27677 8.54917,1.14777 28.8904,0.27739 37.05587,-1.58559 z M 123.42783,217.91502 C 122.83814,217.13676 118.66745,203 114.15964,186.5 109.65183,170 102.20588,142.87755 97.613084,126.22788 93.020291,109.57822 89.630899,95.728117 90.081102,95.449876 c 1.413304,-0.873469 2.48241,2.320217 10.394218,31.050124 4.24094,15.4 11.51053,41.7246 16.15465,58.4991 7.89787,28.52704 9.55604,36.55608 6.79786,32.91592 z m -1.81448,-48.91339 c -2.68766,-0.48121 -5.20516,-1.24094 -5.59444,-1.68828 -0.85807,-0.98603 -19.310448,-67.364909 -18.846299,-67.795922 0.180064,-0.167209 3.477389,0.364307 7.327389,1.181152 9.5556,2.02737 21.32036,0.559 46.33187,-5.782726 21.80879,-5.529672 26.93993,-5.915422 38.69487,-2.909016 14.43449,3.691722 14.21163,3.46322 18.52427,18.993162 2.06191,7.425 6.27044,22.5 9.35228,33.5 3.08184,11 5.60185,20.3375 5.60003,20.75 -0.006,1.36994 -3.65959,0.77994 -13.13033,-2.1204 -17.64539,-5.40374 -28.47506,-5.03906 -55.21887,1.85946 -16.55375,4.27 -25.52075,5.35898 -33.04077,4.01257 z"
       id="path4904"
       inkscape:connector-curvature="0" />
    <path
       style="fill:#148611"
       d="M 121.43143,285.55033 C 100.32124,281.22256 83.972501,274.02394 67,261.58329 11.489357,220.8946 -5.783538,145.27739 26.49977,84.281541 46.719164,46.079166 82.201485,20.273076 125.42474,12.333978 137.88708,10.044939 161.46901,10.061837 174,12.368786 c 47.36983,8.720763 87.31819,41.331125 104.64645,85.424234 6.77402,17.23703 9.31114,31.29464 9.3321,51.70698 0.0304,29.65073 -7.01085,52.85657 -23.81908,78.5 -7.27183,11.09426 -25.06166,28.88485 -36.15947,36.16101 -17.62201,11.55368 -33.58026,18.09181 -53.49802,21.91825 -14.48422,2.78259 -38.06381,2.54759 -53.07055,-0.52893 z m 50.21824,-23.01201 c 41.54325,-8.85035 74.30844,-37.95519 87.28987,-77.53832 4.10676,-12.52236 5.39679,-20.96914 5.42175,-35.5 0.0456,-26.55112 -7.57076,-48.9531 -24.11164,-70.919435 C 227.04525,61.045091 206.86973,46.932212 184.5,39.583405 173.40589,35.938815 167.39023,34.920766 153.40651,34.321352 122.57255,32.99965 91.579718,44.910833 68.686839,66.880865 61.212538,74.053865 51.424337,87.599564 46.561273,97.5 29.834201,131.5537 29.823309,167.85471 46.530218,201 c 8.359169,16.58398 18.603498,29.12403 32.086268,39.2767 17.623115,13.27039 37.119014,21.17794 59.383514,24.08598 6.28456,0.82085 26.33604,-0.26627 33.64967,-1.82436 z m -52.05133,-59.73771 c -5.08382,-18.79606 -4.98298,-18.38009 -4.31079,-17.78208 0.85808,0.76339 8.84179,30.09344 8.48383,31.16734 -0.16782,0.50344 -2.04568,-5.51993 -4.17304,-13.38526 z m -5.51939,-20.38394 c 0.048,-1.16495 0.28494,-1.4019 0.60416,-0.60417 0.28887,0.72187 0.25335,1.58437 -0.0789,1.91667 -0.3323,0.33229 -0.56864,-0.25834 -0.52522,-1.3125 z m -1.50752,-4.9881 c -0.36782,-1.46551 -0.47591,-2.85742 -0.24019,-3.09314 0.23571,-0.23571 0.72951,0.77049 1.09733,2.236 0.36782,1.46551 0.47591,2.85742 0.24019,3.09314 -0.23571,0.23571 -0.72951,-0.77049 -1.09733,-2.236 z m -1.49248,-6.0119 c 0.048,-1.16495 0.28494,-1.4019 0.60416,-0.60417 0.28887,0.72187 0.25335,1.58437 -0.0789,1.91667 -0.3323,0.33229 -0.56864,-0.25834 -0.52522,-1.3125 z M 110,168.68801 C 110,168.04309 91.703683,101.28158 90.490576,97.5 89.960358,95.847168 90.029339,95.777029 90.887967,97.095937 92.338255,99.323674 111.19614,168.1372 110.53698,168.79635 110.24164,169.09169 110,169.04294 110,168.68801 Z m 11.79203,-0.56122 c -2.58938,-0.39017 -4.88148,-0.91581 -5.09354,-1.16809 C 116.48643,166.70641 114.61712,160.425 112.54448,153 107.70051,135.64702 98,100.60108 98,100.45379 c 0,-0.0623 3.0375,0.51911 6.75,1.29193 9.1612,1.90706 20.04975,0.49929 45.75,-5.91499 18.3264,-4.573911 20.71128,-4.948552 28.5,-4.477069 5.68049,0.343862 11.14052,1.448593 16.46039,3.330439 l 7.96039,2.8159 3.32373,12 c 1.82805,6.6 6.00837,21.56426 9.28961,33.2539 3.28123,11.68965 5.96588,21.47715 5.96588,21.75 0,1.05896 -3.4506,0.37795 -13.28166,-2.62124 -8.80686,-2.68674 -11.73779,-3.11592 -21.21834,-3.10698 -11.13889,0.0105 -17.09892,1.04831 -38.19335,6.65051 -10.36333,2.75226 -20.54167,3.75128 -27.51462,2.7006 z"
       id="path4902"
       inkscape:connector-curvature="0" />
  </g>
</svg>
