<?xml version="1.0" encoding="UTF-8" standalone="no"?>
<!-- Created with Inkscape (http://www.inkscape.org/) -->

<svg
   xmlns:dc="http://purl.org/dc/elements/1.1/"
   xmlns:cc="http://creativecommons.org/ns#"
   xmlns:rdf="http://www.w3.org/1999/02/22-rdf-syntax-ns#"
   xmlns:svg="http://www.w3.org/2000/svg"
   xmlns="http://www.w3.org/2000/svg"
   xmlns:sodipodi="http://sodipodi.sourceforge.net/DTD/sodipodi-0.dtd"
   xmlns:inkscape="http://www.inkscape.org/namespaces/inkscape"
   version="1.1"
   id="svg270"
   width="300"
   height="300"
   viewBox="0 0 300 300"
   sodipodi:docname="unpin.svg"
   inkscape:version="0.92.2 5c3e80d, 2017-08-06">
  <metadata
     id="metadata276">
    <rdf:RDF>
      <cc:Work
         rdf:about="">
        <dc:format>image/svg+xml</dc:format>
        <dc:type
           rdf:resource="http://purl.org/dc/dcmitype/StillImage" />
        <dc:title></dc:title>
      </cc:Work>
    </rdf:RDF>
  </metadata>
  <defs
     id="defs274" />
  <sodipodi:namedview
     pagecolor="#ffffff"
     bordercolor="#666666"
     borderopacity="1"
     objecttolerance="10"
     gridtolerance="10"
     guidetolerance="10"
     inkscape:pageopacity="0"
     inkscape:pageshadow="2"
     inkscape:window-width="1219"
     inkscape:window-height="671"
     id="namedview272"
     showgrid="false"
     inkscape:zoom="0.78666667"
     inkscape:cx="150"
     inkscape:cy="150"
     inkscape:window-x="47"
     inkscape:window-y="13"
     inkscape:window-maximized="0"
     inkscape:current-layer="svg270" />
  <g
     id="g280"
     transform="translate(1.2711846,1.2711864)">
    <path
       style="fill:#d8a1a1"
       d="M 124.5,289.39308 C 77.318723,280.97447 36.545524,248.18633 18.014713,203.76197 1.9424607,165.23156 3.9809551,120.20793 23.466264,83.35514 54.376364,24.894515 120.53311,-4.5763614 184.5,11.619362 c 54.0851,13.693761 95.80355,59.038391 105.00922,114.136668 2.12383,12.71165 1.65198,41.69954 -0.8595,52.80272 -7.23465,31.98424 -23.50895,59.12934 -47.53651,79.28961 -19.59996,16.44532 -41.14797,26.65674 -65.81336,31.18841 -12.96192,2.38144 -38.44834,2.5602 -50.79985,0.35631 z m 47,-29.82886 c 10.52728,-2.25172 19.01862,-5.2482 29,-10.23371 9.39485,-4.69255 24,-15.0341 24,-16.99381 0,-0.62448 -14.11839,-12.4307 -31.3742,-26.23606 L 161.75159,181 h -6.33764 c -5.21215,0 -7.69236,-0.64303 -13.96611,-3.62093 l -7.62848,-3.62093 -6.45881,6.87093 c -3.55234,3.77901 -8.11605,8.6285 -10.14157,10.77665 -4.69171,4.97575 -8.97924,7.5858 -12.46898,7.59054 -3.05316,0.004 -3.45913,-1.47462 -1.2182,-4.43739 0.80751,-1.06762 1.4682,-2.65066 1.4682,-3.51787 0,-0.8672 4.725,-6.28565 10.5,-12.041 5.775,-5.75535 10.5,-10.85301 10.5,-11.32813 0,-0.47513 -1.575,-4.18287 -3.5,-8.23942 -1.925,-4.05655 -3.5,-8.42508 -3.5,-9.70783 0,-1.33673 -1.38729,-3.63891 -3.25,-5.39331 C 110.24904,139.15022 53.318203,94 52.286216,94 51.035063,94 44.718113,107.59969 42.067389,116 28.098796,160.26733 43.983633,210.69177 80.578236,238.24789 97.522223,251.0069 116.16243,258.5104 138,261.36268 c 6.24443,0.81561 26.31662,-0.26197 33.5,-1.79846 z M 246.6991,205.75 c 5.87992,-11.29595 9.2273,-19.85561 11.86109,-30.33023 2.34721,-9.3349 2.75243,-13.02427 2.79195,-25.41977 0.0653,-20.48738 -3.61684,-35.9798 -12.64257,-53.192722 C 216.7335,35.82587 136.62143,18.124453 81.394613,59.837673 c -8.795591,6.643375 -12.787415,10.543754 -12.251774,11.97111 0.393921,1.049703 60.924641,49.940047 66.592101,53.786087 5.46396,3.70795 11.19345,3.31428 17.07505,-1.1732 5.97735,-4.56053 6.29,-5.18992 5.03475,-10.13523 -0.93367,-3.67837 -0.76337,-4.56914 1.66605,-8.71463 1.48831,-2.53961 3.52765,-5.0572 4.53187,-5.594641 C 165.04688,99.439726 170.12224,99 175.32124,99 c 9.00723,0 9.68035,0.153169 14.28249,3.25 2.65636,1.7875 6.30722,5.19748 8.11301,7.57774 3.12966,4.12528 3.28326,4.73605 3.28326,13.05572 0,7.69721 -0.28997,9.12102 -2.45532,12.05598 -3.55926,4.82431 -7.79631,7.06056 -13.37772,7.06056 -2.63159,0 -5.47669,0.5625 -6.32245,1.25 -2.61535,2.12597 -6.00447,8.60816 -5.66616,10.83739 0.21276,1.40194 11.8319,11.36993 34.32165,29.44435 18.7,15.0287 34.55492,27.35716 35.23315,27.39658 0.67824,0.0394 2.46292,-2.29082 3.96595,-5.17832 z"
       id="path294"
       inkscape:connector-curvature="0" />
    <path
       style="fill:#6f94e7"
       d="M 124,288.01112 C 94.92729,282.50102 70.648891,269.62999 49.509751,248.52063 22.461467,221.51044 8.4104395,187.13476 8.6264191,148.5 8.8405839,110.18985 22.587657,77.437302 49.988632,49.954079 65.179009,34.718106 80.760474,24.51817 99.783817,17.357162 131.36761,5.4679894 169.39558,5.6027143 200,17.712206 218.81572,25.157172 234.23667,35.264858 248.49754,49.5 276.03864,76.991425 290,110.66107 290,149.58864 c 0,22.94033 -4.63431,42.69554 -14.7546,62.89611 -13.75358,27.45281 -35.30784,49.00707 -62.76065,62.76065 -12.54375,6.2843 -21.71651,9.39623 -36.17824,12.27376 -15.6559,3.11514 -37.38748,3.31953 -52.30651,0.49196 z m 48.69641,-27.47128 c 18.52955,-3.97598 40.93874,-15.24315 50.81066,-25.54722 l 2.90643,-3.03366 -2.45675,-2.41489 C 222.60554,228.21589 208.225,216.52562 192,203.56571 l -29.5,-23.56347 -5.40351,-0.001 c -5.1234,-0.001 -10.96862,-1.99693 -19.35931,-6.61029 -3.15342,-1.73381 -1.4707,-3.0595 -16.66537,13.12946 C 111.91546,196.27581 108.29273,199 104.47583,199 c -2.78631,0 -3.11907,-1.56546 -0.94403,-4.44113 0.80751,-1.06762 1.4682,-2.65066 1.4682,-3.51787 0,-0.8672 4.725,-6.28565 10.5,-12.041 12.00455,-11.96369 12.207,-12.55186 7.43983,-21.61438 -1.68309,-3.19961 -2.84211,-6.65128 -2.57561,-7.67039 0.29491,-1.12776 -0.56212,-2.9644 -2.18983,-4.69288 C 112.55388,139.05389 52.902827,92.100058 51.583877,92.606187 49.989646,93.217951 44.193634,105.65047 41.143936,115 c -5.079663,15.57283 -6.537543,37.35842 -3.613652,54 6.094207,34.6857 28.430867,64.91679 59.988268,81.18987 12.026498,6.20166 24.593538,10.04435 39.981448,12.22535 5.86051,0.83063 28.11047,-0.35492 35.19641,-1.87538 z M 245.80366,209.25 c 5.27555,-7.47883 11.74129,-23.58785 14.75047,-36.75 2.45289,-10.7289 2.54878,-34.8278 0.18105,-45.5 -5.19637,-23.42195 -14.88386,-41.313729 -31.16137,-57.551835 -22.1546,-22.10095 -49.07959,-33.377042 -79.82337,-33.429739 -28.59502,-0.04901 -55.953717,10.313786 -75.842476,28.727268 -3.24938,3.008353 -5.885436,6.208762 -5.857903,7.112019 0.05648,1.852872 67.651529,56.157907 71.563839,57.493507 4.39447,1.50021 8.93755,-0.14103 14.20359,-5.1312 4.9236,-4.66568 4.97511,-4.77813 4.47402,-9.76689 -0.43237,-4.3045 -0.1145,-5.62514 2.1609,-8.97814 1.46731,-2.1622 3.20328,-4.27172 3.85771,-4.68782 0.65443,-0.4161 5.36132,-0.76344 10.45975,-0.77186 9.95348,-0.01644 12.82632,1.08122 19.48896,7.44636 5.42919,5.18677 6.24551,7.33982 6.18188,16.3049 -0.0566,7.98129 -0.19055,8.46533 -3,10.84468 -4.11791,3.4875 -8.73222,5.38496 -13.15859,5.41099 -4.35358,0.0256 -6.70659,1.7286 -10.75274,7.78236 -2.3268,3.48131 -2.70037,4.77802 -1.95322,6.77988 C 172.5669,157.23902 240.26701,212 242.55802,212 c 0.71819,0 2.17872,-1.2375 3.24564,-2.75 z"
       id="path292"
       inkscape:connector-curvature="0" />
    <path
       style="fill:#cb625f"
       d="M 124,288.01112 C 94.92729,282.50102 70.648891,269.62999 49.509751,248.52063 22.461467,221.51044 8.4104395,187.13476 8.6264191,148.5 8.8405839,110.18985 22.587657,77.437302 49.988632,49.954079 65.179009,34.718106 80.760474,24.51817 99.783817,17.357162 131.36761,5.4679894 169.39558,5.6027143 200,17.712206 218.81572,25.157172 234.23667,35.264858 248.49754,49.5 276.03864,76.991425 290,110.66107 290,149.58864 c 0,22.94033 -4.63431,42.69554 -14.7546,62.89611 -13.75358,27.45281 -35.30784,49.00707 -62.76065,62.76065 -12.54375,6.2843 -21.71651,9.39623 -36.17824,12.27376 -15.6559,3.11514 -37.38748,3.31953 -52.30651,0.49196 z m 48.69641,-27.47128 c 18.52955,-3.97598 40.93874,-15.24315 50.81066,-25.54722 l 2.90643,-3.03366 -2.45675,-2.41489 C 222.60554,228.21589 208.225,216.52562 192,203.56571 l -29.5,-23.56347 -5.5,-0.0103 c -3.80449,-0.007 -7.04137,-0.76849 -10.5,-2.46985 -2.75,-1.35277 -5.35572,-2.47366 -5.79049,-2.49086 -1.28692,-0.0509 -6.85123,-4.30169 -9.8585,-7.53127 -2.66633,-2.86344 -7.08476,-10.93626 -10.14825,-18.54164 -1.12622,-2.79595 -8.41021,-9.1559 -34.595508,-30.20678 C 66.929289,103.33404 52.364792,92.306522 51.57862,92.608204 49.98885,93.218256 44.189569,105.66294 41.143936,115 c -5.079663,15.57283 -6.537543,37.35842 -3.613652,54 6.094207,34.6857 28.430867,64.91679 59.988268,81.18987 12.026498,6.20166 24.593538,10.04435 39.981448,12.22535 5.86051,0.83063 28.11047,-0.35492 35.19641,-1.87538 z M 245.80366,209.25 c 5.27555,-7.47883 11.74129,-23.58785 14.75047,-36.75 2.45289,-10.7289 2.54878,-34.8278 0.18105,-45.5 -5.19637,-23.42195 -14.88386,-41.313729 -31.16137,-57.551835 -22.1546,-22.10095 -49.07959,-33.377042 -79.82337,-33.429739 -28.59502,-0.04901 -55.953717,10.313786 -75.842476,28.727268 -3.24938,3.008353 -5.885436,6.208762 -5.857903,7.112019 0.05527,1.81319 67.191019,55.783357 71.804039,57.722987 1.56735,0.65902 4.68109,3.04797 6.9194,5.30876 2.23831,2.2608 4.69895,4.11054 5.46808,4.11054 2.54997,0 9.79998,-7.14851 12.34633,-12.17348 2.78272,-5.49144 2.56865,-7.61575 -1.22474,-12.15325 -2.74573,-3.28432 -2.95238,-5.63318 -0.85282,-9.69329 2.09886,-4.05874 4.33062,-4.97998 12.06438,-4.97998 8.49604,0 14.07809,2.63727 20.06292,9.47882 l 4.36235,4.98683 -0.0269,8.51717 c -0.0248,7.85706 -0.24596,8.78133 -2.85329,11.9253 -2.53065,3.05151 -3.49572,3.47006 -9.2231,4 -7.19471,0.66572 -9.20459,1.83459 -13.14671,7.64563 -3.00285,4.42647 -3.42834,7.17738 -1.5,9.69776 2.13481,2.79025 68.9221,55.74849 70.30615,55.74849 0.71921,0 2.18059,-1.2375 3.24751,-2.75 z"
       id="path290"
       inkscape:connector-curvature="0" />
    <path
       style="fill:#b52928"
       d="M 124,286.95495 C 109.58818,284.22875 98.73,280.46034 85.474667,273.58445 55.471843,258.0212 34.054262,235.21071 20.830648,204.73624 8.7278103,176.84466 6.2255519,142.94313 14.080581,113.28382 31.807508,46.34981 97.508804,1.7443019 165.5,10.483103 c 33.70905,4.332571 60.81018,17.58593 83.87338,41.016897 35.67081,36.239612 48.57705,90.11743 33.5365,140 -1.16085,3.85 -4.30896,11.66509 -6.99581,17.36687 -11.07163,23.4952 -27.49209,42.67789 -48.41407,56.55825 -24.55727,16.29214 -49.42947,23.69121 -78.83077,23.45089 -9.91579,-0.0811 -18.45929,-0.74636 -24.66923,-1.92106 z m 48.5,-25.3806 c 9.64897,-2.08095 19.61633,-5.59684 28.5,-10.05309 12.09136,-6.06531 26.26855,-16.88469 25.78767,-19.67998 -0.15822,-0.91971 -14.58371,-13.10087 -32.05666,-27.06924 L 162.96202,179.375 h -6.2593 c -3.83122,0 -7.41209,-0.62041 -9.23102,-1.59933 -1.63443,-0.87963 -5.35337,-2.77836 -8.2643,-4.2194 -2.91092,-1.44103 -6.61573,-4.06821 -8.23289,-5.83817 -3.6246,-3.96706 -10.33671,-17.32302 -9.43722,-18.77844 0.36225,-0.58613 -0.17295,-2.00512 -1.18933,-3.15331 C 116.92874,141.92369 53.716638,91.728953 52.126529,91.613863 48.547233,91.354799 39.302079,114.07166 36.5893,129.79138 c -6.203167,35.94546 4.826469,71.82533 30.264189,98.45069 18.904699,19.78733 41.514371,31.04412 70.646511,35.17315 5.80664,0.823 28.0802,-0.34851 35,-1.84087 z M 248.96441,205.75 c 5.19445,-9.33954 9.49449,-20.45248 12.17996,-31.47763 2.81115,-11.54111 3.11955,-35.94803 0.59732,-47.27237 -5.33097,-23.93505 -14.65832,-41.061426 -31.65508,-58.123369 -22.30424,-22.389765 -49.38982,-33.80516 -80.33617,-33.858205 -23.01658,-0.03945 -45.74743,6.774 -64.074527,19.206006 C 77.241649,59.945734 65.86,70.937963 66.761844,72.491364 c 0.995362,1.714484 66.701016,54.513196 72.009716,57.864426 2.31134,1.45909 4.71101,2.53843 5.3326,2.39854 0.62159,-0.13988 1.26398,0.54239 1.42753,1.51616 0.32766,1.95091 4.30001,5.64379 6.12732,5.69624 0.63745,0.0183 3.68566,-2.35603 6.77378,-5.27628 3.08812,-2.92026 5.87185,-5.05776 6.18606,-4.75 0.31421,0.30775 0.47519,-0.11545 0.35774,-0.94045 -0.38303,-2.69038 0.005,-4.12962 0.95431,-3.54271 0.512,0.31644 1.25653,0.0485 1.65451,-0.59549 0.39798,-0.64395 0.29408,-0.90535 -0.2309,-0.5809 -0.53243,0.32906 -0.95451,-0.8708 -0.95451,-2.71345 0,-2.12989 -0.95914,-4.44324 -2.7,-6.51213 -3.07582,-3.65541 -3.34233,-5.91251 -1.18965,-10.07534 2.09886,-4.05874 4.33062,-4.97998 12.06438,-4.97998 8.49604,0 14.07809,2.63727 20.06292,9.47882 l 4.36235,4.98683 -0.036,8.51717 c -0.0309,7.30449 -0.35121,8.89046 -2.25,11.13882 -3.11914,3.69338 -5.85747,4.87335 -11.3983,4.91163 -5.39926,0.0373 -7.36567,1.31418 -11.50256,7.46919 -5.88083,8.74968 -8.22712,5.94475 31.71704,37.91705 C 225.16887,200.13878 242.06829,213 243.08449,213 c 1.25616,0 3.13847,-2.3209 5.87992,-7.25 z"
       id="path288"
       inkscape:connector-curvature="0" />
    <path
       style="fill:#254096"
       d="m 126.5,286.48107 c -17.18794,-3.34938 -25.48018,-6.05635 -39,-12.73139 C 57.179926,258.77997 33.6645,233.52442 20.642036,201.94427 15.592315,189.69844 13.366525,180.51543 11.429079,163.93408 9.8501442,150.42099 9.8426949,148.35172 11.326018,135.3058 13.749629,113.98999 17.64377,100.95383 26.594531,84.192404 40.026381,59.039573 58.557402,40.32455 83,27.226863 c 17.79586,-9.535999 31.28622,-13.565657 53.30371,-15.922167 14.01306,-1.4998033 15.91014,-1.4910235 28.6024,0.132373 16.3411,2.0901 25.45799,4.400424 38.09389,9.653421 23.99406,9.974815 45.26978,26.947788 59.42809,47.40951 7.99735,11.557845 11.41738,17.819573 15.9926,29.280838 7.44976,18.662172 9.93498,33.418872 9.27183,55.054152 -0.5495,17.92756 -2.12179,27.68508 -6.63317,41.16501 -6.652,19.87608 -18.00884,38.00578 -33.53121,53.52814 -19.7963,19.79631 -44.96258,33.33331 -71.02814,38.20619 -11.04499,2.06483 -40.94445,2.51137 -50,0.74674 z M 175,261.62169 c 12.30628,-3.09475 24.07407,-7.67638 31.95297,-12.44043 C 216.25004,243.5597 228,234.00716 228,232.07035 c 0,-1.52834 -20.24413,-18.03844 -85,-69.32176 -9.625,-7.62251 -19.975,-15.9999 -23,-18.61643 C 116.975,141.51562 100.86221,128.4625 84.193791,115.12523 62.227885,97.549146 53.293725,90.961543 51.729678,91.187815 48.824417,91.608121 44.209372,100.83593 39.69287,115.25548 35.088587,129.95528 34,136.41977 34,149.06218 c 0,22.25571 7.471281,46.46807 20.06709,65.03189 5.722516,8.4339 18.458104,21.53163 27.395407,28.1744 14.331905,10.65238 34.904373,18.92844 54.037503,21.73865 9.8724,1.45002 28.79169,0.30748 39.5,-2.38543 z m -23.5,-82.55212 c -1.65,-0.39913 -3.9,-1.21592 -5,-1.81508 -1.1,-0.59916 -4.38167,-2.26588 -7.2926,-3.70383 -6.71853,-3.31884 -10.27798,-7.23768 -14.69029,-16.17355 -3.96082,-8.02149 -4.11791,-8.65475 -2.03418,-8.20043 C 124.94736,149.714 159,177.19912 159,178.65093 c 0,1.44998 -2.62973,1.59677 -7.5,0.41864 z m 97.56894,28.08136 c 4.7962,-7.94733 9.36465,-19.702 12.68979,-32.65093 2.18716,-8.51739 2.57252,-12.22392 2.59918,-25 0.0285,-13.67636 -0.25035,-16.09059 -3.1604,-27.35898 C 252.659,89.078024 230.81833,61.496655 201.46626,46.709755 180.17948,35.985964 153.06806,31.412316 132.5602,35.085426 116.20198,38.015303 94.851142,46.60333 83.5,54.819092 76.158474,60.132764 66,70.070104 66,71.938145 c 0,1.308605 50.14915,42.395425 79.36267,65.021235 3.22446,2.49734 10.00733,7.95994 15.07304,12.1391 36.23041,29.88976 81.14479,64.95964 82.85937,64.69795 1.15324,-0.17601 3.49869,-2.87554 5.77386,-6.6455 z m -86.9812,-58.78834 C 158.18949,145.25675 155,142.1421 155,141.44114 c 0,-0.70096 -0.39194,-1.42447 -0.87098,-1.60781 -1.17632,-0.45018 9.56677,-10.43473 10.78908,-10.0273 0.53052,0.17684 1.67753,-1.05717 2.54892,-2.74225 1.83842,-3.55511 0.54724,-4.11773 -1.86758,-0.81378 -1.54108,2.10851 -1.54551,2.04248 -0.0704,-1.04998 1.80743,-3.78926 1.26575,-6.42202 -2.16583,-10.52675 -2.74573,-3.28432 -2.95238,-5.63318 -0.85282,-9.69329 2.09886,-4.05874 4.33062,-4.97998 12.06438,-4.97998 8.49604,0 14.07809,2.63727 20.06292,9.47882 l 4.36235,4.98683 -0.036,8.51717 c -0.0309,7.30449 -0.35121,8.89046 -2.25,11.13882 -3.11914,3.69338 -5.85747,4.87335 -11.3983,4.91163 -3.0715,0.0212 -5.54013,0.65595 -6.81574,1.75246 -2.51551,2.16232 -7.5,9.44566 -7.5,10.959 0,2.76047 -2.29611,1.88911 -8.91226,-3.38214 z"
       id="path286"
       inkscape:connector-curvature="0" />
    <path
       style="fill:#c51e12"
       d="m 126.5,286.48107 c -17.18794,-3.34938 -25.48018,-6.05635 -39,-12.73139 C 57.179926,258.77997 33.6645,233.52442 20.642036,201.94427 15.592315,189.69844 13.366525,180.51543 11.429079,163.93408 9.8501442,150.42099 9.8426949,148.35172 11.326018,135.3058 13.749629,113.98999 17.64377,100.95383 26.594531,84.192404 40.026381,59.039573 58.557402,40.32455 83,27.226863 c 17.79586,-9.535999 31.28622,-13.565657 53.30371,-15.922167 14.01306,-1.4998033 15.91014,-1.4910235 28.6024,0.132373 16.3411,2.0901 25.45799,4.400424 38.09389,9.653421 23.99406,9.974815 45.26978,26.947788 59.42809,47.40951 7.99735,11.557845 11.41738,17.819573 15.9926,29.280838 7.44976,18.662172 9.93498,33.418872 9.27183,55.054152 -0.5495,17.92756 -2.12179,27.68508 -6.63317,41.16501 -6.652,19.87608 -18.00884,38.00578 -33.53121,53.52814 -19.7963,19.79631 -44.96258,33.33331 -71.02814,38.20619 -11.04499,2.06483 -40.94445,2.51137 -50,0.74674 z M 175,261.62169 c 12.30628,-3.09475 24.07407,-7.67638 31.95297,-12.44043 C 216.25004,243.5597 228,234.00716 228,232.07035 c 0,-1.52834 -20.24413,-18.03844 -85,-69.32176 -9.625,-7.62251 -19.975,-15.9999 -23,-18.61643 C 116.975,141.51562 100.86221,128.4625 84.193791,115.12523 62.227885,97.549146 53.293725,90.961543 51.729678,91.187815 48.824417,91.608121 44.209372,100.83593 39.69287,115.25548 35.088587,129.95528 34,136.41977 34,149.06218 c 0,22.25571 7.471281,46.46807 20.06709,65.03189 5.722516,8.4339 18.458104,21.53163 27.395407,28.1744 14.331905,10.65238 34.904373,18.92844 54.037503,21.73865 9.8724,1.45002 28.79169,0.30748 39.5,-2.38543 z m -31.13098,-86.94524 c -5.60776,-2.89704 -8.79945,-5.20661 -9.67359,-7 C 133.47792,166.2044 132.45881,165 131.93074,165 c -1.5227,0 -4.92289,-6.24553 -4.927,-9.05 -0.002,-1.4025 -0.56624,-3.15602 -1.25374,-3.8967 -2.78859,-3.00433 2.24081,0.67235 17.5,12.79316 8.6625,6.88087 15.75,12.88032 15.75,13.3321 0,2.19603 -7.42995,0.47635 -15.13098,-3.50211 z m 105.19992,32.47448 c 4.7962,-7.94733 9.36465,-19.702 12.68979,-32.65093 2.18716,-8.51739 2.57252,-12.22392 2.59918,-25 0.0285,-13.67636 -0.25035,-16.09059 -3.1604,-27.35898 C 252.659,89.078024 230.81833,61.496655 201.46626,46.709755 180.17948,35.985964 153.06806,31.412316 132.5602,35.085426 116.20198,38.015303 94.851142,46.60333 83.5,54.819092 76.158474,60.132764 66,70.070104 66,71.938145 c 0,1.308605 50.14915,42.395425 79.36267,65.021235 3.22446,2.49734 10.00733,7.95994 15.07304,12.1391 36.23041,29.88976 81.14479,64.95964 82.85937,64.69795 1.15324,-0.17601 3.49869,-2.87554 5.77386,-6.6455 z M 161.5,147.96186 c -3.3,-2.74304 -6.17088,-5.49425 -6.37973,-6.1138 -0.20885,-0.61955 0.0402,-0.86693 0.5534,-0.54974 0.8427,0.52082 3.56101,-1.6133 11.49819,-9.02709 2.5854,-2.41493 2.77642,-2.44351 5.90363,-0.88345 2.19157,1.09329 5.89925,1.61222 11.51913,1.61222 5.00179,0 8.55976,0.44078 8.97448,1.1118 1.10644,1.79026 -1.67348,2.85646 -7.49052,2.87289 -5.13386,0.0145 -5.65649,0.26065 -9.85349,4.64088 -2.43764,2.54407 -5.06654,6.14407 -5.842,8 -0.77546,1.85594 -1.74139,3.363 -2.14651,3.34904 -0.40512,-0.014 -3.43658,-2.2697 -6.73658,-5.01275 z m 11.25,-24.04612 c -2.6125,-2.23924 -4.75,-4.73521 -4.75,-5.5466 0,-0.81139 -1.125,-3.13083 -2.5,-5.15433 -3.13725,-4.61688 -3.13111,-6.05462 0.0405,-9.47503 2.29085,-2.47057 3.21105,-2.73978 9.36514,-2.73978 5.31048,0 7.3888,0.44374 9.36726,2 1.39842,1.1 2.94992,2 3.44777,2 1.49301,0 6.0751,5.29615 7.23279,8.35993 0.9776,2.5872 0.73488,3.25475 -2.54517,7 -5.71197,6.52209 -7.36308,7.64054 -11.26904,7.63361 -2.80663,-0.005 -4.72593,-0.9379 -8.38922,-4.0778 z"
       id="path284"
       inkscape:connector-curvature="0" />
    <path
       style="fill:#14166a"
       d="m 143.86902,174.67645 c -5.60776,-2.89704 -8.79945,-5.20661 -9.67359,-7 C 133.47792,166.2044 132.45881,165 131.93074,165 c -1.5227,0 -4.92289,-6.24553 -4.927,-9.05 -0.002,-1.4025 -0.56624,-3.15602 -1.25374,-3.8967 -2.78859,-3.00433 2.24081,0.67235 17.5,12.79316 8.6625,6.88087 15.75,12.88032 15.75,13.3321 0,2.19603 -7.42995,0.47635 -15.13098,-3.50211 z M 161.5,147.96186 c -3.3,-2.74304 -6.17088,-5.49425 -6.37973,-6.1138 -0.20885,-0.61955 0.0402,-0.86693 0.5534,-0.54974 0.8427,0.52082 3.56101,-1.6133 11.49819,-9.02709 2.5854,-2.41493 2.77642,-2.44351 5.90363,-0.88345 2.19157,1.09329 5.89925,1.61222 11.51913,1.61222 5.00179,0 8.55976,0.44078 8.97448,1.1118 1.10644,1.79026 -1.67348,2.85646 -7.49052,2.87289 -5.13386,0.0145 -5.65649,0.26065 -9.85349,4.64088 -2.43764,2.54407 -5.06654,6.14407 -5.842,8 -0.77546,1.85594 -1.74139,3.363 -2.14651,3.34904 -0.40512,-0.014 -3.43658,-2.2697 -6.73658,-5.01275 z m 11.25,-24.04612 c -2.6125,-2.23924 -4.75,-4.73521 -4.75,-5.5466 0,-0.81139 -1.125,-3.13083 -2.5,-5.15433 -3.13725,-4.61688 -3.13111,-6.05462 0.0405,-9.47503 2.29085,-2.47057 3.21105,-2.73978 9.36514,-2.73978 5.31048,0 7.3888,0.44374 9.36726,2 1.39842,1.1 2.94992,2 3.44777,2 1.49301,0 6.0751,5.29615 7.23279,8.35993 0.9776,2.5872 0.73488,3.25475 -2.54517,7 -5.71197,6.52209 -7.36308,7.64054 -11.26904,7.63361 -2.80663,-0.005 -4.72593,-0.9379 -8.38922,-4.0778 z"
       id="path282"
       inkscape:connector-curvature="0" />
  </g>
</svg>
