<?xml version="1.0" encoding="UTF-8" standalone="no"?>
<!-- Created with Inkscape (http://www.inkscape.org/) -->

<svg
   xmlns:dc="http://purl.org/dc/elements/1.1/"
   xmlns:cc="http://creativecommons.org/ns#"
   xmlns:rdf="http://www.w3.org/1999/02/22-rdf-syntax-ns#"
   xmlns:svg="http://www.w3.org/2000/svg"
   xmlns="http://www.w3.org/2000/svg"
   xmlns:sodipodi="http://sodipodi.sourceforge.net/DTD/sodipodi-0.dtd"
   xmlns:inkscape="http://www.inkscape.org/namespaces/inkscape"
   version="1.1"
   id="svg995"
   width="300"
   height="300"
   viewBox="0 0 300 300"
   sodipodi:docname="wrong.svg"
   inkscape:version="0.92.2 5c3e80d, 2017-08-06">
  <metadata
     id="metadata1001">
    <rdf:RDF>
      <cc:Work
         rdf:about="">
        <dc:format>image/svg+xml</dc:format>
        <dc:type
           rdf:resource="http://purl.org/dc/dcmitype/StillImage" />
        <dc:title></dc:title>
      </cc:Work>
    </rdf:RDF>
  </metadata>
  <defs
     id="defs999" />
  <sodipodi:namedview
     pagecolor="#ffffff"
     bordercolor="#666666"
     borderopacity="1"
     objecttolerance="10"
     gridtolerance="10"
     guidetolerance="10"
     inkscape:pageopacity="0"
     inkscape:pageshadow="2"
     inkscape:window-width="987"
     inkscape:window-height="602"
     id="namedview997"
     showgrid="false"
     inkscape:zoom="0.78666667"
     inkscape:cx="150"
     inkscape:cy="150"
     inkscape:window-x="236"
     inkscape:window-y="33"
     inkscape:window-maximized="0"
     inkscape:current-layer="svg995" />
  <g
     id="g1005"
     transform="translate(1.2711859,1.2711865)">
    <path
       style="fill:#efd2d0"
       d="M 125.5,290.44533 C 106.67661,286.96371 83.24142,277.51517 69.340845,267.80323 54.095261,257.15157 40.130456,243.04192 30.036973,228.0917 24.935806,220.53597 16.120897,202.20448 13.162732,193 5.6464487,169.61272 4.3361714,142.34896 9.6076126,119.0264 20.763859,69.667574 56.206569,30.109392 103.77418,13.925576 119.65492,8.5225072 130.89168,6.7204512 149,6.672641 c 24.3471,-0.064282 39.87894,3.490684 62.5,14.305163 42.63543,20.382772 72.82853,61.670076 79.55446,108.786096 1.88256,13.18759 0.71339,38.39916 -2.38551,51.44045 -6.71633,28.2648 -20.36958,51.90629 -41.55617,71.95723 -19.58465,18.53487 -41.57912,30.10242 -69.1319,36.35854 -10.52875,2.39065 -41.59675,2.93836 -52.48088,0.92521 z m 52,-32.98359 c 39.01425,-9.99321 69.8565,-41.06113 80.21328,-80.8002 2.3588,-9.05077 2.64946,-12.01983 2.65895,-27.16154 0.009,-14.56491 -0.32198,-18.28609 -2.3116,-25.9785 C 253.49174,105.85699 247.76139,93.950824 237.1692,80.114631 201.25334,33.199032 130.02703,23.931477 82.22183,59.953779 58.766449,77.627939 42.97401,104.20641 39.008308,132.68157 37.444774,143.90831 38.179312,164.4064 40.524768,175 c 3.57327,16.13921 12.238248,33.23185 23.899724,47.14489 16.706415,19.93203 42.560888,34.0314 69.575508,37.94199 10.45943,1.5141 32.54309,0.18139 43.5,-2.62514 z M 99.218396,203.21282 c -6.754882,-6.44205 -12.267382,-12.33358 -12.25,-13.09228 0.01738,-0.7587 7.906604,-9.59424 17.531604,-19.63453 9.625,-10.0403 17.5,-18.70921 17.5,-19.26426 0,-0.55504 -8.2125,-8.8195 -18.25,-18.36546 C 93.7125,123.31033 85.5,114.96574 85.5,114.31276 85.5,112.69126 109.84516,87 111.38171,87 c 0.67585,0 9.47849,7.875 19.56141,17.5 10.08293,9.625 18.64067,17.5 19.0172,17.5 0.37653,0 8.6771,-8.325 18.4457,-18.5 9.76861,-10.175 18.51775,-18.5 19.44255,-18.5 2.01203,0 26.55629,24.32655 26.02275,25.79193 -0.20423,0.56091 -8.13382,9.17318 -17.62132,19.13838 -9.4875,9.9652 -17.25,18.68519 -17.25,19.37776 0,0.69256 8.05834,8.89407 17.90742,18.22557 9.84908,9.3315 17.94908,17.6865 18,18.56667 0.11879,2.05327 -23.75996,27.09133 -25.46061,26.69671 -0.70404,-0.16336 -9.43403,-7.94702 -19.39999,-17.29702 -9.96595,-9.35 -18.45904,-17.11852 -18.87352,-17.26338 -0.41448,-0.14487 -8.59893,8.06763 -18.18766,18.25 -11.68861,12.41223 -18.10167,18.50113 -19.45985,18.4762 -1.18882,-0.0218 -7.10001,-4.8764 -14.307394,-11.75 z"
       id="path1019"
       inkscape:connector-curvature="0" />
    <path
       style="fill:#e4a6a1"
       d="M 130,290.29286 C 112.1935,287.19615 99.467927,283.12674 85.616104,276.09967 71.614354,268.99655 63.061198,262.89816 51.209248,251.56762 14.705614,216.66992 -0.37524273,166.09575 11.089446,117.0245 22.210642,69.423477 57.910468,30.171393 104.22175,14.625208 119.15199,9.6132898 131.17874,7.7111199 148.5,7.6220873 173.59916,7.4930758 192.9848,12.1509 215.0386,23.60944 c 26.67101,13.857516 49.93012,37.971444 62.49244,64.789163 9.57629,20.443217 12.5039,33.057927 13.18346,56.805967 0.66598,23.27306 -1.85055,38.00901 -9.85631,57.71524 -18.38871,45.26397 -58.43161,77.43251 -107.71866,86.53599 -7.84791,1.44953 -36.42887,2.00411 -43.13953,0.83706 z m 42.5,-30.73859 c 21.72687,-4.62343 40.98025,-15.17458 56.85144,-31.15547 15.52031,-15.62759 26.12594,-35.743 30.79013,-58.3988 1.90423,-9.24957 1.6695,-33.56791 -0.41505,-43 C 251.93906,91.763534 231.64521,65.210045 200.30283,49.247078 183.31338,40.594189 168.66236,37.037603 150,37.035885 79.397451,37.029385 27.070855,98.699809 38.500866,168.44514 c 1.89085,11.53786 4.637929,19.76066 10.575944,31.65683 17.106671,34.27137 47.772037,55.5354 88.42319,61.31454 5.69924,0.81023 28.02302,-0.37755 35,-1.86224 z M 100.46523,203.36918 C 93.609354,196.99208 88,191.08857 88,190.25028 c 0,-0.83829 8.103343,-9.96665 18.00743,-20.28524 l 18.00743,-18.76108 -18.91317,-17.85198 C 94.699442,123.53339 86.258599,114.96397 86.344257,114.30881 86.573435,112.55597 109.9448,88 111.38391,88 c 0.67464,0 9.47629,7.875 19.55921,17.5 10.08293,9.625 18.64967,17.5 19.03722,17.5 0.38754,0 8.69119,-8.325 18.45256,-18.5 9.76137,-10.175 18.50179,-18.5 19.42315,-18.5 2.00747,0 25.54745,23.33038 25.01512,24.79238 -0.20415,0.56066 -8.13367,9.17273 -17.62117,19.13793 -9.4875,9.9652 -17.25,18.68585 -17.25,19.37921 0,0.69337 8.1,9.04195 18,18.55241 9.9,9.51045 18,17.859 18,18.55233 0,1.88282 -23.06366,25.72821 -24.55103,25.38318 -0.70522,-0.16359 -9.43619,-7.94744 -19.40215,-17.29744 -9.96595,-9.35 -18.46674,-17.12109 -18.89063,-17.26909 -0.42389,-0.14799 -8.61661,8.05825 -18.20603,18.2361 -9.58943,10.17785 -18.01681,18.72832 -18.72751,19.00105 -0.71115,0.27289 -6.89728,-4.71781 -13.75742,-11.09888 z"
       id="path1017"
       inkscape:connector-curvature="0" />
    <path
       style="fill:#db827c"
       d="M 121.5,288.02308 C 90.060751,281.37095 65.397157,267.07248 43.505906,242.80679 21.467076,218.37751 9.6512604,188.69628 8.3518092,154.5 7.4241392,130.08749 11.427461,110.68942 22.017872,88.281188 40.864667,48.403289 78.396367,19.387664 122.86527,10.316425 c 13.2593,-2.7047741 41.26041,-2.4333154 55.00813,0.53328 12.98864,2.802797 20.11061,5.197788 32.02677,10.770015 40.71556,19.039387 70.65917,58.118757 78.5846,102.56064 1.39049,7.79718 1.63349,13.536 1.24915,29.5 -0.43292,17.9813 -0.75265,20.83993 -3.44714,30.81964 -8.89111,32.93044 -26.74483,59.06481 -54.26667,79.43587 -8.4807,6.27722 -23.49597,14.41535 -33.30863,18.05294 -2.86631,1.06256 -9.71148,3.13576 -15.21148,4.60713 -9.0922,2.43236 -11.95176,2.705 -31.5,3.00332 -18.1926,0.27763 -22.88449,0.0352 -30.5,-1.57618 z m 50,-27.48538 c 22.91311,-4.81415 42.81213,-15.81288 59.11817,-32.67624 18.25912,-18.88321 28.14961,-40.00677 31.49441,-67.26402 C 266.60409,123.99545 249.31481,83.402213 219.46089,60.456156 193.51372,40.512875 163.88981,32.710223 132.1939,37.470877 83.90204,44.724205 45.319259,83.064653 37.51663,131.55349 c -5.03717,31.3031 2.945669,61.89443 22.939526,87.9074 18.11044,23.56255 46.758194,39.22692 78.543844,42.94715 6.26523,0.73329 25.32981,-0.36386 32.5,-1.87034 z M 100.00812,202.07788 87.516235,190.23013 105.86463,171.11381 c 10.24877,-10.6777 18.13129,-19.68206 17.85659,-20.39792 -0.27049,-0.70489 -8.60353,-8.91683 -18.51787,-18.24875 C 95.289018,123.13521 87.249899,114.95495 87.338644,114.28877 87.578045,112.49169 109.93953,89 111.41075,89 c 0.6943,0 9.27131,7.65 19.06001,17 9.7887,9.35 18.52475,17.00689 19.41344,17.01531 0.88869,0.008 9.79129,-8.42908 19.78356,-18.75 L 187.83553,85.5 l 12.10417,12 c 6.6573,6.6 11.9818,12.52176 11.83224,13.15948 -0.14957,0.63771 -8.03444,9.33564 -17.52194,19.32874 -9.4875,9.9931 -17.25,18.71213 -17.25,19.37562 0,0.66349 8.1,8.98763 18,18.49809 9.9,9.51045 18,17.87782 18,18.59415 0,1.65475 -21.80014,24.55153 -23.34719,24.52166 -0.63404,-0.0123 -9.25281,-7.65655 -19.15281,-16.98735 -9.9,-9.3308 -18.69874,-16.97078 -19.55276,-16.97774 -0.85401,-0.007 -9.39241,8.31235 -18.97421,18.48735 -9.5818,10.175 -17.88306,18.48327 -18.44724,18.46282 -0.56419,-0.0204 -6.64714,-5.36867 -13.51767,-11.88494 z"
       id="path1015"
       inkscape:connector-curvature="0" />
    <path
       style="fill:#d4675f"
       d="M 125.5,288.44533 C 96.316862,283.04754 70.477064,269.56893 49.96242,249.04325 28.606736,227.67608 15.227145,201.64345 9.8517217,171 7.9889005,160.38069 8.2561902,136.60969 10.367026,125.17224 15.54974,97.089994 28.415888,71.978507 48.083796,51.558588 64.108374,34.921304 83.548016,22.664352 105.09181,15.614277 121.23183,10.332555 131.43548,8.6831412 148.5,8.5973662 c 16.4238,-0.082554 24.57923,1.0306285 40.33966,5.5061988 44.6059,12.666962 81.3395,48.763356 95.04516,93.396435 5.17692,16.85883 6.39921,26.62408 5.8203,46.5 -0.4402,15.11339 -0.91608,19.08038 -3.48939,29.08824 -10.55141,41.03533 -37.02049,73.85561 -74.71573,92.64362 -10.95599,5.46067 -18.31197,8.08035 -32,11.39613 -11.80509,2.85965 -41.71639,3.58935 -54,1.31734 z m 47,-27.88992 c 22.56858,-4.79888 40.38591,-14.52703 56.95714,-31.09827 16.59085,-16.59084 26.16722,-34.19582 31.25429,-57.45714 2.30413,-10.53595 2.27531,-34.80102 -0.054,-45.5 C 253.0272,91.45361 230.773,62.898338 198.5,46.743346 179.79925,37.382256 153.54445,33.817016 130.55349,37.51663 105.94017,41.477307 85.440472,52.41207 67.400094,71.203349 46.443322,93.03241 36.036851,119.01161 36.036851,149.5 c 0,31.32151 10.95577,57.62283 33.374331,80.12116 18.553709,18.61972 40.340498,29.17412 67.588818,32.74276 6.33986,0.83031 28.36734,-0.29185 35.5,-1.80851 z M 104.19782,205.87565 C 93.495634,195.97075 89,191.26534 89,189.96865 c 0,-0.60983 8.127306,-9.61202 18.06068,-20.00485 l 18.06068,-18.89606 -10.31068,-9.76855 c -5.67087,-5.3727 -14.31561,-13.65031 -19.210532,-18.39468 l -8.899851,-8.62614 10.754719,-11.66013 c 5.915094,-6.413064 11.598874,-12.111896 12.630614,-12.664068 1.57306,-0.841873 3.29158,0.275077 10.64513,6.91879 4.82308,4.357508 11.24424,10.479228 14.26924,13.603828 3.025,3.1246 7.69559,7.53611 10.37908,9.80334 l 4.87908,4.12225 18.12092,-18.7215 c 9.96651,-10.296833 18.77438,-18.712368 19.57305,-18.701195 0.79867,0.01117 6.58314,5.151332 12.85439,11.422575 8.58215,8.58216 11.19094,11.77514 10.54787,12.90988 -0.46992,0.82919 -8.39189,9.41015 -17.60439,19.0688 -9.2125,9.65866 -16.75807,18.13671 -16.76793,18.84013 -0.01,0.70341 8.19129,9.19104 18.22479,18.86139 18.14713,17.49032 18.23435,17.59512 16.64697,20 -2.3779,3.60252 -18.8109,20.8242 -20.9764,21.98314 -1.59294,0.85251 -3.70482,-0.70483 -13.94111,-10.28044 -6.63508,-6.20684 -15.23293,-14.18516 -19.10633,-17.7296 l -7.04255,-6.44444 -6.14372,6.4522 C 120.65682,207.25458 114.8683,213 113.47493,213 c -0.86861,0 -5.0433,-3.20596 -9.27711,-7.12435 z"
       id="path1013"
       inkscape:connector-curvature="0" />
    <path
       style="fill:#ce453b"
       d="M 121.5,287.02308 C 93.326726,281.06198 70.829185,268.88546 50.409989,248.54646 24.0748,222.3147 10.770755,191.84091 9.3518092,154.5 8.8809056,142.10773 9.1410567,137.3253 10.848233,126.99082 20.541384,68.312852 64.133856,23.297083 122.86527,11.316425 c 13.54784,-2.7636325 41.41584,-2.4978028 55.01523,0.524784 28.92479,6.428794 50.26784,18.079668 70.65354,38.56878 20.62626,20.7309 32.66134,43.118293 38.48558,71.590011 1.90374,9.30643 2.09666,12.8303 1.69717,31 -0.4136,18.81101 -0.69575,21.40629 -3.42459,31.5 -10.65046,39.39487 -36.14791,71.39878 -71.24713,89.42802 -11.5131,5.91388 -17.30145,8.12497 -30.54507,11.66792 -9.0922,2.43236 -11.95176,2.705 -31.5,3.00332 -18.1926,0.27763 -22.88449,0.0352 -30.5,-1.57618 z m 50,-25.48538 C 233.33712,248.54545 274.09246,187.71576 261.48179,127.23466 254.51177,93.806275 234.63605,66.705168 204.49122,49.526392 167.40422,28.391454 121.08784,30.627326 84.5,55.318837 76.778395,60.529806 60.529806,76.778395 55.318837,84.5 30.606002,121.11944 28.3732,167.37219 49.526392,204.49122 68.652693,238.05352 100.27381,258.87548 139,263.40804 c 6.26523,0.73329 25.32981,-0.36386 32.5,-1.87034 z M 100.51401,201.56858 88.528017,190.21785 106.76401,171.21864 c 10.02979,-10.44956 18.18845,-19.61108 18.13034,-20.35892 -0.0581,-0.74785 -8.40008,-9.18381 -18.53771,-18.74659 C 96.219004,122.55036 88.054047,114.36418 88.212288,113.92162 88.88314,112.04544 110.26382,90 111.41258,90 c 0.6933,0 9.26948,7.65 19.05818,17 9.7887,9.35 18.52475,17.0098 19.41344,17.02179 0.88869,0.012 9.7927,-8.42552 19.78669,-18.75 L 187.84178,86.5 199.44306,98 c 6.38071,6.325 11.47881,12.02176 11.32911,12.65948 -0.14969,0.63771 -8.03467,9.33564 -17.52217,19.32874 -9.4875,9.9931 -17.25,18.72305 -17.25,19.3999 0,0.67685 8.1,9.00252 18,18.50149 9.9,9.49897 18,17.84937 18,18.55644 0,1.6479 -20.80746,23.56128 -22.34409,23.53169 -0.63575,-0.0123 -9.25591,-7.65655 -19.15591,-16.98735 -9.9,-9.3308 -18.70886,-16.97078 -19.57524,-16.97774 -0.86639,-0.007 -9.41639,8.31148 -19,18.48542 -9.58362,10.17394 -17.87476,18.48078 -18.42476,18.45965 -0.55,-0.0211 -6.3937,-5.14624 -12.98599,-11.38914 z"
       id="path1011"
       inkscape:connector-curvature="0" />
    <path
       style="fill:#c7271b"
       d="M 132,288.31939 C 108.00738,284.40148 89.19954,277.28621 71.099829,265.27999 60.554464,258.28485 41.380099,239.35868 34.300372,228.95688 15.924549,201.95842 6.7596384,167.54191 9.9351303,137.45934 11.906909,118.77998 15.860051,104.53488 23.477109,88.660986 52.364938,28.458966 120.14695,-2.8877034 184.71618,14.093885 c 15.15598,3.985995 31.13586,11.288266 44.28351,20.236083 10.37853,7.063253 29.31252,26.253988 36.17945,36.670032 17.29903,26.239907 24.57356,51.9347 23.57989,83.28784 -1.15411,36.4154 -14.79034,67.81258 -40.72005,93.7572 -20.98108,20.99313 -46.8828,34.35745 -76.41997,39.42984 -8.17028,1.40307 -32.96228,1.93154 -39.61901,0.84451 z m 41.69641,-26.78891 c 33.51475,-7.14784 62.74766,-30.05341 78.24019,-61.30541 8.9796,-18.11392 11.47208,-29.13324 11.47357,-50.72507 0.001,-16.97499 -1.14356,-24.56449 -5.73158,-38 C 250.08343,89.25841 233.38409,67.587144 214,54.816914 192.63157,40.739398 174.33422,35.057852 150.23923,35.018426 117.71982,34.965215 91.046488,45.868146 68.36059,68.486952 46.087268,90.694401 35.036851,117.55897 35.036851,149.5 c 0,19.59977 3.325286,34.1868 11.512071,50.5 17.881799,35.63173 49.036809,57.59645 89.951078,63.41679 5.93623,0.84446 30.14984,-0.38346 37.19641,-1.88631 z M 101.01709,201.08522 89.534177,190.24403 105.65279,173.37202 c 8.86523,-9.27961 17.07004,-17.72926 18.23291,-18.77701 1.16286,-1.04774 2.06676,-2.62274 2.00865,-3.5 -0.0581,-0.87725 -8.40008,-9.4191 -18.53771,-18.98188 C 97.219004,122.55036 89.054047,114.35497 89.212288,113.90116 89.876251,111.99702 110.2537,91 111.43769,91 c 0.71165,0 9.30285,7.65 19.09155,17 9.7887,9.35 18.51159,17.0098 19.3842,17.02179 0.87261,0.012 9.76329,-8.42552 19.75708,-18.75 L 187.84103,87.5 198.92052,98.482946 c 6.09371,6.040624 11.06523,11.440624 11.04782,12.000004 -0.0174,0.55938 -7.89241,9.28286 -17.5,19.38551 -9.60759,10.10266 -17.47201,18.87766 -17.47649,19.5 -0.004,0.62235 8.3781,9.23154 18.62796,19.13154 l 18.6361,18 -10.72205,11.25 c -5.89712,6.1875 -11.2422,11.24431 -11.87795,11.23735 -0.63575,-0.007 -9.25591,-7.64694 -19.15591,-16.97774 -9.9,-9.3308 -18.70886,-16.9751 -19.57524,-16.98735 -0.86639,-0.0122 -9.41639,8.30187 -19,18.47581 -9.58362,10.17394 -17.87476,18.48238 -18.42476,18.4632 -0.55,-0.0192 -6.16731,-4.9134 -12.48291,-10.87605 z"
       id="path1009"
       inkscape:connector-curvature="0" />
    <path
       style="fill:#c51d11"
       d="M 125.5,286.44484 C 109.28144,283.27706 99.612541,279.98822 85.5,272.83897 60.343454,260.09495 35.847342,234.83454 24.077472,209.5 19.337242,199.2967 19.180617,198.92168 17.604027,194 5.0788861,154.89998 8.7717324,115.33256 28.106127,81.474063 35.302939,68.870968 41.45828,60.857809 51.668339,50.800256 61.564911,41.051506 66.44386,37.155037 76.333695,31.10179 112.51798,8.9545665 152.31728,4.3937878 194,17.617887 c 4.93669,1.566195 5.08629,1.629146 16.21672,6.823802 C 235.08976,36.050134 260.18243,60.516135 272.83897,85.5 283.89178,107.31813 288,124.67036 288,149.53696 c 0,11.26724 -0.52872,17.9985 -2.00008,25.46347 -11.33776,57.52215 -54.46213,100.12255 -112.77023,111.4 -10.32047,1.9961 -37.60735,2.02149 -47.72969,0.0444 z m 47,-23.88943 c 45.65368,-9.70758 80.09041,-44.27562 90.21143,-90.55541 2.30463,-10.53821 2.27538,-34.80197 -0.0548,-45.5 -2.04037,-9.3673 -5.93904,-20.94412 -9.42942,-28 C 239.8262,71.409656 214.00571,48.96231 185.5,39.620601 151.69017,28.540659 113.5678,34.010803 83.612047,54.240407 74.793984,60.195388 59.092387,76.265527 53.042815,85.52715 30.126563,120.6109 27.660765,165.17369 46.598007,202 64.372093,236.56438 97.09385,259.13752 137,264.36392 c 6.33986,0.83031 28.36734,-0.29185 35.5,-1.80851 z m -71,-62.03673 -11,-10.40087 8.497026,-8.8089 c 4.673364,-4.8449 12.930434,-13.36131 18.349044,-18.92537 5.41861,-5.56405 9.69495,-10.73905 9.50297,-11.5 -0.19197,-0.76094 -8.5779,-9.20946 -18.63539,-18.77448 C 98.156153,122.54404 90.056153,114.35508 90.213647,113.91137 90.891387,112.00197 110.26711,92 111.43899,92 c 0.71093,0 9.30155,7.65 19.09025,17 9.7887,9.35 18.51159,17.01241 19.3842,17.02757 0.87261,0.0152 9.76515,-8.42233 19.76121,-18.75 L 187.84929,88.5 198.42465,98.982133 c 5.81644,5.765177 10.5611,10.940177 10.54369,11.499997 -0.0174,0.55983 -7.89241,9.28368 -17.5,19.38633 C 181.86075,139.97112 174,148.78271 174,149.44977 c 0,0.66706 8.1,8.97743 18,18.46747 9.9,9.49005 18,17.84677 18,18.5705 0,1.65824 -18.79821,21.51672 -20.35171,21.49961 -0.63156,-0.007 -9.24829,-7.64694 -19.14829,-16.97774 -9.9,-9.3308 -18.71697,-16.9751 -19.59327,-16.98735 -0.87629,-0.0122 -9.42629,8.29638 -19,18.4636 -9.5737,10.16722 -17.85673,18.47412 -18.40673,18.45977 -0.55,-0.0143 -5.95,-4.70647 -12,-10.42695 z"
       id="path1007"
       inkscape:connector-curvature="0" />
  </g>
</svg>
