<?xml version="1.0" encoding="UTF-8" standalone="no"?>
<svg width="60px" height="60px" viewBox="0 0 60 60" version="1.1" xmlns="http://www.w3.org/2000/svg" xmlns:xlink="http://www.w3.org/1999/xlink" xmlns:sketch="http://www.bohemiancoding.com/sketch/ns">
    <!-- Generator: Sketch 3.3.3 (12072) - http://www.bohemiancoding.com/sketch -->
    <title>youtube</title>
    <desc>Created with Sketch.</desc>
    <defs></defs>
    <g id="soical" stroke="none" stroke-width="1" fill="none" fill-rule="evenodd" sketch:type="MSPage">
        <g id="social" sketch:type="MSArtboardGroup" transform="translate(-673.000000, -238.000000)">
            <g id="slices" sketch:type="MSLayerGroup" transform="translate(173.000000, 138.000000)"></g>
            <g id="square-black" sketch:type="MSLayerGroup" transform="translate(173.000000, 138.000000)" fill="#000000">
                <path d="M502.995937,100 L557.004063,100 C558.658673,100 560,101.33731 560,102.995937 L560,157.004063 C560,158.658673 558.66269,160 557.004063,160 L502.995937,160 C501.341327,160 500,158.66269 500,157.004063 L500,102.995937 C500,101.341327 501.33731,100 502.995937,100 Z" id="square-16" sketch:type="MSShapeGroup"></path>
            </g>
            <g id="icon" sketch:type="MSLayerGroup" transform="translate(182.000000, 150.000000)" fill="#FFFFFF">
                <path d="M540.215816,110.068738 C540.215816,110.068738 539.840853,107.426104 538.690826,106.262015 C537.233159,104.734895 535.598237,104.727651 534.848738,104.638172 C529.482511,104.25 521.432746,104.25 521.432746,104.25 L521.415702,104.25 C521.415702,104.25 513.366363,104.25 507.999711,104.638172 C507.250212,104.727651 505.616142,104.734895 504.157622,106.262015 C503.007595,107.426104 502.633484,110.068738 502.633484,110.068738 C502.633484,110.068738 502.25,113.17198 502.25,116.275221 L502.25,119.185016 C502.25,122.287832 502.633484,125.391073 502.633484,125.391073 C502.633484,125.391073 503.007595,128.033708 504.157622,129.197796 C505.616142,130.725343 507.532286,130.676342 508.385752,130.836553 C511.454054,131.130984 521.424224,131.222168 521.424224,131.222168 C521.424224,131.222168 529.482511,131.209811 534.848738,130.822066 C535.598237,130.732586 537.233159,130.725343 538.690826,129.197796 C539.840853,128.033708 540.215816,125.391073 540.215816,125.391073 C540.215816,125.391073 540.598448,122.287832 540.598448,119.185016 L540.598448,116.275221 C540.598448,113.17198 540.215816,110.068738 540.215816,110.068738 Z M517.465386,122.710091 L517.463682,111.935455 L527.825432,117.341308 L517.465386,122.710091 Z" id="youtube" sketch:type="MSShapeGroup"></path>
            </g>
        </g>
    </g>
</svg>