<?xml version="1.0" encoding="UTF-8" standalone="no"?>
<svg width="22px" height="22px" viewBox="0 0 22 22" version="1.1" xmlns="http://www.w3.org/2000/svg" xmlns:xlink="http://www.w3.org/1999/xlink" xmlns:sketch="http://www.bohemiancoding.com/sketch/ns">
    <!-- Generator: Sketch 3.0.1 (7597) - http://www.bohemiancoding.com/sketch -->
    <title>editor_zoom-in_glyph</title>
    <description>Created with Sketch.</description>
    <defs>
        <path d="M8,8 L8,5 L9,5 L9,8 L12,8 L12,9 L9,9 L9,12 L8,12 L8,9 L5,9 L5,8 L8,8 Z M15.4772765,13.3559561 C16.4371199,11.979383 17,10.3054254 17,8.5 C17,3.8055794 13.1944206,0 8.5,0 C3.8055794,0 0,3.8055794 0,8.5 C0,13.1944206 3.8055794,17 8.5,17 C10.3051477,17 11.9788682,16.437293 13.3553211,15.4777192 L13.3558919,15.4772122 L19.6594326,21.7807529 C19.7763088,21.8976291 19.9622061,21.9012255 20.0822113,21.7812202 L21.7812202,20.0822113 C21.8978383,19.9655932 21.8924171,19.7710968 21.7807529,19.6594326 L15.4772765,13.3559561 L15.4772765,13.3559561 Z M8.5,15 C12.0898511,15 15,12.0898511 15,8.5 C15,4.91014895 12.0898511,2 8.5,2 C4.91014895,2 2,4.91014895 2,8.5 C2,12.0898511 4.91014895,15 8.5,15 Z" id="path-1"></path>
    </defs>
    <g id="miu" stroke="none" stroke-width="1" fill="none" fill-rule="evenodd" sketch:type="MSPage">
        <g id="editor_zoom-in_glyph">
            <use fill="#000000" fill-rule="evenodd" sketch:type="MSShapeGroup" xlink:href="#path-1"></use>
            <use fill="none" xlink:href="#path-1"></use>
        </g>
    </g>
</svg>